<?xml version="1.0" ?>
<svg width="179.474" height="400.0">
<title>transforms graphed</title>
<g>
<path id="equalised real" style="fill:none;stroke:#227722;stroke-width:2.0;" d="M0.0 70.0 2.8042812 39.302906 5.6085625 53.462524 8.412844 29.123959 11.217125 40.41257 14.021406 46.66665 16.825687 35.43963 19.629969 32.384598 22.43425 45.13932 25.238531 43.946686 28.042812 25.766958 30.847094 39.618732 33.651375 45.471657 36.455658 30.971146 39.259937 32.97963 42.064217 46.33647 44.8685 37.72116 47.672783 27.586163 50.477062 41.70053 53.28134 43.705418 56.085625 30.499172 58.889908 38.40463 61.694187 48.252197 64.49847 36.707153 67.30275 35.641457 70.10703 48.957123 72.911316 43.926228 75.71559 32.79748 78.519875 45.795433 81.32416 48.20349 84.12843 33.841877 86.93272 39.01603 89.737 50.442066 92.54128 39.01603 95.345566 33.841877 98.14984 48.20349 100.954124 45.79543 103.75841 32.797478 106.56268 43.92623 109.36697 48.957123 112.17125 35.641457 114.97553 36.707153 117.779816 48.252197 120.58409 38.40462 123.388374 30.499172 126.19266 43.70542 128.99693 41.700527 131.80122 27.586163 134.6055 37.72116 137.40977 46.33647 140.21407 32.97963 143.01834 30.97115 145.82263 45.471657 148.6269 39.61873 151.43118 25.766958 154.23547 43.94669 157.03975 45.13932 159.84402 32.384598 162.64832 35.439632 165.45259 46.66665 168.25687 40.412567 171.06116 29.123959 173.86543 53.462524 176.66972 39.30291" />
<text x="0.0" y="70.0" font-family="Verdana" font-size="11.5">equalised real</text>
<path id="equalised real axis" style="fill:none;stroke:#000000;stroke-width:1;" d="M0.0 40.0 179.474 40.0" />
<path id="equalised im" style="fill:none;stroke:#772222;stroke-width:2.0;" d="M0.0 100.0 2.8042812 78.45054 5.6085625 76.91382 8.412844 81.273315 11.217125 102.593414 14.021406 96.31966 16.825687 70.00001 19.629969 110.46622 22.43425 104.81257 25.238531 74.33673 28.042812 93.10002 30.847094 115.964264 33.651375 91.33008 36.455658 83.02129 39.259937 117.34446 42.064217 105.89484 44.8685 78.56603 47.672783 108.959816 50.477062 118.01422 53.28134 93.90798 56.085625 97.3565 58.889908 125.27698 61.694187 103.28182 64.49847 90.32763 67.30275 118.193054 70.10703 112.794266 72.911316 84.17076 75.71559 105.57923 78.519875 116.45707 81.32416 89.85129 84.12843 88.66201 86.93272 119.53874 89.737 100.0 92.54128 80.461266 95.345566 111.338 98.14984 110.14871 100.954124 83.54293 103.75841 94.42078 106.56268 115.82924 109.36697 87.20572 112.17125 81.80695 114.97553 109.67237 117.779816 96.71817 120.58409 74.72303 123.388374 102.6435 126.19266 106.09201 128.99693 81.98577 131.80122 91.040184 134.6055 121.43397 137.40977 94.10516 140.21407 82.65555 143.01834 116.97871 145.82263 108.66992 148.6269 84.03573 151.43118 106.89999 154.23547 125.66327 157.03975 95.18743 159.84402 89.53379 162.64832 130.0 165.45259 103.680336 168.25687 97.406586 171.06116 118.726685 173.86543 123.08618 176.66972 121.54947" />
<text x="0.0" y="100.0" font-family="Verdana" font-size="11.5">equalised im</text>
<path id="equalised im axis" style="fill:none;stroke:#000000;stroke-width:1;" d="M0.0 100.0 179.474 100.0" />
<path id="equalised magnitude" style="fill:none;stroke:#227722;stroke-width:2.0;" d="M0.0 185.95277 2.8042812 177.68909 5.6085625 190.0 8.412844 184.2755 11.217125 162.24063 14.021406 171.92181 16.825687 185.80438 19.629969 175.71864 22.43425 169.72629 25.238531 182.09839 28.042812 185.2658 30.847094 173.09055 33.651375 171.83371 36.455658 180.9135 39.259937 178.68953 42.064217 171.9791 44.8685 177.99069 47.672783 182.69704 50.477062 175.04327 53.28134 168.12357 56.085625 176.58014 58.889908 180.88377 61.694187 174.52858 64.49847 169.75723 67.30275 176.69891 70.10703 178.70715 72.911316 174.63539 75.71559 173.27292 78.519875 176.79843 81.32416 176.44794 84.12843 174.13287 86.93272 176.09155 89.737 178.0667 92.54128 176.09154 95.345566 174.13287 98.14984 176.44794 100.954124 176.79843 103.75841 173.27292 106.56268 174.63539 109.36697 178.70715 112.17125 176.69891 114.97553 169.75723 117.779816 174.52858 120.58409 180.88377 123.388374 176.58014 126.19266 168.12357 128.99693 175.04327 131.80122 182.69704 134.6055 177.99069 137.40977 171.9791 140.21407 178.68953 143.01834 180.9135 145.82263 171.83371 148.6269 173.09056 151.43118 185.2658 154.23547 182.09839 157.03975 169.72629 159.84402 175.71864 162.64832 185.80438 165.45259 171.92181 168.25687 162.24062 171.06116 184.2755 173.86543 190.0 176.66972 177.68909" />
<text x="0.0" y="185.95277" font-family="Verdana" font-size="11.5">equalised magnitude</text>
<path id="equalised magnitude axis" style="fill:none;stroke:#000000;stroke-width:1;" d="M0.0 160.0 179.474 160.0" />
<path id="equalised phase" style="fill:none;stroke:#772222;stroke-width:2.0;" d="M0.0 220.0 2.8042812 236.33237 5.6085625 226.79417 8.412844 244.49083 11.217125 207.57846 14.021406 222.54684 16.825687 238.74893 19.629969 194.4422 22.43425 215.8426 25.238531 232.52206 28.042812 249.0572 30.847094 203.84523 33.651375 226.41225 36.455658 244.05739 39.259937 197.29793 42.064217 215.86674 44.8685 237.85411 47.672783 191.97554 50.477062 206.30916 53.28134 226.58965 56.085625 250.0 58.889908 203.02666 61.694187 218.14597 64.49847 241.86559 67.30275 199.67868 70.10703 214.07597 72.911316 230.84267 75.71559 192.19707 78.519875 210.72142 81.32416 225.27866 84.12843 244.16191 86.93272 203.29138 89.737 220.0 92.54128 236.70862 95.345566 195.8381 98.14984 214.72134 100.954124 229.27858 103.75841 247.80293 106.56268 209.15733 109.36697 225.92404 112.17125 240.32132 114.97553 198.13441 117.779816 221.85405 120.58409 236.97334 123.388374 190.0 126.19266 213.41037 128.99693 233.69084 131.80122 248.02446 134.6055 202.14589 137.40977 224.13326 140.21407 242.70207 143.01834 195.94261 145.82263 213.58775 148.6269 236.15477 151.43118 190.9428 154.23547 207.47794 157.03975 224.1574 159.84402 245.5578 162.64832 201.25108 165.45259 217.45316 168.25687 232.42155 171.06116 195.50917 173.86543 213.20583 176.66972 203.66763" />
<text x="0.0" y="220.0" font-family="Verdana" font-size="11.5">equalised phase</text>
<path id="equalised phase axis" style="fill:none;stroke:#000000;stroke-width:1;" d="M0.0 220.0 179.474 220.0" />
<path id="equalised theta" style="fill:none;stroke:#222277;stroke-width:2.0;" d="M0.0 280.0 2.8042812 280.0 5.6085625 293.5024 8.412844 285.29587 11.217125 282.31494 14.021406 281.53244 16.825687 283.51993 19.629969 285.09036 22.43425 281.42526 25.238531 283.53732 28.042812 283.7604 30.847094 280.00003 33.651375 282.60623 36.455658 282.0156 39.259937 279.99997 42.064217 281.76813 44.8685 281.14825 47.672783 282.57202 50.477062 280.68277 53.28134 281.33942 56.085625 282.39764 58.889908 280.92194 61.694187 282.22705 64.49847 280.70554 67.30275 281.74844 70.10703 281.65192 72.911316 279.99994 75.71559 280.00003 78.519875 281.57962 81.32416 282.55786 84.12843 283.0945 86.93272 282.23505 89.737 283.29663 92.54128 286.4355 95.345566 280.55807 98.14984 280.63773 100.954124 285.65128 103.75841 280.0 106.56268 281.07733 109.36697 250.0 112.17125 280.26288 114.97553 282.43726 117.779816 280.85855 120.58409 279.99997 123.388374 280.64993 126.19266 283.36948 128.99693 281.33807 131.80122 282.5592 134.6055 282.10574 137.40977 281.50668 140.21407 281.94434 143.01834 281.59637 145.82263 282.0066 148.6269 281.77597 151.43118 281.1788 154.23547 282.18323 157.03975 280.96262 159.84402 283.00635 162.64832 280.9941 165.45259 283.30222 168.25687 281.68036 171.06116 283.1292 173.86543 281.45374 176.66972 281.5767 179.474 281.9209 182.27827 282.53592 185.08257 281.94064 187.88684 282.106 190.69113 281.06198 193.4954 281.56335 196.29968 281.67606 199.10397 282.0238 201.90825 285.38782 204.71252 282.66138 207.51682 283.47284 210.32109 281.2224 213.12537 283.13608 215.92966 279.99985 218.73393 279.99988" />
<text x="0.0" y="280.0" font-family="Verdana" font-size="11.5">equalised theta</text>
<path id="equalised theta axis" style="fill:none;stroke:#000000;stroke-width:1;" d="M0.0 280.0 221.53822 280.0" />
<path id="rawish theta" style="fill:none;stroke:#772277;stroke-width:2.0;" d="M0.0 340.0 2.8042812 340.0 5.6085625 351.70078 8.412844 346.02023 11.217125 342.789 14.021406 345.7235 16.825687 343.79202 19.629969 343.52887 22.43425 343.87897 25.238531 341.92926 28.042812 342.677 30.847094 341.69717 33.651375 342.78604 36.455658 342.46118 39.259937 342.85376 42.064217 343.4725 44.8685 343.66376 47.672783 343.5759 50.477062 345.86945 53.28134 345.2782 56.085625 343.70596 58.889908 310.0 61.694187 342.24072 64.49847 342.76605 67.30275 343.37335 70.10703 343.27087 72.911316 343.0318 75.71559 342.9716 78.519875 343.1746 81.32416 342.82178 84.12843 343.33093 86.93272 343.60583 89.737 344.03647 92.54128 342.54333 95.345566 343.7405 98.14984 343.39618 100.954124 342.20334 103.75841 343.1052 106.56268 345.104 109.36697 344.56607 112.17125 343.65787" />
<text x="0.0" y="340.0" font-family="Verdana" font-size="11.5">rawish theta</text>
<path id="rawish theta axis" style="fill:none;stroke:#000000;stroke-width:1;" d="M0.0 340.0 114.97553 340.0" />
<path id="straightened theta" style="fill:none;stroke:#227777;stroke-width:2.0;" d="M0.0 400.0 2.8042812 400.0 5.6085625 411.70078 8.412844 406.02023 11.217125 402.789 14.021406 405.7235 16.825687 403.79202 19.629969 403.52887 22.43425 404.57465 25.238531 404.70062 28.042812 403.69315 30.847094 402.46118 33.651375 402.85376 36.455658 403.4725 39.259937 403.66376 42.064217 403.5759 44.8685 405.86945 47.672783 405.2782 50.477062 403.70596 53.28134 370.0 56.085625 402.24072 58.889908 402.76605 61.694187 403.37335 64.49847 403.27087 67.30275 403.0318 70.10703 402.9716 72.911316 403.1746 75.71559 402.82178 78.519875 403.33093 81.32416 403.60583 84.12843 404.03647 86.93272 402.54333 89.737 403.7405 92.54128 404.46597 95.345566 404.23874 98.14984 405.104 100.954124 404.56607 103.75841 403.65787" />
<text x="0.0" y="400.0" font-family="Verdana" font-size="11.5">straightened theta</text>
<path id="straightened theta axis" style="fill:none;stroke:#000000;stroke-width:1;" d="M0.0 400.0 106.56268 400.0" />
<path id="straightened real" style="fill:none;stroke:#227722;stroke-width:2.0;" d="M0.0 467.85153 2.8042812 489.6351 5.6085625 470.43094 8.412844 461.32852 11.217125 463.93176 14.021406 456.6775 16.825687 461.04565 19.629969 457.23715 22.43425 464.34973 25.238531 464.16507 28.042812 457.91733 30.847094 460.8599 33.651375 462.76254 36.455658 458.82452 39.259937 454.58893 42.064217 454.58215 44.8685 465.2002 47.672783 456.80975 50.477062 464.5181 53.28134 459.10825 56.085625 457.24844 58.889908 456.72745 61.694187 462.2373 64.49847 459.21872 67.30275 459.1258 70.10703 463.39746 72.911316 460.27176 75.71559 457.2699 78.519875 467.56537 81.32416 461.47366 84.12843 458.34338 86.93272 459.41904 89.737 462.73288 92.54128 460.06592 95.345566 458.43323 98.14984 462.82034 100.954124 455.46817 103.75841 458.96005 106.56268 461.78336 109.36697 461.29105 112.17125 458.5928 114.97553 459.05768 117.779816 462.08218 120.58409 462.43747 123.388374 457.77847 126.19266 462.8313 128.99693 456.372 131.80122 456.6924 134.6055 453.607 137.40977 468.7346 140.21407 461.73636 143.01834 456.44943 145.82263 460.10153 148.6269 458.94052 151.43118 454.6326 154.23547 457.90076 157.03975 458.3404 159.84402 458.77667 162.64832 456.5673 165.45259 466.81207 168.25687 456.2842 171.06116 452.97855 173.86543 456.61584 176.66972 430.0" />
<text x="0.0" y="467.85153" font-family="Verdana" font-size="11.5">straightened real</text>
<path id="straightened real axis" style="fill:none;stroke:#000000;stroke-width:1;" d="M0.0 460.0 179.474 460.0" />
<path id="straightened im" style="fill:none;stroke:#772222;stroke-width:2.0;" d="M0.0 550.0 2.8042812 513.68195 5.6085625 520.7813 8.412844 513.1934 11.217125 519.5854 14.021406 518.02466 16.825687 518.64026 19.629969 521.94934 22.43425 520.1479 25.238531 518.56494 28.042812 518.5344 30.847094 519.3619 33.651375 520.33136 36.455658 515.03217 39.259937 520.4514 42.064217 521.3957 44.8685 521.405 47.672783 520.0912 50.477062 519.68646 53.28134 519.4805 56.085625 517.5157 58.889908 523.2228 61.694187 519.8474 64.49847 520.1497 67.30275 521.4981 70.10703 520.52234 72.911316 518.7932 75.71559 522.12317 78.519875 520.62585 81.32416 518.21436 84.12843 517.5596 86.93272 522.67004 89.737 517.7089 92.54128 520.13544 95.345566 519.03033 98.14984 519.5308 100.954124 518.491 103.75841 521.3994 106.56268 520.8466 109.36697 518.8626 112.17125 519.13806 114.97553 521.4045 117.779816 519.4217 120.58409 519.9438 123.388374 517.8586 126.19266 520.2708 128.99693 517.3497 131.80122 518.9289 134.6055 524.1855 137.40977 520.631 140.21407 518.2014 143.01834 517.2347 145.82263 521.45605 148.6269 517.29095 151.43118 519.4295 154.23547 521.89404 157.03975 519.52356 159.84402 520.5916 162.64832 522.5319 165.45259 518.5021 168.25687 519.24896 171.06116 515.6227 173.86543 523.7761 176.66972 516.4774" />
<text x="0.0" y="550.0" font-family="Verdana" font-size="11.5">straightened im</text>
<path id="straightened im axis" style="fill:none;stroke:#000000;stroke-width:1;" d="M0.0 520.0 179.474 520.0" />
<path id="straightened magnitude" style="fill:none;stroke:#227722;stroke-width:2.0;" d="M0.0 607.11115 2.8042812 610.0 5.6085625 589.8793 8.412844 592.2519 11.217125 583.7603 14.021406 584.7133 16.825687 582.6248 19.629969 584.34674 22.43425 584.08673 25.238531 584.67474 28.042812 583.2711 30.847094 581.3985 33.651375 582.65717 36.455658 588.9638 39.259937 585.1372 42.064217 585.66113 44.8685 585.4864 47.672783 582.99554 50.477062 584.2731 53.28134 581.2507 56.085625 585.1425 58.889908 586.53595 61.694187 582.11536 64.49847 580.78 67.30275 582.80505 70.10703 583.3198 72.911316 582.17596 75.71559 584.5833 78.519875 587.181 81.32416 583.4833 84.12843 584.6378 86.93272 584.8121 89.737 584.837 92.54128 580.25024 95.345566 582.27435 98.14984 582.7745 100.954124 585.03534 103.75841 582.6889 106.56268 582.25696 109.36697 582.3692 112.17125 582.0305 114.97553 582.6656 117.779816 582.2099 120.58409 582.28754 123.388374 584.3637 126.19266 582.6985 128.99693 585.839 131.80122 583.6463 134.6055 589.5968 137.40977 588.26685 140.21407 583.6087 143.01834 585.96674 145.82263 582.6091 148.6269 584.9517 151.43118 585.13495 154.23547 583.9213 157.03975 581.77454 159.84402 581.56134 162.64832 585.56006 165.45259 586.9272 168.25687 583.7344 171.06116 590.2361 173.86543 587.46924 176.66972 608.8257" />
<text x="0.0" y="607.11115" font-family="Verdana" font-size="11.5">straightened magnitude</text>
<path id="straightened magnitude axis" style="fill:none;stroke:#000000;stroke-width:1;" d="M0.0 580.0 179.474 580.0" />
<path id="straightened phase" style="fill:none;stroke:#772222;stroke-width:2.0;" d="M0.0 640.0 2.8042812 643.75775 5.6085625 638.6191 8.412844 654.2752 11.217125 641.93134 14.021406 662.2815 16.825687 651.54504 19.629969 618.5309 22.43425 639.36993 25.238531 645.656 28.042812 661.48126 30.847094 649.2939 33.651375 637.81146 36.455658 656.46277 39.259937 611.0056 42.064217 613.9136 44.8685 635.3705 47.672783 610.0 50.477062 641.28046 53.28134 662.38007 56.085625 660.37177 58.889908 619.9863 61.694187 641.2589 64.49847 612.88 67.30275 621.85345 70.10703 637.22455 72.911316 654.1243 75.71559 618.97675 78.519875 638.4772 81.32416 651.3013 84.12843 658.5835 86.93272 623.6327 89.737 649.83966 92.54128 627.1606 95.345566 662.0886 98.14984 642.98944 100.954124 665.0252 103.75841 621.12915 106.56268 632.8428 109.36697 650.05383 112.17125 662.1382 114.97553 621.4521 117.779816 644.73975 120.58409 640.42755 123.388374 660.10046 126.19266 638.244 128.99693 661.3081 131.80122 665.1469 134.6055 618.17957 137.40977 638.6676 140.21407 650.71674 143.01834 661.0166 145.82263 625.0897 148.6269 657.22766 151.43118 668.5835 154.23547 619.62524 157.03975 665.65594 159.84402 616.7172 162.64832 618.7361 165.45259 643.86395 168.25687 666.94977 171.06116 662.0536 173.86543 620.4715 176.66972 668.3859" />
<text x="0.0" y="640.0" font-family="Verdana" font-size="11.5">straightened phase</text>
<path id="straightened phase axis" style="fill:none;stroke:#000000;stroke-width:1;" d="M0.0 640.0 179.474 640.0" />
<path id="stroke_8" style="fill:none;stroke:#000000;stroke-width:2;" d="M36.151993 710.424 36.376 711.398 35.25 712.224 33.075996 712.29803 31.876 712.0 30.525993 710.57404 30.075996 709.45 30.0 706.898 31.799995 702.924 34.5 700.75 36.376 700.148 38.626 700.0 42.675995 700.898 44.1 701.79803 45.0 703.0 45.376 704.27405 44.549995 706.974 42.451996 708.924 41.325996 709.374 42.975998 709.0 44.475998 709.0 47.925995 709.974 49.425995 711.02405 50.475998 712.45 51.149994 714.398 51.225998 716.424 50.626 718.52405 49.5 720.32404 47.925995 721.598 46.126 722.198 44.25 722.04803 42.299995 721.374 40.799995 720.098 39.151993 716.424 39.151993 714.848 39.901993 713.5 41.626 712.29803 44.626 711.54803" />
</g></svg>