<?xml version="1.0" ?>
<svg width="179.474" height="400.0">
<title>transforms graphed</title>
<g>
<path id="equalised real" style="fill:none;stroke:#227722;stroke-width:2.0;" d="M0.0 10.0 11.217125 42.36774 22.43425 48.45913 33.651375 48.521626 44.8685 29.974625 56.085625 59.11885 67.30275 36.024483 78.519875 21.723658 89.737 57.619774 100.954124 21.723656 112.17125 36.024483 123.388374 59.11885 134.6055 29.974625 145.82263 48.521626 157.03975 48.45913 168.25687 42.367737" />
<text x="0.0" y="10.0" font-family="Verdana" font-size="11.5">equalised real</text>
<path id="equalised real axis" style="fill:none;stroke:#000000;stroke-width:1;" d="M0.0 40.0 179.474 40.0" />
<path id="equalised im" style="fill:none;stroke:#772222;stroke-width:2.0;" d="M0.0 100.0 11.217125 130.0 22.43425 87.638916 33.651375 106.147026 44.8685 104.45157 56.085625 85.3577 67.30275 105.98993 78.519875 90.64928 89.737 100.0 100.954124 109.35073 112.17125 94.01007 123.388374 114.6423 134.6055 95.54843 145.82263 93.852974 157.03975 112.361084 168.25687 70.0" />
<text x="0.0" y="100.0" font-family="Verdana" font-size="11.5">equalised im</text>
<path id="equalised im axis" style="fill:none;stroke:#000000;stroke-width:1;" d="M0.0 100.0 179.474 100.0" />
<path id="equalised magnitude" style="fill:none;stroke:#227722;stroke-width:2.0;" d="M0.0 173.41731 11.217125 190.0 22.43425 174.46678 33.651375 169.78262 44.8685 170.00674 56.085625 182.48982 67.30275 166.95312 78.519875 178.82169 89.737 175.76067 100.954124 178.82169 112.17125 166.95312 123.388374 182.48982 134.6055 170.00674 145.82263 169.78262 157.03975 174.46678 168.25687 190.0" />
<text x="0.0" y="173.41731" font-family="Verdana" font-size="11.5">equalised magnitude</text>
<path id="equalised magnitude axis" style="fill:none;stroke:#000000;stroke-width:1;" d="M0.0 160.0 179.474 160.0" />
<path id="equalised phase" style="fill:none;stroke:#772222;stroke-width:2.0;" d="M0.0 220.0 11.217125 203.21877 22.43425 231.41457 33.651375 212.42195 44.8685 190.0 56.085625 227.9071 67.30275 196.42293 78.519875 249.34323 89.737 220.0 100.954124 190.65677 112.17125 243.57707 123.388374 212.0929 134.6055 250.0 145.82263 227.57803 157.03975 208.58543 168.25687 236.78123" />
<text x="0.0" y="220.0" font-family="Verdana" font-size="11.5">equalised phase</text>
<path id="equalised phase axis" style="fill:none;stroke:#000000;stroke-width:1;" d="M0.0 220.0 179.474 220.0" />
<path id="equalised theta" style="fill:none;stroke:#222277;stroke-width:2.0;" d="M0.0 280.0 11.217125 280.0 22.43425 262.1746 33.651375 273.30878 44.8685 276.56473 56.085625 279.63574 67.30275 275.16055 78.519875 258.60938 89.737 261.565 100.954124 274.67267 112.17125 276.55487 123.388374 273.59308 134.6055 272.99716 145.82263 271.92957 157.03975 275.44272 168.25687 280.00037 179.474 310.0 190.69113 284.09814 201.90825 279.45483 213.12537 275.12097 224.3425 279.88647" />
<text x="0.0" y="280.0" font-family="Verdana" font-size="11.5">equalised theta</text>
<path id="equalised theta axis" style="fill:none;stroke:#000000;stroke-width:1;" d="M0.0 280.0 235.55963 280.0" />
<path id="rawish theta" style="fill:none;stroke:#772277;stroke-width:2.0;" d="M0.0 340.0 11.217125 340.0 22.43425 324.22192 33.651375 331.27255 44.8685 327.88544 56.085625 315.0729 67.30275 332.03296 78.519875 335.99826 89.737 333.4121 100.954124 333.13367 112.17125 331.24576 123.388374 370.0 134.6055 335.49194" />
<text x="0.0" y="340.0" font-family="Verdana" font-size="11.5">rawish theta</text>
<path id="rawish theta axis" style="fill:none;stroke:#000000;stroke-width:1;" d="M0.0 340.0 145.82263 340.0" />
<path id="straightened theta" style="fill:none;stroke:#227777;stroke-width:2.0;" d="M0.0 400.0 11.217125 400.0 22.43425 384.22192 33.651375 391.27255 44.8685 387.88544 56.085625 375.0729 67.30275 390.2674 78.519875 391.1759 89.737 393.13367 100.954124 391.24576 112.17125 430.0 123.388374 395.49194" />
<text x="0.0" y="400.0" font-family="Verdana" font-size="11.5">straightened theta</text>
<path id="straightened theta axis" style="fill:none;stroke:#000000;stroke-width:1;" d="M0.0 400.0 134.6055 400.0" />
<path id="straightened real" style="fill:none;stroke:#227722;stroke-width:2.0;" d="M0.0 443.4348 11.217125 481.33456 22.43425 490.0 33.651375 453.59174 44.8685 452.50836 56.085625 465.57678 67.30275 467.8536 78.519875 455.24176 89.737 469.72916 100.954124 444.57483 112.17125 447.75604 123.388374 475.53702 134.6055 456.42017 145.82263 475.8191 157.03975 439.3418 168.25687 441.2802" />
<text x="0.0" y="443.4348" font-family="Verdana" font-size="11.5">straightened real</text>
<path id="straightened real axis" style="fill:none;stroke:#000000;stroke-width:1;" d="M0.0 460.0 179.474 460.0" />
<path id="straightened im" style="fill:none;stroke:#772222;stroke-width:2.0;" d="M0.0 550.0 11.217125 516.6383 22.43425 516.14655 33.651375 521.5646 44.8685 514.5095 56.085625 522.0067 67.30275 522.3301 78.519875 515.4315 89.737 517.1504 100.954124 519.4562 112.17125 519.75195 123.388374 528.30896 134.6055 512.59357 145.82263 518.9188 157.03975 521.4669 168.25687 503.72595" />
<text x="0.0" y="550.0" font-family="Verdana" font-size="11.5">straightened im</text>
<path id="straightened im axis" style="fill:none;stroke:#000000;stroke-width:1;" d="M0.0 520.0 179.474 520.0" />
<path id="straightened magnitude" style="fill:none;stroke:#227722;stroke-width:2.0;" d="M0.0 606.12915 11.217125 593.9894 22.43425 599.1059 33.651375 584.6728 44.8685 590.40393 56.085625 584.7847 67.30275 586.15814 78.519875 588.3155 89.737 587.588 100.954124 589.26746 112.17125 587.33136 123.388374 596.97723 134.6055 592.84735 145.82263 589.63525 157.03975 592.60114 168.25687 610.0" />
<text x="0.0" y="606.12915" font-family="Verdana" font-size="11.5">straightened magnitude</text>
<path id="straightened magnitude axis" style="fill:none;stroke:#000000;stroke-width:1;" d="M0.0 580.0 179.474 580.0" />
<path id="straightened phase" style="fill:none;stroke:#772222;stroke-width:2.0;" d="M0.0 640.0 11.217125 644.12067 22.43425 643.42645 33.651375 615.36896 44.8685 659.6107 56.085625 632.21735 67.30275 633.1524 78.519875 658.6779 89.737 646.7858 100.954124 669.5852 112.17125 670.0 123.388374 630.34973 134.6055 656.90967 145.82263 641.8788 157.03975 611.3868 168.25687 659.00037" />
<text x="0.0" y="640.0" font-family="Verdana" font-size="11.5">straightened phase</text>
<path id="straightened phase axis" style="fill:none;stroke:#000000;stroke-width:1;" d="M0.0 640.0 179.474 640.0" />
<path id="stroke_9" style="fill:none;stroke:#000000;stroke-width:2;" d="M35.25 700.75 34.576004 700.0 33.37401 700.0 30.524002 701.426 30.0 702.476 31.050003 703.376 33.37401 703.826 34.42601 703.526 35.326004 702.852 36.524002 700.45 39.076004 701.8 40.274002 702.102" />
</g></svg>