<?xml version="1.0" ?>
<svg width="179.474" height="400.0">
<title>transforms graphed</title>
<g>
<path id="equalised real" style="fill:none;stroke:#227722;stroke-width:2.0;" d="M0.0 63.831654 5.6085625 30.832758 11.217125 55.85528 16.825687 44.756954 22.43425 34.31878 28.042812 37.350704 33.651375 10.116648 39.259937 44.035225 44.8685 49.78122 50.477062 41.30979 56.085625 25.313501 61.694187 33.120228 67.30275 70.0 72.911316 34.957108 78.519875 24.765156 84.12843 36.787224 89.737 69.56719 95.345566 36.787224 100.954124 24.765156 106.56268 34.957108 112.17125 70.0 117.779816 33.120228 123.388374 25.313498 128.99693 41.30979 134.6055 49.78122 140.21407 44.035225 145.82263 10.116644 151.43118 37.350704 157.03975 34.31878 162.64832 44.75696 168.25687 55.85528 173.86543 30.832752" />
<text x="0.0" y="63.831654" font-family="Verdana" font-size="11.5">equalised real</text>
<path id="equalised real axis" style="fill:none;stroke:#000000;stroke-width:1;" d="M0.0 40.0 179.474 40.0" />
<path id="equalised im" style="fill:none;stroke:#772222;stroke-width:2.0;" d="M0.0 100.0 5.6085625 124.627205 11.217125 94.44038 16.825687 70.0 22.43425 101.64356 28.042812 99.20403 33.651375 113.54262 39.259937 87.02836 44.8685 100.357765 50.477062 112.843506 56.085625 105.61621 61.694187 89.32623 67.30275 98.709915 72.911316 110.663895 78.519875 106.42343 84.12843 84.42623 89.737 100.0 95.345566 115.57378 100.954124 93.57658 106.56268 89.336105 112.17125 101.290085 117.779816 110.67377 123.388374 94.38379 128.99693 87.156494 134.6055 99.642235 140.21407 112.971634 145.82263 86.457375 151.43118 100.79597 157.03975 98.35644 162.64832 130.0 168.25687 105.559616 173.86543 75.372795" />
<text x="0.0" y="100.0" font-family="Verdana" font-size="11.5">equalised im</text>
<path id="equalised im axis" style="fill:none;stroke:#000000;stroke-width:1;" d="M0.0 100.0 179.474 100.0" />
<path id="equalised magnitude" style="fill:none;stroke:#227722;stroke-width:2.0;" d="M0.0 167.52545 5.6085625 185.17809 11.217125 171.43976 16.825687 190.0 22.43425 163.94307 28.042812 161.85114 33.651375 183.18939 39.259937 173.15562 44.8685 166.18759 50.477062 172.8057 56.085625 170.82849 61.694187 171.47455 67.30275 178.98996 72.911316 171.07797 78.519875 171.55081 84.12843 175.62776 89.737 178.67319 95.345566 175.62776 100.954124 171.55081 106.56268 171.07797 112.17125 178.98996 117.779816 171.47455 123.388374 170.82849 128.99693 172.8057 134.6055 166.18759 140.21407 173.15562 145.82263 183.18939 151.43118 161.85114 157.03975 163.94307 162.64832 190.0 168.25687 171.43974 173.86543 185.17809" />
<text x="0.0" y="167.52545" font-family="Verdana" font-size="11.5">equalised magnitude</text>
<path id="equalised magnitude axis" style="fill:none;stroke:#000000;stroke-width:1;" d="M0.0 160.0 179.474 160.0" />
<path id="equalised phase" style="fill:none;stroke:#772222;stroke-width:2.0;" d="M0.0 220.0 5.6085625 200.07166 11.217125 225.579 16.825687 236.25476 22.43425 190.0 28.042812 249.84033 33.651375 192.12671 39.259937 235.20863 44.8685 219.36372 50.477062 203.35095 56.085625 191.2666 61.694187 241.65636 67.30275 220.74776 72.911316 199.41296 78.519875 191.7541 84.12843 238.80286 89.737 220.0 95.345566 201.19716 100.954124 248.24591 106.56268 240.58704 112.17125 219.25224 117.779816 198.34364 123.388374 248.7334 128.99693 236.64905 134.6055 220.63628 140.21407 204.79137 145.82263 247.87329 151.43118 190.15967 157.03975 250.0 162.64832 203.74524 168.25687 214.421 173.86543 239.92836" />
<text x="0.0" y="220.0" font-family="Verdana" font-size="11.5">equalised phase</text>
<path id="equalised phase axis" style="fill:none;stroke:#000000;stroke-width:1;" d="M0.0 220.0 179.474 220.0" />
<path id="equalised theta" style="fill:none;stroke:#222277;stroke-width:2.0;" d="M0.0 280.0 5.6085625 280.0 11.217125 280.00247 16.825687 285.0586 22.43425 283.05847 28.042812 285.23126 33.651375 284.60532 39.259937 281.20413 44.8685 280.2003 50.477062 280.00003 56.085625 279.99997 61.694187 280.00003 67.30275 279.99997 72.911316 280.00006 78.519875 280.0 84.12843 278.66306 89.737 278.3177 95.345566 279.71613 100.954124 273.4385 106.56268 269.496 112.17125 273.0411 117.779816 275.79718 123.388374 276.95676 128.99693 277.12335 134.6055 276.485 140.21407 277.22293 145.82263 277.6744 151.43118 276.95746 157.03975 280.00003 162.64832 279.99997 168.25687 278.66116 173.86543 279.3344 179.474 280.00015 185.08257 279.99985 190.69113 280.0 196.29968 280.00012 201.90825 281.93607 207.51682 280.06525 213.12537 280.00012 218.73393 282.2327 224.3425 283.48398 229.95107 282.22522 235.55963 286.11267 241.16818 284.91974 246.77675 284.46237 252.38531 282.46997 257.99387 282.3086 263.60245 280.00018 269.211 280.0 274.81955 279.9998 280.42813 280.00018 286.03668 275.37598 291.64526 276.24185 297.2538 279.99982 302.86237 280.97052 308.47095 282.6879 314.0795 283.83008 319.68805 281.98294 325.29663 283.20145 330.90518 281.86288 336.51373 279.99982 342.1223 280.6733 347.73087 281.28885 353.33945 281.2523 358.948 282.0133 364.55655 280.0 370.16513 280.00003 375.77368 280.0 381.38226 283.36542 386.9908 282.1453 392.59937 280.00006 398.20795 275.64667 403.8165 310.0 409.42505 282.42212 415.03363 279.14548 420.64218 279.9997 426.25073 280.0003 431.8593 279.99982 437.46786 279.99997 443.07645 280.00003 448.685 279.9897" />
<text x="0.0" y="280.0" font-family="Verdana" font-size="11.5">equalised theta</text>
<path id="equalised theta axis" style="fill:none;stroke:#000000;stroke-width:1;" d="M0.0 280.0 454.29355 280.0" />
<path id="rawish theta" style="fill:none;stroke:#772277;stroke-width:2.0;" d="M0.0 340.0 5.6085625 340.0 11.217125 347.1887 16.825687 347.13687 22.43425 342.81842 28.042812 337.32608 33.651375 333.94348 39.259937 328.67496 44.8685 332.13165 50.477062 336.54318 56.085625 337.46964 61.694187 336.4644 67.30275 337.26715 72.911316 336.68622 78.519875 338.22482 84.12843 341.77255 89.737 342.51202 95.345566 344.52155 100.954124 349.77045 106.56268 344.82266 112.17125 343.36154 117.779816 333.10645 123.388374 342.5408 128.99693 343.5612 134.6055 341.9087 140.21407 344.3324 145.82263 341.73767 151.43118 342.89206 157.03975 344.88043 162.64832 335.67334 168.25687 370.0 173.86543 338.4281" />
<text x="0.0" y="340.0" font-family="Verdana" font-size="11.5">rawish theta</text>
<path id="rawish theta axis" style="fill:none;stroke:#000000;stroke-width:1;" d="M0.0 340.0 179.474 340.0" />
<path id="straightened theta" style="fill:none;stroke:#227777;stroke-width:2.0;" d="M0.0 400.0 5.6085625 400.0 11.217125 407.4972 16.825687 407.44318 22.43425 402.9394 28.042812 397.2113 33.651375 393.68356 39.259937 388.1889 44.8685 391.79398 50.477062 395.09882 56.085625 394.96973 61.694187 397.14984 67.30275 396.00433 72.911316 407.87234 78.519875 410.18976 84.12843 405.02963 89.737 403.5058 95.345566 392.8106 100.954124 402.64984 106.56268 404.7832 112.17125 406.11703 117.779816 404.15118 123.388374 405.08987 128.99693 395.48767 134.6055 430.0" />
<text x="0.0" y="400.0" font-family="Verdana" font-size="11.5">straightened theta</text>
<path id="straightened theta axis" style="fill:none;stroke:#000000;stroke-width:1;" d="M0.0 400.0 140.21407 400.0" />
<path id="straightened real" style="fill:none;stroke:#227722;stroke-width:2.0;" d="M0.0 464.471 5.6085625 468.93753 11.217125 479.97922 16.825687 488.85773 22.43425 457.11502 28.042812 441.26575 33.651375 460.3248 39.259937 451.77786 44.8685 471.3867 50.477062 463.4663 56.085625 456.20282 61.694187 485.01337 67.30275 467.6095 72.911316 430.0 78.519875 466.51425 84.12843 455.29095 89.737 465.54706 95.345566 463.50357 100.954124 447.76938 106.56268 488.10782 112.17125 463.647 117.779816 432.4052 123.388374 458.28656 128.99693 457.02515 134.6055 452.2834 140.21407 469.73624 145.82263 448.46246 151.43118 477.7402 157.03975 460.7533 162.64832 432.92715 168.25687 445.96994 173.86543 447.62277" />
<text x="0.0" y="464.471" font-family="Verdana" font-size="11.5">straightened real</text>
<path id="straightened real axis" style="fill:none;stroke:#000000;stroke-width:1;" d="M0.0 460.0 179.474 460.0" />
<path id="straightened im" style="fill:none;stroke:#772222;stroke-width:2.0;" d="M0.0 550.0 5.6085625 513.7244 11.217125 518.33264 16.825687 520.1085 22.43425 515.1059 28.042812 519.3001 33.651375 520.53076 39.259937 514.80194 44.8685 532.3992 50.477062 517.20404 56.085625 517.87854 61.694187 519.44354 67.30275 516.1826 72.911316 521.20764 78.519875 518.3377 84.12843 515.6437 89.737 529.41 95.345566 518.1888 100.954124 517.288 106.56268 519.4649 112.17125 516.39343 117.779816 521.18787 123.388374 516.96075 128.99693 515.1051 134.6055 532.3407 140.21407 516.9218 145.82263 518.31757 151.43118 519.43024 157.03975 514.83734 162.64832 525.0112 168.25687 519.2412 173.86543 509.69977" />
<text x="0.0" y="550.0" font-family="Verdana" font-size="11.5">straightened im</text>
<path id="straightened im axis" style="fill:none;stroke:#000000;stroke-width:1;" d="M0.0 520.0 179.474 520.0" />
<path id="straightened magnitude" style="fill:none;stroke:#227722;stroke-width:2.0;" d="M0.0 610.0 5.6085625 593.47754 11.217125 591.5294 16.825687 595.94385 22.43425 589.9089 28.042812 590.4437 33.651375 581.07574 39.259937 591.33704 44.8685 605.56335 50.477062 585.90625 56.085625 584.7299 61.694187 593.8632 67.30275 588.70996 72.911316 596.74817 78.519875 584.89746 84.12843 589.0857 89.737 599.05206 95.345566 584.1044 100.954124 588.6616 106.56268 595.5649 112.17125 587.48334 117.779816 595.42834 123.388374 586.1467 128.99693 589.91864 134.6055 605.0262 140.21407 588.17114 145.82263 587.2062 151.43118 589.86646 157.03975 590.325 162.64832 597.9992 168.25687 587.89777 173.86543 601.6891" />
<text x="0.0" y="610.0" font-family="Verdana" font-size="11.5">straightened magnitude</text>
<path id="straightened magnitude axis" style="fill:none;stroke:#000000;stroke-width:1;" d="M0.0 580.0 179.474 580.0" />
<path id="straightened phase" style="fill:none;stroke:#772222;stroke-width:2.0;" d="M0.0 640.0 5.6085625 651.92816 11.217125 642.9246 16.825687 639.8643 22.43425 657.2815 28.042812 670.0 33.651375 626.00183 39.259937 659.78235 44.8685 626.8103 50.477062 652.37604 56.085625 660.2539 61.694187 640.801 67.30275 650.6454 72.911316 610.10254 78.519875 647.4358 84.12843 658.5669 89.737 625.9416 95.345566 650.77106 100.954124 664.59625 106.56268 640.68585 112.17125 652.95056 117.779816 610.20105 123.388374 657.21234 128.99693 657.33057 134.6055 622.62244 140.21407 648.50226 145.82263 666.4979 151.43118 641.1538 157.03975 655.26776 162.64832 614.5458 168.25687 669.4127 173.86543 658.86957" />
<text x="0.0" y="640.0" font-family="Verdana" font-size="11.5">straightened phase</text>
<path id="straightened phase axis" style="fill:none;stroke:#000000;stroke-width:1;" d="M0.0 640.0 179.474 640.0" />
<path id="stroke_18" style="fill:none;stroke:#000000;stroke-width:2;" d="M53.324 715.82605 51.0 715.226 49.876 713.876 49.724 711.85205 51.15 703.526 51.0 701.126 50.4 700.226 48.75 700.226 47.55 701.202 46.574 703.07605 46.5 704.276 46.726 705.55005 53.324 717.4 53.024 719.426 51.524 720.4 50.1 720.626 44.55 719.876 41.4 721.452 40.2 721.75 37.8 721.376 33.674 718.15 31.126 714.10205 30.75 711.4 30.074001 710.202 37.8 713.57605" />
</g></svg>