<?xml version="1.0" ?>
<svg width="179.474" height="400.0">
<title>transforms graphed</title>
<g>
<path id="equalised real" style="fill:none;stroke:#227722;stroke-width:2.0;" d="M0.0 20.26627 5.6085625 26.034315 11.217125 46.303932 16.825687 53.698128 22.43425 47.861794 28.042812 21.81726 33.651375 56.243572 39.259937 53.519497 44.8685 16.687437 50.477062 56.292374 56.085625 37.507484 61.694187 32.119595 67.30275 47.41979 72.911316 37.311234 78.519875 45.13776 84.12843 16.9127 89.737 70.0 95.345566 16.912699 100.954124 45.13776 106.56268 37.311234 112.17125 47.419785 117.779816 32.11959 123.388374 37.507484 128.99693 56.292366 134.6055 16.687443 140.21407 53.519493 145.82263 56.243576 151.43118 21.817259 157.03975 47.861794 162.64832 53.698128 168.25687 46.30393 173.86543 26.034317" />
<text x="0.0" y="20.26627" font-family="Verdana" font-size="11.5">equalised real</text>
<path id="equalised real axis" style="fill:none;stroke:#000000;stroke-width:1;" d="M0.0 40.0 179.474 40.0" />
<path id="equalised im" style="fill:none;stroke:#772222;stroke-width:2.0;" d="M0.0 100.0 5.6085625 113.93423 11.217125 109.815254 16.825687 102.85106 22.43425 92.93681 28.042812 102.4153 33.651375 103.941246 39.259937 103.040016 44.8685 75.68085 50.477062 130.0 56.085625 76.507034 61.694187 105.24194 67.30275 107.69619 72.911316 89.91378 78.519875 99.03765 84.12843 105.51748 89.737 100.0 95.345566 94.48253 100.954124 100.96235 106.56268 110.08622 112.17125 92.30381 117.779816 94.75806 123.388374 123.492966 128.99693 70.0 134.6055 124.31915 140.21407 96.95998 145.82263 96.058754 151.43118 97.5847 157.03975 107.06319 162.64832 97.14893 168.25687 90.184746 173.86543 86.06577" />
<text x="0.0" y="100.0" font-family="Verdana" font-size="11.5">equalised im</text>
<path id="equalised im axis" style="fill:none;stroke:#000000;stroke-width:1;" d="M0.0 100.0 179.474 100.0" />
<path id="equalised magnitude" style="fill:none;stroke:#227722;stroke-width:2.0;" d="M0.0 166.44151 5.6085625 175.90228 11.217125 170.05815 16.825687 169.33162 22.43425 168.36423 28.042812 172.08339 33.651375 171.22658 39.259937 169.27255 44.8685 187.36255 50.477062 190.0 56.085625 182.02702 61.694187 167.10574 67.30275 168.67465 72.911316 169.59297 78.519875 163.47275 84.12843 175.93086 89.737 179.58528 95.345566 175.93086 100.954124 163.47275 106.56268 169.59297 112.17125 168.67465 117.779816 167.10574 123.388374 182.02702 128.99693 190.0 134.6055 187.36255 140.21407 169.27254 145.82263 171.22658 151.43118 172.08339 157.03975 168.36423 162.64832 169.33162 168.25687 170.05815 173.86543 175.9023" />
<text x="0.0" y="166.44151" font-family="Verdana" font-size="11.5">equalised magnitude</text>
<path id="equalised magnitude axis" style="fill:none;stroke:#000000;stroke-width:1;" d="M0.0 160.0 179.474 160.0" />
<path id="equalised phase" style="fill:none;stroke:#772222;stroke-width:2.0;" d="M0.0 220.0 5.6085625 197.8435 11.217125 208.32686 16.825687 217.05731 22.43425 229.24452 28.042812 190.0 33.651375 216.60284 39.259937 216.83533 44.8685 241.94572 50.477062 207.72643 56.085625 236.70584 61.694187 195.82191 67.30275 210.0629 72.911316 237.82391 78.519875 222.66222 84.12843 191.44008 89.737 220.0 95.345566 248.55994 100.954124 217.33778 106.56268 202.17609 112.17125 229.93712 117.779816 244.17809 123.388374 203.29416 128.99693 232.27357 134.6055 198.05428 140.21407 223.16467 145.82263 223.39716 151.43118 250.0 157.03975 210.75548 162.64832 222.94269 168.25687 231.67314 173.86543 242.1565" />
<text x="0.0" y="220.0" font-family="Verdana" font-size="11.5">equalised phase</text>
<path id="equalised phase axis" style="fill:none;stroke:#000000;stroke-width:1;" d="M0.0 220.0 179.474 220.0" />
<path id="equalised theta" style="fill:none;stroke:#222277;stroke-width:2.0;" d="M0.0 280.0 5.6085625 280.0 11.217125 278.18646 16.825687 274.44177 22.43425 274.98068 28.042812 275.04837 33.651375 273.95285 39.259937 274.23483 44.8685 273.97266 50.477062 278.7154 56.085625 270.22714 61.694187 268.06534 67.30275 271.09897 72.911316 274.31674 78.519875 275.64426 84.12843 274.86746 89.737 280.00003 95.345566 310.0 100.954124 282.91553 106.56268 270.39404 112.17125 260.85947 117.779816 279.9999 123.388374 283.3049 128.99693 293.65582 134.6055 286.52716 140.21407 280.0001 145.82263 255.36871 151.43118 278.09937 157.03975 286.37656 162.64832 285.8885 168.25687 289.67938 173.86543 285.20303 179.474 285.63773 185.08257 253.22955 190.69113 276.91245 196.29968 283.08804 201.90825 281.6448 207.51682 285.67557 213.12537 280.51096 218.73393 289.26123 224.3425 263.08344" />
<text x="0.0" y="280.0" font-family="Verdana" font-size="11.5">equalised theta</text>
<path id="equalised theta axis" style="fill:none;stroke:#000000;stroke-width:1;" d="M0.0 280.0 229.95107 280.0" />
<path id="rawish theta" style="fill:none;stroke:#772277;stroke-width:2.0;" d="M0.0 340.0 5.6085625 340.0 11.217125 333.0685 16.825687 331.32178 22.43425 330.67923 28.042812 332.11423 33.651375 330.0709 39.259937 324.66165 44.8685 330.62787 50.477062 333.4504 56.085625 370.0 61.694187 332.87433 67.30275 320.87656 72.911316 345.29156 78.519875 354.80457 84.12843 316.13928 89.737 347.43848 95.345566 352.97943 100.954124 350.0185 106.56268 314.88116 112.17125 341.22705 117.779816 345.34027 123.388374 349.4625" />
<text x="0.0" y="340.0" font-family="Verdana" font-size="11.5">rawish theta</text>
<path id="rawish theta axis" style="fill:none;stroke:#000000;stroke-width:1;" d="M0.0 340.0 128.99693 340.0" />
<path id="straightened theta" style="fill:none;stroke:#227777;stroke-width:2.0;" d="M0.0 400.0 5.6085625 400.0 11.217125 393.0685 16.825687 391.32178 22.43425 390.67923 28.042812 392.11423 33.651375 390.0709 39.259937 384.66165 44.8685 390.62787 50.477062 393.4504 56.085625 430.0 61.694187 392.87433 67.30275 380.87656 72.911316 405.29156 78.519875 414.80457 84.12843 376.13928 89.737 407.43848 95.345566 412.97943 100.954124 410.0185 106.56268 375.33215 112.17125 406.11633 117.779816 409.4625" />
<text x="0.0" y="400.0" font-family="Verdana" font-size="11.5">straightened theta</text>
<path id="straightened theta axis" style="fill:none;stroke:#000000;stroke-width:1;" d="M0.0 400.0 123.388374 400.0" />
<path id="straightened real" style="fill:none;stroke:#227722;stroke-width:2.0;" d="M0.0 453.10507 5.6085625 480.2408 11.217125 477.65756 16.825687 461.87766 22.43425 470.9482 28.042812 462.1527 33.651375 458.7907 39.259937 471.3745 44.8685 453.04166 50.477062 466.7357 56.085625 463.22137 61.694187 454.58426 67.30275 466.7899 72.911316 450.96515 78.519875 469.47083 84.12843 448.56793 89.737 470.48196 95.345566 455.29874 100.954124 454.11942 106.56268 467.15594 112.17125 458.39502 117.779816 459.90897 123.388374 455.03687 128.99693 464.64935 134.6055 450.6676 140.21407 458.07288 145.82263 472.56024 151.43118 445.14124 157.03975 454.5456 162.64832 467.69455 168.25687 446.74762 173.86543 430.0" />
<text x="0.0" y="453.10507" font-family="Verdana" font-size="11.5">straightened real</text>
<path id="straightened real axis" style="fill:none;stroke:#000000;stroke-width:1;" d="M0.0 460.0 179.474 460.0" />
<path id="straightened im" style="fill:none;stroke:#772222;stroke-width:2.0;" d="M0.0 550.0 5.6085625 514.4356 11.217125 525.0033 16.825687 520.13916 22.43425 515.94885 28.042812 521.57544 33.651375 518.2385 39.259937 520.36523 44.8685 516.31665 50.477062 523.65784 56.085625 514.71704 61.694187 520.9115 67.30275 518.79584 72.911316 519.0861 78.519875 519.56793 84.12843 519.7078 89.737 520.24664 95.345566 517.56964 100.954124 519.9409 106.56268 522.9949 112.17125 515.81335 117.779816 518.88007 123.388374 523.8213 128.99693 512.03186 134.6055 525.7411 140.21407 519.18713 145.82263 516.7112 151.43118 520.6394 157.03975 518.68604 162.64832 519.0343 168.25687 521.1996 173.86543 509.03564" />
<text x="0.0" y="550.0" font-family="Verdana" font-size="11.5">straightened im</text>
<path id="straightened im axis" style="fill:none;stroke:#000000;stroke-width:1;" d="M0.0 520.0 179.474 520.0" />
<path id="straightened magnitude" style="fill:none;stroke:#227722;stroke-width:2.0;" d="M0.0 608.2832 5.6085625 598.052 11.217125 595.91187 16.825687 581.39026 22.43425 591.01263 28.042812 583.3475 33.651375 583.42316 39.259937 588.30005 44.8685 588.571 50.477062 588.4373 56.085625 590.1949 61.694187 584.2944 67.30275 585.43097 72.911316 586.7907 78.519875 586.93494 84.12843 588.3316 89.737 587.63666 95.345566 585.70294 100.954124 584.27783 106.56268 587.6628 112.17125 587.9492 117.779816 582.10443 123.388374 588.0333 128.99693 595.34235 134.6055 592.7405 140.21407 582.0723 145.82263 591.0264 151.43118 590.872 157.03975 584.6715 162.64832 585.88214 168.25687 589.89716 173.86543 610.0" />
<text x="0.0" y="608.2832" font-family="Verdana" font-size="11.5">straightened magnitude</text>
<path id="straightened magnitude axis" style="fill:none;stroke:#000000;stroke-width:1;" d="M0.0 580.0 179.474 580.0" />
<path id="straightened phase" style="fill:none;stroke:#772222;stroke-width:2.0;" d="M0.0 640.0 5.6085625 645.9448 11.217125 633.917 16.825687 638.17883 22.43425 647.3442 28.042812 629.56085 33.651375 657.62665 39.259937 639.20325 44.8685 661.20593 50.477062 630.8392 56.085625 652.89246 61.694187 613.69824 67.30275 644.13556 72.911316 667.7895 78.519875 641.1293 84.12843 669.61523 89.737 639.4155 95.345566 661.3149 100.954124 670.0 106.56268 632.0635 112.17125 656.5438 117.779816 655.428 123.388374 620.38837 128.99693 652.9854 134.6055 619.4659 140.21407 662.27594 145.82263 645.7254 151.43118 610.81586 157.03975 664.89105 162.64832 643.0181 168.25687 611.96136 173.86543 662.9653" />
<text x="0.0" y="640.0" font-family="Verdana" font-size="11.5">straightened phase</text>
<path id="straightened phase axis" style="fill:none;stroke:#000000;stroke-width:1;" d="M0.0 640.0 179.474 640.0" />
<path id="stroke_13" style="fill:none;stroke:#000000;stroke-width:2;" d="M36.374 702.174 35.324005 700.824 33.6 700.0 31.950005 700.224 30.526001 701.574 30.0 703.374 30.450005 704.5 32.25 704.798 33.9 703.974 35.324005 702.174 36.225998 703.974 37.050003 704.574 38.924004 703.148 39.9 702.85 42.15 704.724 43.276 703.298 44.85 702.624 46.800003 703.6 47.324005 704.724 50.1 703.148 52.874 702.85 53.776 703.374" />
</g></svg>