<?xml version="1.0" ?>
<svg width="179.474" height="400.0">
<title>transforms graphed</title>
<g>
<path id="equalised real" style="fill:none;stroke:#227722;stroke-width:2.0;" d="M0.0 33.6427 5.6085625 70.0 11.217125 37.030167 16.825687 34.662918 22.43425 22.529833 28.042812 22.261843 33.651375 40.790943 39.259937 52.30037 44.8685 31.918953 50.477062 38.233448 56.085625 40.536213 61.694187 54.81637 67.30275 64.419266 72.911316 40.981716 78.519875 34.207684 84.12843 27.255085 89.737 22.467709 95.345566 27.255081 100.954124 34.207684 106.56268 40.981716 112.17125 64.419266 117.779816 54.81637 123.388374 40.536213 128.99693 38.23344 134.6055 31.918953 140.21407 52.300358 145.82263 40.790943 151.43118 22.261845 157.03975 22.529835 162.64832 34.66292 168.25687 37.03017 173.86543 69.99999" />
<text x="0.0" y="33.6427" font-family="Verdana" font-size="11.5">equalised real</text>
<path id="equalised real axis" style="fill:none;stroke:#000000;stroke-width:1;" d="M0.0 40.0 179.474 40.0" />
<path id="equalised im" style="fill:none;stroke:#772222;stroke-width:2.0;" d="M0.0 100.0 5.6085625 130.0 11.217125 95.79384 16.825687 91.53289 22.43425 82.18943 28.042812 89.02495 33.651375 109.66396 39.259937 108.84741 44.8685 106.42083 50.477062 117.42887 56.085625 98.695694 61.694187 100.41731 67.30275 83.83089 72.911316 85.77814 78.519875 103.20871 84.12843 100.12542 89.737 100.0 95.345566 99.87458 100.954124 96.79129 106.56268 114.221855 112.17125 116.16911 117.779816 99.58268 123.388374 101.304306 128.99693 82.57114 134.6055 93.57917 140.21407 91.15259 145.82263 90.33604 151.43118 110.97505 157.03975 117.81057 162.64832 108.46711 168.25687 104.20616 173.86543 70.0" />
<text x="0.0" y="100.0" font-family="Verdana" font-size="11.5">equalised im</text>
<path id="equalised im axis" style="fill:none;stroke:#000000;stroke-width:1;" d="M0.0 100.0 179.474 100.0" />
<path id="equalised magnitude" style="fill:none;stroke:#227722;stroke-width:2.0;" d="M0.0 161.84727 5.6085625 190.0 11.217125 163.83347 16.825687 167.5564 22.43425 177.69633 28.042812 173.63953 33.651375 167.87793 39.259937 170.14589 44.8685 167.02556 50.477062 174.22066 56.085625 161.10623 61.694187 168.61723 67.30275 179.35289 72.911316 171.58775 78.519875 164.26027 84.12843 167.40741 89.737 170.1889 95.345566 167.40741 100.954124 164.26027 106.56268 171.58775 112.17125 179.35289 117.779816 168.61723 123.388374 161.10623 128.99693 174.22066 134.6055 167.02556 140.21407 170.14587 145.82263 167.87793 151.43118 173.63953 157.03975 177.69633 162.64832 167.55641 168.25687 163.83347 173.86543 190.0" />
<text x="0.0" y="161.84727" font-family="Verdana" font-size="11.5">equalised magnitude</text>
<path id="equalised magnitude axis" style="fill:none;stroke:#000000;stroke-width:1;" d="M0.0 160.0 179.474 160.0" />
<path id="equalised phase" style="fill:none;stroke:#772222;stroke-width:2.0;" d="M0.0 220.0 5.6085625 210.92192 11.217125 239.45967 16.825687 239.03902 22.43425 240.83504 28.042812 243.18231 33.651375 205.5575 39.259937 212.46564 44.8685 198.00862 50.477062 204.31001 56.085625 232.27312 61.694187 219.62357 67.30275 227.13953 72.911316 234.52965 78.519875 196.30025 84.12843 190.13159 89.737 190.0 95.345566 249.86842 100.954124 243.69975 106.56268 205.47035 112.17125 212.86047 117.779816 220.37645 123.388374 207.72688 128.99693 235.69 134.6055 241.99138 140.21407 227.53436 145.82263 234.4425 151.43118 196.81769 157.03975 199.16496 162.64832 200.96098 168.25687 200.54033 173.86543 229.0781" />
<text x="0.0" y="220.0" font-family="Verdana" font-size="11.5">equalised phase</text>
<path id="equalised phase axis" style="fill:none;stroke:#000000;stroke-width:1;" d="M0.0 220.0 179.474 220.0" />
<path id="equalised theta" style="fill:none;stroke:#222277;stroke-width:2.0;" d="M0.0 280.0 5.6085625 280.0 11.217125 280.00397 16.825687 278.91666 22.43425 278.63992 28.042812 280.00003 33.651375 280.0 39.259937 280.00012 44.8685 279.99982 50.477062 280.00018 56.085625 280.84024 61.694187 281.51987 67.30275 310.0 72.911316 275.98828 78.519875 274.94678 84.12843 279.31674 89.737 265.23584 95.345566 262.8806 100.954124 278.5485 106.56268 279.15616 112.17125 276.63748 117.779816 280.0 123.388374 279.99976 128.99693 278.33612 134.6055 278.87018 140.21407 276.0118 145.82263 279.3196 151.43118 280.0 157.03975 277.27725 162.64832 277.59384 168.25687 264.3616 173.86543 269.1631 179.474 277.04825 185.08257 277.5224 190.69113 278.0257 196.29968 275.7626 201.90825 269.5342 207.51682 274.35358 213.12537 278.35715 218.73393 278.752 224.3425 278.3676 229.95107 279.10074 235.55963 277.60724 241.16818 278.77158 246.77675 279.99994 252.38531 280.00012 257.99387 279.99988 263.60245 280.54947 269.211 282.56848 274.81955 283.47903 280.42813 284.42975 286.03668 284.32144 291.64526 283.2274 297.2538 284.30295 302.86237 285.47726 308.47095 250.3964 314.0795 283.16208 319.68805 280.81842 325.29663 279.99973 330.90518 281.65994 336.51373 280.02997 342.1223 279.99994 347.73087 279.9999 353.33945 280.00015 358.948 279.99997 364.55655 279.99985 370.16513 280.83914 375.77368 280.028 381.38226 284.4721" />
<text x="0.0" y="280.0" font-family="Verdana" font-size="11.5">equalised theta</text>
<path id="equalised theta axis" style="fill:none;stroke:#000000;stroke-width:1;" d="M0.0 280.0 386.9908 280.0" />
<path id="rawish theta" style="fill:none;stroke:#772277;stroke-width:2.0;" d="M0.0 340.0 5.6085625 340.0 11.217125 337.74014 16.825687 342.18292 22.43425 370.0 28.042812 334.6417 33.651375 334.7201 39.259937 335.02884 44.8685 315.65546 50.477062 333.96338 56.085625 337.41605 61.694187 335.68234 67.30275 335.25656 72.911316 317.44507 78.519875 334.5489 84.12843 336.6728 89.737 327.85165 95.345566 333.02042 100.954124 337.63385 106.56268 337.6586 112.17125 336.65088 117.779816 342.22427 123.388374 343.06412 128.99693 344.42792 134.6055 344.1046 140.21407 343.3588 145.82263 344.11688 151.43118 345.3733 157.03975 347.4099 162.64832 368.98108 168.25687 343.49915 173.86543 341.5627 179.474 340.80194" />
<text x="0.0" y="340.0" font-family="Verdana" font-size="11.5">rawish theta</text>
<path id="rawish theta axis" style="fill:none;stroke:#000000;stroke-width:1;" d="M0.0 340.0 185.08257 340.0" />
<path id="straightened theta" style="fill:none;stroke:#227777;stroke-width:2.0;" d="M0.0 400.0 5.6085625 400.0 11.217125 398.28348 16.825687 430.0 22.43425 394.9353 28.042812 395.0094 33.651375 395.30124 39.259937 376.98935 44.8685 394.29413 50.477062 397.55762 56.085625 395.9189 61.694187 395.51645 67.30275 378.6809 72.911316 394.84756 78.519875 396.8551 84.12843 388.5173 89.737 393.40283 95.345566 397.7635 100.954124 397.7869 106.56268 397.16473 112.17125 404.66824 117.779816 404.1853 123.388374 403.87973 128.99693 403.17477 134.6055 403.89133 140.21407 405.07886 145.82263 407.0039 151.43118 427.39316 157.03975 404.3637 162.64832 401.1788" />
<text x="0.0" y="400.0" font-family="Verdana" font-size="11.5">straightened theta</text>
<path id="straightened theta axis" style="fill:none;stroke:#000000;stroke-width:1;" d="M0.0 400.0 168.25687 400.0" />
<path id="straightened real" style="fill:none;stroke:#227722;stroke-width:2.0;" d="M0.0 457.56845 5.6085625 478.54672 11.217125 459.6893 16.825687 447.88235 22.43425 475.10098 28.042812 476.431 33.651375 486.1275 39.259937 488.05438 44.8685 451.14944 50.477062 456.60934 56.085625 442.46826 61.694187 445.32077 67.30275 460.4261 72.911316 451.61182 78.519875 471.7196 84.12843 451.67834 89.737 453.29425 95.345566 458.5723 100.954124 443.8495 106.56268 469.13916 112.17125 478.2537 117.779816 486.01318 123.388374 477.94193 128.99693 462.0393 134.6055 462.66888 140.21407 441.35492 145.82263 434.47754 151.43118 430.0 157.03975 431.53503 162.64832 468.035 168.25687 458.03888 173.86543 464.4021" />
<text x="0.0" y="457.56845" font-family="Verdana" font-size="11.5">straightened real</text>
<path id="straightened real axis" style="fill:none;stroke:#000000;stroke-width:1;" d="M0.0 460.0 179.474 460.0" />
<path id="straightened im" style="fill:none;stroke:#772222;stroke-width:2.0;" d="M0.0 550.0 5.6085625 526.2193 11.217125 520.44836 16.825687 517.4433 22.43425 512.31854 28.042812 515.5086 33.651375 515.8998 39.259937 522.0494 44.8685 521.672 50.477062 522.5228 56.085625 518.0077 61.694187 512.8277 67.30275 515.23773 72.911316 517.293 78.519875 521.23645 84.12843 525.04443 89.737 523.4891 95.345566 525.0043 100.954124 520.20905 106.56268 521.84674 112.17125 520.415 117.779816 512.69403 123.388374 518.42535 128.99693 516.9422 134.6055 519.6161 140.21407 519.2165 145.82263 512.8055 151.43118 519.0227 157.03975 518.02136 162.64832 520.1544 168.25687 521.79517 173.86543 516.6135" />
<text x="0.0" y="550.0" font-family="Verdana" font-size="11.5">straightened im</text>
<path id="straightened im axis" style="fill:none;stroke:#000000;stroke-width:1;" d="M0.0 520.0 179.474 520.0" />
<path id="straightened magnitude" style="fill:none;stroke:#227722;stroke-width:2.0;" d="M0.0 610.0 5.6085625 596.65814 11.217125 580.9155 16.825687 588.86456 22.43425 597.8139 28.042812 593.307 33.651375 597.63635 39.259937 597.2602 44.8685 586.25745 50.477062 585.436 56.085625 591.20953 61.694187 596.81116 67.30275 589.52515 72.911316 587.37744 78.519875 587.42773 84.12843 591.24554 89.737 588.04535 95.345566 590.042 100.954124 589.66144 106.56268 586.593 112.17125 590.94086 117.779816 601.33276 123.388374 591.1757 128.99693 586.23413 134.6055 581.77014 140.21407 591.25287 145.82263 600.9665 151.43118 598.0357 157.03975 597.4661 162.64832 584.8121 168.25687 583.7758 173.86543 587.2642" />
<text x="0.0" y="610.0" font-family="Verdana" font-size="11.5">straightened magnitude</text>
<path id="straightened magnitude axis" style="fill:none;stroke:#000000;stroke-width:1;" d="M0.0 580.0 179.474 580.0" />
<path id="straightened phase" style="fill:none;stroke:#772222;stroke-width:2.0;" d="M0.0 640.0 5.6085625 631.8399 11.217125 622.8129 16.825687 664.4676 22.43425 650.0653 28.042812 647.1725 33.651375 644.6811 39.259937 637.6792 44.8685 615.0384 50.477062 621.0917 56.085625 666.9013 61.694187 660.5256 67.30275 654.9506 72.911316 662.4437 78.519875 636.71466 84.12843 620.3547 89.737 619.74146 95.345566 623.96674 100.954124 610.0 106.56268 634.24414 112.17125 639.265 117.779816 647.3033 123.388374 642.76526 128.99693 653.3042 134.6055 644.3428 140.21407 669.0666 145.82263 663.09796 151.43118 669.3679 157.03975 668.20667 162.64832 639.37836 168.25687 621.7344 173.86543 651.6211" />
<text x="0.0" y="640.0" font-family="Verdana" font-size="11.5">straightened phase</text>
<path id="straightened phase axis" style="fill:none;stroke:#000000;stroke-width:1;" d="M0.0 640.0 179.474 640.0" />
<path id="stroke_16" style="fill:none;stroke:#000000;stroke-width:2;" d="M32.92601 700.0 32.699997 702.55 33.524002 711.702 33.37401 710.426 32.699997 709.526 30.973999 708.776 30.0 708.852 32.62401 710.952 36.224 711.25 37.949997 710.952 40.724 709.076 41.774002 707.202 39.524002 707.5 38.474 708.326 37.350006 710.05 38.25 711.326 39.600006 711.702 41.474 711.776 43.42601 711.4 49.12401 708.4 50.17601 708.4 51.15001 708.852 51.826004 709.602 52.274002 710.65 52.274002 711.702 51.75 712.602 51.524002 712.676 52.800003 711.776 62.474 710.202 64.42601 710.126" />
</g></svg>