<?xml version="1.0" ?>
<svg width="179.474" height="400.0">
<title>transforms graphed</title>
<g>
<path id="equalised real" style="fill:none;stroke:#227722;stroke-width:2.0;" d="M0.0 70.0 44.8685 10.0 89.737 70.0 134.6055 10.0" />
<text x="0.0" y="70.0" font-family="Verdana" font-size="11.5">equalised real</text>
<path id="equalised real axis" style="fill:none;stroke:#000000;stroke-width:1;" d="M0.0 40.0 179.474 40.0" />
<path id="equalised im" style="fill:none;stroke:#772222;stroke-width:2.0;" d="M0.0 NaN 44.8685 NaN 89.737 NaN 134.6055 NaN" />
<text x="0.0" y="NaN" font-family="Verdana" font-size="11.5">equalised im</text>
<path id="equalised im axis" style="fill:none;stroke:#000000;stroke-width:1;" d="M0.0 100.0 179.474 100.0" />
<path id="equalised magnitude" style="fill:none;stroke:#227722;stroke-width:2.0;" d="M0.0 175.0 44.8685 190.0 89.737 190.0 134.6055 190.0" />
<text x="0.0" y="175.0" font-family="Verdana" font-size="11.5">equalised magnitude</text>
<path id="equalised magnitude axis" style="fill:none;stroke:#000000;stroke-width:1;" d="M0.0 160.0 179.474 160.0" />
<path id="equalised phase" style="fill:none;stroke:#772222;stroke-width:2.0;" d="M0.0 220.0 44.8685 190.0 89.737 220.0 134.6055 190.0" />
<text x="0.0" y="220.0" font-family="Verdana" font-size="11.5">equalised phase</text>
<path id="equalised phase axis" style="fill:none;stroke:#000000;stroke-width:1;" d="M0.0 220.0 179.474 220.0" />
<path id="equalised theta" style="fill:none;stroke:#222277;stroke-width:2.0;" d="M0.0 280.0 44.8685 280.0 89.737 280.00027 134.6055 279.99997 179.474 279.99997 224.3425 280.00003 269.211 279.99997 314.0795 280.00003 358.948 280.00003 403.8165 279.99994 448.685 280.00006 493.5535 279.99997 538.422 280.0 583.2905 280.00003 628.159 279.99997 673.02747 280.00003 717.896 280.00003 762.7645 279.92365 807.633 279.8502 852.50146 280.00003 897.37 279.99997 942.2385 280.00003 987.107 280.00003 1031.9755 279.99994 1076.844 280.00003 1121.7125 279.99997 1166.581 280.0 1211.4495 280.00003 1256.318 279.99997 1301.1865 280.0 1346.0549 280.00003 1390.9235 279.99997 1435.792 280.0 1480.6605 280.0 1525.529 279.81418 1570.3975 279.9636 1615.266 280.0 1660.1345 280.0 1705.0029 280.0 1749.8715 280.00003 1794.74 279.99997 1839.6085 280.0 1884.477 280.0 1929.3455 280.00003 1974.214 279.99997 2019.0825 280.0 2063.951 280.0 2108.8196 280.0 2153.688 280.0 2198.5564 280.00003 2243.425 279.99997 2288.2935 310.0 2333.162 284.0122 2378.0305 284.78613" />
<text x="0.0" y="280.0" font-family="Verdana" font-size="11.5">equalised theta</text>
<path id="equalised theta axis" style="fill:none;stroke:#000000;stroke-width:1;" d="M0.0 280.0 2422.899 280.0" />
<path id="rawish theta" style="fill:none;stroke:#772277;stroke-width:2.0;" d="M0.0 340.0 44.8685 340.0 89.737 339.78754 134.6055 339.7912 179.474 370.0" />
<text x="0.0" y="340.0" font-family="Verdana" font-size="11.5">rawish theta</text>
<path id="rawish theta axis" style="fill:none;stroke:#000000;stroke-width:1;" d="M0.0 340.0 224.3425 340.0" />
<path id="straightened theta" style="fill:none;stroke:#227777;stroke-width:2.0;" d="M0.0 400.0 44.8685 400.0 89.737 430.0" />
<text x="0.0" y="400.0" font-family="Verdana" font-size="11.5">straightened theta</text>
<path id="straightened theta axis" style="fill:none;stroke:#000000;stroke-width:1;" d="M0.0 400.0 134.6055 400.0" />
<path id="straightened real" style="fill:none;stroke:#227722;stroke-width:2.0;" d="M0.0 461.68118 44.8685 486.63766 89.737 461.68118 134.6055 430.0" />
<text x="0.0" y="461.68118" font-family="Verdana" font-size="11.5">straightened real</text>
<path id="straightened real axis" style="fill:none;stroke:#000000;stroke-width:1;" d="M0.0 460.0 179.474 460.0" />
<path id="straightened im" style="fill:none;stroke:#772222;stroke-width:2.0;" d="M0.0 550.0 44.8685 518.86365 89.737 492.27277 134.6055 518.86365" />
<text x="0.0" y="550.0" font-family="Verdana" font-size="11.5">straightened im</text>
<path id="straightened im axis" style="fill:none;stroke:#000000;stroke-width:1;" d="M0.0 520.0 179.474 520.0" />
<path id="straightened magnitude" style="fill:none;stroke:#227722;stroke-width:2.0;" d="M0.0 594.7307 44.8685 606.6426 89.737 607.237 134.6055 610.0" />
<text x="0.0" y="594.7307" font-family="Verdana" font-size="11.5">straightened magnitude</text>
<path id="straightened magnitude axis" style="fill:none;stroke:#000000;stroke-width:1;" d="M0.0 580.0 179.474 580.0" />
<path id="straightened phase" style="fill:none;stroke:#772222;stroke-width:2.0;" d="M0.0 640.0 44.8685 640.40424 89.737 654.58307 134.6055 670.0" />
<text x="0.0" y="640.0" font-family="Verdana" font-size="11.5">straightened phase</text>
<path id="straightened phase axis" style="fill:none;stroke:#000000;stroke-width:1;" d="M0.0 640.0 179.474 640.0" />
<path id="stroke_5" style="fill:none;stroke:#000000;stroke-width:2;" d="M81.59999 700.52405 30.0 700.29803 32.025993 700.148" />
</g></svg>