<?xml version="1.0" ?>
<svg width="179.474" height="400.0">
<title>transforms graphed</title>
<g>
<path id="equalised real" style="fill:none;stroke:#227722;stroke-width:2.0;" d="M0.0 20.964571 5.6085625 47.788597 11.217125 51.343994 16.825687 33.639565 22.43425 40.053963 28.042812 23.781528 33.651375 43.433563 39.259937 32.328896 44.8685 70.0 50.477062 35.63502 56.085625 42.72177 61.694187 33.064724 67.30275 35.098656 72.911316 33.68157 78.519875 43.394432 84.12843 47.641945 89.737 31.818985 95.345566 47.641945 100.954124 43.394432 106.56268 33.68157 112.17125 35.098656 117.779816 33.064724 123.388374 42.721775 128.99693 35.635025 134.6055 70.0 140.21407 32.32889 145.82263 43.433563 151.43118 23.781528 157.03975 40.053963 162.64832 33.63957 168.25687 51.343994 173.86543 47.788593" />
<text x="0.0" y="20.964571" font-family="Verdana" font-size="11.5">equalised real</text>
<path id="equalised real axis" style="fill:none;stroke:#000000;stroke-width:1;" d="M0.0 40.0 179.474 40.0" />
<path id="equalised im" style="fill:none;stroke:#772222;stroke-width:2.0;" d="M0.0 100.0 5.6085625 127.50748 11.217125 87.9318 16.825687 80.47492 22.43425 98.17679 28.042812 98.39801 33.651375 117.591934 39.259937 130.0 44.8685 100.51903 50.477062 78.546234 56.085625 79.85851 61.694187 105.29666 67.30275 81.26911 72.911316 125.60131 78.519875 104.04231 84.12843 96.132645 89.737 100.0 95.345566 103.86735 100.954124 95.95769 106.56268 74.3987 112.17125 118.73089 117.779816 94.70333 123.388374 120.14149 128.99693 121.453766 134.6055 99.48097 140.21407 70.0 145.82263 82.408066 151.43118 101.60199 157.03975 101.82321 162.64832 119.525085 168.25687 112.0682 173.86543 72.492516" />
<text x="0.0" y="100.0" font-family="Verdana" font-size="11.5">equalised im</text>
<path id="equalised im axis" style="fill:none;stroke:#000000;stroke-width:1;" d="M0.0 100.0 179.474 100.0" />
<path id="equalised magnitude" style="fill:none;stroke:#227722;stroke-width:2.0;" d="M0.0 169.51733 5.6085625 176.16924 11.217125 172.93535 16.825687 171.90018 22.43425 160.94073 28.042812 176.2388 33.651375 169.69075 39.259937 177.25294 44.8685 190.0 50.477062 171.8822 56.085625 170.72652 61.694187 167.45244 67.30275 170.82227 72.911316 174.62337 78.519875 163.98212 84.12843 167.89706 89.737 168.1807 95.345566 167.89706 100.954124 163.98212 106.56268 174.62337 112.17125 170.82227 117.779816 167.45244 123.388374 170.72652 128.99693 171.8822 134.6055 190.0 140.21407 177.25294 145.82263 169.69075 151.43118 176.2388 157.03975 160.94073 162.64832 171.90018 168.25687 172.93535 173.86543 176.16924" />
<text x="0.0" y="169.51733" font-family="Verdana" font-size="11.5">equalised magnitude</text>
<path id="equalised magnitude axis" style="fill:none;stroke:#000000;stroke-width:1;" d="M0.0 160.0 179.474 160.0" />
<path id="equalised phase" style="fill:none;stroke:#772222;stroke-width:2.0;" d="M0.0 220.0 5.6085625 209.79912 11.217125 224.7874 16.825687 240.38455 22.43425 234.45195 28.042812 249.51451 33.651375 208.45842 39.259937 200.60028 44.8685 219.91489 50.477062 238.59195 56.085625 232.55025 61.694187 193.5794 67.30275 239.48807 72.911316 200.7336 78.519875 214.74532 84.12843 222.43532 89.737 190.0 95.345566 217.5647 100.954124 225.25468 106.56268 239.2664 112.17125 200.51193 117.779816 246.4206 123.388374 207.44975 128.99693 201.40807 134.6055 220.08511 140.21407 239.39972 145.82263 231.54158 151.43118 190.48549 157.03975 205.54805 162.64832 199.61545 168.25687 215.2126 173.86543 230.20088" />
<text x="0.0" y="220.0" font-family="Verdana" font-size="11.5">equalised phase</text>
<path id="equalised phase axis" style="fill:none;stroke:#000000;stroke-width:1;" d="M0.0 220.0 179.474 220.0" />
<path id="equalised theta" style="fill:none;stroke:#222277;stroke-width:2.0;" d="M0.0 280.0 5.6085625 280.0 11.217125 277.22684 16.825687 277.43704 22.43425 279.63107 28.042812 279.99982 33.651375 279.8797 39.259937 279.9075 44.8685 280.79688 50.477062 280.23343 56.085625 280.42386 61.694187 280.84003 67.30275 310.0 72.911316 277.61896 78.519875 275.5757 84.12843 278.2131 89.737 279.7028 95.345566 251.48709 100.954124 276.1064 106.56268 274.7319 112.17125 278.16168 117.779816 279.99982 123.388374 278.09125 128.99693 278.58124 134.6055 278.18524 140.21407 279.36252 145.82263 280.00006 151.43118 279.99976 157.03975 278.38815 162.64832 279.11743 168.25687 280.00015 173.86543 250.75577 179.474 275.885 185.08257 280.00006 190.69113 277.35052 196.29968 277.46298 201.90825 274.08615 207.51682 263.9854 213.12537 276.04745 218.73393 278.37775 224.3425 279.29727 229.95107 278.58798 235.55963 280.00006 241.16818 279.99982 246.77675 280.00015 252.38531 279.99997 257.99387 280.00003 263.60245 279.99997 269.211 280.00003 274.81955 281.9126 280.42813 294.0606 286.03668 294.01306 291.64526 280.8984 297.2538 255.95816 302.86237 274.8138 308.47095 280.0 314.0795 280.0 319.68805 280.0 325.29663 280.00647 330.90518 279.99353 336.51373 280.0 342.1223 280.0 347.73087 279.977" />
<text x="0.0" y="280.0" font-family="Verdana" font-size="11.5">equalised theta</text>
<path id="equalised theta axis" style="fill:none;stroke:#000000;stroke-width:1;" d="M0.0 280.0 353.33945 280.0" />
<path id="rawish theta" style="fill:none;stroke:#772277;stroke-width:2.0;" d="M0.0 340.0 5.6085625 340.0 11.217125 335.16907 16.825687 339.29004 22.43425 340.88715 28.042812 340.4712 33.651375 342.02692 39.259937 369.08893 44.8685 331.7852 50.477062 337.60425 56.085625 312.24445 61.694187 331.7062 67.30275 336.02963 72.911316 337.70914 78.519875 337.6698 84.12843 310.0 89.737 335.91473 95.345566 336.1403 100.954124 329.53592 106.56268 328.81738 112.17125 337.89172 117.779816 338.0245 123.388374 342.34125 128.99693 357.17987 134.6055 349.33005 140.21407 312.6964 145.82263 340.0" />
<text x="0.0" y="340.0" font-family="Verdana" font-size="11.5">rawish theta</text>
<path id="rawish theta axis" style="fill:none;stroke:#000000;stroke-width:1;" d="M0.0 340.0 151.43118 340.0" />
<path id="straightened theta" style="fill:none;stroke:#227777;stroke-width:2.0;" d="M0.0 400.0 5.6085625 400.0 11.217125 395.1567 16.825687 402.68762 22.43425 429.08893 28.042812 390.64377 33.651375 370.99008 39.259937 391.7062 44.8685 394.4471 50.477062 396.9615 56.085625 370.0 61.694187 395.91473 67.30275 396.1403 72.911316 389.53592 78.519875 387.5556 84.12843 397.4331 89.737 419.26605 95.345566 409.33005 100.954124 372.6964" />
<text x="0.0" y="400.0" font-family="Verdana" font-size="11.5">straightened theta</text>
<path id="straightened theta axis" style="fill:none;stroke:#000000;stroke-width:1;" d="M0.0 400.0 106.56268 400.0" />
<path id="straightened real" style="fill:none;stroke:#227722;stroke-width:2.0;" d="M0.0 451.7846 5.6085625 490.0 11.217125 475.9911 16.825687 455.79007 22.43425 470.11856 28.042812 463.11316 33.651375 465.10907 39.259937 462.0934 44.8685 467.98788 50.477062 468.54938 56.085625 446.77997 61.694187 458.84183 67.30275 434.74573 72.911316 463.34134 78.519875 451.69968 84.12843 463.62228 89.737 456.4692 95.345566 462.974 100.954124 471.2303 106.56268 451.2048 112.17125 481.0236 117.779816 455.17188 123.388374 475.56937 128.99693 447.68292 134.6055 477.9071 140.21407 451.28513 145.82263 457.85468 151.43118 442.8876 157.03975 449.92804 162.64832 458.71982 168.25687 453.80066 173.86543 436.72284" />
<text x="0.0" y="451.7846" font-family="Verdana" font-size="11.5">straightened real</text>
<path id="straightened real axis" style="fill:none;stroke:#000000;stroke-width:1;" d="M0.0 460.0 179.474 460.0" />
<path id="straightened im" style="fill:none;stroke:#772222;stroke-width:2.0;" d="M0.0 550.0 5.6085625 516.29504 11.217125 524.50006 16.825687 511.31006 22.43425 526.0244 28.042812 516.92267 33.651375 516.45654 39.259937 524.32 44.8685 512.12134 50.477062 520.25006 56.085625 507.48526 61.694187 522.2169 67.30275 515.861 72.911316 527.49475 78.519875 521.4053 84.12843 521.3432 89.737 524.3778 95.345566 522.1581 100.954124 520.5535 106.56268 522.1002 112.17125 519.80786 117.779816 521.1008 123.388374 511.7293 128.99693 524.7706 134.6055 512.01196 140.21407 517.99866 145.82263 512.7497 151.43118 517.26025 157.03975 526.40857 162.64832 515.42426 168.25687 527.04297 173.86543 510.4989" />
<text x="0.0" y="550.0" font-family="Verdana" font-size="11.5">straightened im</text>
<path id="straightened im axis" style="fill:none;stroke:#000000;stroke-width:1;" d="M0.0 520.0 179.474 520.0" />
<path id="straightened magnitude" style="fill:none;stroke:#227722;stroke-width:2.0;" d="M0.0 610.0 5.6085625 609.1377 11.217125 597.47986 16.825687 597.6837 22.43425 595.27124 28.042812 586.76855 33.651375 588.5118 39.259937 588.7912 44.8685 597.33624 50.477062 588.05054 56.085625 607.75757 61.694187 584.5297 67.30275 605.1151 72.911316 595.19293 78.519875 588.2841 84.12843 584.3229 89.737 589.29535 95.345566 585.1121 100.954124 590.6119 106.56268 589.25653 112.17125 599.763 117.779816 585.03577 123.388374 601.9821 128.99693 594.9513 134.6055 603.1142 140.21407 589.1019 145.82263 594.52075 151.43118 596.9765 157.03975 595.8483 162.64832 589.15485 168.25687 595.1353 173.86543 608.8742" />
<text x="0.0" y="610.0" font-family="Verdana" font-size="11.5">straightened magnitude</text>
<path id="straightened magnitude axis" style="fill:none;stroke:#000000;stroke-width:1;" d="M0.0 580.0 179.474 580.0" />
<path id="straightened phase" style="fill:none;stroke:#772222;stroke-width:2.0;" d="M0.0 640.0 5.6085625 642.71625 11.217125 634.2905 16.825687 659.13995 22.43425 630.4266 28.042812 651.973 33.651375 650.3497 39.259937 625.6692 44.8685 651.96387 50.477062 639.3432 56.085625 661.6805 61.694187 620.6787 67.30275 669.92377 72.911316 625.48254 78.519875 610.1845 84.12843 632.92566 89.737 619.3749 95.345566 629.4278 100.954124 638.8958 106.56268 611.5018 112.17125 640.2055 117.779816 611.30664 123.388374 648.97504 128.99693 613.8292 134.6055 648.0461 140.21407 668.66345 145.82263 658.2199 151.43118 670.0 157.03975 616.4441 162.64832 658.14 168.25687 619.0541 173.86543 665.8957" />
<text x="0.0" y="640.0" font-family="Verdana" font-size="11.5">straightened phase</text>
<path id="straightened phase axis" style="fill:none;stroke:#000000;stroke-width:1;" d="M0.0 640.0 179.474 640.0" />
<path id="stroke_22" style="fill:none;stroke:#000000;stroke-width:2;" d="M34.123993 700.0 33.673996 701.124 34.197998 709.824 33.974 711.024 33.447998 709.374 30.0 707.874 31.047989 709.224 34.873993 709.824 40.423996 707.798 42.597992 706.224 39.523987 706.9 38.399994 707.65 37.79799 708.474 38.097992 709.374 41.32399 709.75 50.847992 708.624 50.773987 709.75 48.82399 711.25 58.57399 711.25" />
</g></svg>