<?xml version="1.0" ?>
<svg width="179.474" height="400.0">
<title>transforms graphed</title>
<g>
<path id="equalised real" style="fill:none;stroke:#227722;stroke-width:2.0;" d="M0.0 66.81962 5.6085625 62.312637 11.217125 38.611732 16.825687 10.000006 22.43425 34.900772 28.042812 37.856125 33.651375 38.144176 39.259937 44.80641 44.8685 42.68747 50.477062 34.718323 56.085625 38.461994 61.694187 35.82635 67.30275 33.680588 72.911316 46.795174 78.519875 47.587593 84.12843 37.75541 89.737 44.890884 95.345566 37.75541 100.954124 47.587597 106.56268 46.795174 112.17125 33.680588 117.779816 35.82635 123.388374 38.461994 128.99693 34.71832 134.6055 42.68747 140.21407 44.806408 145.82263 38.14418 151.43118 37.85613 157.03975 34.900772 162.64832 10.0 168.25687 38.611736 173.86543 62.31263" />
<text x="0.0" y="66.81962" font-family="Verdana" font-size="11.5">equalised real</text>
<path id="equalised real axis" style="fill:none;stroke:#000000;stroke-width:1;" d="M0.0 40.0 179.474 40.0" />
<path id="equalised im" style="fill:none;stroke:#772222;stroke-width:2.0;" d="M0.0 100.0 5.6085625 128.84467 11.217125 70.00001 16.825687 104.76568 22.43425 87.10032 28.042812 99.748276 33.651375 88.82839 39.259937 97.58737 44.8685 117.12197 50.477062 103.44985 56.085625 102.961784 61.694187 103.3323 67.30275 93.45134 72.911316 106.62743 78.519875 101.32503 84.12843 98.219894 89.737 100.0 95.345566 101.780106 100.954124 98.674965 106.56268 93.37257 112.17125 106.54866 117.779816 96.6677 123.388374 97.038216 128.99693 96.550156 134.6055 82.87803 140.21407 102.41263 145.82263 111.17161 151.43118 100.251724 157.03975 112.89968 162.64832 95.23433 168.25687 130.0 173.86543 71.15533" />
<text x="0.0" y="100.0" font-family="Verdana" font-size="11.5">equalised im</text>
<path id="equalised im axis" style="fill:none;stroke:#000000;stroke-width:1;" d="M0.0 100.0 179.474 100.0" />
<path id="equalised magnitude" style="fill:none;stroke:#227722;stroke-width:2.0;" d="M0.0 171.35883 5.6085625 190.0 11.217125 184.25954 16.825687 185.70148 22.43425 171.27892 28.042812 161.82732 33.651375 169.15923 39.259937 164.51361 44.8685 174.01553 50.477062 165.27065 56.085625 162.72397 61.694187 164.44325 67.30275 167.52533 72.911316 167.8603 78.519875 166.5156 84.12843 162.38373 89.737 164.14284 95.345566 162.38373 100.954124 166.5156 106.56268 167.8603 112.17125 167.52533 117.779816 164.44325 123.388374 162.72397 128.99693 165.27065 134.6055 174.01553 140.21407 164.51361 145.82263 169.15923 151.43118 161.82732 157.03975 171.27892 162.64832 185.70148 168.25687 184.25955 173.86543 190.0" />
<text x="0.0" y="171.35883" font-family="Verdana" font-size="11.5">equalised magnitude</text>
<path id="equalised magnitude axis" style="fill:none;stroke:#000000;stroke-width:1;" d="M0.0 160.0 179.474 160.0" />
<path id="equalised phase" style="fill:none;stroke:#772222;stroke-width:2.0;" d="M0.0 220.0 5.6085625 211.19589 11.217125 236.03204 16.825687 190.38452 22.43425 239.44284 28.042812 250.0 33.651375 237.25963 39.259937 224.41982 44.8685 206.06331 50.477062 194.41115 56.085625 199.51085 61.694187 195.33856 67.30275 243.38701 72.911316 212.58295 78.519875 218.36635 84.12843 244.69348 89.737 220.0 95.345566 195.30652 100.954124 221.63365 106.56268 227.41705 112.17125 196.61299 117.779816 244.66144 123.388374 240.48915 128.99693 245.58885 134.6055 233.9367 140.21407 215.58018 145.82263 202.74037 151.43118 190.0 157.03975 200.55716 162.64832 249.61548 168.25687 203.96796 173.86543 228.80411" />
<text x="0.0" y="220.0" font-family="Verdana" font-size="11.5">equalised phase</text>
<path id="equalised phase axis" style="fill:none;stroke:#000000;stroke-width:1;" d="M0.0 220.0 179.474 220.0" />
<path id="equalised theta" style="fill:none;stroke:#222277;stroke-width:2.0;" d="M0.0 280.0 5.6085625 280.0 11.217125 298.0411 16.825687 290.04453 22.43425 288.36652 28.042812 283.16818 33.651375 280.00003 39.259937 292.7183 44.8685 292.0431 50.477062 286.2276 56.085625 286.1232 61.694187 289.57422 67.30275 279.71692 72.911316 280.00006 78.519875 280.0 84.12843 275.04935 89.737 276.67813 95.345566 276.17374 100.954124 271.84515 106.56268 279.99988 112.17125 272.3691 117.779816 270.66458 123.388374 274.91568 128.99693 268.05685 134.6055 273.17105 140.21407 260.9932 145.82263 264.77438 151.43118 278.49976 157.03975 276.272 162.64832 279.70193 168.25687 275.53714 173.86543 280.0 179.474 277.09396 185.08257 278.84766 190.69113 280.0 196.29968 280.00003 201.90825 279.99997 207.51682 280.00003 213.12537 280.00006 218.73393 285.07452 224.3425 280.62372 229.95107 288.00717 235.55963 282.26227 241.16818 282.41965 246.77675 291.46164 252.38531 280.0001 257.99387 290.65765 263.60245 287.53574 269.211 287.84488 274.81955 282.88275 280.42813 279.99988 286.03668 280.0 291.64526 272.60428 297.2538 278.4434 302.86237 280.0 308.47095 279.99994 314.0795 283.12775 319.68805 285.85806 325.29663 280.2301 330.90518 291.77557 336.51373 279.99985 342.1223 283.236 347.73087 285.63037 353.33945 279.99988 358.948 280.0 364.55655 280.4679 370.16513 284.31393 375.77368 279.99994 381.38226 282.20352 386.9908 284.67664 392.59937 287.23834 398.20795 284.78418 403.8165 310.0 409.42505 292.7414 415.03363 285.37067 420.64218 279.99997 426.25073 280.00003 431.8593 279.50436 437.46786 279.2842 443.07645 279.9999 448.685 279.80115 454.29355 279.27817 459.90213 280.0 465.51068 280.0 471.11926 279.79352 476.7278 278.90915 482.33636 280.00003 487.94495 279.99997 493.5535 280.00003 499.16205 279.99988" />
<text x="0.0" y="280.0" font-family="Verdana" font-size="11.5">equalised theta</text>
<path id="equalised theta axis" style="fill:none;stroke:#000000;stroke-width:1;" d="M0.0 280.0 504.77063 280.0" />
<path id="rawish theta" style="fill:none;stroke:#772277;stroke-width:2.0;" d="M0.0 340.0 5.6085625 340.0 11.217125 359.44632 16.825687 356.14835 22.43425 356.56677 28.042812 352.9784 33.651375 349.17587 39.259937 352.11646 44.8685 331.36597 50.477062 329.39523 56.085625 320.39227 61.694187 322.22836 67.30275 325.94775 72.911316 313.20068 78.519875 332.53915 84.12843 335.03104 89.737 335.76428 95.345566 345.94714 100.954124 350.71835 106.56268 354.48795 112.17125 358.98846 117.779816 351.19638 123.388374 330.6564 128.99693 349.3785 134.6055 352.53018 140.21407 349.25363 145.82263 344.99072 151.43118 347.18082 157.03975 348.701 162.64832 370.0 168.25687 364.06143 173.86543 338.73563 179.474 339.039 185.08257 338.646" />
<text x="0.0" y="340.0" font-family="Verdana" font-size="11.5">rawish theta</text>
<path id="rawish theta axis" style="fill:none;stroke:#000000;stroke-width:1;" d="M0.0 340.0 190.69113 340.0" />
<path id="straightened theta" style="fill:none;stroke:#227777;stroke-width:2.0;" d="M0.0 400.0 5.6085625 400.0 11.217125 419.44632 16.825687 416.14835 22.43425 416.56677 28.042812 412.9784 33.651375 409.17587 39.259937 412.11646 44.8685 391.36597 50.477062 389.39523 56.085625 380.39227 61.694187 382.22836 67.30275 385.94775 72.911316 373.20068 78.519875 389.9646 84.12843 393.3699 89.737 405.94714 95.345566 410.71835 100.954124 414.48795 106.56268 418.98846 112.17125 411.19638 117.779816 390.6564 123.388374 409.3785 128.99693 412.53018 134.6055 411.22055 140.21407 410.20462 145.82263 408.701 151.43118 430.0 157.03975 422.17883" />
<text x="0.0" y="400.0" font-family="Verdana" font-size="11.5">straightened theta</text>
<path id="straightened theta axis" style="fill:none;stroke:#000000;stroke-width:1;" d="M0.0 400.0 162.64832 400.0" />
<path id="straightened real" style="fill:none;stroke:#227722;stroke-width:2.0;" d="M0.0 466.77008 5.6085625 447.9768 11.217125 448.67453 16.825687 450.29346 22.43425 452.62283 28.042812 488.91763 33.651375 473.0714 39.259937 487.51242 44.8685 451.8461 50.477062 430.537 56.085625 438.63104 61.694187 460.6969 67.30275 456.4488 72.911316 472.6558 78.519875 486.10986 84.12843 487.77798 89.737 461.23462 95.345566 431.0888 100.954124 437.72083 106.56268 450.7748 112.17125 460.36078 117.779816 457.19598 123.388374 480.59247 128.99693 486.7965 134.6055 469.5107 140.21407 434.91415 145.82263 445.99167 151.43118 430.0 157.03975 464.80276 162.64832 454.56076 168.25687 470.62457 173.86543 483.28793" />
<text x="0.0" y="466.77008" font-family="Verdana" font-size="11.5">straightened real</text>
<path id="straightened real axis" style="fill:none;stroke:#000000;stroke-width:1;" d="M0.0 460.0 179.474 460.0" />
<path id="straightened im" style="fill:none;stroke:#772222;stroke-width:2.0;" d="M0.0 550.0 5.6085625 518.2951 11.217125 515.6298 16.825687 515.158 22.43425 516.7749 28.042812 515.082 33.651375 517.1805 39.259937 522.86 44.8685 526.93915 50.477062 525.7652 56.085625 517.5499 61.694187 518.49225 67.30275 514.2385 72.911316 517.5784 78.519875 518.4801 84.12843 523.4906 89.737 523.35944 95.345566 523.6961 100.954124 518.3271 106.56268 516.8133 112.17125 514.9945 117.779816 518.10754 123.388374 517.208 128.99693 525.36694 134.6055 524.9625 140.21407 523.1385 145.82263 518.47015 151.43118 515.111 157.03975 518.2641 162.64832 514.60785 168.25687 519.09314 173.86543 514.96515" />
<text x="0.0" y="550.0" font-family="Verdana" font-size="11.5">straightened im</text>
<path id="straightened im axis" style="fill:none;stroke:#000000;stroke-width:1;" d="M0.0 520.0 179.474 520.0" />
<path id="straightened magnitude" style="fill:none;stroke:#227722;stroke-width:2.0;" d="M0.0 610.0 5.6085625 586.6894 11.217125 590.27563 16.825687 590.7291 22.43425 587.3461 28.042812 596.9782 33.651375 588.41986 39.259937 594.3607 44.8685 594.3977 50.477062 598.2115 56.085625 591.3434 61.694187 583.0295 67.30275 591.6311 72.911316 587.7539 78.519875 592.86743 84.12843 595.019 89.737 586.7351 95.345566 595.69055 100.954124 591.18054 106.56268 587.74725 112.17125 589.9978 117.779816 584.0108 123.388374 591.32904 128.99693 596.72034 134.6055 590.9071 140.21407 593.5506 145.82263 587.37164 151.43118 597.371 157.03975 584.1604 162.64832 591.0791 168.25687 585.40094 173.86543 595.0163" />
<text x="0.0" y="610.0" font-family="Verdana" font-size="11.5">straightened magnitude</text>
<path id="straightened magnitude axis" style="fill:none;stroke:#000000;stroke-width:1;" d="M0.0 580.0 179.474 580.0" />
<path id="straightened phase" style="fill:none;stroke:#772222;stroke-width:2.0;" d="M0.0 640.0 5.6085625 667.5629 11.217125 662.48145 16.825687 661.34045 22.43425 661.90704 28.042812 646.52057 33.651375 647.7431 39.259937 635.6764 44.8685 620.493 50.477062 614.02686 56.085625 668.49335 61.694187 655.4369 67.30275 658.1549 72.911316 647.11865 78.519875 642.5172 84.12843 634.898 89.737 624.3254 95.345566 611.96967 100.954124 670.0 106.56268 663.0182 112.17125 656.4211 117.779816 660.2125 123.388374 645.4392 128.99693 632.6448 134.6055 627.9499 140.21407 611.87537 145.82263 668.6904 151.43118 666.89825 157.03975 650.4118 162.64832 659.11255 168.25687 643.61444 173.86543 647.7552" />
<text x="0.0" y="640.0" font-family="Verdana" font-size="11.5">straightened phase</text>
<path id="straightened phase axis" style="fill:none;stroke:#000000;stroke-width:1;" d="M0.0 640.0 179.474 640.0" />
<path id="stroke_0" style="fill:none;stroke:#000000;stroke-width:2;" d="M52.574005 712.748 52.050003 713.948 51.074005 714.4 47.550003 713.8 46.725998 712.974 46.424004 711.998 46.5 710.198 48.6 706.3 48.9 704.57404 48.15 701.274 46.35 700.0 44.776 700.07404 43.724003 700.75 43.724003 702.998 45.374 707.198 49.35 712.748 50.174004 714.698 50.174004 717.32404 48.824005 719.57404 47.026 720.174 43.124 719.8 38.776 720.924 36.45 720.698 34.2 719.274 30.300003 713.424 30.0 711.998 30.150002 710.724 31.876003 710.124 46.124 717.774" />
</g></svg>