<?xml version="1.0" ?>
<svg width="179.474" height="400.0">
<title>transforms graphed</title>
<g>
<path id="equalised real" style="fill:none;stroke:#227722;stroke-width:2.0;" d="M0.0 21.890179 5.6085625 35.596794 11.217125 41.706825 16.825687 47.649734 22.43425 46.44681 28.042812 31.400436 33.651375 46.96593 39.259937 42.269974 44.8685 53.46784 50.477062 10.0 56.085625 56.952637 61.694187 44.664284 67.30275 31.638763 72.911316 42.199337 78.519875 33.477886 84.12843 54.62918 89.737 19.976957 95.345566 54.62918 100.954124 33.477882 106.56268 42.199337 112.17125 31.638763 117.779816 44.664288 123.388374 56.952637 128.99693 10.000002 134.6055 53.467842 140.21407 42.26997 145.82263 46.96593 151.43118 31.400438 157.03975 46.44681 162.64832 47.64973 168.25687 41.706825 173.86543 35.59679" />
<text x="0.0" y="21.890179" font-family="Verdana" font-size="11.5">equalised real</text>
<path id="equalised real axis" style="fill:none;stroke:#000000;stroke-width:1;" d="M0.0 40.0 179.474 40.0" />
<path id="equalised im" style="fill:none;stroke:#772222;stroke-width:2.0;" d="M0.0 100.0 5.6085625 116.013565 11.217125 118.247375 16.825687 101.43908 22.43425 95.61931 28.042812 96.20677 33.651375 109.446365 39.259937 105.49575 44.8685 70.0 50.477062 104.99979 56.085625 124.03414 61.694187 81.59512 67.30275 95.19156 72.911316 103.52385 78.519875 107.00377 84.12843 90.693436 89.737 100.0 95.345566 109.30656 100.954124 92.99623 106.56268 96.47615 112.17125 104.80844 117.779816 118.40487 123.388374 75.96585 128.99693 95.00022 134.6055 130.0 140.21407 94.50425 145.82263 90.553635 151.43118 103.793236 157.03975 104.38069 162.64832 98.56092 168.25687 81.752625 173.86543 83.986435" />
<text x="0.0" y="100.0" font-family="Verdana" font-size="11.5">equalised im</text>
<path id="equalised im axis" style="fill:none;stroke:#000000;stroke-width:1;" d="M0.0 100.0 179.474 100.0" />
<path id="equalised magnitude" style="fill:none;stroke:#227722;stroke-width:2.0;" d="M0.0 169.00368 5.6085625 171.10661 11.217125 171.75426 16.825687 167.66156 22.43425 166.9921 28.042812 168.88617 33.651375 169.17778 39.259937 164.16725 44.8685 183.34523 50.477062 190.0 56.085625 182.77806 61.694187 172.61497 67.30275 168.86089 72.911316 163.1349 78.519875 167.87323 84.12843 175.70947 89.737 179.90974 95.345566 175.70947 100.954124 167.87323 106.56268 163.1349 112.17125 168.86089 117.779816 172.61497 123.388374 182.77806 128.99693 190.0 134.6055 183.34523 140.21407 164.16725 145.82263 169.17778 151.43118 168.88617 157.03975 166.9921 162.64832 167.66156 168.25687 171.75426 173.86543 171.10663" />
<text x="0.0" y="169.00368" font-family="Verdana" font-size="11.5">equalised magnitude</text>
<path id="equalised magnitude axis" style="fill:none;stroke:#000000;stroke-width:1;" d="M0.0 160.0 179.474 160.0" />
<path id="equalised phase" style="fill:none;stroke:#772222;stroke-width:2.0;" d="M0.0 220.0 5.6085625 201.1306 11.217125 206.38364 16.825687 218.85396 22.43425 223.92294 28.042812 247.36855 33.651375 213.1666 39.259937 210.46582 44.8685 229.16599 50.477062 191.01634 56.085625 212.95583 61.694187 231.40488 67.30275 246.62724 72.911316 212.37238 78.519875 195.75711 84.12843 223.69766 89.737 190.0 95.345566 216.30235 100.954124 244.24289 106.56268 227.62762 112.17125 193.37276 117.779816 208.59512 123.388374 227.04417 128.99693 248.98366 134.6055 210.83401 140.21407 229.53418 145.82263 226.8334 151.43118 192.63147 157.03975 216.07706 162.64832 221.14604 168.25687 233.61636 173.86543 238.8694" />
<text x="0.0" y="220.0" font-family="Verdana" font-size="11.5">equalised phase</text>
<path id="equalised phase axis" style="fill:none;stroke:#000000;stroke-width:1;" d="M0.0 220.0 179.474 220.0" />
<path id="equalised theta" style="fill:none;stroke:#222277;stroke-width:2.0;" d="M0.0 280.0 5.6085625 280.0 11.217125 275.2962 16.825687 270.52313 22.43425 270.49554 28.042812 273.30026 33.651375 273.0165 39.259937 278.4167 44.8685 262.40198 50.477062 264.717 56.085625 275.47382 61.694187 271.84116 67.30275 277.98294 72.911316 279.9999 78.519875 309.15292 84.12843 282.24835 89.737 270.6552 95.345566 268.49893 100.954124 277.22485 106.56268 279.9999 112.17125 280.25415 117.779816 288.21387 123.388374 292.52692 128.99693 282.69513 134.6055 250.0 140.21407 284.70026 145.82263 285.48846 151.43118 281.26837 157.03975 284.04443 162.64832 287.02222 168.25687 260.9228 173.86543 275.80383 179.474 280.00027" />
<text x="0.0" y="280.0" font-family="Verdana" font-size="11.5">equalised theta</text>
<path id="equalised theta axis" style="fill:none;stroke:#000000;stroke-width:1;" d="M0.0 280.0 185.08257 280.0" />
<path id="rawish theta" style="fill:none;stroke:#772277;stroke-width:2.0;" d="M0.0 340.0 5.6085625 340.0 11.217125 333.42325 16.825687 330.03995 22.43425 329.3581 28.042812 332.86853 33.651375 334.51883 39.259937 318.0398 44.8685 326.00766 50.477062 370.0 56.085625 332.63675 61.694187 324.11624 67.30275 346.7683 72.911316 352.9685 78.519875 311.5626 84.12843 349.37592 89.737 346.09305 95.345566 346.61426 100.954124 319.44482" />
<text x="0.0" y="340.0" font-family="Verdana" font-size="11.5">rawish theta</text>
<path id="rawish theta axis" style="fill:none;stroke:#000000;stroke-width:1;" d="M0.0 340.0 106.56268 340.0" />
<path id="straightened theta" style="fill:none;stroke:#227777;stroke-width:2.0;" d="M0.0 400.0 5.6085625 400.0 11.217125 393.42325 16.825687 390.03995 22.43425 389.3581 28.042812 392.86853 33.651375 394.51883 39.259937 378.0398 44.8685 386.00766 50.477062 430.0 56.085625 392.63675 61.694187 384.11624 67.30275 406.7683 72.911316 412.9685 78.519875 371.5626 84.12843 409.37592 89.737 406.09305 95.345566 406.61426 100.954124 379.44482" />
<text x="0.0" y="400.0" font-family="Verdana" font-size="11.5">straightened theta</text>
<path id="straightened theta axis" style="fill:none;stroke:#000000;stroke-width:1;" d="M0.0 400.0 106.56268 400.0" />
<path id="straightened real" style="fill:none;stroke:#227722;stroke-width:2.0;" d="M0.0 452.6164 5.6085625 486.40952 11.217125 458.78067 16.825687 462.63907 22.43425 469.21014 28.042812 456.26495 33.651375 467.63263 39.259937 458.60184 44.8685 461.02237 50.477062 458.6199 56.085625 467.08234 61.694187 459.74304 67.30275 453.79544 72.911316 470.7503 78.519875 448.95142 84.12843 469.646 89.737 451.83636 95.345566 462.283 100.954124 465.7303 106.56268 451.0431 112.17125 459.3866 117.779816 464.06033 123.388374 466.74127 128.99693 436.91736 134.6055 469.95966 140.21407 463.24915 145.82263 458.04755 151.43118 456.72275 157.03975 456.04675 162.64832 463.59872 168.25687 462.6111 173.86543 430.0" />
<text x="0.0" y="452.6164" font-family="Verdana" font-size="11.5">straightened real</text>
<path id="straightened real axis" style="fill:none;stroke:#000000;stroke-width:1;" d="M0.0 460.0 179.474 460.0" />
<path id="straightened im" style="fill:none;stroke:#772222;stroke-width:2.0;" d="M0.0 550.0 5.6085625 514.8339 11.217125 522.77606 16.825687 518.8433 22.43425 521.23834 28.042812 518.01605 33.651375 519.87756 39.259937 519.68494 44.8685 516.1884 50.477062 525.0175 56.085625 516.52057 61.694187 517.39923 67.30275 521.79254 72.911316 517.53925 78.519875 519.90155 84.12843 519.1278 89.737 518.5119 95.345566 522.0023 100.954124 517.7383 106.56268 516.45087 112.17125 523.2777 117.779816 523.08405 123.388374 509.0971 128.99693 523.4732 134.6055 525.4546 140.21407 517.9874 145.82263 516.95984 151.43118 519.1877 157.03975 522.59143 162.64832 518.3988 168.25687 517.13995 173.86543 509.88776" />
<text x="0.0" y="550.0" font-family="Verdana" font-size="11.5">straightened im</text>
<path id="straightened im axis" style="fill:none;stroke:#000000;stroke-width:1;" d="M0.0 520.0 179.474 520.0" />
<path id="straightened magnitude" style="fill:none;stroke:#227722;stroke-width:2.0;" d="M0.0 602.28174 5.6085625 604.1639 11.217125 584.216 16.825687 582.85406 22.43425 588.2045 28.042812 584.3624 33.651375 586.6322 39.259937 581.29974 44.8685 585.6729 50.477062 587.4724 56.085625 588.0003 61.694187 583.8296 67.30275 585.999 72.911316 590.014 78.519875 589.598 84.12843 588.47614 89.737 587.4208 95.345566 583.5491 100.954124 585.98566 106.56268 589.36743 112.17125 584.8476 117.779816 585.7438 123.388374 597.0633 128.99693 600.68964 134.6055 591.7954 140.21407 584.0887 145.82263 584.77997 151.43118 583.087 157.03975 585.1286 162.64832 583.91296 168.25687 584.777 173.86543 610.0" />
<text x="0.0" y="602.28174" font-family="Verdana" font-size="11.5">straightened magnitude</text>
<path id="straightened magnitude axis" style="fill:none;stroke:#000000;stroke-width:1;" d="M0.0 580.0 179.474 580.0" />
<path id="straightened phase" style="fill:none;stroke:#772222;stroke-width:2.0;" d="M0.0 640.0 5.6085625 643.06757 11.217125 622.491 16.825687 646.1238 22.43425 637.85315 28.042812 663.1187 33.651375 640.26044 39.259937 666.64886 44.8685 653.5641 50.477062 623.38165 56.085625 646.6554 61.694187 655.6319 67.30275 614.21875 72.911316 643.5462 78.519875 670.0 84.12843 641.45703 89.737 667.27356 95.345566 630.61646 100.954124 645.6507 106.56268 664.4766 112.17125 623.8709 117.779816 631.27167 123.388374 651.71124 128.99693 612.24786 134.6055 632.82794 140.21407 647.76215 145.82263 658.55255 151.43118 666.3335 157.03975 617.88855 162.64832 646.1929 168.25687 650.3253 173.86543 665.1704" />
<text x="0.0" y="640.0" font-family="Verdana" font-size="11.5">straightened phase</text>
<path id="straightened phase axis" style="fill:none;stroke:#000000;stroke-width:1;" d="M0.0 640.0 179.474 640.0" />
<path id="stroke_1" style="fill:none;stroke:#000000;stroke-width:2;" d="M34.725998 701.576 33.9 700.526 32.925995 700.0 31.725998 700.15 30.601997 701.276 30.150002 702.55 30.150002 703.526 31.949997 703.9 35.101997 701.426 35.626 702.776 36.526 703.602 40.725998 702.55 42.0 702.776 43.051994 704.352 43.876 703.526 46.425995 703.0 47.699997 703.226 48.601997 703.826 50.776 702.026" />
</g></svg>