<?xml version="1.0" ?>
<svg width="179.474" height="400.0">
<title>transforms graphed</title>
<g>
<path id="equalised real" style="fill:none;stroke:#227722;stroke-width:2.0;" d="M0.0 10.0 5.6085625 53.401726 11.217125 43.27133 16.825687 46.91249 22.43425 13.3196945 28.042812 32.681847 33.651375 31.393234 39.259937 65.51889 44.8685 53.561214 50.477062 63.26712 56.085625 32.424034 61.694187 46.303993 67.30275 16.631008 72.911316 40.285385 78.519875 27.573185 84.12843 48.42493 89.737 40.05983 95.345566 48.42493 100.954124 27.573187 106.56268 40.285385 112.17125 16.631008 117.779816 46.303993 123.388374 32.424034 128.99693 63.267124 134.6055 53.561214 140.21407 65.51889 145.82263 31.39323 151.43118 32.681847 157.03975 13.319696 162.64832 46.912487 168.25687 43.27134 173.86543 53.40172" />
<text x="0.0" y="10.0" font-family="Verdana" font-size="11.5">equalised real</text>
<path id="equalised real axis" style="fill:none;stroke:#000000;stroke-width:1;" d="M0.0 40.0 179.474 40.0" />
<path id="equalised im" style="fill:none;stroke:#772222;stroke-width:2.0;" d="M0.0 100.0 5.6085625 130.0 11.217125 72.659096 16.825687 109.89618 22.43425 79.43806 28.042812 117.505135 33.651375 127.18381 39.259937 103.51699 44.8685 110.8886 50.477062 80.54542 56.085625 86.14977 61.694187 92.39695 67.30275 85.8105 72.911316 111.537476 78.519875 99.051125 84.12843 109.37643 89.737 100.0 95.345566 90.62357 100.954124 100.948875 106.56268 88.462524 112.17125 114.1895 117.779816 107.60304 123.388374 113.85023 128.99693 119.45458 134.6055 89.1114 140.21407 96.48301 145.82263 72.81619 151.43118 82.49487 157.03975 120.56194 162.64832 90.10381 168.25687 127.340904 173.86543 70.0" />
<text x="0.0" y="100.0" font-family="Verdana" font-size="11.5">equalised im</text>
<path id="equalised im axis" style="fill:none;stroke:#000000;stroke-width:1;" d="M0.0 100.0 179.474 100.0" />
<path id="equalised magnitude" style="fill:none;stroke:#227722;stroke-width:2.0;" d="M0.0 172.93213 5.6085625 190.0 11.217125 185.38892 16.825687 170.90521 22.43425 189.81914 28.042812 177.34311 33.651375 186.1612 39.259937 182.23903 44.8685 175.41658 50.477062 186.92073 56.085625 174.35394 61.694187 168.87526 67.30275 184.02902 72.911316 170.6503 78.519875 170.7494 84.12843 171.29755 89.737 160.05157 95.345566 171.29755 100.954124 170.7494 106.56268 170.6503 112.17125 184.029 117.779816 168.87526 123.388374 174.35394 128.99693 186.92073 134.6055 175.41658 140.21407 182.23903 145.82263 186.1612 151.43118 177.34311 157.03975 189.81914 162.64832 170.90521 168.25687 185.38892 173.86543 190.0" />
<text x="0.0" y="172.93213" font-family="Verdana" font-size="11.5">equalised magnitude</text>
<path id="equalised magnitude axis" style="fill:none;stroke:#000000;stroke-width:1;" d="M0.0 160.0 179.474 160.0" />
<path id="equalised phase" style="fill:none;stroke:#772222;stroke-width:2.0;" d="M0.0 220.0 5.6085625 208.47626 11.217125 234.30846 16.825687 210.26842 22.43425 244.03714 28.042812 200.94994 33.651375 201.78082 39.259937 218.56406 44.8685 213.03964 50.477062 227.15736 56.085625 240.0312 61.694187 228.93854 67.30275 245.14917 72.911316 204.82674 78.519875 250.0 84.12843 211.44635 89.737 220.0 95.345566 228.55365 100.954124 190.0 106.56268 235.17326 112.17125 194.85083 117.779816 211.06146 123.388374 199.9688 128.99693 212.84264 134.6055 226.96036 140.21407 221.43594 145.82263 238.21918 151.43118 239.05008 157.03975 195.96286 162.64832 229.73158 168.25687 205.69156 173.86543 231.52374" />
<text x="0.0" y="220.0" font-family="Verdana" font-size="11.5">equalised phase</text>
<path id="equalised phase axis" style="fill:none;stroke:#000000;stroke-width:1;" d="M0.0 220.0 179.474 220.0" />
<path id="equalised theta" style="fill:none;stroke:#222277;stroke-width:2.0;" d="M0.0 280.0 5.6085625 280.0 11.217125 267.78995 16.825687 277.50214 22.43425 279.99985 28.042812 280.00006 33.651375 279.99997 39.259937 280.00003 44.8685 280.83673 50.477062 282.577 56.085625 310.0 61.694187 280.70636 67.30275 276.1318 72.911316 271.1057 78.519875 263.03125 84.12843 265.83148 89.737 275.10806 95.345566 280.0 100.954124 277.45996 106.56268 277.5506 112.17125 280.0 117.779816 276.57874 123.388374 278.31317 128.99693 280.00003 134.6055 276.02283 140.21407 274.851 145.82263 256.2304 151.43118 272.18823 157.03975 275.584 162.64832 275.64566 168.25687 258.76904 173.86543 275.00046 179.474 280.00003 185.08257 280.0 190.69113 280.00003 196.29968 279.99994 201.90825 282.04056 207.51682 280.46375 213.12537 280.69254 218.73393 280.97852 224.3425 281.86075 229.95107 283.87173 235.55963 280.0001 241.16818 291.5204 246.77675 289.35126 252.38531 280.82996 257.99387 288.8636" />
<text x="0.0" y="280.0" font-family="Verdana" font-size="11.5">equalised theta</text>
<path id="equalised theta axis" style="fill:none;stroke:#000000;stroke-width:1;" d="M0.0 280.0 263.60245 280.0" />
<path id="rawish theta" style="fill:none;stroke:#772277;stroke-width:2.0;" d="M0.0 340.0 5.6085625 340.0 11.217125 326.15314 16.825687 342.8184 22.43425 370.0 28.042812 337.4668 33.651375 333.92667 39.259937 324.2966 44.8685 325.42026 50.477062 332.02063 56.085625 335.3461 61.694187 335.23544 67.30275 335.3785 72.911316 332.81058 78.519875 316.4387 84.12843 334.1038 89.737 335.01654 95.345566 315.98257 100.954124 341.9884 106.56268 341.55862 112.17125 345.34705 117.779816 357.2428 123.388374 348.131" />
<text x="0.0" y="340.0" font-family="Verdana" font-size="11.5">rawish theta</text>
<path id="rawish theta axis" style="fill:none;stroke:#000000;stroke-width:1;" d="M0.0 340.0 128.99693 340.0" />
<path id="straightened theta" style="fill:none;stroke:#227777;stroke-width:2.0;" d="M0.0 400.0 5.6085625 400.0 11.217125 385.56448 16.825687 402.9382 22.43425 430.0 28.042812 392.30298 33.651375 383.629 39.259937 384.80045 44.8685 391.68143 50.477062 395.14825 56.085625 395.0329 61.694187 395.18204 67.30275 392.50494 72.911316 375.437 78.519875 393.85312 84.12843 394.8047 89.737 375.54218 95.345566 403.11716 100.954124 405.57434 106.56268 417.97586 112.17125 408.47668" />
<text x="0.0" y="400.0" font-family="Verdana" font-size="11.5">straightened theta</text>
<path id="straightened theta axis" style="fill:none;stroke:#000000;stroke-width:1;" d="M0.0 400.0 117.779816 400.0" />
<path id="straightened real" style="fill:none;stroke:#227722;stroke-width:2.0;" d="M0.0 450.459 5.6085625 489.18878 11.217125 475.69812 16.825687 462.77576 22.43425 473.02957 28.042812 464.55652 33.651375 457.83612 39.259937 469.9799 44.8685 465.77734 50.477062 466.61197 56.085625 452.95953 61.694187 455.90457 67.30275 443.65903 72.911316 453.09497 78.519875 448.49127 84.12843 455.81647 89.737 460.019 95.345566 469.54233 100.954124 463.60446 106.56268 467.08655 112.17125 461.47675 117.779816 468.10516 123.388374 462.22165 128.99693 468.18744 134.6055 462.84848 140.21407 466.25183 145.82263 456.6894 151.43118 450.78864 157.03975 430.0 162.64832 461.62103 168.25687 446.38266 173.86543 439.3356" />
<text x="0.0" y="450.459" font-family="Verdana" font-size="11.5">straightened real</text>
<path id="straightened real axis" style="fill:none;stroke:#000000;stroke-width:1;" d="M0.0 460.0 179.474 460.0" />
<path id="straightened im" style="fill:none;stroke:#772222;stroke-width:2.0;" d="M0.0 550.0 5.6085625 517.2427 11.217125 523.8609 16.825687 517.03314 22.43425 521.3205 28.042812 514.68665 33.651375 522.7103 39.259937 515.78906 44.8685 522.8493 50.477062 508.74457 56.085625 520.70605 61.694187 511.5225 67.30275 521.9769 72.911316 518.2252 78.519875 525.14185 84.12843 520.9303 89.737 529.0961 95.345566 518.24115 100.954124 525.41394 106.56268 514.9163 112.17125 526.04645 117.779816 513.703 123.388374 524.6782 128.99693 514.3241 134.6055 519.72644 140.21407 514.7804 145.82263 514.91406 151.43118 509.66623 157.03975 527.2176 162.64832 514.19495 168.25687 531.7022 173.86543 508.63873" />
<text x="0.0" y="550.0" font-family="Verdana" font-size="11.5">straightened im</text>
<path id="straightened im axis" style="fill:none;stroke:#000000;stroke-width:1;" d="M0.0 520.0 179.474 520.0" />
<path id="straightened magnitude" style="fill:none;stroke:#227722;stroke-width:2.0;" d="M0.0 610.0 5.6085625 604.97784 11.217125 595.17865 16.825687 586.32135 22.43425 591.19006 28.042812 591.1987 33.651375 585.6683 39.259937 591.79486 44.8685 587.4278 50.477062 602.9845 56.085625 586.043 61.694187 597.1493 67.30275 594.1962 72.911316 586.7543 78.519875 594.0084 84.12843 583.95013 89.737 598.0312 95.345566 588.6972 100.954124 591.1461 106.56268 591.6862 112.17125 592.04913 117.779816 594.1991 123.388374 589.4574 128.99693 593.16547 134.6055 582.4395 140.21407 591.58905 145.82263 590.4539 151.43118 601.8809 157.03975 608.84784 162.64832 591.5866 168.25687 605.834 173.86543 608.37134" />
<text x="0.0" y="610.0" font-family="Verdana" font-size="11.5">straightened magnitude</text>
<path id="straightened magnitude axis" style="fill:none;stroke:#000000;stroke-width:1;" d="M0.0 580.0 179.474 580.0" />
<path id="straightened phase" style="fill:none;stroke:#772222;stroke-width:2.0;" d="M0.0 640.0 5.6085625 642.276 11.217125 634.5477 16.825687 652.33264 22.43425 637.5641 28.042812 652.6294 33.651375 620.4474 39.259937 648.1116 44.8685 631.08704 50.477062 653.703 56.085625 610.0 61.694187 658.27673 67.30275 610.4742 72.911316 666.7589 78.519875 615.9951 84.12843 612.6 89.737 623.80347 95.345566 644.2554 100.954124 626.6152 106.56268 650.728 112.17125 624.852 117.779816 651.08 123.388374 625.83124 128.99693 650.57263 134.6055 642.3125 140.21407 651.38495 145.82263 658.96655 151.43118 659.9113 157.03975 612.94257 162.64832 654.9977 168.25687 619.09247 173.86543 662.9503" />
<text x="0.0" y="640.0" font-family="Verdana" font-size="11.5">straightened phase</text>
<path id="straightened phase axis" style="fill:none;stroke:#000000;stroke-width:1;" d="M0.0 640.0 179.474 640.0" />
<path id="stroke_4" style="fill:none;stroke:#000000;stroke-width:2;" d="M33.826004 700.37396 33.0 700.75 33.300003 707.5 33.0 709.0 31.725998 706.524 30.673996 706.0 30.0 706.824 30.524002 707.64996 33.225998 708.548 36.076004 708.324 38.623993 706.974 39.300003 706.14996 39.373993 705.09796 37.873993 705.698 37.199997 706.524 36.826004 707.948 45.225998 706.37396 47.326004 706.524 49.5 707.798 48.373993 710.198 47.399994 710.64996" />
</g></svg>