<?xml version="1.0" ?>
<svg width="179.474" height="400.0">
<title>transforms graphed</title>
<g>
<path id="equalised real" style="fill:none;stroke:#227722;stroke-width:2.0;" d="M0.0 10.0 5.6085625 25.825073 11.217125 32.413498 16.825687 58.535202 22.43425 63.31143 28.042812 34.24035 33.651375 29.992939 39.259937 61.95594 44.8685 49.906784 50.477062 10.698587 56.085625 62.29574 61.694187 33.3246 67.30275 40.413445 72.911316 20.662493 78.519875 59.203743 84.12843 42.36972 89.737 19.70092 95.345566 42.36972 100.954124 59.20374 106.56268 20.66249 112.17125 40.413445 117.779816 33.324608 123.388374 62.29574 128.99693 10.698587 134.6055 49.906784 140.21407 61.955936 145.82263 29.992935 151.43118 34.240356 157.03975 63.31143 162.64832 58.535202 168.25687 32.41349 173.86543 25.82507" />
<text x="0.0" y="10.0" font-family="Verdana" font-size="11.5">equalised real</text>
<path id="equalised real axis" style="fill:none;stroke:#000000;stroke-width:1;" d="M0.0 40.0 179.474 40.0" />
<path id="equalised im" style="fill:none;stroke:#772222;stroke-width:2.0;" d="M0.0 100.0 5.6085625 115.41554 11.217125 129.99257 16.825687 115.88222 22.43425 101.727516 28.042812 70.0 33.651375 127.34301 39.259937 96.820244 44.8685 82.04727 50.477062 91.29389 56.085625 124.98276 61.694187 70.13423 67.30275 108.60057 72.911316 94.68296 78.519875 123.136734 84.12843 71.97284 89.737 100.0 95.345566 128.02716 100.954124 76.86326 106.56268 105.31704 112.17125 91.39943 117.779816 129.86577 123.388374 75.01724 128.99693 108.706116 134.6055 117.95273 140.21407 103.179756 145.82263 72.657 151.43118 130.0 157.03975 98.272484 162.64832 84.117775 168.25687 70.00744 173.86543 84.584465" />
<text x="0.0" y="100.0" font-family="Verdana" font-size="11.5">equalised im</text>
<path id="equalised im axis" style="fill:none;stroke:#000000;stroke-width:1;" d="M0.0 100.0 179.474 100.0" />
<path id="equalised magnitude" style="fill:none;stroke:#227722;stroke-width:2.0;" d="M0.0 173.97382 5.6085625 178.78273 11.217125 186.93166 16.825687 182.08018 22.43425 181.76817 28.042812 186.54222 33.651375 185.46016 39.259937 180.63861 44.8685 178.08731 50.477062 188.32002 56.085625 190.0 61.694187 186.61464 67.30275 167.46213 72.911316 178.59436 78.519875 186.86911 84.12843 184.38495 89.737 178.91037 95.345566 184.38495 100.954124 186.86911 106.56268 178.59436 112.17125 167.46211 117.779816 186.61464 123.388374 190.0 128.99693 188.32002 134.6055 178.08731 140.21407 180.63861 145.82263 185.46016 151.43118 186.54222 157.03975 181.76817 162.64832 182.0802 168.25687 186.93166 173.86543 178.78273" />
<text x="0.0" y="173.97382" font-family="Verdana" font-size="11.5">equalised magnitude</text>
<path id="equalised magnitude axis" style="fill:none;stroke:#000000;stroke-width:1;" d="M0.0 160.0 179.474 160.0" />
<path id="equalised phase" style="fill:none;stroke:#772222;stroke-width:2.0;" d="M0.0 220.0 5.6085625 197.55464 11.217125 202.46436 16.825687 213.57433 22.43425 219.34283 28.042812 236.94382 33.651375 201.42018 39.259937 221.27861 44.8685 229.8866 50.477062 247.42526 56.085625 212.3027 61.694187 237.25209 67.30275 205.49312 72.911316 247.6091 78.519875 211.95753 84.12843 234.13431 89.737 190.0 95.345566 205.86569 100.954124 228.04247 106.56268 192.3909 112.17125 234.5069 117.779816 202.74791 123.388374 227.6973 128.99693 192.57474 134.6055 210.1134 140.21407 218.72139 145.82263 238.57982 151.43118 203.05618 157.03975 220.65717 162.64832 226.42567 168.25687 237.53564 173.86543 242.44537" />
<text x="0.0" y="220.0" font-family="Verdana" font-size="11.5">equalised phase</text>
<path id="equalised phase axis" style="fill:none;stroke:#000000;stroke-width:1;" d="M0.0 220.0 179.474 220.0" />
<path id="equalised theta" style="fill:none;stroke:#222277;stroke-width:2.0;" d="M0.0 280.0 5.6085625 280.0 11.217125 280.00992 16.825687 276.3491 22.43425 272.86993 28.042812 270.68405 33.651375 270.66882 39.259937 275.51752 44.8685 271.74197 50.477062 268.72614 56.085625 266.4435 61.694187 275.87326 67.30275 273.8014 72.911316 276.99567 78.519875 279.9998 84.12843 310.0 89.737 283.18365 95.345566 277.4762 100.954124 274.6989 106.56268 267.73074 112.17125 275.5551 117.779816 280.00012 123.388374 284.05237 128.99693 292.40414 134.6055 264.48026 140.21407 284.18802 145.82263 280.60876 151.43118 285.16983 157.03975 281.77774 162.64832 289.62653 168.25687 265.49673 173.86543 269.6938 179.474 280.98932 185.08257 280.52423 190.69113 279.97882" />
<text x="0.0" y="280.0" font-family="Verdana" font-size="11.5">equalised theta</text>
<path id="equalised theta axis" style="fill:none;stroke:#000000;stroke-width:1;" d="M0.0 280.0 196.29968 280.0" />
<path id="rawish theta" style="fill:none;stroke:#772277;stroke-width:2.0;" d="M0.0 340.0 5.6085625 340.0 11.217125 331.36084 16.825687 327.2448 22.43425 329.40985 28.042812 329.1586 33.651375 328.45596 39.259937 333.78415 44.8685 336.2145 50.477062 370.0 56.085625 334.56915 61.694187 330.89584 67.30275 331.4623 72.911316 352.0434 78.519875 332.1975 84.12843 338.83707 89.737 347.0841 95.345566 347.94907 100.954124 319.85294 106.56268 341.244" />
<text x="0.0" y="340.0" font-family="Verdana" font-size="11.5">rawish theta</text>
<path id="rawish theta axis" style="fill:none;stroke:#000000;stroke-width:1;" d="M0.0 340.0 112.17125 340.0" />
<path id="straightened theta" style="fill:none;stroke:#227777;stroke-width:2.0;" d="M0.0 400.0 5.6085625 400.0 11.217125 391.36084 16.825687 387.2448 22.43425 389.40985 28.042812 389.1586 33.651375 388.45596 39.259937 393.78415 44.8685 396.2145 50.477062 430.0 56.085625 394.56915 61.694187 390.89584 67.30275 391.4623 72.911316 412.0434 78.519875 391.19818 84.12843 406.92053 89.737 407.94907 95.345566 380.429" />
<text x="0.0" y="400.0" font-family="Verdana" font-size="11.5">straightened theta</text>
<path id="straightened theta axis" style="fill:none;stroke:#000000;stroke-width:1;" d="M0.0 400.0 100.954124 400.0" />
<path id="straightened real" style="fill:none;stroke:#227722;stroke-width:2.0;" d="M0.0 453.68472 5.6085625 484.0321 11.217125 457.44183 16.825687 472.4063 22.43425 469.83112 28.042812 463.15753 33.651375 463.76337 39.259937 460.95142 44.8685 468.0055 50.477062 452.81766 56.085625 470.13654 61.694187 453.82947 67.30275 469.44525 72.911316 454.7324 78.519875 471.97766 84.12843 455.10382 89.737 455.72687 95.345566 465.8939 100.954124 456.10745 106.56268 457.12616 112.17125 450.72882 117.779816 463.36005 123.388374 459.2504 128.99693 454.84592 134.6055 456.16544 140.21407 468.29242 145.82263 452.02347 151.43118 454.41757 157.03975 459.9834 162.64832 455.39734 168.25687 459.3641 173.86543 430.0" />
<text x="0.0" y="453.68472" font-family="Verdana" font-size="11.5">straightened real</text>
<path id="straightened real axis" style="fill:none;stroke:#000000;stroke-width:1;" d="M0.0 460.0 179.474 460.0" />
<path id="straightened im" style="fill:none;stroke:#772222;stroke-width:2.0;" d="M0.0 550.0 5.6085625 515.89294 11.217125 528.0988 16.825687 519.193 22.43425 523.08734 28.042812 513.8175 33.651375 522.233 39.259937 517.96234 44.8685 518.3566 50.477062 519.05 56.085625 519.6566 61.694187 519.3573 67.30275 518.477 72.911316 520.4785 78.519875 517.35986 84.12843 515.12604 89.737 519.14716 95.345566 521.4712 100.954124 512.1218 106.56268 521.68225 112.17125 516.5299 117.779816 526.1187 123.388374 514.0007 128.99693 521.021 134.6055 522.421 140.21407 518.6822 145.82263 516.04266 151.43118 520.60925 157.03975 522.6963 162.64832 515.59735 168.25687 521.3087 173.86543 512.40295" />
<text x="0.0" y="550.0" font-family="Verdana" font-size="11.5">straightened im</text>
<path id="straightened im axis" style="fill:none;stroke:#000000;stroke-width:1;" d="M0.0 520.0 179.474 520.0" />
<path id="straightened magnitude" style="fill:none;stroke:#227722;stroke-width:2.0;" d="M0.0 603.9409 5.6085625 602.9546 11.217125 593.04376 16.825687 591.43567 22.43425 590.2479 28.042812 590.21344 33.651375 584.9396 39.259937 583.344 44.8685 587.78143 50.477062 586.7489 56.085625 589.3008 61.694187 585.7431 67.30275 588.9819 72.911316 584.8842 78.519875 591.7417 84.12843 588.93 89.737 584.14075 95.345566 585.8804 100.954124 592.98114 106.56268 583.74615 112.17125 590.1166 117.779816 590.17114 123.388374 589.52985 128.99693 584.9905 134.6055 585.2009 140.21407 587.87744 145.82263 589.62775 151.43118 585.20374 157.03975 584.2719 162.64832 588.15045 168.25687 582.15375 173.86543 610.0" />
<text x="0.0" y="603.9409" font-family="Verdana" font-size="11.5">straightened magnitude</text>
<path id="straightened magnitude axis" style="fill:none;stroke:#000000;stroke-width:1;" d="M0.0 580.0 179.474 580.0" />
<path id="straightened phase" style="fill:none;stroke:#772222;stroke-width:2.0;" d="M0.0 640.0 5.6085625 642.88794 11.217125 622.4021 16.825687 641.12573 22.43425 635.00024 28.042812 652.8982 33.651375 631.97815 39.259937 653.13385 44.8685 643.42816 50.477062 669.3061 56.085625 640.5881 61.694187 669.775 67.30275 642.7329 72.911316 610.0 78.519875 643.6599 84.12843 661.06976 89.737 668.22614 95.345566 635.9047 100.954124 658.57874 106.56268 616.38794 112.17125 665.793 117.779816 627.30585 123.388374 656.50757 128.99693 611.7508 134.6055 616.76733 140.21407 642.6954 145.82263 664.4401 151.43118 610.3088 157.03975 624.1813 162.64832 661.2455 168.25687 621.4654 173.86543 667.41785" />
<text x="0.0" y="640.0" font-family="Verdana" font-size="11.5">straightened phase</text>
<path id="straightened phase axis" style="fill:none;stroke:#000000;stroke-width:1;" d="M0.0 640.0 179.474 640.0" />
<path id="stroke_19" style="fill:none;stroke:#000000;stroke-width:2;" d="M35.100006 701.2 32.700005 700.0 31.200005 700.224 30.0 702.324 30.300003 703.6 31.350006 704.276 32.850006 703.9 33.676003 703.224 35.324005 700.9 35.926003 702.324 37.200005 703.6 38.774002 703.824 41.324005 702.55 42.600006 703.074 45.75 702.324 47.474007 702.776 48.524002 703.9 51.824005 701.8" />
</g></svg>