<?xml version="1.0" ?>
<svg width="179.474" height="400.0">
<title>transforms graphed</title>
<g>
<path id="equalised real" style="fill:none;stroke:#227722;stroke-width:2.0;" d="M0.0 22.782545 5.6085625 33.14509 11.217125 37.310455 16.825687 46.302006 22.43425 46.18233 28.042812 50.026184 33.651375 34.55194 39.259937 43.541515 44.8685 28.523596 50.477062 70.0 56.085625 31.640387 61.694187 25.70044 67.30275 35.889175 72.911316 50.23264 78.519875 36.129707 84.12843 50.258263 89.737 18.350023 95.345566 50.258263 100.954124 36.129704 106.56268 50.23264 112.17125 35.889175 117.779816 25.700438 123.388374 31.640388 128.99693 70.0 134.6055 28.523594 140.21407 43.541515 145.82263 34.55194 151.43118 50.026184 157.03975 46.182327 162.64832 46.302002 168.25687 37.31045 173.86543 33.14509" />
<text x="0.0" y="22.782545" font-family="Verdana" font-size="11.5">equalised real</text>
<path id="equalised real axis" style="fill:none;stroke:#000000;stroke-width:1;" d="M0.0 40.0 179.474 40.0" />
<path id="equalised im" style="fill:none;stroke:#772222;stroke-width:2.0;" d="M0.0 100.0 5.6085625 111.1461 11.217125 114.09195 16.825687 107.086395 22.43425 108.58292 28.042812 89.17921 33.651375 101.49401 39.259937 91.443535 44.8685 116.85433 50.477062 99.95064 56.085625 70.0 61.694187 101.878105 67.30275 115.01427 72.911316 97.213585 78.519875 103.23954 84.12843 87.06332 89.737 100.0 95.345566 112.93668 100.954124 96.76046 106.56268 102.786415 112.17125 84.98573 117.779816 98.1219 123.388374 130.0 128.99693 100.049355 134.6055 83.14567 140.21407 108.55647 145.82263 98.50599 151.43118 110.820786 157.03975 91.41708 162.64832 92.913605 168.25687 85.90805 173.86543 88.8539" />
<text x="0.0" y="100.0" font-family="Verdana" font-size="11.5">equalised im</text>
<path id="equalised im axis" style="fill:none;stroke:#000000;stroke-width:1;" d="M0.0 100.0 179.474 100.0" />
<path id="equalised magnitude" style="fill:none;stroke:#227722;stroke-width:2.0;" d="M0.0 168.60872 5.6085625 171.65405 11.217125 172.2155 16.825687 168.69597 22.43425 169.53372 28.042812 173.57358 33.651375 165.5926 39.259937 168.05536 44.8685 178.29791 50.477062 190.0 56.085625 186.70905 61.694187 174.38747 67.30275 173.34457 72.911316 170.50038 78.519875 164.7416 84.12843 174.99635 89.737 181.64996 95.345566 174.99635 100.954124 164.7416 106.56268 170.50038 112.17125 173.34457 117.779816 174.38747 123.388374 186.70905 128.99693 190.0 134.6055 178.29791 140.21407 168.05536 145.82263 165.5926 151.43118 173.57358 157.03975 169.53372 162.64832 168.69597 168.25687 172.2155 173.86543 171.65405" />
<text x="0.0" y="168.60872" font-family="Verdana" font-size="11.5">equalised magnitude</text>
<path id="equalised magnitude axis" style="fill:none;stroke:#000000;stroke-width:1;" d="M0.0 160.0 179.474 160.0" />
<path id="equalised phase" style="fill:none;stroke:#772222;stroke-width:2.0;" d="M0.0 220.0 5.6085625 198.99512 11.217125 202.88013 16.825687 212.7407 22.43425 211.73772 28.042812 227.06386 33.651375 192.17583 39.259937 230.6531 44.8685 198.52606 50.477062 220.01329 56.085625 238.0399 61.694187 191.05618 67.30275 202.00969 72.911316 222.1611 78.519875 195.88159 84.12843 227.80652 89.737 190.0 95.345566 212.19348 100.954124 244.11841 106.56268 217.8389 112.17125 237.99031 117.779816 248.94382 123.388374 201.9601 128.99693 219.98671 134.6055 241.47394 140.21407 209.3469 145.82263 247.82417 151.43118 212.93614 157.03975 228.26228 162.64832 227.2593 168.25687 237.11989 173.86543 241.0049" />
<text x="0.0" y="220.0" font-family="Verdana" font-size="11.5">equalised phase</text>
<path id="equalised phase axis" style="fill:none;stroke:#000000;stroke-width:1;" d="M0.0 220.0 179.474 220.0" />
<path id="equalised theta" style="fill:none;stroke:#222277;stroke-width:2.0;" d="M0.0 280.0 5.6085625 280.0 11.217125 279.768 16.825687 271.92477 22.43425 269.42218 28.042812 268.6203 33.651375 274.7712 39.259937 272.53723 44.8685 265.2627 50.477062 263.22318 56.085625 267.98303 61.694187 280.00003 67.30275 280.00003 72.911316 301.15085 78.519875 293.18457 84.12843 279.99985 89.737 275.0277 95.345566 261.41656 100.954124 274.59686 106.56268 280.00012 112.17125 282.49374 117.779816 288.28323 123.388374 285.42404 128.99693 287.6014 134.6055 260.43445 140.21407 272.47287 145.82263 285.6539 151.43118 284.18747 157.03975 287.19745 162.64832 293.0953 168.25687 280.62677 173.86543 250.0 179.474 278.6185 185.08257 279.25906 190.69113 279.99768" />
<text x="0.0" y="280.0" font-family="Verdana" font-size="11.5">equalised theta</text>
<path id="equalised theta axis" style="fill:none;stroke:#000000;stroke-width:1;" d="M0.0 280.0 196.29968 280.0" />
<path id="rawish theta" style="fill:none;stroke:#772277;stroke-width:2.0;" d="M0.0 340.0 5.6085625 340.0 11.217125 326.97394 16.825687 322.84036 22.43425 331.09497 28.042812 325.24387 33.651375 314.85812 39.259937 370.0 44.8685 335.14188 50.477062 318.36102 56.085625 350.13663 61.694187 351.517 67.30275 311.07547 72.911316 348.78644 78.519875 349.7774 84.12843 353.4194 89.737 314.0805 95.345566 336.13275" />
<text x="0.0" y="340.0" font-family="Verdana" font-size="11.5">rawish theta</text>
<path id="rawish theta axis" style="fill:none;stroke:#000000;stroke-width:1;" d="M0.0 340.0 100.954124 340.0" />
<path id="straightened theta" style="fill:none;stroke:#227777;stroke-width:2.0;" d="M0.0 400.0 5.6085625 400.0 11.217125 386.97394 16.825687 382.84036 22.43425 391.09497 28.042812 385.24387 33.651375 374.85812 39.259937 430.0 44.8685 395.14188 50.477062 378.36102 56.085625 410.13663 61.694187 411.517 67.30275 371.07547 72.911316 408.78644 78.519875 409.7774 84.12843 413.4194 89.737 371.78055" />
<text x="0.0" y="400.0" font-family="Verdana" font-size="11.5">straightened theta</text>
<path id="straightened theta axis" style="fill:none;stroke:#000000;stroke-width:1;" d="M0.0 400.0 95.345566 400.0" />
<path id="straightened real" style="fill:none;stroke:#227722;stroke-width:2.0;" d="M0.0 454.34958 5.6085625 485.50073 11.217125 459.99197 16.825687 464.89685 22.43425 460.6814 28.042812 468.99457 33.651375 460.83127 39.259937 468.27032 44.8685 456.95877 50.477062 465.84634 56.085625 454.73886 61.694187 461.34406 67.30275 461.48367 72.911316 462.01685 78.519875 454.77365 84.12843 463.7454 89.737 452.89493 95.345566 462.9877 100.954124 462.68604 106.56268 464.69943 112.17125 455.81818 117.779816 449.2703 123.388374 459.77423 128.99693 473.84442 134.6055 455.50858 140.21407 454.05417 145.82263 455.59283 151.43118 457.5862 157.03975 463.3764 162.64832 459.23953 168.25687 458.2427 173.86543 430.0" />
<text x="0.0" y="454.34958" font-family="Verdana" font-size="11.5">straightened real</text>
<path id="straightened real axis" style="fill:none;stroke:#000000;stroke-width:1;" d="M0.0 460.0 179.474 460.0" />
<path id="straightened im" style="fill:none;stroke:#772222;stroke-width:2.0;" d="M0.0 550.0 5.6085625 519.7059 11.217125 520.7925 16.825687 517.8412 22.43425 525.6451 28.042812 516.57715 33.651375 522.833 39.259937 514.4249 44.8685 520.6831 50.477062 515.4813 56.085625 519.425 61.694187 519.0744 67.30275 521.7811 72.911316 513.9021 78.519875 522.5399 84.12843 516.36676 89.737 521.3665 95.345566 521.37634 100.954124 521.28546 106.56268 514.98114 112.17125 515.96704 117.779816 518.3471 123.388374 531.04205 128.99693 515.5004 134.6055 514.15656 140.21407 517.7383 145.82263 522.25446 151.43118 520.7674 157.03975 522.3215 162.64832 515.0971 168.25687 515.3356 173.86543 515.38965" />
<text x="0.0" y="550.0" font-family="Verdana" font-size="11.5">straightened im</text>
<path id="straightened im axis" style="fill:none;stroke:#000000;stroke-width:1;" d="M0.0 520.0 179.474 520.0" />
<path id="straightened magnitude" style="fill:none;stroke:#227722;stroke-width:2.0;" d="M0.0 601.1758 5.6085625 604.9072 11.217125 581.1093 16.825687 585.65686 22.43425 587.92926 28.042812 590.0056 33.651375 584.04755 39.259937 591.2306 44.8685 583.1202 50.477062 588.52057 56.085625 585.2006 61.694187 581.8443 67.30275 582.8835 72.911316 588.7594 78.519875 586.2201 84.12843 586.26416 89.737 587.1976 95.345566 583.49634 100.954124 583.1809 106.56268 588.3911 112.17125 586.9673 117.779816 590.7309 123.388374 595.4569 128.99693 594.9152 134.6055 589.28094 140.21407 586.6135 145.82263 585.33685 151.43118 582.59045 157.03975 584.62933 162.64832 586.9026 168.25687 586.7505 173.86543 610.0" />
<text x="0.0" y="601.1758" font-family="Verdana" font-size="11.5">straightened magnitude</text>
<path id="straightened magnitude axis" style="fill:none;stroke:#000000;stroke-width:1;" d="M0.0 580.0 179.474 580.0" />
<path id="straightened phase" style="fill:none;stroke:#772222;stroke-width:2.0;" d="M0.0 640.0 5.6085625 640.1661 11.217125 624.14856 16.825687 645.66113 22.43425 625.0636 28.042812 645.0162 33.651375 626.24817 39.259937 647.71735 44.8685 611.56793 50.477062 648.4034 56.085625 670.0 61.694187 647.8247 67.30275 629.5086 72.911316 653.5021 78.519875 614.55096 84.12843 649.51636 89.737 611.1412 95.345566 634.1377 100.954124 633.96027 106.56268 649.96674 112.17125 662.0726 117.779816 669.378 123.388374 624.0762 128.99693 644.3794 134.6055 660.72577 140.21407 666.5466 145.82263 614.7946 151.43118 612.734 157.03975 632.18353 162.64832 656.8635 168.25687 658.36285 173.86543 669.38306" />
<text x="0.0" y="640.0" font-family="Verdana" font-size="11.5">straightened phase</text>
<path id="straightened phase axis" style="fill:none;stroke:#000000;stroke-width:1;" d="M0.0 640.0 179.474 640.0" />
<path id="stroke_7" style="fill:none;stroke:#000000;stroke-width:2;" d="M34.5 701.574 33.0 700.3 30.901993 700.376 30.151993 701.574 30.075996 703.0 30.825996 703.75 34.425995 701.05 35.85 703.6 36.675995 704.42596 39.825996 702.92596 42.075996 703.224 43.275993 704.42596 44.25 703.3 46.049995 702.626 47.549995 702.92596 48.6 704.42596 51.299995 702.39996" />
</g></svg>