<?xml version="1.0" ?>
<svg width="179.474" height="400.0">
<title>transforms graphed</title>
<g>
<path id="equalised real" style="fill:none;stroke:#227722;stroke-width:2.0;" d="M0.0 70.0 2.8042812 37.492462 5.6085625 54.239403 8.412844 29.744781 11.217125 39.7055 14.021406 47.600094 16.825687 37.230484 19.629969 31.243334 22.43425 42.102684 25.238531 42.79258 28.042812 26.803513 30.847094 38.608746 33.651375 47.207077 36.455658 31.991137 39.259937 34.194077 42.064217 44.05736 44.8685 40.368923 47.672783 29.338825 50.477062 44.07766 53.28134 43.435783 56.085625 30.70971 58.889908 36.84222 61.694187 48.235123 64.49847 35.60515 67.30275 32.93058 70.10703 48.088768 72.911316 42.261223 75.71559 31.488781 78.519875 45.89624 81.32416 49.177494 84.12843 34.284367 86.93272 40.850464 89.737 52.79091 92.54128 40.85046 95.345566 34.28437 98.14984 49.177494 100.954124 45.89624 103.75841 31.488781 106.56268 42.261227 109.36697 48.088768 112.17125 32.93058 114.97553 35.605152 117.779816 48.235123 120.58409 36.842216 123.388374 30.70971 126.19266 43.435787 128.99693 44.077656 131.80122 29.338823 134.6055 40.368923 137.40977 44.057358 140.21407 34.194077 143.01834 31.991138 145.82263 47.207077 148.6269 38.60874 151.43118 26.803513 154.23547 42.792583 157.03975 42.102684 159.84402 31.243336 162.64832 37.230484 165.45259 47.600094 168.25687 39.7055 171.06116 29.744781 173.86543 54.239407 176.66972 37.492462" />
<text x="0.0" y="70.0" font-family="Verdana" font-size="11.5">equalised real</text>
<path id="equalised real axis" style="fill:none;stroke:#000000;stroke-width:1;" d="M0.0 40.0 179.474 40.0" />
<path id="equalised im" style="fill:none;stroke:#772222;stroke-width:2.0;" d="M0.0 100.0 2.8042812 81.998 5.6085625 81.78558 8.412844 83.188034 11.217125 101.656845 14.021406 99.88483 16.825687 70.0 19.629969 104.75878 22.43425 104.43599 25.238531 81.64829 28.042812 95.629585 30.847094 116.04153 33.651375 95.20412 36.455658 85.70242 39.259937 111.65052 42.064217 108.76016 44.8685 82.66532 47.672783 109.45511 50.477062 110.54666 53.28134 92.83389 56.085625 92.78115 58.889908 121.30499 61.694187 101.97041 64.49847 87.205734 67.30275 117.27263 70.10703 111.69096 72.911316 88.020454 75.71559 107.06261 78.519875 120.285 81.32416 92.03523 84.12843 93.1339 86.93272 119.64707 89.737 100.0 92.54128 80.35293 95.345566 106.8661 98.14984 107.96477 100.954124 79.715 103.75841 92.9374 106.56268 111.97954 109.36697 88.30903 112.17125 82.72737 114.97553 112.79426 117.779816 98.02958 120.58409 78.69501 123.388374 107.21885 126.19266 107.1661 128.99693 89.45334 131.80122 90.54489 134.6055 117.33468 137.40977 91.23983 140.21407 88.34949 143.01834 114.29758 145.82263 104.79588 148.6269 83.95847 151.43118 104.37042 154.23547 118.3517 157.03975 95.56401 159.84402 95.24123 162.64832 130.0 165.45259 100.115166 168.25687 98.34316 171.06116 116.811966 173.86543 118.21441 176.66972 118.002" />
<text x="0.0" y="100.0" font-family="Verdana" font-size="11.5">equalised im</text>
<path id="equalised im axis" style="fill:none;stroke:#000000;stroke-width:1;" d="M0.0 100.0 179.474 100.0" />
<path id="equalised magnitude" style="fill:none;stroke:#227722;stroke-width:2.0;" d="M0.0 186.14561 2.8042812 177.21896 5.6085625 190.0 8.412844 183.69499 11.217125 161.61653 14.021406 173.24771 16.825687 188.17194 19.629969 175.88553 22.43425 165.50237 25.238531 177.66252 28.042812 183.3547 30.847094 175.03804 33.651375 173.3228 36.455658 179.23146 39.259937 174.78499 42.064217 170.75645 44.8685 176.0505 47.672783 180.53885 50.477062 172.0717 53.28134 168.93422 56.085625 177.51657 58.889908 180.46494 61.694187 174.46945 64.49847 174.09946 67.30275 180.17935 70.10703 177.77002 72.911316 171.76315 75.71559 176.21063 78.519875 181.397 81.32416 177.61237 84.12843 171.81548 86.93272 178.23734 89.737 182.29507 92.54128 178.23734 95.345566 171.81548 98.14984 177.61237 100.954124 181.397 103.75841 176.21062 106.56268 171.76314 109.36697 177.77002 112.17125 180.17935 114.97553 174.09946 117.779816 174.46945 120.58409 180.46494 123.388374 177.51656 126.19266 168.93422 128.99693 172.0717 131.80122 180.53885 134.6055 176.0505 137.40977 170.75645 140.21407 174.78497 143.01834 179.23146 145.82263 173.3228 148.6269 175.03804 151.43118 183.3547 154.23547 177.66252 157.03975 165.50237 159.84402 175.88553 162.64832 188.17194 165.45259 173.24771 168.25687 161.61653 171.06116 183.69499 173.86543 190.0 176.66972 177.21896" />
<text x="0.0" y="186.14561" font-family="Verdana" font-size="11.5">equalised magnitude</text>
<path id="equalised magnitude axis" style="fill:none;stroke:#000000;stroke-width:1;" d="M0.0 160.0 179.474 160.0" />
<path id="equalised phase" style="fill:none;stroke:#772222;stroke-width:2.0;" d="M0.0 220.0 2.8042812 238.47398 5.6085625 226.02975 8.412844 244.52014 11.217125 200.85378 14.021406 220.08131 16.825687 237.62039 19.629969 191.0799 22.43425 211.48961 25.238531 233.05702 28.042812 250.0 30.847094 202.48311 33.651375 223.43236 36.455658 244.09143 39.259937 196.49927 42.064217 211.37352 44.8685 235.47441 47.672783 192.68863 50.477062 210.48466 53.28134 228.453 56.085625 247.80455 58.889908 201.36765 61.694187 218.72296 64.49847 241.68605 67.30275 197.48004 70.10703 213.38461 72.911316 232.42549 75.71559 192.43503 78.519875 209.18538 81.32416 224.36386 84.12843 246.02084 86.93272 204.94308 89.737 220.0 92.54128 235.05692 95.345566 193.97916 98.14984 215.63615 100.954124 230.81464 103.75841 247.56499 106.56268 207.57451 109.36697 226.6154 112.17125 242.51996 114.97553 198.31396 117.779816 221.27704 120.58409 238.63235 123.388374 192.19545 126.19266 211.547 128.99693 229.51534 131.80122 247.31139 134.6055 204.52559 137.40977 228.62648 140.21407 243.50073 143.01834 195.90857 145.82263 216.56766 148.6269 237.51689 151.43118 190.0 154.23547 206.94298 157.03975 228.5104 159.84402 248.92012 162.64832 202.37961 165.45259 219.91869 168.25687 239.14624 171.06116 195.47986 173.86543 213.97025 176.66972 201.52602" />
<text x="0.0" y="220.0" font-family="Verdana" font-size="11.5">equalised phase</text>
<path id="equalised phase axis" style="fill:none;stroke:#000000;stroke-width:1;" d="M0.0 220.0 179.474 220.0" />
<path id="equalised theta" style="fill:none;stroke:#222277;stroke-width:2.0;" d="M0.0 280.0 2.8042812 280.0 5.6085625 289.7047 8.412844 284.38342 11.217125 282.09848 14.021406 281.8249 16.825687 282.14746 19.629969 285.18787 22.43425 279.99988 25.238531 282.41415 28.042812 280.97888 30.847094 281.47974 33.651375 280.04886 36.455658 282.68384 39.259937 280.3347 42.064217 282.6024 44.8685 280.16602 47.672783 283.4553 50.477062 279.99756 53.28134 280.00003 56.085625 280.33203 58.889908 282.9694 61.694187 281.70963 64.49847 282.47476 67.30275 281.30026 70.10703 282.6066 72.911316 280.33682 75.71559 281.75357 78.519875 280.13403 81.32416 282.82852 84.12843 280.25504 86.93272 282.3347 89.737 282.25473 92.54128 282.2642 95.345566 283.68845 98.14984 283.07077 100.954124 282.22488 103.75841 282.55597 106.56268 281.02002 109.36697 282.4218 112.17125 280.00012 114.97553 279.99997 117.779816 280.24155 120.58409 250.0 123.388374 279.58398 126.19266 282.03036 128.99693 280.73227 131.80122 280.67902 134.6055 281.42944 137.40977 281.06348 140.21407 281.6364 143.01834 282.1412 145.82263 282.52258 148.6269 282.21436 151.43118 282.4997 154.23547 280.74628 157.03975 282.2317 159.84402 280.37457 162.64832 281.49448 165.45259 280.8994 168.25687 281.09735 171.06116 281.7717 173.86543 280.5363 176.66972 282.38495 179.474 280.21417 182.27827 283.61307 185.08257 280.00003 187.88684 284.65695 190.69113 280.34906 193.4954 281.6294 196.29968 281.0728 199.10397 280.5366 201.90825 282.05368 204.71252 281.28534 207.51682 284.17343 210.32109 283.2994 213.12537 281.80173 215.92966 281.56998 218.73393 280.2097 221.53822 282.0216 224.3425 281.4812 227.14677 281.9264 229.95107 282.68686 232.75534 283.47867 235.55963 283.0385 238.3639 282.2169 241.16818 282.42084 243.97247 279.99997 246.77675 279.9921" />
<text x="0.0" y="280.0" font-family="Verdana" font-size="11.5">equalised theta</text>
<path id="equalised theta axis" style="fill:none;stroke:#000000;stroke-width:1;" d="M0.0 280.0 249.58102 280.0" />
<path id="rawish theta" style="fill:none;stroke:#772277;stroke-width:2.0;" d="M0.0 340.0 2.8042812 340.0 5.6085625 350.54285 8.412844 343.21106 11.217125 341.80524 14.021406 345.80276 16.825687 342.97955 19.629969 341.34235 22.43425 342.65073 25.238531 342.43115 28.042812 343.03214 30.847094 342.89917 33.651375 343.67465 36.455658 343.4307 39.259937 341.8357 42.064217 342.60178 44.8685 342.2742 47.672783 343.6362 50.477062 343.571 53.28134 344.20633 56.085625 342.68863 58.889908 343.02258 61.694187 340.43665 64.49847 310.0 67.30275 341.8426 70.10703 343.0058 72.911316 341.23932 75.71559 342.18924 78.519875 343.3173 81.32416 344.1598 84.12843 342.85046 86.93272 342.28876 89.737 342.1021 92.54128 342.51953 95.345566 342.5654 98.14984 343.36084 100.954124 344.39606 103.75841 342.37305 106.56268 342.2747 109.36697 344.79367 112.17125 344.47955 114.97553 341.56287 117.779816 343.07605 120.58409 344.0511 123.388374 345.72318 126.19266 344.07257" />
<text x="0.0" y="340.0" font-family="Verdana" font-size="11.5">rawish theta</text>
<path id="rawish theta axis" style="fill:none;stroke:#000000;stroke-width:1;" d="M0.0 340.0 128.99693 340.0" />
<path id="straightened theta" style="fill:none;stroke:#227777;stroke-width:2.0;" d="M0.0 400.0 2.8042812 400.0 5.6085625 411.03336 8.412844 404.41556 11.217125 406.9069 14.021406 403.87894 16.825687 403.41812 19.629969 402.54428 22.43425 403.17322 25.238531 403.03406 28.042812 403.8456 30.847094 404.53882 33.651375 403.6954 36.455658 402.38004 39.259937 403.8054 42.064217 403.73718 44.8685 404.40204 47.672783 402.81372 50.477062 403.2808 53.28134 370.0 56.085625 404.6766 58.889908 402.92902 61.694187 403.47162 64.49847 404.35333 67.30275 402.9831 70.10703 403.50967 72.911316 403.72223 75.71559 402.68475 78.519875 403.5172 81.32416 404.6006 84.12843 402.48346 86.93272 402.38052 89.737 405.01672 92.54128 405.61102 95.345566 403.9317 98.14984 404.2396 100.954124 405.98944 103.75841 404.26205" />
<text x="0.0" y="400.0" font-family="Verdana" font-size="11.5">straightened theta</text>
<path id="straightened theta axis" style="fill:none;stroke:#000000;stroke-width:1;" d="M0.0 400.0 106.56268 400.0" />
<path id="straightened real" style="fill:none;stroke:#227722;stroke-width:2.0;" d="M0.0 466.55487 2.8042812 488.90424 5.6085625 466.91827 8.412844 463.73114 11.217125 468.49023 14.021406 460.17355 16.825687 461.3189 19.629969 458.24985 22.43425 467.2128 25.238531 458.30945 28.042812 453.60217 30.847094 462.7395 33.651375 460.50742 36.455658 458.04575 39.259937 460.46298 42.064217 457.4861 44.8685 463.63345 47.672783 453.51633 50.477062 466.74533 53.28134 463.32928 56.085625 457.93732 58.889908 456.20673 61.694187 458.56125 64.49847 458.08078 67.30275 457.73804 70.10703 461.533 72.911316 466.68863 75.71559 456.73935 78.519875 459.78217 81.32416 463.72284 84.12843 460.5417 86.93272 458.42307 89.737 462.79477 92.54128 461.94858 95.345566 456.96063 98.14984 460.28766 100.954124 462.79443 103.75841 459.54132 106.56268 454.2995 109.36697 462.0017 112.17125 459.1727 114.97553 459.99872 117.779816 465.03745 120.58409 462.41336 123.388374 458.0029 126.19266 458.17215 128.99693 455.03656 131.80122 461.82483 134.6055 456.52777 137.40977 464.28693 140.21407 456.99988 143.01834 458.45447 145.82263 462.64203 148.6269 456.65253 151.43118 460.63107 154.23547 462.9109 157.03975 453.70605 159.84402 457.92355 162.64832 457.47083 165.45259 463.1476 168.25687 451.38107 171.06116 451.7874 173.86543 459.30423 176.66972 430.0" />
<text x="0.0" y="466.55487" font-family="Verdana" font-size="11.5">straightened real</text>
<path id="straightened real axis" style="fill:none;stroke:#000000;stroke-width:1;" d="M0.0 460.0 179.474 460.0" />
<path id="straightened im" style="fill:none;stroke:#772222;stroke-width:2.0;" d="M0.0 550.0 2.8042812 514.01465 5.6085625 521.8815 8.412844 516.26044 11.217125 520.0527 14.021406 516.9326 16.825687 517.4914 19.629969 521.9641 22.43425 517.7611 25.238531 516.26874 28.042812 520.3413 30.847094 521.00244 33.651375 519.1002 36.455658 518.9671 39.259937 520.40155 42.064217 520.41156 44.8685 518.99 47.672783 521.3189 50.477062 521.47455 53.28134 518.5864 56.085625 515.973 58.889908 521.3817 61.694187 519.2288 64.49847 520.9394 67.30275 521.17175 70.10703 522.7339 72.911316 519.43274 75.71559 517.8843 78.519875 521.84296 81.32416 520.77313 84.12843 517.0927 86.93272 522.1329 89.737 518.7434 92.54128 519.7286 95.345566 517.9329 98.14984 521.7478 100.954124 519.36066 103.75841 517.02 106.56268 520.8987 109.36697 521.3032 112.17125 519.05804 114.97553 522.50507 117.779816 518.9877 120.58409 518.7746 123.388374 516.8564 126.19266 519.4634 128.99693 520.1839 131.80122 520.16187 134.6055 521.11127 137.40977 519.33954 140.21407 518.9758 143.01834 520.7167 145.82263 519.68713 148.6269 519.03937 151.43118 520.8761 154.23547 518.51447 157.03975 517.21826 159.84402 521.3818 162.64832 521.16254 165.45259 516.9467 168.25687 519.8499 171.06116 518.31775 173.86543 524.1104 176.66972 516.2176" />
<text x="0.0" y="550.0" font-family="Verdana" font-size="11.5">straightened im</text>
<path id="straightened im axis" style="fill:none;stroke:#000000;stroke-width:1;" d="M0.0 520.0 179.474 520.0" />
<path id="straightened magnitude" style="fill:none;stroke:#227722;stroke-width:2.0;" d="M0.0 607.65106 2.8042812 610.0 5.6085625 587.5199 8.412844 587.739 11.217125 588.2034 14.021406 585.61975 16.825687 584.7674 19.629969 583.9744 22.43425 588.0854 25.238531 587.0255 28.042812 586.2128 30.847094 583.22107 33.651375 581.7191 36.455658 582.67267 39.259937 580.8607 42.064217 582.543 44.8685 583.96796 47.672783 586.71375 50.477062 587.0543 53.28134 584.12885 56.085625 587.63904 58.889908 584.45355 61.694187 581.9816 64.49847 582.52936 67.30275 583.06274 70.10703 585.22095 72.911316 586.5452 75.71559 584.9935 78.519875 583.3816 81.32416 583.8654 84.12843 585.3497 86.93272 584.19244 89.737 583.5477 92.54128 581.94714 95.345566 584.79083 98.14984 583.2127 100.954124 582.9428 103.75841 585.4751 106.56268 585.74817 109.36697 583.0718 112.17125 581.9011 114.97553 584.5874 117.779816 585.20807 120.58409 583.2361 123.388374 586.07153 126.19266 582.021 128.99693 584.80725 131.80122 581.7878 134.6055 583.9237 137.40977 584.3148 140.21407 583.45245 143.01834 581.98804 145.82263 582.61615 148.6269 583.68164 151.43118 581.7164 154.23547 583.91284 157.03975 587.93274 159.84402 583.2292 162.64832 583.2409 165.45259 586.3649 168.25687 588.3317 171.06116 588.5117 173.86543 587.5573 176.66972 609.80084" />
<text x="0.0" y="607.65106" font-family="Verdana" font-size="11.5">straightened magnitude</text>
<path id="straightened magnitude axis" style="fill:none;stroke:#000000;stroke-width:1;" d="M0.0 580.0 179.474 580.0" />
<path id="straightened phase" style="fill:none;stroke:#772222;stroke-width:2.0;" d="M0.0 640.0 2.8042812 643.60956 5.6085625 635.40674 8.412844 650.48303 11.217125 639.88654 14.021406 654.8712 16.825687 652.548 19.629969 620.5998 22.43425 645.1323 25.238531 657.4236 28.042812 610.6541 30.847094 634.1479 33.651375 652.3684 36.455658 662.73004 39.259937 630.11487 42.064217 612.5853 44.8685 644.6798 47.672783 613.23303 50.477062 636.20917 53.28134 646.5397 56.085625 657.7063 58.889908 615.5132 61.694187 662.6623 64.49847 616.89954 67.30275 617.173 70.10703 627.61664 72.911316 641.53827 75.71559 661.7475 78.519875 624.2398 81.32416 636.38104 84.12843 654.21356 86.93272 621.2515 89.737 646.8113 92.54128 642.491 95.345566 661.52655 98.14984 625.6767 100.954124 643.94885 103.75841 655.9412 106.56268 612.4838 109.36697 631.41315 112.17125 659.34686 114.97553 624.8382 117.779816 643.5122 120.58409 647.3948 123.388374 658.2803 126.19266 665.41797 128.99693 610.3582 131.80122 638.39264 134.6055 614.94385 137.40977 642.7418 140.21407 664.7762 143.01834 616.6403 145.82263 642.13104 148.6269 665.5108 151.43118 628.34564 154.23547 647.41925 157.03975 663.5888 159.84402 618.3714 162.64832 616.5982 165.45259 650.3519 168.25687 670.0 171.06116 666.7444 173.86543 623.9812 176.66972 668.05457" />
<text x="0.0" y="640.0" font-family="Verdana" font-size="11.5">straightened phase</text>
<path id="straightened phase axis" style="fill:none;stroke:#000000;stroke-width:1;" d="M0.0 640.0 179.474 640.0" />
<path id="stroke_14" style="fill:none;stroke:#000000;stroke-width:2;" d="M37.5 714.176 36.975998 715.302 35.024002 715.526 32.549995 714.776 31.049995 712.75 30.0 709.07605 30.073997 707.12604 30.599998 705.25 32.699997 701.952 33.975998 700.82605 35.925995 700.07605 40.199997 700.302 42.0 701.052 43.274002 701.952 44.1 703.15 44.475998 704.57605 44.25 706.07605 43.5 707.802 40.124 711.702 42.225998 710.57605 46.049995 710.35004 48.15 710.802 49.799995 711.776 50.85 713.202 51.524002 715.0 51.673996 719.426 51.0 721.526 49.874 723.32605 48.225998 724.676 45.975998 725.276 43.573997 725.35004 41.624 724.976 40.35 724.0 38.774002 720.25 38.699997 718.07605 39.374 716.276 41.024002 715.0 43.799995 714.25" />
</g></svg>