<?xml version="1.0" ?>
<svg width="179.474" height="400.0">
<title>transforms graphed</title>
<g>
<path id="equalised real" style="fill:none;stroke:#227722;stroke-width:2.0;" d="M0.0 70.0 5.6085625 44.738094 11.217125 46.640327 16.825687 21.325087 22.43425 47.13402 28.042812 21.492102 33.651375 46.348816 39.259937 34.492577 44.8685 42.527954 50.477062 25.19429 56.085625 47.9771 61.694187 41.257935 67.30275 43.968567 72.911316 25.326313 78.519875 63.483124 84.12843 34.08577 89.737 38.01584 95.345566 34.08577 100.954124 63.483128 106.56268 25.326317 112.17125 43.968567 117.779816 41.257935 123.388374 47.977104 128.99693 25.19429 134.6055 42.52795 140.21407 34.49258 145.82263 46.348816 151.43118 21.492102 157.03975 47.13402 162.64832 21.325089 168.25687 46.640335 173.86543 44.73809" />
<text x="0.0" y="70.0" font-family="Verdana" font-size="11.5">equalised real</text>
<path id="equalised real axis" style="fill:none;stroke:#000000;stroke-width:1;" d="M0.0 40.0 179.474 40.0" />
<path id="equalised im" style="fill:none;stroke:#772222;stroke-width:2.0;" d="M0.0 100.0 5.6085625 115.55914 11.217125 70.0 16.825687 92.86166 22.43425 107.76447 28.042812 103.70393 33.651375 94.67317 39.259937 91.15612 44.8685 119.79832 50.477062 90.72396 56.085625 102.20192 61.694187 99.95558 67.30275 112.79324 72.911316 90.29207 78.519875 99.9765 84.12843 105.61047 89.737 100.0 95.345566 94.38953 100.954124 100.0235 106.56268 109.70793 112.17125 87.20676 117.779816 100.04442 123.388374 97.79808 128.99693 109.27604 134.6055 80.20168 140.21407 108.84388 145.82263 105.32683 151.43118 96.29607 157.03975 92.23553 162.64832 107.13835 168.25687 130.0 173.86543 84.44085" />
<text x="0.0" y="100.0" font-family="Verdana" font-size="11.5">equalised im</text>
<path id="equalised im axis" style="fill:none;stroke:#000000;stroke-width:1;" d="M0.0 100.0 179.474 100.0" />
<path id="equalised magnitude" style="fill:none;stroke:#227722;stroke-width:2.0;" d="M0.0 169.44992 5.6085625 175.69362 11.217125 190.0 16.825687 173.72525 22.43425 168.90585 28.042812 172.22314 33.651375 166.61975 39.259937 169.41975 44.8685 179.66946 50.477062 173.091 56.085625 165.47815 61.694187 160.79372 67.30275 172.91261 72.911316 173.33676 78.519875 174.79427 84.12843 166.68939 89.737 161.25002 95.345566 166.68939 100.954124 174.79427 106.56268 173.33676 112.17125 172.91261 117.779816 160.79372 123.388374 165.47815 128.99693 173.091 134.6055 179.66946 140.21407 169.41975 145.82263 166.61975 151.43118 172.22314 157.03975 168.90585 162.64832 173.72525 168.25687 190.0 173.86543 175.69362" />
<text x="0.0" y="169.44992" font-family="Verdana" font-size="11.5">equalised magnitude</text>
<path id="equalised magnitude axis" style="fill:none;stroke:#000000;stroke-width:1;" d="M0.0 160.0 179.474 160.0" />
<path id="equalised phase" style="fill:none;stroke:#772222;stroke-width:2.0;" d="M0.0 220.0 5.6085625 206.82744 11.217125 233.66403 16.825687 244.83368 22.43425 210.05142 28.042812 192.91026 33.651375 228.80466 39.259937 238.60219 44.8685 205.77403 50.477062 242.5733 56.085625 216.09094 61.694187 220.5295 67.30275 206.86072 72.911316 242.3133 78.519875 220.01501 84.12843 199.35866 89.737 190.0 95.345566 240.64134 100.954124 219.98499 106.56268 197.6867 112.17125 233.13928 117.779816 219.47052 123.388374 223.90906 128.99693 197.4267 134.6055 234.22597 140.21407 201.39781 145.82263 211.19534 151.43118 247.08974 157.03975 229.94858 162.64832 195.16632 168.25687 206.33597 173.86543 233.17256" />
<text x="0.0" y="220.0" font-family="Verdana" font-size="11.5">equalised phase</text>
<path id="equalised phase axis" style="fill:none;stroke:#000000;stroke-width:1;" d="M0.0 220.0 179.474 220.0" />
<path id="equalised theta" style="fill:none;stroke:#222277;stroke-width:2.0;" d="M0.0 280.0 5.6085625 280.0 11.217125 290.50018 16.825687 288.11084 22.43425 283.50095 28.042812 280.00006 33.651375 280.81903 39.259937 285.26074 44.8685 286.16434 50.477062 286.2114 56.085625 285.67285 61.694187 283.67392 67.30275 281.2319 72.911316 280.0 78.519875 279.99997 84.12843 280.00003 89.737 277.7897 95.345566 276.8939 100.954124 280.00006 106.56268 278.5886 112.17125 271.19116 117.779816 273.66107 123.388374 275.20874 128.99693 276.33923 134.6055 276.43042 140.21407 279.28418 145.82263 271.27576 151.43118 272.38358 157.03975 271.3359 162.64832 275.66418 168.25687 280.0 173.86543 280.00006 179.474 279.99997 185.08257 278.56662 190.69113 278.62024 196.29968 280.00006 201.90825 279.9999 207.51682 280.00006 213.12537 280.0 218.73393 280.71313 224.3425 280.51608 229.95107 280.00006 235.55963 279.99997 241.16818 279.99997 246.77675 281.29477 252.38531 283.55478 257.99387 280.00003 263.60245 284.87805 269.211 286.05453 274.81955 299.13922 280.42813 280.37808 286.03668 279.99997 291.64526 280.0 297.2538 280.0 302.86237 278.74167 308.47095 278.77475 314.0795 275.8922 319.68805 274.64563 325.29663 280.00006 330.90518 281.2151 336.51373 290.53284 342.1223 285.79468 347.73087 283.13156 353.33945 280.0001 358.948 279.99994 364.55655 280.16794 370.16513 282.62326 375.77368 280.00006 381.38226 281.7645 386.9908 281.11935 392.59937 280.00003 398.20795 279.99997 403.8165 280.0 409.42505 281.13074 415.03363 285.10916 420.64218 280.37286 426.25073 284.32455 431.8593 310.0 437.46786 280.90292 443.07645 279.9999 448.685 280.00003 454.29355 280.00003 459.90213 279.29932 465.51068 279.18423 471.11926 280.0 476.7278 280.0 482.33636 280.00003 487.94495 280.00006 493.5535 279.99988 499.16205 280.00006 504.77063 280.0 510.37918 280.0 515.98773 279.99997 521.5963 280.00046" />
<text x="0.0" y="280.0" font-family="Verdana" font-size="11.5">equalised theta</text>
<path id="equalised theta axis" style="fill:none;stroke:#000000;stroke-width:1;" d="M0.0 280.0 527.2049 280.0" />
<path id="rawish theta" style="fill:none;stroke:#772277;stroke-width:2.0;" d="M0.0 340.0 5.6085625 340.0 11.217125 350.15073 16.825687 349.70526 22.43425 347.7286 28.042812 349.6286 33.651375 346.68573 39.259937 343.90967 44.8685 335.00607 50.477062 327.47858 56.085625 330.05698 61.694187 335.61716 67.30275 331.13257 72.911316 327.76773 78.519875 332.86633 84.12843 337.35748 89.737 341.1547 95.345566 344.5554 100.954124 345.9907 106.56268 361.69528 112.17125 338.6341 117.779816 332.3742 123.388374 351.30902 128.99693 346.79883 134.6055 342.62192 140.21407 342.709 145.82263 345.86142 151.43118 343.44113 157.03975 370.0 162.64832 338.57553" />
<text x="0.0" y="340.0" font-family="Verdana" font-size="11.5">rawish theta</text>
<path id="rawish theta axis" style="fill:none;stroke:#000000;stroke-width:1;" d="M0.0 340.0 168.25687 340.0" />
<path id="straightened theta" style="fill:none;stroke:#227777;stroke-width:2.0;" d="M0.0 400.0 5.6085625 400.0 11.217125 410.4797 16.825687 410.01978 22.43425 407.9791 28.042812 409.94064 33.651375 406.9024 39.259937 404.03638 44.8685 394.84424 50.477062 387.07275 56.085625 389.7347 61.694187 395.47513 67.30275 390.84515 72.911316 387.37128 78.519875 391.73822 84.12843 410.24875 89.737 422.10876 95.345566 391.00656 100.954124 411.67554 106.56268 408.01447 112.17125 404.50842 117.779816 406.0514 123.388374 403.55264 128.99693 430.0" />
<text x="0.0" y="400.0" font-family="Verdana" font-size="11.5">straightened theta</text>
<path id="straightened theta axis" style="fill:none;stroke:#000000;stroke-width:1;" d="M0.0 400.0 134.6055 400.0" />
<path id="straightened real" style="fill:none;stroke:#227722;stroke-width:2.0;" d="M0.0 464.10376 5.6085625 461.96823 11.217125 472.71616 16.825687 471.50043 22.43425 441.79416 28.042812 468.2413 33.651375 461.79364 39.259937 466.74176 44.8685 440.4 50.477062 454.57288 56.085625 490.0 61.694187 435.4893 67.30275 469.41055 72.911316 453.61316 78.519875 482.70676 84.12843 444.1 89.737 459.72858 95.345566 474.28195 100.954124 443.71786 106.56268 462.37234 112.17125 451.67517 117.779816 484.8549 123.388374 432.1824 128.99693 461.3765 134.6055 480.29163 140.21407 451.75153 145.82263 459.9433 151.43118 446.69525 157.03975 480.1576 162.64832 443.3904 168.25687 449.10052 173.86543 459.32803" />
<text x="0.0" y="464.10376" font-family="Verdana" font-size="11.5">straightened real</text>
<path id="straightened real axis" style="fill:none;stroke:#000000;stroke-width:1;" d="M0.0 460.0 179.474 460.0" />
<path id="straightened im" style="fill:none;stroke:#772222;stroke-width:2.0;" d="M0.0 550.0 5.6085625 507.9247 11.217125 518.27356 16.825687 518.7286 22.43425 524.26556 28.042812 517.7465 33.651375 512.80725 39.259937 526.03784 44.8685 519.5261 50.477062 517.472 56.085625 521.8512 61.694187 523.54956 67.30275 518.7069 72.911316 514.038 78.519875 529.6445 84.12843 514.6943 89.737 518.99316 95.345566 513.7869 100.954124 529.64825 106.56268 515.608 112.17125 516.638 117.779816 523.55676 123.388374 521.49506 128.99693 518.9721 134.6055 516.32434 140.21407 527.4681 145.82263 513.6687 151.43118 517.1475 157.03975 523.0098 162.64832 519.883 168.25687 523.12524 173.86543 505.40848" />
<text x="0.0" y="550.0" font-family="Verdana" font-size="11.5">straightened im</text>
<path id="straightened im axis" style="fill:none;stroke:#000000;stroke-width:1;" d="M0.0 520.0 179.474 520.0" />
<path id="straightened magnitude" style="fill:none;stroke:#227722;stroke-width:2.0;" d="M0.0 610.0 5.6085625 604.16394 11.217125 590.1553 16.825687 589.0042 22.43425 596.1123 28.042812 587.6539 33.651375 594.4295 39.259937 593.07983 44.8685 594.7532 50.477062 586.4896 56.085625 602.8362 61.694187 599.7294 67.30275 587.5259 72.911316 592.8383 78.519875 605.72943 84.12843 595.9672 89.737 582.02136 95.345566 596.40405 100.954124 602.8245 106.56268 588.9516 112.17125 589.1759 117.779816 599.97595 123.388374 601.1078 128.99693 582.2987 134.6055 596.9182 140.21407 596.15204 145.82263 592.6459 151.43118 591.50397 157.03975 596.2914 162.64832 592.47864 168.25687 590.2954 173.86543 609.1489" />
<text x="0.0" y="610.0" font-family="Verdana" font-size="11.5">straightened magnitude</text>
<path id="straightened magnitude axis" style="fill:none;stroke:#000000;stroke-width:1;" d="M0.0 580.0 179.474 580.0" />
<path id="straightened phase" style="fill:none;stroke:#772222;stroke-width:2.0;" d="M0.0 640.0 5.6085625 654.50183 11.217125 643.3281 16.825687 642.7467 22.43425 615.1724 28.042812 646.0393 33.651375 654.19165 39.259937 628.72925 44.8685 669.56323 50.477062 661.61487 56.085625 638.4377 61.694187 613.3512 67.30275 643.36523 72.911316 658.7691 78.519875 631.87195 84.12843 663.2079 89.737 656.06055 95.345566 648.242 100.954124 619.4774 106.56268 653.1647 112.17125 662.29297 117.779816 636.50714 123.388374 611.1837 128.99693 650.60803 134.6055 644.3121 140.21407 621.128 145.82263 655.1223 151.43118 665.2025 157.03975 636.3692 162.64832 670.0 168.25687 616.0779 173.86543 655.25635" />
<text x="0.0" y="640.0" font-family="Verdana" font-size="11.5">straightened phase</text>
<path id="straightened phase axis" style="fill:none;stroke:#000000;stroke-width:1;" d="M0.0 640.0 179.474 640.0" />
<path id="stroke_6" style="fill:none;stroke:#000000;stroke-width:2;" d="M52.799995 713.12604 52.35 714.102 51.449997 714.552 47.774002 713.87604 46.425995 712.75 46.049995 711.176 46.274002 710.12604 48.675995 705.4 49.124 702.176 47.624 700.37604 45.9 700.0 43.949997 700.15 42.899998 700.976 42.75 702.62604 50.549995 719.12604 50.25 720.476 42.975998 719.95 39.6 721.826 37.8 721.37604 33.0 716.802 30.3 712.076 30.076 710.352 30.225998 708.852 44.85 716.12604" />
</g></svg>