<?xml version="1.0" ?>
<svg width="179.474" height="400.0">
<title>transforms graphed</title>
<g>
<path id="equalised real" style="fill:none;stroke:#227722;stroke-width:2.0;" d="M0.0 33.22932 5.6085625 64.23787 11.217125 30.88218 16.825687 45.582924 22.43425 40.68166 28.042812 24.106417 33.651375 16.082277 39.259937 34.943466 44.8685 33.000473 50.477062 70.0 56.085625 55.442276 61.694187 37.06721 67.30275 51.09598 72.911316 39.514652 78.519875 45.113457 84.12843 30.443584 89.737 10.381819 95.345566 30.443584 100.954124 45.113457 106.56268 39.514656 112.17125 51.09598 117.779816 37.067207 123.388374 55.442276 128.99693 69.99999 134.6055 33.000473 140.21407 34.943462 145.82263 16.082273 151.43118 24.106415 157.03975 40.681664 162.64832 45.582928 168.25687 30.882183 173.86543 64.23786" />
<text x="0.0" y="33.22932" font-family="Verdana" font-size="11.5">equalised real</text>
<path id="equalised real axis" style="fill:none;stroke:#000000;stroke-width:1;" d="M0.0 40.0 179.474 40.0" />
<path id="equalised im" style="fill:none;stroke:#772222;stroke-width:2.0;" d="M0.0 100.0 5.6085625 130.0 11.217125 87.994415 16.825687 95.29281 22.43425 79.37138 28.042812 97.16785 33.651375 112.3809 39.259937 109.68234 44.8685 98.650856 50.477062 111.538864 56.085625 97.3756 61.694187 108.7946 67.30275 88.5672 72.911316 84.6419 78.519875 98.53187 84.12843 98.391846 89.737 100.0 95.345566 101.608154 100.954124 101.46813 106.56268 115.3581 112.17125 111.4328 117.779816 91.2054 123.388374 102.6244 128.99693 88.461136 134.6055 101.349144 140.21407 90.31766 145.82263 87.6191 151.43118 102.83215 157.03975 120.62862 162.64832 104.70719 168.25687 112.005585 173.86543 70.0" />
<text x="0.0" y="100.0" font-family="Verdana" font-size="11.5">equalised im</text>
<path id="equalised im axis" style="fill:none;stroke:#000000;stroke-width:1;" d="M0.0 100.0 179.474 100.0" />
<path id="equalised magnitude" style="fill:none;stroke:#227722;stroke-width:2.0;" d="M0.0 161.65475 5.6085625 190.0 11.217125 171.89615 16.825687 165.11362 22.43425 178.9548 28.042812 168.19292 33.651375 176.31131 39.259937 169.23235 44.8685 163.63896 50.477062 178.09453 56.085625 167.92389 61.694187 168.20595 67.30275 171.82118 72.911316 174.11176 78.519875 162.84016 84.12843 164.89925 89.737 174.47733 95.345566 164.89925 100.954124 162.84016 106.56268 174.11176 112.17125 171.82118 117.779816 168.20595 123.388374 167.92389 128.99693 178.09453 134.6055 163.63896 140.21407 169.23235 145.82263 176.31131 151.43118 168.19292 157.03975 178.9548 162.64832 165.11362 168.25687 171.89615 173.86543 190.0" />
<text x="0.0" y="161.65475" font-family="Verdana" font-size="11.5">equalised magnitude</text>
<path id="equalised magnitude axis" style="fill:none;stroke:#000000;stroke-width:1;" d="M0.0 160.0 179.474 160.0" />
<path id="equalised phase" style="fill:none;stroke:#772222;stroke-width:2.0;" d="M0.0 220.0 5.6085625 208.87677 11.217125 238.66702 16.825687 229.6245 22.43425 234.83212 28.042812 246.91383 33.651375 197.36902 39.259937 202.41196 44.8685 246.68094 50.477062 214.02264 56.085625 222.95248 61.694187 203.32318 67.30275 230.44826 72.911316 235.16054 78.519875 224.72551 84.12843 247.07472 89.737 190.0 95.345566 192.92526 100.954124 215.27449 106.56268 204.83946 112.17125 209.55174 117.779816 236.67683 123.388374 217.04753 128.99693 225.97736 134.6055 193.31906 140.21407 237.58804 145.82263 242.63098 151.43118 193.08617 157.03975 205.16788 162.64832 210.3755 168.25687 201.33298 173.86543 231.12323" />
<text x="0.0" y="220.0" font-family="Verdana" font-size="11.5">equalised phase</text>
<path id="equalised phase axis" style="fill:none;stroke:#000000;stroke-width:1;" d="M0.0 220.0 179.474 220.0" />
<path id="equalised theta" style="fill:none;stroke:#222277;stroke-width:2.0;" d="M0.0 280.0 5.6085625 280.0 11.217125 279.99954 16.825687 279.99997 22.43425 278.98254 28.042812 279.12262 33.651375 280.0343 39.259937 280.0066 44.8685 280.3669 50.477062 279.0689 56.085625 279.0501 61.694187 310.0 67.30275 278.11664 72.911316 276.29337 78.519875 270.15192 84.12843 274.37698 89.737 266.79422 95.345566 272.12314 100.954124 280.0001 106.56268 278.23642 112.17125 278.72705 117.779816 277.362 123.388374 279.1921 128.99693 277.6709 134.6055 280.0001 140.21407 279.99997 145.82263 277.50128 151.43118 278.10272 157.03975 256.54813 162.64832 271.84872 168.25687 278.64938 173.86543 279.47958 179.474 275.45877 185.08257 265.13568 190.69113 272.94012 196.29968 277.6988 201.90825 278.66727 207.51682 279.99997 213.12537 280.0 218.73393 281.47766 224.3425 280.47195 229.95107 281.94482 235.55963 280.85083 241.16818 282.40848 246.77675 280.8188 252.38531 282.1756 257.99387 282.05295 263.60245 285.47217 269.211 285.37177 274.81955 284.63214 280.42813 281.89426 286.03668 284.91956 291.64526 280.30783 297.2538 282.4146 302.86237 302.76663 308.47095 286.7484 314.0795 281.76804 319.68805 280.35428 325.29663 280.8316 330.90518 282.09088 336.51373 280.0 342.1223 280.34167 347.73087 281.25735 353.33945 280.00006 358.948 280.61777 364.55655 282.28323 370.16513 279.99567" />
<text x="0.0" y="280.0" font-family="Verdana" font-size="11.5">equalised theta</text>
<path id="equalised theta axis" style="fill:none;stroke:#000000;stroke-width:1;" d="M0.0 280.0 375.77368 280.0" />
<path id="rawish theta" style="fill:none;stroke:#772277;stroke-width:2.0;" d="M0.0 340.0 5.6085625 340.0 11.217125 338.11053 16.825687 340.0408 22.43425 340.36746 28.042812 338.13702 33.651375 370.0 39.259937 336.5095 44.8685 327.75485 50.477062 324.01236 56.085625 329.60013 61.694187 336.97226 67.30275 336.6499 72.911316 337.59174 78.519875 335.6166 84.12843 312.87112 89.737 334.26965 95.345566 334.65686 100.954124 322.89294 106.56268 333.78882 112.17125 338.1294 117.779816 341.9441 123.388374 342.78757 128.99693 343.218 134.6055 343.1393 140.21407 346.53357 145.82263 346.23712 151.43118 345.6268 157.03975 344.85056 162.64832 342.76953 168.25687 366.694 173.86543 344.85257 179.474 342.9141 185.08257 341.59448 190.69113 342.8927" />
<text x="0.0" y="340.0" font-family="Verdana" font-size="11.5">rawish theta</text>
<path id="rawish theta axis" style="fill:none;stroke:#000000;stroke-width:1;" d="M0.0 340.0 196.29968 340.0" />
<path id="straightened theta" style="fill:none;stroke:#227777;stroke-width:2.0;" d="M0.0 400.0 5.6085625 400.0 11.217125 397.69534 16.825687 430.0 22.43425 396.5095 28.042812 387.75485 33.651375 384.01236 39.259937 389.60013 44.8685 396.97226 50.477062 396.6499 56.085625 397.59174 61.694187 395.6166 67.30275 372.87112 72.911316 394.26965 78.519875 394.65686 84.12843 382.89294 89.737 392.8601 95.345566 403.78973 100.954124 403.218 106.56268 403.1393 112.17125 406.53357 117.779816 406.23712 123.388374 405.6268 128.99693 404.85056 134.6055 402.76953 140.21407 426.694 145.82263 404.85257 151.43118 403.70258 157.03975 403.6987" />
<text x="0.0" y="400.0" font-family="Verdana" font-size="11.5">straightened theta</text>
<path id="straightened theta axis" style="fill:none;stroke:#000000;stroke-width:1;" d="M0.0 400.0 162.64832 400.0" />
<path id="straightened real" style="fill:none;stroke:#227722;stroke-width:2.0;" d="M0.0 457.36075 5.6085625 471.77887 11.217125 452.58493 16.825687 472.2725 22.43425 488.93607 28.042812 476.07135 33.651375 471.35355 39.259937 465.98886 44.8685 464.20166 50.477062 478.79037 56.085625 486.31946 61.694187 476.9924 67.30275 472.63593 72.911316 471.03592 78.519875 463.9427 84.12843 454.3108 89.737 448.4547 95.345566 458.23892 100.954124 460.04382 106.56268 448.5857 112.17125 456.0146 117.779816 440.72116 123.388374 445.71945 128.99693 464.59787 134.6055 450.34146 140.21407 450.06903 145.82263 430.0 151.43118 431.53787 157.03975 431.59537 162.64832 452.08002 168.25687 460.30676 173.86543 467.11716" />
<text x="0.0" y="457.36075" font-family="Verdana" font-size="11.5">straightened real</text>
<path id="straightened real axis" style="fill:none;stroke:#000000;stroke-width:1;" d="M0.0 460.0 179.474 460.0" />
<path id="straightened im" style="fill:none;stroke:#772222;stroke-width:2.0;" d="M0.0 550.0 5.6085625 523.5943 11.217125 518.7357 16.825687 516.04376 22.43425 519.1312 28.042812 519.3899 33.651375 528.30914 39.259937 522.21423 44.8685 521.0167 50.477062 517.64557 56.085625 519.4708 61.694187 514.65295 67.30275 518.49866 72.911316 514.45844 78.519875 519.8144 84.12843 513.2224 89.737 517.05 95.345566 513.7726 100.954124 520.3167 106.56268 519.7129 112.17125 522.41016 117.779816 511.64407 123.388374 520.3687 128.99693 513.69775 134.6055 521.47833 140.21407 518.9016 145.82263 524.0733 151.43118 520.3588 157.03975 526.18884 162.64832 517.65424 168.25687 522.8432 173.86543 513.33044" />
<text x="0.0" y="550.0" font-family="Verdana" font-size="11.5">straightened im</text>
<path id="straightened im axis" style="fill:none;stroke:#000000;stroke-width:1;" d="M0.0 520.0 179.474 520.0" />
<path id="straightened magnitude" style="fill:none;stroke:#227722;stroke-width:2.0;" d="M0.0 610.0 5.6085625 589.0496 11.217125 584.2867 16.825687 589.7678 22.43425 593.6207 28.042812 587.6018 33.651375 597.4399 39.259937 585.2365 44.8685 582.82513 50.477062 589.9562 56.085625 592.3334 61.694187 593.3136 67.30275 586.61926 72.911316 592.2201 78.519875 581.87775 84.12843 593.8101 89.737 587.9906 95.345566 592.47925 100.954124 580.6336 106.56268 585.35986 112.17125 585.166 117.779816 598.97845 123.388374 586.7078 128.99693 592.7833 134.6055 585.39185 140.21407 585.1304 145.82263 596.2023 151.43118 593.30756 157.03975 598.13855 162.64832 585.9728 168.25687 585.687 173.86543 593.744" />
<text x="0.0" y="610.0" font-family="Verdana" font-size="11.5">straightened magnitude</text>
<path id="straightened magnitude axis" style="fill:none;stroke:#000000;stroke-width:1;" d="M0.0 580.0 179.474 580.0" />
<path id="straightened phase" style="fill:none;stroke:#772222;stroke-width:2.0;" d="M0.0 640.0 5.6085625 631.08386 11.217125 664.3959 16.825687 649.1716 22.43425 641.2426 28.042812 641.5661 33.651375 627.7385 39.259937 630.2107 44.8685 632.19525 50.477062 644.7856 56.085625 640.8346 61.694187 649.0597 67.30275 644.5736 72.911316 651.03314 78.519875 641.9328 84.12843 657.1425 89.737 662.4557 95.345566 655.90265 100.954124 625.05164 106.56268 669.48145 112.17125 621.15796 117.779816 660.06305 123.388374 610.54596 128.99693 653.62274 134.6055 615.1138 140.21407 666.2259 145.82263 614.59357 151.43118 610.0 157.03975 616.7711 162.64832 661.74835 168.25687 624.98267 173.86543 652.8895" />
<text x="0.0" y="640.0" font-family="Verdana" font-size="11.5">straightened phase</text>
<path id="straightened phase axis" style="fill:none;stroke:#000000;stroke-width:1;" d="M0.0 640.0 179.474 640.0" />
<path id="stroke_10" style="fill:none;stroke:#000000;stroke-width:2;" d="M33.224 700.0 33.298004 708.476 33.600006 709.82404 32.923996 708.85004 31.723999 707.95 30.0 708.85004 30.447998 709.976 32.923996 710.57404 34.724 710.5 36.373993 709.9 39.298004 708.026 40.423996 706.374 38.850006 706.9 37.197998 708.776 36.897995 710.05005 38.173996 710.35004 44.474 707.5 46.423996 707.35004 48.447998 707.80005 49.798004 708.55005 50.397995 709.75 50.25 711.10004 49.274002 712.45 47.623993 713.35004 46.423996 713.65 47.697998 711.924 49.947998 710.726 55.947998 709.82404 57.897995 710.2" />
</g></svg>