<?xml version="1.0" ?>
<svg width="179.474" height="400.0">
<title>transforms graphed</title>
<g>
<path id="equalised real" style="fill:none;stroke:#227722;stroke-width:2.0;" d="M0.0 63.319855 5.6085625 62.038345 11.217125 53.926033 16.825687 10.000004 22.43425 43.114532 28.042812 27.636211 33.651375 31.351564 39.259937 46.57627 44.8685 29.534765 50.477062 31.491524 56.085625 51.534164 61.694187 36.998158 67.30275 42.03215 72.911316 41.10884 78.519875 35.264877 84.12843 40.2045 89.737 51.056293 95.345566 40.204494 100.954124 35.264877 106.56268 41.10884 112.17125 42.03215 117.779816 36.998154 123.388374 51.53417 128.99693 31.491524 134.6055 29.534765 140.21407 46.576267 145.82263 31.351564 151.43118 27.636208 157.03975 43.114532 162.64832 10.0 168.25687 53.926033 173.86543 62.038338" />
<text x="0.0" y="63.319855" font-family="Verdana" font-size="11.5">equalised real</text>
<path id="equalised real axis" style="fill:none;stroke:#000000;stroke-width:1;" d="M0.0 40.0 179.474 40.0" />
<path id="equalised im" style="fill:none;stroke:#772222;stroke-width:2.0;" d="M0.0 100.0 5.6085625 130.0 11.217125 78.92046 16.825687 111.90273 22.43425 102.830956 28.042812 118.25468 33.651375 97.918655 39.259937 94.665306 44.8685 101.306915 50.477062 97.672905 56.085625 93.97813 61.694187 108.66735 67.30275 90.421005 72.911316 97.18456 78.519875 109.09311 84.12843 99.62383 89.737 100.0 95.345566 100.37617 100.954124 90.90689 106.56268 102.81544 112.17125 109.578995 117.779816 91.33266 123.388374 106.02187 128.99693 102.3271 134.6055 98.693085 140.21407 105.334694 145.82263 102.081345 151.43118 81.74532 157.03975 97.169044 162.64832 88.09727 168.25687 121.07953 173.86543 70.0" />
<text x="0.0" y="100.0" font-family="Verdana" font-size="11.5">equalised im</text>
<path id="equalised im axis" style="fill:none;stroke:#000000;stroke-width:1;" d="M0.0 100.0 179.474 100.0" />
<path id="equalised magnitude" style="fill:none;stroke:#227722;stroke-width:2.0;" d="M0.0 169.67667 5.6085625 190.0 11.217125 180.31653 16.825687 186.62497 22.43425 163.42294 28.042812 177.73865 33.651375 167.36458 39.259937 166.90417 44.8685 168.74675 50.477062 167.29822 56.085625 170.69643 61.694187 167.30803 67.30275 167.77795 72.911316 162.41397 78.519875 168.20943 84.12843 160.3431 89.737 169.1757 95.345566 160.3431 100.954124 168.20943 106.56268 162.41397 112.17125 167.77795 117.779816 167.30803 123.388374 170.69643 128.99693 167.29822 134.6055 168.74675 140.21407 166.90417 145.82263 167.36458 151.43118 177.73865 157.03975 163.42294 162.64832 186.62497 168.25687 180.31653 173.86543 190.0" />
<text x="0.0" y="169.67667" font-family="Verdana" font-size="11.5">equalised magnitude</text>
<path id="equalised magnitude axis" style="fill:none;stroke:#000000;stroke-width:1;" d="M0.0 160.0 179.474 160.0" />
<path id="equalised phase" style="fill:none;stroke:#772222;stroke-width:2.0;" d="M0.0 220.0 5.6085625 210.91762 11.217125 229.58365 16.825687 192.41672 22.43425 212.90468 28.042812 198.2894 33.651375 248.93591 39.259937 226.54195 44.8685 190.0 50.477062 248.64233 56.085625 224.59074 61.694187 200.95857 67.30275 233.41997 72.911316 231.70763 78.519875 199.45714 84.12843 230.45381 89.737 220.0 95.345566 209.54617 100.954124 240.54286 106.56268 208.29239 112.17125 206.58003 117.779816 239.04143 123.388374 215.40926 128.99693 191.35768 134.6055 250.0 140.21407 213.45805 145.82263 191.06409 151.43118 241.7106 157.03975 227.09532 162.64832 247.58328 168.25687 210.41635 173.86543 229.0824" />
<text x="0.0" y="220.0" font-family="Verdana" font-size="11.5">equalised phase</text>
<path id="equalised phase axis" style="fill:none;stroke:#000000;stroke-width:1;" d="M0.0 220.0 179.474 220.0" />
<path id="equalised theta" style="fill:none;stroke:#222277;stroke-width:2.0;" d="M0.0 280.0 5.6085625 280.0 11.217125 279.99805 16.825687 283.80005 22.43425 286.52002 28.042812 293.87756 33.651375 281.0535 39.259937 290.98434 44.8685 297.42413 50.477062 294.711 56.085625 303.7213 61.694187 280.00012 67.30275 279.99973 72.911316 280.00018 78.519875 280.00015 84.12843 277.96988 89.737 275.51126 95.345566 272.04602 100.954124 270.03622 106.56268 278.11475 112.17125 273.32297 117.779816 261.4129 123.388374 266.28958 128.99693 267.21646 134.6055 257.54208 140.21407 250.0 145.82263 264.1726 151.43118 277.2281 157.03975 270.95563 162.64832 279.99997 168.25687 277.18176 173.86543 276.53137 179.474 274.94806 185.08257 280.0 190.69113 276.1295 196.29968 274.11685 201.90825 279.99985 207.51682 279.99973 213.12537 280.00006 218.73393 280.00043 224.3425 279.99994 229.95107 283.3128 235.55963 285.75882 241.16818 279.99997 246.77675 286.27463 252.38531 288.19064 257.99387 280.0 263.60245 306.33536 269.211 280.90363 274.81955 298.91238 280.42813 297.8661 286.03668 287.8337 291.64526 283.72806 297.2538 279.99963 302.86237 280.00034 308.47095 284.00748 314.0795 280.66818 319.68805 280.0 325.29663 278.30875 330.90518 254.84085 336.51373 271.563 342.1223 279.9997 347.73087 280.0002 353.33945 290.3249 358.948 291.998 364.55655 284.48608 370.16513 294.20142 375.77368 291.73834 381.38226 286.6035 386.9908 284.60947 392.59937 288.99457 398.20795 282.04944 403.8165 284.9335 409.42505 282.48544 415.03363 286.0161 420.64218 279.99988 426.25073 289.29086 431.8593 288.42755 437.46786 279.99988 443.07645 309.04645 448.685 304.2284 454.29355 288.55487 459.90213 279.99994 465.51068 280.0 471.11926 280.00006 476.7278 282.76724 482.33636 285.8002 487.94495 279.9999 493.5535 279.99988 499.16205 280.00006 504.77063 280.0 510.37918 280.00058 515.98773 281.76816 521.5963 281.43073 527.2049 279.9999 532.8134 279.99988 538.422 281.9476 544.0306 280.76553 549.6391 279.9997 555.2477 280.00034 560.85626 279.99966 566.4648 280.03116" />
<text x="0.0" y="280.0" font-family="Verdana" font-size="11.5">equalised theta</text>
<path id="equalised theta axis" style="fill:none;stroke:#000000;stroke-width:1;" d="M0.0 280.0 572.07336 280.0" />
<path id="rawish theta" style="fill:none;stroke:#772277;stroke-width:2.0;" d="M0.0 340.0 5.6085625 340.0 11.217125 346.91986 16.825687 350.01215 22.43425 355.7205 28.042812 351.34036 33.651375 357.75827 39.259937 337.6627 44.8685 332.63278 50.477062 332.0548 56.085625 326.54376 61.694187 327.32242 67.30275 319.1022 72.911316 310.0 78.519875 328.6149 84.12843 336.87442 89.737 335.52243 95.345566 333.45972 100.954124 346.083 106.56268 349.69943 112.17125 358.26465 117.779816 355.27188 123.388374 353.15717 128.99693 343.98486 134.6055 343.13513 140.21407 317.78345 145.82263 353.5235 151.43118 352.53082 157.03975 347.82416 162.64832 347.12024 168.25687 346.47623 173.86543 344.68243 179.474 345.7005 185.08257 351.88083 190.69113 362.81723 196.29968 358.64178 201.90825 345.74475 207.51682 342.14526 213.12537 341.81915" />
<text x="0.0" y="340.0" font-family="Verdana" font-size="11.5">rawish theta</text>
<path id="rawish theta axis" style="fill:none;stroke:#000000;stroke-width:1;" d="M0.0 340.0 218.73393 340.0" />
<path id="straightened theta" style="fill:none;stroke:#227777;stroke-width:2.0;" d="M0.0 400.0 5.6085625 400.0 11.217125 406.91986 16.825687 410.01215 22.43425 415.7205 28.042812 411.34036 33.651375 417.31067 39.259937 390.7431 44.8685 392.0548 50.477062 386.54376 56.085625 387.32242 61.694187 379.1022 67.30275 370.0 72.911316 387.54553 78.519875 393.46622 84.12843 395.24863 89.737 413.99353 95.345566 418.26465 100.954124 415.27188 106.56268 416.03632 112.17125 404.2408 117.779816 377.78345 123.388374 413.5235 128.99693 412.53082 134.6055 407.82416 140.21407 407.12024 145.82263 408.95242 151.43118 407.90674 157.03975 411.88083 162.64832 422.81723 168.25687 421.87262 173.86543 405.67087" />
<text x="0.0" y="400.0" font-family="Verdana" font-size="11.5">straightened theta</text>
<path id="straightened theta axis" style="fill:none;stroke:#000000;stroke-width:1;" d="M0.0 400.0 179.474 400.0" />
<path id="straightened real" style="fill:none;stroke:#227722;stroke-width:2.0;" d="M0.0 464.42245 5.6085625 458.07147 11.217125 452.6886 16.825687 440.98926 22.43425 431.1813 28.042812 457.1553 33.651375 435.2511 39.259937 459.6899 44.8685 441.31342 50.477062 457.73242 56.085625 452.64734 61.694187 473.63892 67.30275 467.8559 72.911316 474.84665 78.519875 464.18332 84.12843 457.7255 89.737 462.09674 95.345566 462.35208 100.954124 454.02072 106.56268 445.5739 112.17125 452.91486 117.779816 445.2225 123.388374 471.72742 128.99693 459.0404 134.6055 474.71725 140.21407 462.80438 145.82263 481.46866 151.43118 458.15524 157.03975 490.0 162.64832 467.63214 168.25687 472.59335 173.86543 470.28738" />
<text x="0.0" y="464.42245" font-family="Verdana" font-size="11.5">straightened real</text>
<path id="straightened real axis" style="fill:none;stroke:#000000;stroke-width:1;" d="M0.0 460.0 179.474 460.0" />
<path id="straightened im" style="fill:none;stroke:#772222;stroke-width:2.0;" d="M0.0 550.0 5.6085625 521.6464 11.217125 524.4618 16.825687 520.2683 22.43425 520.1718 28.042812 522.7914 33.651375 520.264 39.259937 515.09985 44.8685 515.4506 50.477062 515.19214 56.085625 517.3328 61.694187 519.60565 67.30275 517.16693 72.911316 518.31024 78.519875 515.3302 84.12843 523.8556 89.737 519.1223 95.345566 523.89056 100.954124 514.4844 106.56268 518.57214 112.17125 518.058 117.779816 518.7994 123.388374 517.893 128.99693 515.40857 134.6055 515.32904 140.21407 515.59607 145.82263 520.4576 151.43118 521.0933 157.03975 519.90845 162.64832 519.1611 168.25687 526.42267 173.86543 518.8557" />
<text x="0.0" y="550.0" font-family="Verdana" font-size="11.5">straightened im</text>
<path id="straightened im axis" style="fill:none;stroke:#000000;stroke-width:1;" d="M0.0 520.0 179.474 520.0" />
<path id="straightened magnitude" style="fill:none;stroke:#227722;stroke-width:2.0;" d="M0.0 610.0 5.6085625 583.4361 11.217125 589.67444 16.825687 589.77094 22.43425 594.79364 28.042812 585.76666 33.651375 592.712 39.259937 589.79456 44.8685 593.21497 50.477062 589.6791 56.085625 586.5309 61.694187 587.0437 67.30275 586.9508 72.911316 588.3341 78.519875 589.5766 84.12843 587.7936 89.737 582.05786 95.345566 587.8687 100.954124 591.4425 106.56268 587.9343 112.17125 585.31836 117.779816 587.9543 123.388374 587.34534 128.99693 589.18945 134.6055 592.008 140.21407 588.9184 145.82263 591.0555 151.43118 582.3813 157.03975 595.397 162.64832 584.26056 168.25687 594.3713 173.86543 585.7535" />
<text x="0.0" y="610.0" font-family="Verdana" font-size="11.5">straightened magnitude</text>
<path id="straightened magnitude axis" style="fill:none;stroke:#000000;stroke-width:1;" d="M0.0 580.0 179.474 580.0" />
<path id="straightened phase" style="fill:none;stroke:#772222;stroke-width:2.0;" d="M0.0 640.0 5.6085625 622.0775 11.217125 621.05664 16.825687 610.30493 22.43425 610.0 28.042812 622.4261 33.651375 610.176 39.259937 655.26794 44.8685 662.92365 50.477062 656.2711 56.085625 661.0378 61.694187 641.07874 67.30275 649.159 72.911316 644.0137 78.519875 652.9365 84.12843 623.442 89.737 649.8181 95.345566 626.37 100.954124 657.7235 106.56268 666.68396 112.17125 662.35376 117.779816 667.27527 123.388374 645.8733 128.99693 655.62744 134.6055 648.56744 140.21407 653.55237 145.82263 639.2033 151.43118 620.95496 157.03975 640.1143 162.64832 643.89105 168.25687 629.3756 173.86543 643.93256" />
<text x="0.0" y="640.0" font-family="Verdana" font-size="11.5">straightened phase</text>
<path id="straightened phase axis" style="fill:none;stroke:#000000;stroke-width:1;" d="M0.0 640.0 179.474 640.0" />
<path id="stroke_12" style="fill:none;stroke:#000000;stroke-width:2;" d="M53.925995 715.224 51.3 715.448 49.873997 715.224 47.699997 714.02405 47.1 712.974 46.949997 711.77405 50.1 705.698 50.323997 704.27405 50.024 701.79803 49.424 700.9 47.924 700.0 46.35 700.29803 45.449997 702.848 45.826 706.82404 46.725998 709.52405 51.373997 718.29803 51.373997 720.77405 50.1 722.5 49.05 722.948 44.25 722.198 40.649998 721.07404 36.524 723.174 34.274 723.174 33.149998 722.65 32.1 721.75 31.199997 720.474 30.076 716.874 30.0 714.098 30.975998 711.698 32.25 711.174 43.424 715.52405 50.699997 720.174" />
</g></svg>