<?xml version="1.0" ?>
<svg width="179.474" height="400.0">
<title>transforms graphed</title>
<g>
<path id="equalised real" style="fill:none;stroke:#227722;stroke-width:2.0;" d="M0.0 70.0 2.8042812 37.3878 5.6085625 52.045517 8.412844 28.51764 11.217125 41.08253 14.021406 47.06325 16.825687 28.885712 19.629969 36.125374 22.43425 46.468422 25.238531 33.04864 28.042812 34.73381 30.847094 45.582813 33.651375 38.064198 36.455658 33.62605 39.259937 45.46608 42.064217 38.17016 44.8685 33.542538 47.672783 44.14494 50.477062 42.04705 53.28134 31.000946 56.085625 40.16286 58.889908 43.02607 61.694187 33.634876 64.49847 39.66002 67.30275 43.70028 70.10703 37.824066 72.911316 39.58566 75.71559 43.57692 78.519875 40.752323 81.32416 38.253895 84.12843 46.358223 86.93272 42.240387 89.737 38.441925 92.54128 42.240387 95.345566 46.358223 98.14984 38.253895 100.954124 40.752323 103.75841 43.57692 106.56268 39.58566 109.36697 37.824066 112.17125 43.70028 114.97553 39.660015 117.779816 33.634872 120.58409 43.02607 123.388374 40.16286 126.19266 31.000946 128.99693 42.04705 131.80122 44.14494 134.6055 33.542538 137.40977 38.170162 140.21407 45.46608 143.01834 33.626045 145.82263 38.064198 148.6269 45.582813 151.43118 34.73381 154.23547 33.048645 157.03975 46.468422 159.84402 36.12537 162.64832 28.885712 165.45259 47.063255 168.25687 41.08253 171.06116 28.51764 173.86543 52.045517 176.66972 37.3878" />
<text x="0.0" y="70.0" font-family="Verdana" font-size="11.5">equalised real</text>
<path id="equalised real axis" style="fill:none;stroke:#000000;stroke-width:1;" d="M0.0 40.0 179.474 40.0" />
<path id="equalised im" style="fill:none;stroke:#772222;stroke-width:2.0;" d="M0.0 100.0 2.8042812 76.22548 5.6085625 70.0 8.412844 84.94855 11.217125 105.01819 14.021406 85.09339 16.825687 74.56766 19.629969 120.55251 22.43425 95.08757 25.238531 79.33428 28.042812 118.43724 30.847094 103.974976 33.651375 81.31824 36.455658 112.59464 39.259937 104.55373 42.064217 83.87727 44.8685 108.81522 47.672783 111.43007 50.477062 81.74736 53.28134 101.00128 56.085625 114.63311 58.889908 97.20329 61.694187 96.31674 64.49847 118.74817 67.30275 102.023056 70.10703 96.23293 72.911316 114.310646 75.71559 103.1761 78.519875 96.19085 81.32416 110.94308 84.12843 105.385284 86.93272 91.44666 89.737 100.0 92.54128 108.55334 95.345566 94.614716 98.14984 89.05692 100.954124 103.80915 103.75841 96.8239 106.56268 85.689354 109.36697 103.76707 112.17125 97.976944 114.97553 81.25183 117.779816 103.68326 120.58409 102.79671 123.388374 85.36689 126.19266 98.998726 128.99693 118.25264 131.80122 88.56992 134.6055 91.18478 137.40977 116.122734 140.21407 95.44627 143.01834 87.40536 145.82263 118.68176 148.6269 96.02502 151.43118 81.56275 154.23547 120.66572 157.03975 104.91243 159.84402 79.447495 162.64832 125.43234 165.45259 114.9066 168.25687 94.98181 171.06116 115.05145 173.86543 130.0 176.66972 123.77452" />
<text x="0.0" y="100.0" font-family="Verdana" font-size="11.5">equalised im</text>
<path id="equalised im axis" style="fill:none;stroke:#000000;stroke-width:1;" d="M0.0 100.0 179.474 100.0" />
<path id="equalised magnitude" style="fill:none;stroke:#227722;stroke-width:2.0;" d="M0.0 186.66315 2.8042812 177.2878 5.6085625 190.0 8.412844 182.97238 11.217125 164.00717 14.021406 176.32947 16.825687 186.6014 19.629969 175.95847 22.43425 172.00171 25.238531 179.03171 28.042812 175.94995 30.847094 170.30687 33.651375 173.53027 36.455658 174.35938 39.259937 170.22633 42.064217 171.75204 44.8685 173.03375 47.672783 170.88033 50.477062 173.29256 53.28134 176.01157 56.085625 170.25366 58.889908 165.72456 61.694187 171.60469 64.49847 173.14581 67.30275 166.72832 70.10703 164.68211 72.911316 170.05074 75.71559 166.73608 78.519875 162.98445 81.32416 168.2695 84.12843 171.91486 86.93272 167.19391 89.737 162.76955 92.54128 167.19391 95.345566 171.91486 98.14984 168.2695 100.954124 162.98445 103.75841 166.73608 106.56268 170.05074 109.36697 164.68211 112.17125 166.72832 114.97553 173.14581 117.779816 171.60469 120.58409 165.72456 123.388374 170.25366 126.19266 176.01157 128.99693 173.29256 131.80122 170.88033 134.6055 173.03375 137.40977 171.75204 140.21407 170.22633 143.01834 174.35938 145.82263 173.53027 148.6269 170.30687 151.43118 175.94995 154.23547 179.03171 157.03975 172.00171 159.84402 175.95847 162.64832 186.6014 165.45259 176.32947 168.25687 164.00717 171.06116 182.97238 173.86543 190.0 176.66972 177.2878" />
<text x="0.0" y="186.66315" font-family="Verdana" font-size="11.5">equalised magnitude</text>
<path id="equalised magnitude axis" style="fill:none;stroke:#000000;stroke-width:1;" d="M0.0 160.0 179.474 160.0" />
<path id="equalised phase" style="fill:none;stroke:#772222;stroke-width:2.0;" d="M0.0 220.0 2.8042812 237.59671 5.6085625 227.41035 8.412844 245.44704 11.217125 209.78308 14.021406 226.62459 16.825687 242.99326 19.629969 200.73871 22.43425 222.77672 25.238531 241.74751 28.042812 199.01056 30.847094 217.38797 33.651375 237.45552 36.455658 196.31752 39.259937 216.97102 42.064217 237.67793 44.8685 194.71281 47.672783 212.10379 50.477062 232.35216 53.28134 190.41841 56.085625 205.26964 58.889908 223.33511 61.694187 247.85916 64.49847 204.56085 67.30275 217.97368 70.10703 244.28308 72.911316 204.2996 75.71559 216.7859 78.519875 230.56319 81.32416 201.3259 84.12843 216.92392 86.93272 229.39787 89.737 190.0 92.54128 210.60213 95.345566 223.07608 98.14984 238.6741 100.954124 209.43681 103.75841 223.2141 106.56268 235.7004 109.36697 195.71692 112.17125 222.02632 114.97553 235.43915 117.779816 192.14084 120.58409 216.66489 123.388374 234.73036 126.19266 249.58159 128.99693 207.64784 131.80122 227.89621 134.6055 245.28719 137.40977 202.32208 140.21407 223.02896 143.01834 243.6825 145.82263 202.54448 148.6269 222.61203 151.43118 240.98944 154.23547 198.25249 157.03975 217.22328 159.84402 239.26129 162.64832 197.00674 165.45259 213.37543 168.25687 230.21692 171.06116 194.55296 173.86543 212.58965 176.66972 202.40329" />
<text x="0.0" y="220.0" font-family="Verdana" font-size="11.5">equalised phase</text>
<path id="equalised phase axis" style="fill:none;stroke:#000000;stroke-width:1;" d="M0.0 220.0 179.474 220.0" />
<path id="equalised theta" style="fill:none;stroke:#222277;stroke-width:2.0;" d="M0.0 280.0 2.8042812 280.0 5.6085625 288.1709 8.412844 283.9051 11.217125 282.60947 14.021406 282.1267 16.825687 280.00003 19.629969 285.6159 22.43425 281.71524 25.238531 285.38928 28.042812 283.37955 30.847094 281.52112 33.651375 281.5801 36.455658 280.74622 39.259937 281.33963 42.064217 280.5103 44.8685 281.85904 47.672783 280.0 50.477062 282.93707 53.28134 280.19818 56.085625 280.00003 58.889908 280.0 61.694187 282.2641 64.49847 280.66888 67.30275 282.63956 70.10703 281.50528 72.911316 283.6491 75.71559 281.6918 78.519875 282.36765 81.32416 282.67853 84.12843 281.53546 86.93272 281.5645 89.737 284.0763 92.54128 281.71265 95.345566 282.06204 98.14984 281.33426 100.954124 281.4249 103.75841 282.63885 106.56268 281.25763 109.36697 283.2729 112.17125 281.38492 114.97553 281.54343 117.779816 250.0 120.58409 279.70303 123.388374 281.22714 126.19266 281.086 128.99693 280.89523 131.80122 280.82452 134.6055 281.77502 137.40977 280.21274 140.21407 282.66235 143.01834 280.26898 145.82263 284.76923 148.6269 280.61295 151.43118 283.8999 154.23547 280.0 157.03975 284.519 159.84402 280.06796 162.64832 283.8542 165.45259 280.0001 168.25687 283.47873 171.06116 280.55133 173.86543 281.52234 176.66972 281.72064 179.474 280.00006 182.27827 283.43402 185.08257 280.59894 187.88684 280.69797 190.69113 282.37607 193.4954 282.25693 196.29968 283.15515 199.10397 284.71857 201.90825 282.2097 204.71252 282.45047 207.51682 283.5783 210.32109 281.51996 213.12537 284.03406 215.92966 281.45697 218.73393 282.52252 221.53822 280.2464 224.3425 282.71286 227.14677 279.99988 229.95107 281.007 232.75534 282.2723 235.55963 279.99994 238.3639 280.00006 241.16818 280.01135" />
<text x="0.0" y="280.0" font-family="Verdana" font-size="11.5">equalised theta</text>
<path id="equalised theta axis" style="fill:none;stroke:#000000;stroke-width:1;" d="M0.0 280.0 243.97247 280.0" />
<path id="rawish theta" style="fill:none;stroke:#772277;stroke-width:2.0;" d="M0.0 340.0 2.8042812 340.0 5.6085625 351.6499 8.412844 344.48785 11.217125 349.67383 14.021406 348.77692 16.825687 344.56613 19.629969 342.32062 22.43425 342.7525 25.238531 343.12656 28.042812 344.1373 30.847094 343.8705 33.651375 344.09097 36.455658 346.1935 39.259937 344.45697 42.064217 344.43448 44.8685 344.0905 47.672783 347.09076 50.477062 343.26944 53.28134 343.6411 56.085625 344.5139 58.889908 344.94653 61.694187 343.85873 64.49847 310.0 67.30275 328.3718 70.10703 343.27362 72.911316 342.6144 75.71559 343.43027 78.519875 343.7939 81.32416 346.64847 84.12843 345.95517 86.93272 345.57147 89.737 345.56744 92.54128 345.31815 95.345566 344.27924 98.14984 345.32166 100.954124 344.0567 103.75841 347.14197 106.56268 346.40427 109.36697 345.97137 112.17125 344.81116 114.97553 347.2398 117.779816 345.25128 120.58409 343.90506 123.388374 344.32712" />
<text x="0.0" y="340.0" font-family="Verdana" font-size="11.5">rawish theta</text>
<path id="rawish theta axis" style="fill:none;stroke:#000000;stroke-width:1;" d="M0.0 340.0 126.19266 340.0" />
<path id="straightened theta" style="fill:none;stroke:#227777;stroke-width:2.0;" d="M0.0 400.0 2.8042812 400.0 5.6085625 411.6499 8.412844 404.48785 11.217125 409.67383 14.021406 408.77692 16.825687 405.80484 19.629969 405.44574 22.43425 405.6525 25.238531 403.8705 28.042812 404.09097 30.847094 406.1935 33.651375 404.45697 36.455658 404.43448 39.259937 404.0905 42.064217 408.75708 44.8685 405.24423 47.672783 404.5139 50.477062 404.94653 53.28134 403.85873 56.085625 370.0 58.889908 390.3958 61.694187 405.58344 64.49847 405.50473 67.30275 406.64847 70.10703 405.95517 72.911316 405.57147 75.71559 405.56744 78.519875 405.31815 81.32416 404.27924 84.12843 405.32166 86.93272 404.0567 89.737 407.14197 92.54128 406.40427 95.345566 405.97137 98.14984 404.81116 100.954124 407.2398 103.75841 405.25128 106.56268 403.90506 109.36697 404.32712" />
<text x="0.0" y="400.0" font-family="Verdana" font-size="11.5">straightened theta</text>
<path id="straightened theta axis" style="fill:none;stroke:#000000;stroke-width:1;" d="M0.0 400.0 112.17125 400.0" />
<path id="straightened real" style="fill:none;stroke:#227722;stroke-width:2.0;" d="M0.0 467.92758 2.8042812 488.61945 5.6085625 473.152 8.412844 463.33908 11.217125 469.3453 14.021406 461.30548 16.825687 455.77905 19.629969 461.35257 22.43425 452.48642 25.238531 467.49734 28.042812 464.0532 30.847094 461.11148 33.651375 466.34283 36.455658 458.1923 39.259937 459.5823 42.064217 459.82034 44.8685 454.66537 47.672783 458.54037 50.477062 463.06696 53.28134 460.7808 56.085625 459.9359 58.889908 461.30188 61.694187 463.38837 64.49847 458.53452 67.30275 462.22073 70.10703 462.4905 72.911316 459.5829 75.71559 464.15457 78.519875 460.87366 81.32416 455.8563 84.12843 463.47308 86.93272 460.63345 89.737 459.5883 92.54128 460.5506 95.345566 459.88727 98.14984 463.2209 100.954124 459.52396 103.75841 457.73587 106.56268 460.19812 109.36697 456.3595 112.17125 459.7349 114.97553 461.2858 117.779816 453.24765 120.58409 460.29742 123.388374 460.15015 126.19266 454.46317 128.99693 458.01492 131.80122 463.65027 134.6055 461.92184 137.40977 459.21255 140.21407 463.30655 143.01834 458.43903 145.82263 452.6341 148.6269 461.83908 151.43118 453.1636 154.23547 448.82883 157.03975 470.9322 159.84402 456.59967 162.64832 458.34702 165.45259 462.4275 168.25687 451.22684 171.06116 450.59244 173.86543 453.2141 176.66972 430.0" />
<text x="0.0" y="467.92758" font-family="Verdana" font-size="11.5">straightened real</text>
<path id="straightened real axis" style="fill:none;stroke:#000000;stroke-width:1;" d="M0.0 460.0 179.474 460.0" />
<path id="straightened im" style="fill:none;stroke:#772222;stroke-width:2.0;" d="M0.0 550.0 2.8042812 513.859 5.6085625 522.50635 8.412844 517.40784 11.217125 516.69183 14.021406 519.6592 16.825687 515.6159 19.629969 521.2774 22.43425 521.18475 25.238531 521.60333 28.042812 520.52704 30.847094 518.6392 33.651375 519.0903 36.455658 518.5521 39.259937 517.8114 42.064217 520.40265 44.8685 518.3634 47.672783 522.0895 50.477062 521.8552 53.28134 518.10205 56.085625 521.2548 58.889908 520.91125 61.694187 518.3108 64.49847 521.0973 67.30275 519.68036 70.10703 519.3679 72.911316 520.64056 75.71559 518.641 78.519875 518.69763 81.32416 519.4986 84.12843 520.3475 86.93272 519.59503 89.737 518.2917 92.54128 520.398 95.345566 519.8419 98.14984 518.4713 100.954124 519.05524 103.75841 518.34283 106.56268 519.2971 109.36697 519.72156 112.17125 519.4904 114.97553 519.3373 117.779816 518.65656 120.58409 521.1738 123.388374 519.88116 126.19266 518.00806 128.99693 523.5687 131.80122 521.0165 134.6055 517.5359 137.40977 521.9162 140.21407 517.384 143.01834 517.36975 145.82263 520.84406 148.6269 518.26605 151.43118 518.7962 154.23547 523.54333 157.03975 521.6459 159.84402 519.34796 162.64832 518.0034 165.45259 521.0586 168.25687 516.22076 171.06116 518.8208 173.86543 525.32263 176.66972 516.0909" />
<text x="0.0" y="550.0" font-family="Verdana" font-size="11.5">straightened im</text>
<path id="straightened im axis" style="fill:none;stroke:#000000;stroke-width:1;" d="M0.0 520.0 179.474 520.0" />
<path id="straightened magnitude" style="fill:none;stroke:#227722;stroke-width:2.0;" d="M0.0 610.0 2.8042812 608.3752 5.6085625 592.78284 8.412844 585.9528 11.217125 590.6374 14.021406 581.3505 16.825687 589.4912 19.629969 582.811 22.43425 587.1259 25.238531 587.4287 28.042812 583.7764 30.847094 582.8799 33.651375 585.9587 36.455658 583.29956 39.259937 584.3625 42.064217 580.8157 44.8685 585.77673 47.672783 584.3505 50.477062 584.5949 53.28134 583.8335 56.085625 582.49274 58.889908 582.1526 61.694187 584.5227 64.49847 582.54364 67.30275 582.0869 70.10703 582.55865 72.911316 581.32574 75.71559 584.59534 78.519875 582.7021 81.32416 583.8408 84.12843 583.1848 86.93272 580.9841 89.737 583.4126 92.54128 580.93146 95.345566 580.32983 98.14984 584.18695 100.954124 581.9241 103.75841 583.8652 106.56268 581.4071 109.36697 583.3056 112.17125 581.0394 114.97553 581.7484 117.779816 586.6074 120.58409 582.3463 123.388374 580.2716 126.19266 586.34174 128.99693 587.30676 131.80122 583.841 134.6055 585.18726 137.40977 583.87024 140.21407 585.9795 143.01834 585.4072 145.82263 586.8038 148.6269 583.8169 151.43118 586.5704 154.23547 592.2283 157.03975 590.3181 159.84402 583.308 162.64832 584.23224 165.45259 583.0236 168.25687 590.86346 171.06116 588.74133 173.86543 592.19183 176.66972 607.95605" />
<text x="0.0" y="610.0" font-family="Verdana" font-size="11.5">straightened magnitude</text>
<path id="straightened magnitude axis" style="fill:none;stroke:#000000;stroke-width:1;" d="M0.0 580.0 179.474 580.0" />
<path id="straightened phase" style="fill:none;stroke:#772222;stroke-width:2.0;" d="M0.0 640.0 2.8042812 644.48236 5.6085625 635.96466 8.412844 650.5402 11.217125 646.71643 14.021406 645.2959 16.825687 659.97906 19.629969 628.645 22.43425 611.69916 25.238531 635.5308 28.042812 637.16656 30.847094 652.2887 33.651375 643.1079 36.455658 661.0196 39.259937 656.71375 42.064217 622.14984 44.8685 665.6669 47.672783 621.07434 50.477062 630.6133 53.28134 653.9979 56.085625 623.9199 58.889908 629.9244 61.694187 648.43115 64.49847 618.6848 67.30275 643.1182 70.10703 645.17365 72.911316 621.2716 75.71559 646.33344 78.519875 652.88525 81.32416 669.05 84.12843 637.79663 86.93272 649.6519 89.737 656.9397 92.54128 629.778 95.345566 658.9857 98.14984 648.18384 100.954124 658.10126 103.75841 661.4172 106.56268 654.5728 109.36697 670.0 112.17125 658.1721 114.97553 648.59784 117.779816 667.5022 120.58409 625.2995 123.388374 650.62506 126.19266 664.9 128.99693 621.67346 131.80122 634.417 134.6055 652.4371 137.40977 622.3042 140.21407 650.623 143.01834 658.48517 145.82263 610.81573 148.6269 651.34845 151.43118 667.9386 154.23547 614.49054 157.03975 636.7478 159.84402 667.63806 162.64832 659.45166 165.45259 632.24316 168.25687 664.00073 171.06116 668.95953 173.86543 618.8896 176.66972 668.85675" />
<text x="0.0" y="640.0" font-family="Verdana" font-size="11.5">straightened phase</text>
<path id="straightened phase axis" style="fill:none;stroke:#000000;stroke-width:1;" d="M0.0 640.0 179.474 640.0" />
<path id="stroke_20" style="fill:none;stroke:#000000;stroke-width:2;" d="M37.424004 713.126 36.15 714.85 34.800003 715.15 32.174004 715.0 30.599998 713.8 30.150002 712.674 30.074005 709.45 31.424004 705.25 33.975998 701.95 35.475998 700.75 36.975998 700.074 38.700005 700.0 39.975998 700.3 41.475998 701.126 42.75 702.324 43.65 705.476 43.574005 707.2 43.050003 708.774 42.074005 710.126 41.026 711.024 41.25 711.174 44.4 711.174 48.6 712.674 50.174004 713.95 51.074005 715.674 51.300003 717.626 50.85 719.574 49.65 721.45 47.776 722.95 45.374 724.0 42.75 724.224 40.950005 723.926 39.75 723.1 38.924004 721.824 38.624 720.4 38.776 718.676 39.75 717.024 41.475998 715.524 43.950005 714.25 47.474 713.5" />
</g></svg>