<?xml version="1.0" ?>
<svg width="179.474" height="400.0">
<title>transforms graphed</title>
<g>
<path id="equalised real" style="fill:none;stroke:#227722;stroke-width:2.0;" d="M0.0 10.0 11.217125 39.83511 22.43425 63.554268 33.651375 24.160591 44.8685 46.65568 56.085625 56.02984 67.30275 22.747877 78.519875 46.70429 89.737 30.624699 100.954124 46.70428 112.17125 22.747877 123.388374 56.02984 134.6055 46.65568 145.82263 24.160591 157.03975 63.554268 168.25687 39.835102" />
<text x="0.0" y="10.0" font-family="Verdana" font-size="11.5">equalised real</text>
<path id="equalised real axis" style="fill:none;stroke:#000000;stroke-width:1;" d="M0.0 40.0 179.474 40.0" />
<path id="equalised im" style="fill:none;stroke:#772222;stroke-width:2.0;" d="M0.0 100.0 11.217125 130.0 22.43425 81.26799 33.651375 110.41179 44.8685 96.51206 56.085625 103.53865 67.30275 84.71158 78.519875 108.296646 89.737 100.0 100.954124 91.703354 112.17125 115.28842 123.388374 96.46134 134.6055 103.48794 145.82263 89.58821 157.03975 118.73201 168.25687 70.0" />
<text x="0.0" y="100.0" font-family="Verdana" font-size="11.5">equalised im</text>
<path id="equalised im axis" style="fill:none;stroke:#000000;stroke-width:1;" d="M0.0 100.0 179.474 100.0" />
<path id="equalised magnitude" style="fill:none;stroke:#227722;stroke-width:2.0;" d="M0.0 171.50563 11.217125 190.0 22.43425 186.02504 33.651375 176.00043 44.8685 166.18292 56.085625 172.79465 67.30275 180.21997 78.519875 169.76105 89.737 167.19125 100.954124 169.76105 112.17125 180.21997 123.388374 172.79465 134.6055 166.18292 145.82263 176.00043 157.03975 186.02504 168.25687 190.0" />
<text x="0.0" y="171.50563" font-family="Verdana" font-size="11.5">equalised magnitude</text>
<path id="equalised magnitude axis" style="fill:none;stroke:#000000;stroke-width:1;" d="M0.0 160.0 179.474 160.0" />
<path id="equalised phase" style="fill:none;stroke:#772222;stroke-width:2.0;" d="M0.0 220.0 11.217125 204.95975 22.43425 227.67247 33.651375 196.7659 44.8685 225.72354 56.085625 217.32407 67.30275 241.81308 78.519875 210.29866 89.737 190.0 100.954124 229.70135 112.17125 198.18692 123.388374 222.67593 134.6055 214.27646 145.82263 243.2341 157.03975 212.32753 168.25687 235.04025" />
<text x="0.0" y="220.0" font-family="Verdana" font-size="11.5">equalised phase</text>
<path id="equalised phase axis" style="fill:none;stroke:#000000;stroke-width:1;" d="M0.0 220.0 179.474 220.0" />
<path id="equalised theta" style="fill:none;stroke:#222277;stroke-width:2.0;" d="M0.0 280.0 11.217125 280.0 22.43425 266.06085 33.651375 275.9073 44.8685 279.99927 56.085625 274.9803 67.30275 275.0452 78.519875 269.81485 89.737 269.8513 100.954124 250.0 112.17125 267.14236 123.388374 275.7724 134.6055 275.5539 145.82263 275.40833 157.03975 279.7396 168.25687 279.99924 179.474 278.13266 190.69113 279.41553 201.90825 295.84387 213.12537 295.94058" />
<text x="0.0" y="280.0" font-family="Verdana" font-size="11.5">equalised theta</text>
<path id="equalised theta axis" style="fill:none;stroke:#000000;stroke-width:1;" d="M0.0 280.0 224.3425 280.0" />
<path id="rawish theta" style="fill:none;stroke:#772277;stroke-width:2.0;" d="M0.0 340.0 11.217125 340.0 22.43425 330.0636 33.651375 334.3838 44.8685 331.2093 56.085625 310.0 67.30275 325.9812 78.519875 334.72925 89.737 336.22318 100.954124 338.09143 112.17125 364.7575" />
<text x="0.0" y="340.0" font-family="Verdana" font-size="11.5">rawish theta</text>
<path id="rawish theta axis" style="fill:none;stroke:#000000;stroke-width:1;" d="M0.0 340.0 123.388374 340.0" />
<path id="straightened theta" style="fill:none;stroke:#227777;stroke-width:2.0;" d="M0.0 400.0 11.217125 400.0 22.43425 390.0636 33.651375 394.3838 44.8685 391.2093 56.085625 370.0 67.30275 385.9812 78.519875 392.10373 89.737 396.94012 100.954124 424.7575" />
<text x="0.0" y="400.0" font-family="Verdana" font-size="11.5">straightened theta</text>
<path id="straightened theta axis" style="fill:none;stroke:#000000;stroke-width:1;" d="M0.0 400.0 112.17125 400.0" />
<path id="straightened real" style="fill:none;stroke:#227722;stroke-width:2.0;" d="M0.0 450.9288 11.217125 489.90027 22.43425 466.4693 33.651375 468.5823 44.8685 458.8358 56.085625 474.03433 67.30275 446.18463 78.519875 460.16312 89.737 457.16516 100.954124 463.8913 112.17125 463.3822 123.388374 455.65967 134.6055 465.1892 145.82263 441.83887 157.03975 467.7751 168.25687 430.0" />
<text x="0.0" y="450.9288" font-family="Verdana" font-size="11.5">straightened real</text>
<path id="straightened real axis" style="fill:none;stroke:#000000;stroke-width:1;" d="M0.0 460.0 179.474 460.0" />
<path id="straightened im" style="fill:none;stroke:#772222;stroke-width:2.0;" d="M0.0 550.0 11.217125 516.7707 22.43425 522.39624 33.651375 514.9686 44.8685 520.276 56.085625 517.3226 67.30275 511.82425 78.519875 525.79736 89.737 517.0202 100.954124 522.5709 112.17125 517.7698 123.388374 515.9464 134.6055 521.63245 145.82263 510.91962 157.03975 529.68097 168.25687 505.10397" />
<text x="0.0" y="550.0" font-family="Verdana" font-size="11.5">straightened im</text>
<path id="straightened im axis" style="fill:none;stroke:#000000;stroke-width:1;" d="M0.0 520.0 179.474 520.0" />
<path id="straightened magnitude" style="fill:none;stroke:#227722;stroke-width:2.0;" d="M0.0 601.6689 11.217125 601.5719 22.43425 585.7017 33.651375 589.3948 44.8685 580.91034 56.085625 590.6049 67.30275 595.2071 78.519875 588.28406 89.737 584.703 100.954124 584.5841 112.17125 583.97943 123.388374 586.54987 134.6055 584.33765 145.82263 598.22485 157.03975 594.87787 168.25687 610.0" />
<text x="0.0" y="601.6689" font-family="Verdana" font-size="11.5">straightened magnitude</text>
<path id="straightened magnitude axis" style="fill:none;stroke:#000000;stroke-width:1;" d="M0.0 580.0 179.474 580.0" />
<path id="straightened phase" style="fill:none;stroke:#772222;stroke-width:2.0;" d="M0.0 640.0 11.217125 642.4008 22.43425 632.82623 33.651375 649.70447 44.8685 610.0 56.085625 644.11035 67.30275 665.2339 78.519875 622.6596 89.737 662.3817 100.954124 629.64777 112.17125 650.3419 123.388374 662.9069 134.6055 633.67694 145.82263 666.167 157.03975 626.706 168.25687 666.2056" />
<text x="0.0" y="640.0" font-family="Verdana" font-size="11.5">straightened phase</text>
<path id="straightened phase axis" style="fill:none;stroke:#000000;stroke-width:1;" d="M0.0 640.0 179.474 640.0" />
<path id="stroke_21" style="fill:none;stroke:#000000;stroke-width:2;" d="M36.449997 700.6 34.874 700.0 32.325996 700.374 31.349998 700.82605 30.0 702.474 31.199997 703.52405 32.549995 703.52405 36.75 701.724 38.774002 700.45 39.826004 701.35" />
</g></svg>