<?xml version="1.0" ?>
<svg width="179.474" height="400.0">
<title>transforms graphed</title>
<g>
<path id="equalised real" style="fill:none;stroke:#227722;stroke-width:2.0;" d="M0.0 70.0 2.8042812 34.853203 5.6085625 50.285923 8.412844 31.10832 11.217125 34.40556 14.021406 42.03931 16.825687 46.567642 19.629969 28.58611 22.43425 32.150494 25.238531 47.433743 28.042812 43.901962 30.847094 29.931644 33.651375 34.901012 36.455658 48.497673 39.259937 43.733166 42.064217 32.41881 44.8685 40.37105 47.672783 46.18191 50.477062 38.46322 53.28134 32.26086 56.085625 45.030727 58.889908 46.056244 61.694187 34.25381 64.49847 33.080734 67.30275 46.477833 70.10703 44.809555 72.911316 32.431057 75.71559 35.488197 78.519875 49.66996 81.32416 44.026608 84.12843 31.517962 86.93272 40.934395 89.737 46.262604 92.54128 40.934395 95.345566 31.517963 98.14984 44.026608 100.954124 49.66996 103.75841 35.488197 106.56268 32.431057 109.36697 44.80956 112.17125 46.477833 114.97553 33.080734 117.779816 34.25381 120.58409 46.056244 123.388374 45.030727 126.19266 32.26086 128.99693 38.46322 131.80122 46.18191 134.6055 40.37105 137.40977 32.41881 140.21407 43.733166 143.01834 48.497673 145.82263 34.90101 148.6269 29.931644 151.43118 43.901962 154.23547 47.433746 157.03975 32.15049 159.84402 28.586113 162.64832 46.567642 165.45259 42.03931 168.25687 34.405556 171.06116 31.10832 173.86543 50.285923 176.66972 34.853207" />
<text x="0.0" y="70.0" font-family="Verdana" font-size="11.5">equalised real</text>
<path id="equalised real axis" style="fill:none;stroke:#000000;stroke-width:1;" d="M0.0 40.0 179.474 40.0" />
<path id="equalised im" style="fill:none;stroke:#772222;stroke-width:2.0;" d="M0.0 100.0 2.8042812 72.32212 5.6085625 98.300964 8.412844 70.0 11.217125 112.972244 14.021406 101.57453 16.825687 90.412766 19.629969 80.478294 22.43425 120.797615 25.238531 108.56653 28.042812 85.769005 30.847094 92.11159 33.651375 118.418655 36.455658 110.5034 39.259937 84.606255 42.064217 98.93752 44.8685 111.20698 47.672783 100.132965 50.477062 85.50145 53.28134 107.979355 56.085625 111.60825 58.889908 91.25095 61.694187 86.937584 64.49847 112.90846 67.30275 110.711075 70.10703 88.61342 72.911316 91.876274 75.71559 117.27329 78.519875 109.294464 81.32416 82.710144 84.12843 98.02959 86.93272 113.18232 89.737 100.0 92.54128 86.81767 95.345566 101.97042 98.14984 117.289856 100.954124 90.705536 103.75841 82.726715 106.56268 108.123726 109.36697 111.38657 112.17125 89.288925 114.97553 87.09154 117.779816 113.062416 120.58409 108.74904 123.388374 88.39175 126.19266 92.020645 128.99693 114.49855 131.80122 99.867035 134.6055 88.79302 137.40977 101.06248 140.21407 115.393745 143.01834 89.4966 145.82263 81.581345 148.6269 107.88841 151.43118 114.230995 154.23547 91.433464 157.03975 79.202385 159.84402 119.52171 162.64832 109.587234 165.45259 98.42547 168.25687 87.027756 171.06116 130.0 173.86543 101.699036 176.66972 127.67789" />
<text x="0.0" y="100.0" font-family="Verdana" font-size="11.5">equalised im</text>
<path id="equalised im axis" style="fill:none;stroke:#000000;stroke-width:1;" d="M0.0 100.0 179.474 100.0" />
<path id="equalised magnitude" style="fill:none;stroke:#227722;stroke-width:2.0;" d="M0.0 184.4473 2.8042812 185.64508 5.6085625 176.83008 8.412844 190.0 11.217125 174.5653 14.021406 163.59828 16.825687 173.60309 19.629969 185.2631 22.43425 182.2548 25.238531 174.24957 28.042812 173.98952 30.847094 177.80397 33.651375 178.14243 36.455658 176.62503 39.259937 174.78821 42.064217 172.39095 44.8685 169.8313 47.672783 170.07607 50.477062 172.93947 53.28134 174.4191 56.085625 173.05887 58.889908 172.49449 61.694187 174.7824 64.49847 175.96622 67.30275 174.12164 70.10703 172.68246 72.911316 174.2398 75.71559 176.81714 78.519875 177.7374 81.32416 176.50002 84.12843 173.93143 86.93272 171.6423 89.737 170.20691 92.54128 171.6423 95.345566 173.93143 98.14984 176.50002 100.954124 177.7374 103.75841 176.81714 106.56268 174.2398 109.36697 172.68246 112.17125 174.12164 114.97553 175.96622 117.779816 174.7824 120.58409 172.49449 123.388374 173.05887 126.19266 174.4191 128.99693 172.93947 131.80122 170.07607 134.6055 169.8313 137.40977 172.39095 140.21407 174.78821 143.01834 176.62503 145.82263 178.14243 148.6269 177.80397 151.43118 173.98952 154.23547 174.24957 157.03975 182.2548 159.84402 185.2631 162.64832 173.60309 165.45259 163.59828 168.25687 174.5653 171.06116 190.0 173.86543 176.83008 176.66972 185.64508" />
<text x="0.0" y="184.4473" font-family="Verdana" font-size="11.5">equalised magnitude</text>
<path id="equalised magnitude axis" style="fill:none;stroke:#000000;stroke-width:1;" d="M0.0 160.0 179.474 160.0" />
<path id="equalised phase" style="fill:none;stroke:#772222;stroke-width:2.0;" d="M0.0 220.0 2.8042812 238.62767 5.6085625 220.8659 8.412844 240.29984 11.217125 198.01479 14.021406 216.15329 16.825687 226.50641 19.629969 243.46492 22.43425 198.64084 25.238531 214.5767 28.042812 230.75073 30.847094 246.83751 33.651375 199.97731 36.455658 214.26524 39.259937 231.21921 42.064217 250.0 44.8685 205.23457 47.672783 219.88696 50.477062 237.27338 53.28134 194.21355 56.085625 211.27336 58.889908 226.45695 61.694187 242.08014 64.49847 196.95956 67.30275 212.89421 70.10703 228.84906 72.911316 245.61813 75.71559 200.20499 78.519875 215.33672 81.32416 231.36575 84.12843 249.52052 86.93272 205.9158 89.737 220.0 92.54128 234.0842 95.345566 190.47948 98.14984 208.63425 100.954124 224.66328 103.75841 239.79501 106.56268 194.38187 109.36697 211.15094 112.17125 227.10579 114.97553 243.04044 117.779816 197.91986 120.58409 213.54305 123.388374 228.72664 126.19266 245.78645 128.99693 202.72662 131.80122 220.11304 134.6055 234.76543 137.40977 190.0 140.21407 208.78079 143.01834 225.73476 145.82263 240.02269 148.6269 193.16249 151.43118 209.24927 154.23547 225.42331 157.03975 241.35916 159.84402 196.5351 162.64832 213.49359 165.45259 223.84671 168.25687 241.98521 171.06116 199.70016 173.86543 219.1341 176.66972 201.37233" />
<text x="0.0" y="220.0" font-family="Verdana" font-size="11.5">equalised phase</text>
<path id="equalised phase axis" style="fill:none;stroke:#000000;stroke-width:1;" d="M0.0 220.0 179.474 220.0" />
<path id="equalised theta" style="fill:none;stroke:#222277;stroke-width:2.0;" d="M0.0 280.0 2.8042812 280.0 5.6085625 279.99896 8.412844 282.0187 11.217125 282.73917 14.021406 281.3848 16.825687 282.10638 19.629969 283.66095 22.43425 280.9066 25.238531 283.61026 28.042812 280.0 30.847094 282.6967 33.651375 280.64517 36.455658 280.59247 39.259937 282.93036 42.064217 282.24078 44.8685 281.52133 47.672783 282.5295 50.477062 281.22754 53.28134 280.99695 56.085625 280.9796 58.889908 281.12744 61.694187 281.22122 64.49847 281.57156 67.30275 279.99994 70.10703 280.00006 72.911316 282.28824 75.71559 283.11697 78.519875 285.7841 81.32416 284.5573 84.12843 283.2357 86.93272 282.8562 89.737 284.22687 92.54128 280.19446 95.345566 280.0 98.14984 279.83142 100.954124 250.0 103.75841 281.9571 106.56268 281.61572 109.36697 280.72855 112.17125 280.6482 114.97553 282.05402 117.779816 281.10947 120.58409 283.79605 123.388374 280.91013 126.19266 282.08908 128.99693 281.0625 131.80122 281.2492 134.6055 281.98944 137.40977 280.66608 140.21407 283.6462 143.01834 281.06848 145.82263 282.9048 148.6269 282.3357 151.43118 282.2738 154.23547 282.33572 157.03975 281.15634 159.84402 283.08527 162.64832 280.54053 165.45259 281.77283 168.25687 281.32077 171.06116 282.67947 173.86543 279.99994 176.66972 285.99582 179.474 282.16077 182.27827 283.07004 185.08257 285.67953 187.88684 283.60162 190.69113 284.2602 193.4954 280.60953 196.29968 282.4567 199.10397 280.00003 201.90825 280.4762 204.71252 280.6218 207.51682 280.0 210.32109 279.99915" />
<text x="0.0" y="280.0" font-family="Verdana" font-size="11.5">equalised theta</text>
<path id="equalised theta axis" style="fill:none;stroke:#000000;stroke-width:1;" d="M0.0 280.0 213.12537 280.0" />
<path id="rawish theta" style="fill:none;stroke:#772277;stroke-width:2.0;" d="M0.0 340.0 2.8042812 340.0 5.6085625 342.98618 8.412844 343.55112 11.217125 346.1378 14.021406 344.807 16.825687 343.55655 19.629969 343.7491 22.43425 342.90524 25.238531 343.79053 28.042812 342.36737 30.847094 342.2424 33.651375 342.97214 36.455658 343.06558 39.259937 348.4351 42.064217 347.4332 44.8685 344.30743 47.672783 344.70535 50.477062 310.0 53.28134 340.0 56.085625 341.95422 58.889908 341.20673 61.694187 343.36667 64.49847 344.01407 67.30275 343.21768 70.10703 342.46024 72.911316 342.82608 75.71559 344.83392 78.519875 343.275 81.32416 344.90555 84.12843 342.99 86.93272 344.0099 89.737 342.4619 92.54128 344.25723 95.345566 348.68057 98.14984 346.73874 100.954124 345.69052 103.75841 345.24918 106.56268 343.26315 109.36697 341.16855" />
<text x="0.0" y="340.0" font-family="Verdana" font-size="11.5">rawish theta</text>
<path id="rawish theta axis" style="fill:none;stroke:#000000;stroke-width:1;" d="M0.0 340.0 112.17125 340.0" />
<path id="straightened theta" style="fill:none;stroke:#227777;stroke-width:2.0;" d="M0.0 400.0 2.8042812 400.0 5.6085625 403.0713 8.412844 403.65237 11.217125 406.31277 14.021406 404.94406 16.825687 403.65793 19.629969 403.85602 22.43425 402.98807 25.238531 405.2267 28.042812 403.41306 30.847094 403.0569 33.651375 403.15298 36.455658 408.67557 39.259937 407.6451 42.064217 404.43024 44.8685 404.8395 47.672783 370.0 50.477062 402.3958 53.28134 403.46265 56.085625 404.1285 58.889908 404.52643 61.694187 404.22 64.49847 404.97174 67.30275 403.36838 70.10703 405.04538 72.911316 403.07523 75.71559 405.3769 78.519875 405.65802 81.32416 408.92804 84.12843 406.93085 86.93272 405.85278 89.737 405.3988 92.54128 403.9839" />
<text x="0.0" y="400.0" font-family="Verdana" font-size="11.5">straightened theta</text>
<path id="straightened theta axis" style="fill:none;stroke:#000000;stroke-width:1;" d="M0.0 400.0 95.345566 400.0" />
<path id="straightened real" style="fill:none;stroke:#227722;stroke-width:2.0;" d="M0.0 465.92838 2.8042812 487.96585 5.6085625 463.2436 8.412844 466.30185 11.217125 459.9835 14.021406 463.9919 16.825687 461.14575 19.629969 458.44656 22.43425 463.91843 25.238531 460.79553 28.042812 464.66098 30.847094 449.24585 33.651375 464.02747 36.455658 461.58307 39.259937 463.84396 42.064217 455.89645 44.8685 466.57355 47.672783 460.41708 50.477062 460.92578 53.28134 455.8551 56.085625 464.5969 58.889908 458.08887 61.694187 463.07788 64.49847 456.01578 67.30275 467.2103 70.10703 463.07294 72.911316 460.1457 75.71559 455.78262 78.519875 461.69565 81.32416 461.7321 84.12843 459.24326 86.93272 463.50226 89.737 461.23758 92.54128 456.86703 95.345566 457.40445 98.14984 459.8593 100.954124 462.12616 103.75841 462.4342 106.56268 456.86288 109.36697 458.8279 112.17125 455.3499 114.97553 461.24957 117.779816 454.65106 120.58409 464.3047 123.388374 457.39136 126.19266 461.0862 128.99693 458.46683 131.80122 462.02615 134.6055 453.5731 137.40977 461.1073 140.21407 457.6315 143.01834 461.77542 145.82263 453.95728 148.6269 466.77487 151.43118 456.88116 154.23547 462.1425 157.03975 452.97925 159.84402 457.0424 162.64832 461.44992 165.45259 456.81406 168.25687 457.80545 171.06116 450.18393 173.86543 460.82166 176.66972 430.0" />
<text x="0.0" y="465.92838" font-family="Verdana" font-size="11.5">straightened real</text>
<path id="straightened real axis" style="fill:none;stroke:#000000;stroke-width:1;" d="M0.0 460.0 179.474 460.0" />
<path id="straightened im" style="fill:none;stroke:#772222;stroke-width:2.0;" d="M0.0 550.0 2.8042812 515.43384 5.6085625 521.17694 8.412844 514.8509 11.217125 522.2574 14.021406 517.08563 16.825687 520.3207 19.629969 518.46246 22.43425 522.07745 25.238531 518.10754 28.042812 517.8441 30.847094 517.84265 33.651375 525.9229 36.455658 518.49084 39.259937 519.894 42.064217 519.73987 44.8685 521.9423 47.672783 517.49365 50.477062 518.2692 53.28134 521.2739 56.085625 519.8328 58.889908 520.4375 61.694187 518.4206 64.49847 522.15686 67.30275 520.74976 70.10703 518.3884 72.911316 515.5526 75.71559 521.3608 78.519875 519.54956 81.32416 520.69543 84.12843 517.6527 86.93272 522.2684 89.737 514.3039 92.54128 520.5392 95.345566 517.9112 98.14984 522.96344 100.954124 518.3304 103.75841 519.095 106.56268 516.6182 109.36697 519.8821 112.17125 519.3447 114.97553 520.4636 117.779816 520.13403 120.58409 521.5851 123.388374 518.3101 126.19266 520.2273 128.99693 520.171 131.80122 517.4762 134.6055 520.4723 137.40977 519.8793 140.21407 521.9132 143.01834 517.1131 145.82263 523.5069 148.6269 518.8774 151.43118 519.7109 154.23547 516.9838 157.03975 519.3494 159.84402 521.0232 162.64832 521.57825 165.45259 516.8791 168.25687 520.5558 171.06116 518.7861 173.86543 521.3998 176.66972 519.0644" />
<text x="0.0" y="550.0" font-family="Verdana" font-size="11.5">straightened im</text>
<path id="straightened im axis" style="fill:none;stroke:#000000;stroke-width:1;" d="M0.0 520.0 179.474 520.0" />
<path id="straightened magnitude" style="fill:none;stroke:#227722;stroke-width:2.0;" d="M0.0 604.42926 2.8042812 608.8893 5.6085625 583.7569 8.412844 590.4357 11.217125 583.64935 14.021406 586.17194 16.825687 581.2563 19.629969 582.93005 22.43425 585.157 25.238531 583.1609 28.042812 585.8152 30.847094 591.29254 33.651375 590.3856 36.455658 582.9072 39.259937 583.8429 42.064217 584.1199 44.8685 587.27747 47.672783 584.0732 50.477062 582.94684 53.28134 584.62366 56.085625 584.599 58.889908 582.0355 61.694187 583.9961 64.49847 585.2907 67.30275 587.3024 70.10703 584.0257 72.911316 587.19116 75.71559 584.7519 78.519875 581.8434 81.32416 582.0631 84.12843 583.8692 86.93272 585.06775 89.737 589.291 92.54128 583.2481 95.345566 584.2571 98.14984 584.7928 100.954124 583.4343 103.75841 582.8374 106.56268 586.3012 109.36697 581.18604 112.17125 584.7635 114.97553 581.45575 117.779816 585.3465 120.58409 585.005 123.388374 583.775 126.19266 581.1454 128.99693 581.55597 131.80122 584.55426 134.6055 586.464 137.40977 581.123 140.21407 583.89386 143.01834 584.9925 145.82263 588.2802 148.6269 587.00543 151.43118 583.1498 154.23547 585.3248 157.03975 587.0903 159.84402 583.38544 162.64832 582.9337 165.45259 585.9649 168.25687 582.3688 171.06116 589.99805 173.86543 582.4071 176.66972 610.0" />
<text x="0.0" y="604.42926" font-family="Verdana" font-size="11.5">straightened magnitude</text>
<path id="straightened magnitude axis" style="fill:none;stroke:#000000;stroke-width:1;" d="M0.0 580.0 179.474 580.0" />
<path id="straightened phase" style="fill:none;stroke:#772222;stroke-width:2.0;" d="M0.0 640.0 2.8042812 642.49963 5.6085625 634.86255 8.412844 648.93317 11.217125 624.76025 14.021406 648.4021 16.825687 635.8849 19.629969 660.59436 22.43425 633.1388 25.238531 652.7381 28.042812 646.2172 30.847094 667.35474 33.651375 628.6513 36.455658 649.6334 39.259937 640.4316 42.064217 669.403 44.8685 635.68414 47.672783 654.205 50.477062 652.1085 53.28134 614.07385 56.085625 640.5689 58.889908 613.04065 61.694187 646.70544 64.49847 616.5688 67.30275 638.38684 70.10703 646.8091 72.911316 655.0003 75.71559 614.2641 78.519875 643.9286 81.32416 634.4247 84.12843 657.09796 86.93272 632.17346 89.737 653.9053 92.54128 612.23627 95.345566 661.52985 98.14984 624.52026 100.954124 648.74744 103.75841 645.2409 106.56268 660.2305 109.36697 668.83026 112.17125 668.22266 114.97553 634.76794 117.779816 610.0 120.58409 634.8001 123.388374 662.56476 126.19266 636.8408 128.99693 611.33606 131.80122 650.7419 134.6055 610.7532 137.40977 641.6901 140.21407 618.4876 143.01834 651.68353 145.82263 616.9036 148.6269 642.5351 151.43118 668.9512 154.23547 651.19556 157.03975 668.9518 159.84402 614.54626 162.64832 629.7979 165.45259 660.6393 168.25687 613.37134 171.06116 668.4809 173.86543 628.1694 176.66972 669.90424" />
<text x="0.0" y="640.0" font-family="Verdana" font-size="11.5">straightened phase</text>
<path id="straightened phase axis" style="fill:none;stroke:#000000;stroke-width:1;" d="M0.0 640.0 179.474 640.0" />
<path id="stroke_2" style="fill:none;stroke:#000000;stroke-width:2;" d="M35.850006 712.824 33.600006 712.45 32.550003 712.0 30.824005 710.574 30.0 708.55 30.0 706.14996 30.75 703.6 31.5 702.474 32.626 701.42596 36.224007 700.14996 38.25 700.0 41.850006 700.6 43.050003 701.12396 43.950005 702.85 43.800003 704.12396 43.200005 705.324 40.426003 707.8 43.800003 708.026 45.524002 708.474 46.950005 709.3 48.074005 710.574 49.350006 713.87396 49.426003 715.824 48.824005 717.474 47.926003 718.75 46.5 719.64996 44.926003 720.17596 41.100006 719.8 38.850006 718.45 38.100006 716.276 38.324005 715.224 39.15 714.17596 40.874 713.276 46.574005 712.3" />
</g></svg>