<?xml version="1.0" ?>
<svg width="179.474" height="400.0">
<title>transforms graphed</title>
<g>
<path id="equalised real" style="fill:none;stroke:#227722;stroke-width:2.0;" d="M0.0 10.0 11.217125 43.96468 22.43425 49.10245 33.651375 47.359344 44.8685 26.923544 56.085625 60.25731 67.30275 35.035072 78.519875 22.703926 89.737 59.307358 100.954124 22.703924 112.17125 35.035072 123.388374 60.25731 134.6055 26.923544 145.82263 47.359344 157.03975 49.10245 168.25687 43.964676" />
<text x="0.0" y="10.0" font-family="Verdana" font-size="11.5">equalised real</text>
<path id="equalised real axis" style="fill:none;stroke:#000000;stroke-width:1;" d="M0.0 40.0 179.474 40.0" />
<path id="equalised im" style="fill:none;stroke:#772222;stroke-width:2.0;" d="M0.0 100.0 11.217125 130.0 22.43425 80.28807 33.651375 113.02829 44.8685 99.20547 56.085625 85.22308 67.30275 115.41447 78.519875 84.23845 89.737 100.0 100.954124 115.76155 112.17125 84.58553 123.388374 114.77692 134.6055 100.79453 145.82263 86.97171 157.03975 119.71193 168.25687 70.0" />
<text x="0.0" y="100.0" font-family="Verdana" font-size="11.5">equalised im</text>
<path id="equalised im axis" style="fill:none;stroke:#000000;stroke-width:1;" d="M0.0 100.0 179.474 100.0" />
<path id="equalised magnitude" style="fill:none;stroke:#227722;stroke-width:2.0;" d="M0.0 171.8734 11.217125 190.0 22.43425 180.88593 33.651375 174.20612 44.8685 170.38092 56.085625 181.75052 67.30275 175.82564 78.519875 180.81221 89.737 175.28293 100.954124 180.81221 112.17125 175.82564 123.388374 181.75052 134.6055 170.38092 145.82263 174.20612 157.03975 180.88593 168.25687 190.0" />
<text x="0.0" y="171.8734" font-family="Verdana" font-size="11.5">equalised magnitude</text>
<path id="equalised magnitude axis" style="fill:none;stroke:#000000;stroke-width:1;" d="M0.0 160.0 179.474 160.0" />
<path id="equalised phase" style="fill:none;stroke:#772222;stroke-width:2.0;" d="M0.0 220.0 11.217125 205.65282 22.43425 231.92586 33.651375 208.76222 44.8685 250.0 56.085625 227.26025 67.30275 202.17111 78.519875 242.39899 89.737 220.0 100.954124 197.60101 112.17125 237.82889 123.388374 212.73975 134.6055 190.0 145.82263 231.23778 157.03975 208.07416 168.25687 234.34718" />
<text x="0.0" y="220.0" font-family="Verdana" font-size="11.5">equalised phase</text>
<path id="equalised phase axis" style="fill:none;stroke:#000000;stroke-width:1;" d="M0.0 220.0 179.474 220.0" />
<path id="equalised theta" style="fill:none;stroke:#222277;stroke-width:2.0;" d="M0.0 280.0 11.217125 280.0 22.43425 276.40555 33.651375 274.41708 44.8685 276.23416 56.085625 278.21478 67.30275 275.58636 78.519875 275.1998 89.737 267.07492 100.954124 267.04626 112.17125 274.6898 123.388374 274.74353 134.6055 274.49872 145.82263 277.77148 157.03975 279.65933 168.25687 276.28146 179.474 279.99994 190.69113 310.0 201.90825 276.98376 213.12537 275.94052 224.3425 280.1459" />
<text x="0.0" y="280.0" font-family="Verdana" font-size="11.5">equalised theta</text>
<path id="equalised theta axis" style="fill:none;stroke:#000000;stroke-width:1;" d="M0.0 280.0 235.55963 280.0" />
<path id="rawish theta" style="fill:none;stroke:#772277;stroke-width:2.0;" d="M0.0 340.0 11.217125 340.0 22.43425 331.28802 33.651375 334.50443 44.8685 339.062 56.085625 331.2016 67.30275 324.6401 78.519875 325.05792 89.737 331.98657 100.954124 334.13635 112.17125 335.9403 123.388374 370.0 134.6055 332.92654" />
<text x="0.0" y="340.0" font-family="Verdana" font-size="11.5">rawish theta</text>
<path id="rawish theta axis" style="fill:none;stroke:#000000;stroke-width:1;" d="M0.0 340.0 145.82263 340.0" />
<path id="straightened theta" style="fill:none;stroke:#227777;stroke-width:2.0;" d="M0.0 400.0 11.217125 400.0 22.43425 391.28802 33.651375 394.0283 44.8685 390.73972 56.085625 384.6401 67.30275 385.05792 78.519875 391.98657 89.737 394.13635 100.954124 395.9403 112.17125 430.0 123.388374 392.92654" />
<text x="0.0" y="400.0" font-family="Verdana" font-size="11.5">straightened theta</text>
<path id="straightened theta axis" style="fill:none;stroke:#000000;stroke-width:1;" d="M0.0 400.0 134.6055 400.0" />
<path id="straightened real" style="fill:none;stroke:#227722;stroke-width:2.0;" d="M0.0 444.5658 11.217125 486.84473 22.43425 490.0 33.651375 460.55402 44.8685 455.2389 56.085625 468.4508 67.30275 464.23355 78.519875 447.2958 89.737 469.9331 100.954124 454.90744 112.17125 450.6578 123.388374 472.39288 134.6055 451.30615 145.82263 467.01837 157.03975 439.36594 168.25687 437.23468" />
<text x="0.0" y="444.5658" font-family="Verdana" font-size="11.5">straightened real</text>
<path id="straightened real axis" style="fill:none;stroke:#000000;stroke-width:1;" d="M0.0 460.0 179.474 460.0" />
<path id="straightened im" style="fill:none;stroke:#772222;stroke-width:2.0;" d="M0.0 550.0 11.217125 517.1783 22.43425 517.63824 33.651375 520.1882 44.8685 517.1385 56.085625 515.798 67.30275 524.5674 78.519875 513.70465 89.737 520.62225 100.954124 520.1998 112.17125 518.2152 123.388374 521.8874 134.6055 517.4659 145.82263 514.81934 157.03975 525.76135 168.25687 504.81555" />
<text x="0.0" y="550.0" font-family="Verdana" font-size="11.5">straightened im</text>
<path id="straightened im axis" style="fill:none;stroke:#000000;stroke-width:1;" d="M0.0 520.0 179.474 520.0" />
<path id="straightened magnitude" style="fill:none;stroke:#227722;stroke-width:2.0;" d="M0.0 607.09607 11.217125 596.06195 22.43425 597.55914 33.651375 580.46 44.8685 585.774 56.085625 588.89764 67.30275 588.48975 78.519875 593.34344 89.737 585.75226 100.954124 582.9156 112.17125 586.1889 123.388374 587.8045 134.6055 586.6941 145.82263 590.0594 157.03975 595.58685 168.25687 610.0" />
<text x="0.0" y="607.09607" font-family="Verdana" font-size="11.5">straightened magnitude</text>
<path id="straightened magnitude axis" style="fill:none;stroke:#000000;stroke-width:1;" d="M0.0 580.0 179.474 580.0" />
<path id="straightened phase" style="fill:none;stroke:#772222;stroke-width:2.0;" d="M0.0 640.0 11.217125 643.16504 22.43425 642.40594 33.651375 631.8808 44.8685 660.4543 56.085625 649.94385 67.30275 627.24615 78.519875 661.28876 89.737 638.07184 100.954124 610.0 112.17125 665.8521 123.388374 635.57117 134.6055 663.8569 145.82263 651.55786 157.03975 615.93085 168.25687 660.0386" />
<text x="0.0" y="640.0" font-family="Verdana" font-size="11.5">straightened phase</text>
<path id="straightened phase axis" style="fill:none;stroke:#000000;stroke-width:1;" d="M0.0 640.0 179.474 640.0" />
<path id="stroke_15" style="fill:none;stroke:#000000;stroke-width:2;" d="M35.923996 701.052 34.649994 700.376 32.697998 700.526 30.75 701.5 30.0 702.85 30.597992 703.976 32.54799 704.2 33.597992 703.75 35.399994 701.95 36.523987 700.0 37.724 701.5 38.847992 702.026" />
</g></svg>