<?xml version="1.0" ?>
<svg width="384.9" height="512.024" xmlns:gita="http://ns.gita.org/gita-ns-1.0" xmlns:f="http://ns.gita.org/feature-ns-1.0">
<title>anoto dump, pen 00000064000029fa, paper 44.0.3.8</title>
<g>
<g gita:vastd="andrej">
<path id="stroke_0" style="fill:none;stroke:#000000;stroke-width:1.0;" d="M264.45 198.974 266.7 194.776 269.176 190.8 275.55 180.9 279.6 176.174 283.426 172.5 286.126 170.026 288.224 168.75 289.876 168.224 291.376 168.376 292.05 169.65 291.524 172.876 281.1 194.324 279.074 200.25 281.926 197.174 290.85 186.0 292.05 185.026 292.126 185.026 286.8 195.526 287.1 195.45 287.774 194.7 289.574 192.3 294.3 185.776 295.8 185.026 296.176 185.626 295.8 187.65 293.324 195.3 292.274 197.55 292.274 198.526 292.65 198.45 293.474 197.474 297.45 191.324 298.5 190.126 298.574 190.424 298.05 192.6 296.774 194.776 297.75 194.776 299.774 193.65 306.0 188.626 305.774 189.0 303.9 191.85 303.376 192.376 302.7 193.05 301.5 193.8 301.35 193.876 301.8 193.876 302.1 194.026 303.6 195.074 305.024 195.224 307.05 194.626 309.15 193.424 311.55 191.7 314.024 189.376 316.426 185.474 318.3 181.724 318.75 180.3 318.524 180.376 316.8 183.15 317.1 182.924 317.774 180.3 318.0 179.55 322.8 175.35 327.45 171.974 315.074 187.574 312.974 191.55 313.426 193.126 314.4 193.5 318.15 191.776 320.4 191.55 322.35 191.85 324.75 191.4 327.974 190.126 332.176 187.2 336.15 182.776 338.474 179.1 338.55 178.5 337.274 180.224 335.25 184.276 333.824 190.126 333.9 197.1 338.926 216.6 339.3 223.126 337.95 229.05 334.574 233.324 330.224 235.65 323.774 235.95 315.224 234.074 306.224 230.774 298.876 227.026 292.274 222.9 286.05 217.424 273.0 201.6 266.474 195.674 260.25 193.276 256.2 193.724 255.6 194.026 261.224 192.9 269.55 190.65 281.85 188.474 297.224 188.026 313.426 189.824 330.15 193.8 345.75 198.0 356.1 199.8 361.2 199.35 361.876 198.9 360.824 197.626 357.974 195.75 352.876 194.55" />
</g>
<g gita:vastd="andrej">
<path id="stroke_1" style="fill:none;stroke:#000000;stroke-width:1.0;" d="M274.8 300.15 275.4 299.4 275.474 298.95 281.024 282.974 283.5 277.274 288.224 269.324 290.4 267.524 292.8 266.024 294.45 266.1 295.5 266.626 296.474 268.126 297.0 271.876 296.55 276.974 295.724 282.0 292.05 295.426 290.926 301.65 297.824 288.9 300.224 285.9 302.55 284.25 303.0 285.75 302.7 289.274 301.35 297.45 303.074 295.05 305.55 292.35 308.1 290.324 309.6 289.65 309.974 289.8 309.9 291.074 309.3 293.85 308.1 297.15 308.25 297.824 308.626 297.9 309.676 297.376 312.3 294.824 318.0 288.45 318.524 288.45 318.0 291.524 316.274 294.75 318.224 295.876 320.85 296.474 323.55 296.1 326.4 294.974 329.4 292.574 331.724 289.126 332.324 286.724 331.426 286.724 330.074 287.626 326.176 291.9 326.1 293.176 326.25 294.676 327.224 295.65 329.1 296.324 330.3 295.876 332.25 294.376 335.324 290.85 339.6 284.474 344.324 276.75 346.65 272.024 347.55 269.85 347.55 269.024 347.1 268.876 345.974 269.55 342.9 273.3 339.3 278.7 336.9 284.474 336.0 289.35 335.926 292.8 336.224 295.8 337.2 298.126 338.774 299.926 341.4 300.824 344.626 300.524 348.676 297.824 352.876 294.15 355.274 291.3 356.024 289.876 356.024 288.676 355.5 286.724 355.876 284.85 356.024 284.7 357.376 286.5 357.75 287.926 355.2 307.5 354.75 314.926 353.926 321.074 352.8 325.724 350.324 329.024 345.0 331.5 336.376 333.074 325.5 334.126 314.176 334.2 303.524 332.024 292.8 327.3 281.7 320.024 270.376 313.126 259.876 307.724 243.3 302.024 238.05 299.474 236.174 297.074 237.6 294.824 244.126 291.9 256.724 289.5 274.05 288.45 292.574 289.574 309.524 291.676 337.95 297.376 353.55 299.926 369.6 301.65 380.626 302.25 381.3 302.4 381.224 303.0 379.126 303.376" />
</g>
<g gita:vastd="andrej">
<path id="stroke_2" style="fill:none;stroke:#000000;stroke-width:1.0;" d="M275.176 386.85 275.4 385.876 275.7 384.45 276.3 382.65 278.774 375.45 284.55 360.974 288.3 354.074 291.45 350.55 293.7 349.8 295.05 350.176 296.4 351.9 296.926 356.774 295.724 364.5 290.024 384.9 289.2 388.65 289.274 390.224 289.95 390.676 290.926 390.3 293.25 388.126 300.6 380.4 302.774 378.376 303.6 378.0 302.474 384.9 302.7 385.8 309.6 379.274 311.1 378.6 311.25 379.05 310.5 384.524 310.574 385.876 311.474 386.774 312.676 386.7 314.626 385.274 316.876 382.724 318.824 379.876 317.176 385.2 317.176 386.85 317.774 387.75 321.45 386.774 324.676 384.6 329.1 380.626 329.85 380.4 330.074 380.85 328.574 380.4 326.774 381.074 325.426 382.8 324.75 385.274 325.126 387.15 326.55 388.5 328.574 388.5 330.974 387.074 334.426 383.774 337.5 378.974 339.45 372.9 341.7 363.376 343.126 358.05 343.876 356.176 344.774 354.224 346.574 348.15 346.274 348.824 338.176 368.85 335.774 377.4 331.876 387.75 331.426 390.75 332.1 391.574 333.45 391.2 343.426 382.426 345.074 381.824 345.376 381.9 345.376 383.024 344.55 385.5 344.774 386.25 345.676 386.324 348.376 385.35 355.274 381.9 355.876 382.05 355.65 384.676 356.85 388.35 358.126 396.824 357.974 402.15 356.626 406.5 354.9 410.25 352.426 412.95 349.5 414.75 344.85 416.474 337.5 417.224 330.224 417.0 323.1 414.974 297.974 399.676 288.824 394.95 278.774 391.35 269.7 387.376 262.2 382.95 257.474 378.974 256.05 377.25 256.724 376.876 261.15 376.35 285.376 376.95 303.224 378.6 338.324 384.0 353.926 386.1 379.724 389.85 383.85 390.6 384.9 391.95 384.376 391.5" />
</g>
<g gita:vastd="andrej">
<path id="stroke_3" style="fill:none;stroke:#000000;stroke-width:1.0;" d="M263.474 480.75 263.7 480.45 265.274 476.55 266.1 473.25 268.8 461.7 270.676 456.074 273.376 451.95 276.224 449.55 278.7 448.65 280.05 448.95 282.074 451.724 282.75 455.4 282.376 461.1 280.05 479.174 280.274 482.85 280.876 485.024 282.224 485.474 284.176 484.8 287.474 481.5 293.626 473.25 294.9 472.65 295.35 473.25 296.774 480.524 297.676 481.2 299.1 481.274 300.676 480.3 302.324 478.574 302.55 479.474 303.0 480.0 303.75 480.15 305.25 479.7 308.85 477.074 308.1 479.324 308.1 480.824 308.474 481.574 309.376 481.8 310.876 481.2 314.176 478.35 315.0 478.05 315.824 481.05 317.024 481.574 318.9 481.05 326.324 477.6 329.176 477.0 330.45 477.0 330.9 477.45 331.126 477.75 331.2 477.974 332.474 478.65 333.676 479.924 334.8 482.25 337.274 490.35 337.65 495.3 336.0 499.876 331.2 508.126 327.676 510.6 322.724 512.024 316.574 512.024 310.274 510.674 303.376 507.674 286.724 498.15 276.9 493.65 266.4 490.05 257.1 486.6 250.05 483.3 245.1 479.626 242.476 476.774 242.324 476.25 257.25 478.8 269.176 480.45 295.65 482.85 306.824 484.95 315.9 488.024 323.55 491.25 330.676 493.274 336.0 493.126 337.426 490.724 339.15 472.5 342.75 463.05 348.6 455.85 354.45 451.724 358.35 450.376 359.1 451.65 359.1 455.1 357.3 461.7 352.2 469.8 347.7 477.974 346.274 485.024 347.176 490.274 350.55 492.15 357.824 491.024" />
</g>
<path id="stroke_4" style="fill:none;stroke:#000000;stroke-width:1.0;" d="M371.176 486.6" />
</g></svg>
