<?xml version="1.0" ?>
<svg width="700.0" height="1000.0">
<title>and so on and so forth</title>
<g>
<g>
<path id="resampld_plein" style="fill:none;stroke:#aa2222;stroke-width:1;" d="M0.0 150.0 6.1732707 150.0 12.2441025 150.37137 27.505013 150.04944 35.571907 150.40958 42.446926 150.45506 47.19334 150.1409 50.37599 151.7243 52.62308 153.07056 54.57719 156.81882 56.445236 168.00656 60.681698 157.43323 91.58977 150.57915 99.70694 149.77943 105.14372 135.93492 123.67826 149.78474 125.68142 150.73302 140.89682 161.04265 142.55206 138.64024 146.44037 147.17242 156.88165 149.91895 159.05527 152.66481 162.45624 175.54645 172.87782 151.58517 176.096 150.63441 177.36018 137.00089 179.01572 100.979095 188.5075 149.20097 190.5722 150.88275 193.83138 184.21024 197.10083 153.75731 201.254 126.798584 211.62312 148.45807 216.61003 162.88719 218.80959 152.02658 220.6437 153.93605 223.82726 121.57273 225.68309 143.88313 228.42099 144.02731 231.55714 147.22508 235.38715 148.9644 239.78658 148.88385 245.7254 148.20668 251.15889 149.45609 253.0945 148.50537 257.57028 118.90941 261.4739 173.9825 270.617 152.48793 278.06482 150.63205 303.87405 156.03964 309.70197 149.59126 311.82697 143.2646 313.17926 131.38159 318.5287 141.66963 321.4596 152.7966 324.01675 153.22392 327.1816 145.86504 331.67465 148.25435 338.3112 148.54121 346.01886 148.87434 351.6556 149.11823 353.78668 123.981316 359.65723 146.8957 367.46143 148.85258 376.50098 148.96107 402.601 149.5192 411.07324 150.39484 418.94818 151.20456 426.00742 152.08344 432.40088 152.13976 440.7698 152.10796 452.11508 150.93196 464.53943 150.3989 475.23053 150.36407 485.32108 150.29271 496.0658 150.54756 522.65015 150.29933 534.07544 149.73494 542.7204 148.71129 548.0016 147.59772 554.6002 168.2026 565.7786 149.60085 581.96826 150.22722 601.903 150.28285 623.0314 150.23807 645.3115 150.19817 666.25073 150.04791 679.86676 149.81606 686.5025 149.10063 688.78955 136.6828 693.21185 141.92567 700.0 147.80846" />
</g><g>
<path id="resampld_plein" style="fill:none;stroke:#22aa22;stroke-width:1;" d="M0.0 150.0 1.5905178 150.0 21.135265 149.4124 28.317022 150.19759 39.003876 150.49501 42.267395 151.72372 45.538055 151.41965 47.4469 158.17159 48.804043 158.96704 50.870876 160.84508 55.246925 154.74297 61.161243 151.54689 67.04737 150.44397 83.13335 150.33203 90.44235 149.73537 107.194855 141.78342 111.63465 150.59065 114.930275 152.52536 116.74005 176.00038 120.82722 154.46793 130.40364 150.40329 133.8186 135.54718 138.05212 151.0912 141.81589 151.37656 143.71631 153.07817 145.39806 184.89041 148.68018 155.92976 152.73805 151.29607 153.79669 136.86076 155.15279 108.77658 159.3828 146.13278 169.26451 149.6544 172.81691 162.5678 177.04504 154.41992 179.64726 134.23383 182.75964 146.32812 185.90962 145.95872 189.45093 147.50366 193.89072 147.38217 198.69595 147.70592 201.55708 146.81984 204.35841 122.842255 211.04327 146.67867 212.5205 144.16866 214.26257 146.53954 215.8544 135.60211 218.15805 142.08475 219.63829 137.0091 222.48137 145.16884 227.88725 148.31908 236.75916 149.38092 247.22234 149.84851 253.30951 149.61281 256.02863 149.48445 257.26852 135.40793 258.78506 107.40311 264.38864 146.61038 271.88873 149.47296 279.1148 149.0775 284.84488 148.85779 288.8327 148.83975 292.31665 148.87149 295.23172 146.73703 297.99496 146.04016 301.2022 143.87068 304.94638 145.74814 310.5714 146.29971 317.02005 149.24226 321.32434 149.00644 323.18423 147.56184 324.571 139.54803 326.90665 145.06833 329.11548 157.08969 331.6924 182.263 333.3961 157.87102 356.20758 151.10228 364.80508 149.84618 371.97348 150.32283 377.50247 150.57526 382.27014 152.7609 389.05554 152.97975 399.18637 151.0543 411.81372 150.25868 424.90036 150.2447 437.46442 150.56775 451.00656 150.57227 466.3443 150.40065 481.66745 149.92441 495.31332 149.82613 515.57007 149.70276 522.31494 150.31355 525.83527 153.10394 528.9137 163.03055 537.1778 153.60829 551.9983 150.70648 572.05756 150.25633 593.50385 150.20428 613.2419 150.1067 646.74585 150.09796 665.01294 149.9515 683.6676 149.89568 696.42847 149.8827 697.537 154.25635 700.0002 190.5022" />
</g><g>
<path id="resampld_plein" style="fill:none;stroke:#2222aa;stroke-width:1;" d="M0.0 150.0 3.0024343 150.0 5.3214517 151.40445 14.62645 150.05563 33.675774 150.12016 43.274113 150.28876 49.05115 151.0544 51.949913 154.19257 53.66269 159.00732 56.338963 160.12463 62.33066 154.49677 71.88717 151.17886 97.77552 150.23328 102.46819 149.87141 104.39411 147.21576 106.415375 123.79114 110.304886 140.5492 123.33827 149.75894 126.96864 150.25478 134.95084 164.26472 146.04764 141.61624 148.05754 151.31393 155.33502 165.78291 156.98996 148.78044 158.54385 134.03514 160.01575 130.43407 162.96838 140.98283 167.12485 147.86925 171.34209 148.9711 178.15384 168.03717 180.17049 147.61981 181.49115 137.6991 186.13976 135.4136 190.89436 147.51755 198.1627 149.19145 199.38422 157.89812 201.29826 81.32619 203.64748 139.33153 206.32414 142.3471 209.45877 145.22614 211.79727 144.05867 214.19553 140.92256 216.66933 139.09871 220.08138 143.62398 225.91823 148.28366 232.88484 148.69719 240.68182 148.77216 252.6427 149.72133 259.38156 150.11086 261.8486 150.9055 264.47473 150.6937 272.21765 149.03421 299.5205 143.91939 310.37506 149.7954 323.8925 150.2479 327.6002 149.14134 328.9013 138.33762 330.61346 123.15836 346.85126 148.24072 348.99567 151.41338 350.50806 182.05347 353.69827 158.46312 355.40363 131.96875 358.9118 136.86942 368.33838 149.36382 371.76227 160.34947 376.48618 148.4444 386.96005 150.7657 393.47226 150.73349 399.03833 151.57619 404.08386 150.86325 408.55972 152.28189 412.75845 152.23973 418.81982 151.34035 427.84982 151.17516 436.74695 150.51724 445.7993 150.96053 481.75314 150.41968 494.3401 149.89885 507.38773 149.63739 519.4951 150.19151 530.139 150.37025 537.6875 150.63985 540.4205 151.2322 546.7501 166.1163 576.3688 150.38834 598.27606 150.0916 641.68085 150.0648 660.92194 149.97893 692.78424 150.01445 697.9097 150.06711 700.00006 157.08115" />
</g><g>
<path id="resampld_plein" style="fill:none;stroke:#aaaa22;stroke-width:1;" d="M0.0 150.0 6.6129274 150.0 11.536002 149.03145 28.701754 149.95047 37.284424 150.2507 44.418003 151.14833 49.80795 151.62582 53.620605 152.67451 55.62195 156.83052 60.591476 157.24782 66.00057 153.02484 74.26736 151.26622 100.63974 150.12625 105.9695 149.58301 109.23408 148.29535 111.290726 137.12877 114.279305 140.91664 121.03118 146.7429 135.92465 149.53316 137.9626 152.0254 149.67612 159.0471 151.30743 146.35971 153.37103 138.79865 156.05222 141.06752 159.50583 147.0911 161.78967 173.62791 165.07468 134.15349 171.52339 146.42102 174.95572 167.87193 177.12651 145.98036 179.45137 135.70868 181.78937 134.4857 188.09964 147.31383 192.67741 161.15535 194.57237 143.39174 197.39127 139.84103 209.23871 149.22379 213.45645 150.99196 215.3002 152.39462 216.76141 167.73311 219.10707 145.42949 221.6419 153.23848 225.3805 153.41635 237.63739 150.67267 244.82162 150.79436 251.86139 152.07617 265.67453 150.60718 271.9058 151.50781 279.36273 151.69827 288.26297 151.19826 297.5873 150.81079 308.4733 150.68976 336.2352 150.19797 351.87305 149.85484 367.93695 149.78087 382.2921 150.05737 393.5573 150.22559 402.47852 150.696 408.0871 150.90819 429.66812 156.30978 447.0918 150.00215 485.562 149.94104 502.0161 150.12154 515.8838 150.32504 527.899 150.19609 538.6197 149.62335 546.3276 148.84326 550.3702 143.99956 576.86163 148.988 591.49646 150.45898 604.92206 150.79413 615.28204 150.80698 621.2537 151.2065 623.39325 161.83623 628.3861 155.222 638.2865 151.25143 652.13873 150.87134 665.64233 149.84985 676.0517 149.11108 683.7608 148.57156 689.34766 145.29756 700.0 147.15057" />
</g><g>
<path id="resampld_plein" style="fill:none;stroke:#aa2222;stroke-width:1;" d="M0.0 309.30594 91.58977 291.23978 123.67826 308.79398 140.89682 291.06503 156.88165 308.85394 176.096 290.98706 188.5075 309.2941 197.10083 291.65967 211.62312 309.78586 220.6437 279.914 257.57028 319.06137 303.87405 291.98288 318.5287 301.7507 324.01675 284.64813 402.601 308.11267 522.65015 297.02597 548.0016 309.26758 554.6002 299.6959 565.7786 301.58078 666.25073 290.47977" />
</g><g>
<path id="resampld_plein" style="fill:none;stroke:#22aa22;stroke-width:1;" d="M0.0 300.0 1.5905178 299.46774 21.135265 309.22305 83.13335 291.26166 107.194855 308.42792 130.40364 291.95306 133.8186 308.60233 152.73805 291.71783 169.26451 308.70972 177.04504 250.61551 326.90665 310.60016 356.20758 299.79294 364.80508 306.2715 466.3443 299.25293 515.57007 309.02484 646.74585 299.5694 696.42847 308.72968" />
</g><g>
<path id="resampld_plein" style="fill:none;stroke:#2222aa;stroke-width:1;" d="M0.0 309.59726 97.77552 292.0392 123.33827 307.28125 134.95084 293.14484 146.04764 307.02014 155.33502 292.0721 171.34209 308.52563 178.15384 292.19147 198.1627 302.87375 199.38422 276.45587 252.6427 300.5975 264.47473 290.10336 310.37506 300.25894 323.8925 292.0429 346.85126 307.84253 353.69827 292.93033 368.33838 305.6998 371.76227 299.4568 376.48618 307.3002 481.75314 299.3912 507.38773 308.85083 641.68085 299.94345 660.92194 302.3279" />
</g><g>
<path id="resampld_plein" style="fill:none;stroke:#aaaa22;stroke-width:1;" d="M0.0 300.0 6.6129274 299.47427 28.701754 309.1198 100.63974 292.11346 135.92465 306.8016 149.67612 293.56305 159.50583 305.80988 161.78967 294.72498 171.52339 307.5683 174.95572 292.18527 188.09964 305.2054 192.67741 295.62662 209.23871 303.8168 216.76141 299.2543 219.10707 309.21732 336.2352 299.43228 367.93695 308.84634 447.0918 299.85876 485.562 300.926 527.899 294.37335 576.86163 310.82758 652.13873 293.1411" />
</g><path id="resampld_plein" style="fill:none;stroke:#aa2222;stroke-width:1;" d="M0.0 450.0 6.1732707 450.0 12.2441025 452.49673 27.505013 450.23032 35.571907 453.94806 42.446926 453.29675 47.19334 451.14993 50.37599 464.3194 52.62308 474.73175 54.57719 498.86655 56.445236 572.809 60.681698 485.70288 91.58977 452.19507 99.70694 446.46518 105.14372 333.1187 123.67826 449.072 125.68142 475.05124 140.89682 491.65482 142.55206 64.06058 146.44037 436.56247 156.88165 449.62918 159.05527 501.55188 162.45624 589.57916 172.87782 457.00827 176.096 458.96286 177.36018 296.367 179.01572 161.82022 188.5075 446.87204 190.5722 466.46973 193.83138 636.27527 197.10083 475.00934 201.254 311.78006 211.62312 442.8016 216.61003 582.277 218.80959 472.0712 220.6437 478.85425 223.82726 300.64996 225.68309 394.63385 228.42099 416.5961 231.55714 432.67517 235.38715 443.7214 239.78658 443.04056 245.7254 439.594 251.15889 446.20526 253.0945 431.03262 257.57028 301.54614 261.4739 621.6 270.617 461.83386 278.06482 454.6932 303.87405 475.94168 309.70197 442.60382 311.82697 365.97504 313.17926 290.41272 318.5287 415.2127 321.4596 476.3363 324.01675 473.06348 327.1816 425.0802 331.67465 440.08246 338.3112 441.84528 346.01886 443.01706 351.6556 443.04163 353.78668 133.86716 359.65723 435.89606 367.46143 443.2982 376.50098 443.5471 402.601 447.84225 411.07324 455.3707 418.94818 458.33493 426.00742 464.69205 432.40088 465.00775 440.7698 462.39447 452.11508 455.3981 464.53943 452.54385 475.23053 452.62396 485.32108 452.00946 496.0658 453.53934 522.65015 451.40103 534.07544 447.06067 542.7204 440.02704 548.0016 428.8845 554.6002 559.23706 565.7786 447.88412 581.96826 451.28033 601.903 451.70853 623.0314 451.54227 645.3115 451.28696 666.25073 450.32968 679.86676 448.44394 686.5025 440.85074 688.78955 276.8086 693.21185 409.1668 700.0 437.9357" />
<path id="resampld_plein" style="fill:none;stroke:#22aa22;stroke-width:1;" d="M0.0 450.0 1.5905178 450.0 21.135265 447.88193 28.317022 452.4511 39.003876 452.7589 42.267395 474.5611 45.538055 459.45392 47.4469 523.90985 48.804043 521.93115 50.870876 509.88763 55.246925 473.27698 61.161243 458.97153 67.04737 452.96686 83.13335 451.51178 90.44235 447.17645 107.194855 410.66193 111.63465 459.3977 114.930275 469.75824 116.74005 694.4911 120.82722 471.48764 130.40364 451.918 133.8186 266.72546 138.05212 456.57138 141.81589 459.74973 143.71631 480.58163 145.39806 697.7237 148.68018 479.89386 152.73805 457.81448 153.79669 238.32152 155.15279 205.31897 159.3828 432.9766 169.26451 448.3549 172.81691 608.42584 177.04504 477.11148 179.64726 312.055 182.75964 427.5271 185.90962 423.21893 189.45093 434.27722 193.89072 434.31372 198.69595 435.28766 201.55708 421.59607 204.35841 267.01605 211.04327 434.28946 212.5205 342.59912 214.26257 428.68417 215.8544 349.48325 218.15805 405.38446 219.63829 339.3053 222.48137 425.51175 227.88725 441.45016 236.75916 446.679 247.22234 449.0669 253.30951 446.49097 256.02863 444.43433 257.26852 294.69193 258.78506 191.92172 264.38864 435.64337 271.88873 446.9307 279.1148 443.73334 284.84488 441.39127 288.8327 440.57535 292.31665 441.93253 295.23172 426.1243 297.99496 422.87576 301.2022 411.96637 304.94638 423.68677 310.5714 429.45563 317.02005 445.27106 321.32434 441.72635 323.18423 423.0643 324.571 368.434 326.90665 423.80066 329.11548 498.6217 331.6924 649.72314 333.3961 515.9223 356.20758 453.94867 364.80508 448.12683 371.97348 452.3667 377.50247 454.40356 382.27014 469.87558 389.05554 466.91144 399.18637 455.8682 411.81372 451.55405 424.90036 451.60275 437.46442 453.8637 451.00656 453.67728 466.3443 452.51468 481.66745 449.4958 495.31332 448.76962 515.57007 448.34177 522.31494 454.18408 525.83527 480.17032 528.9137 543.1051 537.1778 466.50797 551.9983 453.66812 572.05756 451.4857 593.50385 451.3179 613.2419 450.74213 646.74585 450.51895 665.01294 449.54184 683.6676 449.31177 696.42847 449.03748 697.537 627.5154 700.0002 645.7655" />
<path id="resampld_plein" style="fill:none;stroke:#2222aa;stroke-width:1;" d="M0.0 450.0 3.0024343 450.0 5.3214517 460.7427 14.62645 450.23163 33.675774 450.59622 43.274113 452.8728 49.05115 459.35416 51.949913 491.82693 53.66269 530.83875 56.338963 505.34753 62.33066 471.68436 71.88717 456.39325 97.77552 451.06467 102.46819 447.20685 104.39411 418.10565 106.415375 279.3954 110.304886 402.12634 123.33827 448.9567 126.96864 453.89816 134.95084 519.1748 146.04764 401.95203 148.05754 478.56088 155.33502 517.1395 156.98996 428.05856 158.54385 340.1066 160.01575 315.92706 162.96838 404.95938 167.12485 437.85205 171.34209 443.1901 178.15384 547.3475 180.17049 415.2673 181.49115 346.38556 186.13976 387.5653 190.89436 433.63483 198.1627 445.5418 199.38422 632.97925 201.29826 74.9993 203.64748 385.46384 206.32414 402.10162 209.45877 420.49908 211.79727 403.64893 214.19553 390.23758 216.66933 378.43454 220.08138 413.33743 225.91823 440.93448 232.88484 442.01886 240.68182 442.25027 252.6427 448.46558 259.38156 451.02536 261.8486 461.26312 264.47473 454.4846 272.21765 445.6888 299.5205 423.98322 310.37506 447.60242 323.8925 451.48984 327.6002 436.70288 328.9013 300.34784 330.61346 292.53503 346.85126 443.5174 348.99567 490.38553 350.50806 708.3407 353.69827 491.5841 355.40363 277.4605 358.9118 384.95477 368.33838 447.09015 371.76227 579.47833 376.48618 441.0563 386.96005 453.7035 393.47226 456.37738 399.03833 461.4009 404.08386 456.05185 408.55972 466.18066 412.75845 465.4243 418.81982 457.56268 427.84982 456.5466 436.74695 453.474 445.7993 456.3486 481.75314 451.75113 494.3401 448.69974 507.38773 447.62524 519.4951 451.32635 530.139 452.63806 537.6875 455.14023 540.4205 465.45172 546.7501 526.91626 576.3688 451.5711 598.27606 450.7181 641.68085 450.32504 660.92194 449.77136 692.78424 450.0773 697.9097 451.61435 700.00006 531.4812" />
<path id="resampld_plein" style="fill:none;stroke:#aaaa22;stroke-width:1;" d="M0.0 450.0 6.6129274 450.0 11.536002 442.43475 28.701754 449.78757 37.284424 452.50705 44.418003 458.43307 49.80795 462.59204 53.620605 471.5183 55.62195 516.1431 60.591476 483.88898 66.00057 469.34625 74.26736 456.98245 100.63974 450.55273 105.9695 441.73224 109.23408 435.04114 111.290726 338.99283 114.279305 398.8859 121.03118 434.3374 135.92465 447.7384 137.9626 506.09067 149.67612 485.4038 151.30743 350.73645 153.37103 383.14594 156.05222 397.3085 159.50583 432.7759 161.78967 647.85974 165.07468 360.45505 171.52339 431.99286 174.95572 621.49994 177.12651 415.41586 179.45137 357.8816 181.78937 346.8619 188.09964 437.72858 192.67741 538.44165 194.57237 374.75943 197.39127 393.37247 209.23871 446.797 213.45645 462.59448 215.3002 476.2418 216.76141 583.6954 219.10707 425.27435 221.6419 470.78424 225.3805 469.10904 237.63739 452.92618 244.82162 457.1653 251.86139 463.98322 265.67453 453.05542 271.9058 466.16757 279.36273 460.3914 288.26297 457.34067 297.5873 455.28232 308.4733 454.26855 336.2352 450.91864 351.87305 448.65717 367.93695 448.5585 382.2921 450.40524 393.5573 451.7101 402.47852 455.24954 408.0871 457.84253 429.66812 476.4987 447.0918 450.01605 485.562 449.71448 502.0161 451.35233 515.8838 452.36902 527.899 451.40808 538.6197 447.33743 546.3276 440.7813 550.3702 391.86255 576.86163 446.11194 591.49646 454.29938 604.92206 455.53265 615.28204 456.17575 621.2537 460.9987 623.39325 599.5781 628.3861 474.86557 638.2865 456.27512 652.13873 454.98032 665.64233 448.98615 676.0517 443.1931 683.7608 438.8093 689.34766 412.6961 700.0 435.52045" />
</g></svg>