<?xml version="1.0" ?>
<svg width="170.626" height="270.074" xmlns:gita="http://ns.gita.org/gita-ns-1.0" xmlns:f="http://ns.gita.org/feature-ns-1.0">
<title>anoto dump, pen 00000064000029fa, paper 44.0.3.8</title>
<g>
<path id="stroke_0" style="fill:none;stroke:#000000;stroke-width:1.0;" d="M65.25 248.626 60.524 250.5 59.626 250.5 58.35 248.55 58.274 246.9 58.5 246.524 58.724 246.226 59.55 243.3 60.75 241.95 61.724 239.25 61.574 235.726 59.774 232.35 59.4 232.35 58.35 233.024 57.674 234.074 57.524 234.3 57.15 235.95 57.0 239.1 61.35 247.274 62.626 251.25 62.25 254.1 60.15 256.724 59.55 257.1 57.3 257.4 54.376 257.024 53.024 256.2 51.3 254.174 50.626 250.35 49.424 248.024 48.0 246.674 47.7 246.524 47.25 246.376 46.726 246.15 46.126 245.85 43.95 245.55 38.924 246.226 36.976 247.5 36.3 248.7 36.15 249.074 36.15 249.45 36.75 250.95 37.5 251.774 38.7 252.376 40.574 252.674 46.35 252.15 50.324 252.75 53.774 251.85 55.5 252.524 57.674 252.9 62.1 252.824 64.724 251.774 65.7 251.1" />
<path id="stroke_1" style="fill:none;stroke:#000000;stroke-width:1.0;" d="M68.326 255.9 67.65 257.1 67.5 258.074 67.65 258.6 68.4 259.126 69.674 258.974 71.25 258.15 73.274 256.5 75.0 254.324 77.1 250.274 77.85 248.25 77.174 249.524 77.1 249.6 77.1 250.574 77.774 254.25 78.376 255.15 78.674 255.226 79.65 255.074 80.1 254.85 83.024 252.15 83.474 251.626 83.774 251.174 84.0 250.5 84.0 250.05 83.924 249.75 83.85 249.75 83.774 249.674 83.326 250.05 82.8 251.626 82.876 252.75 82.724 253.2 83.326 255.976 84.75 252.976 85.35 252.674 86.024 252.15 88.724 251.324 91.5 252.524 92.626 252.524 93.674 252.0" />
<path id="stroke_2" style="fill:none;stroke:#000000;stroke-width:1.0;" d="M102.674 254.85 102.3 254.626 102.076 254.55 101.7 254.924 102.376 253.574 102.9 252.75 103.35 252.376 103.876 252.0 104.626 252.15 105.524 254.85 105.45 255.824 104.326 257.4 103.274 257.626 101.924 257.4 100.35 256.574 97.65 253.5 96.826 252.074 96.6 250.274 96.9 248.1 98.174 242.85 99.224 240.45 100.424 238.574 103.126 236.024 105.674 235.05 108.674 235.5 109.5 236.324 110.924 239.4 111.524 243.674 111.75 248.55 111.376 248.924 110.924 249.3 108.15 250.35 112.274 248.55 113.4 248.4 115.95 249.15 116.924 249.6 117.75 250.35 118.574 251.4 119.85 254.85 119.626 257.926 119.174 259.274 118.2 261.224 117.45 261.75 115.2 262.8 110.774 262.876 108.974 262.574 108.6 262.426 108.674 260.926 109.876 258.524 113.626 254.4 116.474 252.976 117.6 252.9 118.274 252.976 122.174 252.376 122.924 252.674 123.45 252.75 124.574 252.6 125.774 251.476 126.0 250.8 126.074 250.35 126.074 250.2 126.15 250.126 126.45 249.75 126.45 249.75 126.3 249.824 125.626 250.5 123.15 251.85 121.724 253.95 122.626 254.25 124.876 253.876 127.274 252.674 128.25 251.85 128.85 251.1 129.45 248.55 129.224 250.424 129.526 251.476 129.674 251.85 130.276 252.226 130.95 252.6 133.126 253.126 134.25 253.05 136.5 251.774 138.674 248.85 140.174 244.876 140.55 243.376 140.4 238.95 140.55 238.05 140.626 237.976 140.7 237.976 140.026 241.424 140.026 243.45 139.8 246.0 140.85 252.226 141.45 253.8 141.824 254.1 141.45 255.0 140.924 255.45 140.55 255.45 140.1 255.3 139.424 254.924 139.05 254.626 138.75 254.25 138.674 253.876 138.824 253.5 138.974 253.05 139.95 251.7 140.924 251.174 142.5 251.4 144.526 251.924 146.55 253.5 148.05 254.024 149.25 253.574 151.8 251.85 153.974 251.024 154.276 250.726 154.424 250.424 154.5 250.274 154.5 250.2 154.5 250.2 154.5 250.2 154.5 250.126 154.5 250.126 154.5 250.126 155.85 248.7 156.074 248.626 156.15 248.55 152.776 248.324 149.25 249.376 147.3 251.1 147.0 251.7 146.924 252.376 147.074 252.674 148.574 254.024 150.376 254.024 152.55 253.424 153.376 252.9 155.25 251.4 156.3 250.126 156.824 249.976 154.65 251.4 151.876 254.1 151.724 254.55 151.65 254.85 152.4 254.924 156.376 253.726 157.126 253.876 157.424 254.25 158.474 255.9 158.7 257.626 158.4 258.074 157.574 258.6 156.15 258.824 152.174 257.926 156.526 257.4 160.724 256.126 161.626 256.2 162.376 256.5 165.75 259.274 166.876 259.574 169.126 258.676 169.95 257.85 170.626 256.724" />
<path id="stroke_3" style="fill:none;stroke:#000000;stroke-width:1.0;" d="M85.274 258.074 85.576 258.3 86.1 258.376 89.55 258.074 92.25 258.224 105.224 260.4 120.9 263.176 126.9 264.974 134.324 267.974 139.65 270.074 140.174 270.074 140.474 270.0 140.474 269.926 140.4 269.85 140.1 269.85 139.876 269.926 139.05 269.926" />
</g></svg>