<?xml version="1.0" ?>
<svg width="169.876" height="268.126" xmlns:gita="http://ns.gita.org/gita-ns-1.0" xmlns:f="http://ns.gita.org/feature-ns-1.0">
<title>anoto dump, pen 00000064000029fa, paper 44.0.3.8</title>
<g>
<path id="stroke_0" style="fill:none;stroke:#000000;stroke-width:1.0;" d="M64.126 249.75 62.626 250.126 60.45 249.376 60.0 249.0 59.7 248.85 59.174 247.8 59.024 247.126 59.024 243.376 60.224 241.05 60.824 239.174 61.05 238.35 61.274 236.324 61.5 235.876 61.8 235.424 62.25 233.55 62.024 232.5 61.65 232.05 61.2 231.824 60.75 231.674 60.376 231.75 58.65 233.4 58.126 234.226 57.824 234.674 57.524 235.35 58.424 239.1" />
<path id="stroke_1" style="fill:none;stroke:#000000;stroke-width:1.0;" d="M59.174 240.45 60.376 243.3" />
<path id="stroke_2" style="fill:none;stroke:#000000;stroke-width:1.0;" d="M61.95 248.626 62.626 250.876 62.55 252.074 62.474 252.15 62.474 252.226 62.324 252.3 62.174 252.376 60.524 251.7 58.2 251.55 54.3 248.626 52.65 246.9 50.7 246.0 49.876 245.626 46.574 245.1 45.074 245.174 43.35 244.726 41.7 244.95 41.924 246.15 44.476 249.976 46.5 253.05 48.9 257.774 49.35 256.274 51.674 253.574 54.674 251.85 56.024 250.726 58.876 249.524 65.326 249.9" />
<path id="stroke_3" style="fill:none;stroke:#000000;stroke-width:1.0;" d="M75.674 249.3 75.45 251.4 75.826 252.674 76.724 253.65 77.85 254.024 79.65 254.024 81.524 252.524 83.024 251.85 82.95 251.174 82.876 250.876 82.8 250.726 82.576 250.5 82.05 252.6 81.9 253.274 81.9 254.324 82.5 255.674 83.7 253.424 85.724 251.626 87.376 251.7 89.774 253.05 90.3 253.2 90.75 253.274 91.35 253.126 92.4 252.376" />
<path id="stroke_4" style="fill:none;stroke:#000000;stroke-width:1.0;" d="M99.076 254.55" />
<path id="stroke_5" style="fill:none;stroke:#000000;stroke-width:1.0;" d="M98.25 253.126 96.974 247.876 97.05 245.324 97.424 244.05 98.924 241.35 99.974 240.376 102.224 239.174 104.1 238.95 108.674 239.626 109.8 241.126 110.1 242.024 110.326 244.5 110.174 245.55 109.8 246.226 109.65 246.524 108.3 247.126 106.576 248.476 106.35 248.924 108.15 248.4 108.674 248.55 109.576 248.476 111.9 249.226 114.9 251.25 117.074 254.626 117.6 256.574 117.524 257.324 116.024 260.474 114.376 262.2 113.55 262.65 112.95 262.8 112.2 262.724 111.6 262.426 110.1 260.474 109.126 258.524 109.126 258.0 110.4 254.55 111.15 253.35 113.024 251.476 113.7 250.95 115.574 250.876 117.224 252.0 119.55 252.074 120.75 251.774 121.574 251.25 124.126 250.574 125.474 250.424 125.55 250.424 125.85 249.9 125.924 249.75 125.924 249.75 125.924 249.75 121.05 252.376 120.824 252.9 121.35 253.2 122.85 253.126 123.824 252.824 125.024 252.074 127.8 249.524 127.574 249.674 127.574 249.75 130.2 251.324 132.75 251.85 135.074 251.55 138.376 250.126 139.05 249.674 139.424 249.3 140.174 247.95 139.95 244.8 139.8 244.5 139.65 243.976 139.65 243.9 139.574 243.9 139.574 243.9 139.574 243.9 140.924 252.75 141.0 254.7 140.776 253.95 140.626 252.6 140.924 252.0 140.7 250.35 140.626 250.35 141.224 251.1 142.95 251.924 148.126 251.924 150.074 250.876 151.276 249.75 151.35 249.75 151.424 249.226 150.9 248.924 150.6 248.7 150.45 248.7 149.026 249.15 145.05 252.674 145.05 253.2 145.276 253.5 147.75 254.1 148.876 253.876 150.15 253.424 153.3 251.174 154.5 249.75 154.95 248.25 155.026 248.024 155.324 247.8 158.324 248.024 158.324 248.1 157.8 248.25 156.376 249.226 155.174 250.65 154.8 251.1 154.574 252.6 155.55 253.274 158.4 253.35 158.7 253.8 159.224 254.85 159.3 255.674 158.776 257.7 157.574 258.524 156.3 258.45 154.65 257.926 153.376 256.876 156.0 254.774 160.95 254.85 166.126 256.8 166.876 256.8 169.876 255.75" />
<path id="stroke_6" style="fill:none;stroke:#000000;stroke-width:1.0;" d="M86.1 258.15 88.274 258.676 91.126 258.75 105.6 260.55 114.974 262.65 130.65 266.626 132.45 267.224 134.924 268.126 134.85 268.126 134.7 268.126" />
</g></svg>