<?xml version="1.0" ?>
<svg width="165.074" height="264.074" xmlns:gita="http://ns.gita.org/gita-ns-1.0" xmlns:f="http://ns.gita.org/feature-ns-1.0">
<title>anoto dump, pen 00000064000029fa, paper 44.0.3.8</title>
<g>
<path id="stroke_0" style="fill:none;stroke:#000000;stroke-width:1.0;" d="M65.1 249.074 64.876 249.15 63.3 250.05 61.5 249.9 61.2 249.75 60.6 249.226 59.024 246.976 59.024 245.7 59.924 243.226 61.424 240.376 62.174 236.774 61.876 235.05 61.65 234.6 61.424 234.226 60.3 233.7 60.0 233.476 59.7 233.4 57.974 234.074 57.376 234.75 57.376 235.2 58.05 237.226 57.974 240.824 59.1 243.6 61.2 246.45 62.774 250.05 61.724 251.774 60.15 252.376 57.974 252.6 56.476 251.024 56.024 250.8 55.5 250.65 54.9 250.5 50.324 247.65 46.2 246.75 45.6 246.376 43.574 245.85 39.75 245.7 40.35 247.2 43.726 250.876 46.274 256.5 47.85 257.55 48.3 257.626 48.75 257.474 48.976 257.324 49.2 257.1 51.45 252.6 52.2 251.924 54.074 251.024 55.274 250.726 63.75 250.876 66.3 249.976" />
<path id="stroke_1" style="fill:none;stroke:#000000;stroke-width:1.0;" d="M73.724 255.45 74.7 254.1 75.224 252.75 75.45 250.726 75.224 249.376 75.15 249.15 75.076 249.15 75.15 249.15 76.2 252.674 76.424 253.126 76.724 253.574 78.75 254.174 79.126 254.174 79.5 254.1 80.1 253.5 81.9 250.274 81.3 252.0 81.15 254.324 81.224 254.774 81.524 255.3 82.2 255.976 83.626 252.976 85.8 251.4 87.0 252.0 88.2 253.35 88.724 253.5 89.174 253.726 89.774 253.8 94.05 251.7 94.576 251.7 94.876 251.626" />
<path id="stroke_2" style="fill:none;stroke:#000000;stroke-width:1.0;" d="M102.674 256.274 101.85 256.274 100.95 255.9 97.126 253.2 96.524 250.65 96.75 249.376 97.8 247.424 99.076 246.074 101.85 244.05 105.076 240.75 107.1 239.324 108.3 239.324 109.876 240.674 110.626 242.774 111.0 246.674 109.8 249.75 107.55 251.024 111.15 248.25 112.2 247.95 112.724 247.95 116.474 251.774 116.626 252.074 116.85 252.6 117.376 256.35 117.224 258.3 116.55 259.724 114.974 261.6 113.626 262.65 112.5 263.1 111.45 263.1 109.65 262.426 109.05 261.824 108.674 261.15 108.674 258.974 110.7 255.226 113.174 252.824 116.25 250.726 117.6 250.126 121.126 252.9 122.774 253.5 126.3 250.574 126.45 250.2 125.324 250.2 124.274 250.424 121.876 251.626 120.224 252.976 119.85 253.5 119.7 253.8 120.524 255.15 122.4 255.6 125.4 254.7 126.75 253.726 129.376 250.65 130.5 248.4 130.05 248.1 130.05 248.1 129.974 249.45 132.074 250.95 133.65 251.324 134.4 251.174 136.574 250.126 137.25 249.524 137.7 248.7 139.724 243.524 140.1 242.1 139.8 239.476 140.1 242.324 139.95 246.824 140.324 251.774 140.25 254.024 140.174 255.524 140.924 257.7 141.0 257.626 138.674 254.4 138.75 253.126 139.35 251.4 141.0 249.524 141.9 249.226 143.25 249.524 143.626 249.75 144.074 250.05 144.526 250.5 144.674 250.8 145.8 251.25 152.626 249.75 152.85 249.15 152.174 248.25 152.174 248.174 152.174 248.174 152.174 248.174 152.174 248.174 152.174 248.174 152.25 248.4 147.15 252.226 147.224 252.15 149.324 251.324 152.626 248.85 153.75 249.0 156.15 253.05 152.55 255.824 151.05 256.05 150.674 255.9 150.3 255.824 150.224 255.75 150.224 255.75 150.224 255.75 150.3 255.824 151.95 255.824 155.026 255.0 157.574 254.85 160.126 255.226 161.25 255.226 164.4 256.126 165.074 256.426" />
<path id="stroke_3" style="fill:none;stroke:#000000;stroke-width:1.0;" d="M92.924 258.45 96.826 259.2 101.626 259.5 106.724 260.7 122.474 262.876 125.55 263.626 133.424 264.0 135.0 263.774 136.5 264.074 136.5 264.074 136.35 264.074" />
</g></svg>