<?xml version="1.0" ?>
<svg width="156.224" height="265.5" xmlns:gita="http://ns.gita.org/gita-ns-1.0" xmlns:f="http://ns.gita.org/feature-ns-1.0">
<title>anoto dump, pen 00000064000029fa, paper 44.0.3.8</title>
<g>
<path id="stroke_0" style="fill:none;stroke:#000000;stroke-width:1.0;" d="M65.55 248.25 65.55 248.174 65.024 248.55 62.474 250.05 60.376 249.976 57.9 248.626 57.524 247.274 57.524 247.05 59.4 244.5 60.45 242.4 61.724 238.2 61.424 234.45 60.0 232.35 59.4 232.2 59.1 232.35 58.724 232.65 56.85 235.126 56.7 236.174 57.45 239.774 60.3 245.324 60.974 247.574 60.974 252.45 60.6 252.3 59.474 252.376 57.974 252.824 57.824 252.9 57.75 252.9 57.75 252.9 57.75 252.9 57.75 252.9 57.75 252.9 56.1 251.924 54.15 249.824 50.55 248.25 47.4 247.574 44.924 246.074 41.024 246.45 40.8 246.524 41.25 247.8 42.074 249.226 44.024 251.1 46.8 255.376 48.0 255.9 48.45 256.2 49.5 255.976 50.324 255.376 56.774 248.25 58.2 247.574 61.2 247.274 63.45 248.024 64.876 249.0 67.65 249.674 70.274 249.074" />
<path id="stroke_1" style="fill:none;stroke:#000000;stroke-width:1.0;" d="M69.75 254.7 69.224 255.6 69.0 256.574 68.85 257.176 69.15 257.626 69.826 258.074 70.724 258.15 71.626 257.926 72.75 257.176 74.326 255.074 75.6 249.75 75.524 250.726 75.6 252.226 75.974 253.35 76.876 254.25 78.076 253.95 82.05 251.324 83.25 250.274 83.626 249.674 83.774 249.524 83.924 249.45 84.0 249.3 84.0 249.226 84.0 249.15 84.0 249.15 84.0 249.15 83.474 250.05 83.174 250.95 82.95 255.0 84.524 252.674 85.724 251.85 87.376 251.85 91.05 253.35 91.424 253.274 94.35 251.4 95.924 249.674 96.6 249.15 97.274 248.774" />
<path id="stroke_2" style="fill:none;stroke:#000000;stroke-width:1.0;" d="M103.05 257.4 102.3 257.25 101.626 256.876 101.1 256.05 99.3 252.824 97.95 248.85 98.1 246.524 98.55 245.324 101.25 239.85 102.45 238.8 107.4 238.65 108.376 239.55 110.7 242.85 110.7 244.876 108.75 248.174 107.55 250.876 110.626 248.774 113.1 248.4 116.55 250.05 117.9 251.85 118.2 254.7 117.45 258.224 116.25 260.25 113.174 262.574 111.45 262.95 110.774 262.8 110.174 261.974 109.8 261.376 109.576 258.824 110.474 255.376 111.524 253.2 114.376 252.226 120.524 251.626 123.9 250.876 124.274 251.024 127.574 249.3 128.626 248.476 128.474 248.476 127.126 249.6 123.3 251.324 122.626 252.0 122.4 252.3 122.474 252.75 122.7 252.75 123.974 252.75 127.126 250.95 128.55 250.05 129.224 249.15 129.3 248.924 129.224 248.7 129.15 248.85 128.924 249.15 128.7 249.376 128.7 249.45 128.7 249.524 130.5 251.55 131.776 252.15 133.276 252.45 135.376 252.226 135.75 252.0 136.424 251.55 138.45 249.75 138.526 249.3 138.3 249.15 138.074 249.226 138.0 249.15 138.224 249.074 139.724 245.324 140.7 242.174 140.85 240.674 140.55 239.626 140.324 250.274 140.626 252.15 141.0 253.95 140.474 256.274 139.95 253.65 140.4 250.876 142.8 252.15 144.224 252.3 144.9 252.15 145.35 251.924 148.2 250.126 150.674 249.15 150.674 249.074 152.776 248.924 152.776 248.924 152.474 248.924 151.95 249.15 151.276 249.9 149.324 252.976 149.924 253.274 152.85 252.0 155.25 253.126 156.0 253.65 156.224 254.024 155.924 255.824 154.724 258.0 153.074 258.45 152.25 258.524 151.8 258.524 151.5 258.0 151.276 256.574" />
<path id="stroke_3" style="fill:none;stroke:#000000;stroke-width:1.0;" d="M84.674 258.6 84.6 259.274 94.126 261.224 105.376 263.1 110.924 263.626 119.85 263.85 123.224 264.3 126.45 264.224 130.876 264.074 134.626 264.224 136.876 264.6 138.3 265.5 137.924 265.5" />
</g></svg>