<?xml version="1.0" ?>
<svg width="164.4" height="263.85" xmlns:gita="http://ns.gita.org/gita-ns-1.0" xmlns:f="http://ns.gita.org/feature-ns-1.0">
<title>anoto dump, pen 00000064000029fa, paper 44.0.3.8</title>
<g>
<path id="stroke_0" style="fill:none;stroke:#000000;stroke-width:1.0;" d="M66.15 247.65 66.224 247.876 66.3 247.876 66.3 247.876 66.224 247.95 66.224 247.95 66.224 248.024 66.224 248.024 66.076 248.1 65.326 248.924 65.25 249.0 63.0 249.3 62.25 249.15 59.85 249.0 59.55 248.626 59.024 246.376 59.024 244.95 61.574 240.824 61.95 239.7 62.1 239.25 62.25 237.376 61.8 234.45 60.074 232.65 59.7 232.574 57.0 234.524 56.774 235.8 56.7 236.1 57.6 240.226 58.65 242.55 58.876 243.226 62.85 250.8 62.924 252.0 62.626 252.6 62.626 252.674 61.5 252.75 57.9 251.924 56.85 250.65 56.924 250.574 54.9 252.75 52.726 254.55 51.674 255.0 50.324 256.126 48.824 256.724 42.674 250.876 40.35 246.376 39.15 244.65 43.574 247.35 45.226 248.024 45.75 248.174 49.8 249.976 54.074 250.876 56.7 251.024 57.524 251.174 58.65 251.774 60.0 252.45" />
<path id="stroke_1" style="fill:none;stroke:#000000;stroke-width:1.0;" d="M72.9 251.476 72.45 251.476 71.85 251.55 71.174 252.226 68.4 255.976 68.55 256.274 68.924 256.574 70.8 257.176 72.524 256.95 73.35 256.5 73.8 255.9 74.7 253.126 74.774 251.024 74.326 250.726 74.174 250.95 74.774 253.5 76.576 255.3 77.024 255.45 77.326 255.6 77.85 255.524 78.15 255.376 79.65 253.95 79.8 253.8 80.174 252.9 80.326 252.674 80.326 252.674 80.4 251.626 80.174 252.3 80.474 253.574 82.2 256.65 82.2 255.976 83.1 253.8 83.626 253.65 83.924 253.65 84.974 253.574 85.576 253.876 86.1 254.024 87.3 254.024 87.75 253.726 89.024 252.75" />
<path id="stroke_2" style="fill:none;stroke:#000000;stroke-width:1.0;" d="M99.9 254.4 99.9 254.174 100.05 253.726 100.2 253.424 100.576 252.976 102.974 251.55 104.326 251.774 104.4 251.85 104.774 252.824 104.924 253.274 104.774 253.8 104.7 254.024 103.8 254.626 103.5 254.7 101.924 255.074 100.65 255.074 98.474 252.674 97.95 250.876 98.024 248.7 99.6 244.05 101.024 242.324 102.376 241.65 104.174 239.85 104.55 239.774 105.0 239.626 105.45 239.476 105.826 239.4 106.126 239.324 107.474 239.626 109.65 241.424 110.4 242.626 110.626 243.0 111.076 244.8 111.076 246.674 109.876 249.376 108.076 250.65 108.076 250.65 109.126 250.274 109.2 250.274 109.2 250.274 109.35 250.274 110.55 249.376 114.826 250.726 116.626 252.226 117.9 254.4 117.6 257.25 116.25 260.926 114.45 263.176 113.85 263.25 110.024 262.5 108.674 261.9 108.3 261.6 107.85 261.15 107.55 260.7 107.474 260.55 107.4 259.126 107.924 256.126 108.3 255.074 110.024 252.824 114.076 250.65 114.524 250.5 115.424 250.8 115.95 251.174 116.024 251.25 116.1 251.324 116.174 251.4 116.25 251.55 116.324 251.626 116.4 251.626 116.474 251.626 116.55 251.7 117.0 251.626 117.376 251.626 117.75 251.626 119.4 251.4 119.7 251.4 120.224 251.55" />
<path id="stroke_3" style="fill:none;stroke:#000000;stroke-width:1.0;" d="M126.524 248.7 125.25 249.074 122.85 250.126 122.474 250.5 122.1 252.6 122.4 253.35 122.924 254.024 123.3 254.174 124.95 254.1 127.5 252.9 128.626 251.626 128.776 251.324 129.0 250.8 129.376 248.476 129.15 249.074 128.924 249.376 128.924 249.524 128.85 249.524 128.85 249.524 129.674 251.024 129.974 251.174 132.224 252.0 133.724 251.626 134.4 251.174" />
<path id="stroke_4" style="fill:none;stroke:#000000;stroke-width:1.0;" d="M140.1 246.0" />
<path id="stroke_5" style="fill:none;stroke:#000000;stroke-width:1.0;" d="M140.474 247.65 140.626 251.774 140.7 252.6 140.7 253.424 140.776 253.95 140.85 254.4 140.776 254.7 140.174 254.85 140.026 255.0 139.65 255.15 139.574 255.226 139.5 255.226 139.424 255.226 139.424 255.226 139.35 255.074 139.05 253.05 138.674 252.45 138.6 252.15 138.074 251.774 138.0 251.7 137.924 251.7 137.924 251.7 137.924 251.7 137.924 251.7 138.824 252.9 139.276 253.126 142.126 252.75 144.15 251.85 146.924 251.25 147.974 250.65 148.424 250.126 148.424 250.05 148.424 250.05 148.424 250.05 148.424 250.05 148.424 249.976 148.35 249.75 147.3 249.524 146.7 249.824 146.4 249.976 145.8 249.976 145.276 250.5 144.224 252.674 144.376 253.2 144.45 253.35 144.6 253.5 145.65 254.174 145.876 254.25 147.3 254.25 147.824 253.95 148.126 253.65 149.626 252.9 150.674 252.674 155.026 252.45 155.626 252.15 155.776 252.074 155.85 252.0 155.924 252.0 156.074 252.0 156.074 252.0 156.15 251.924 156.224 251.924 156.224 251.924 156.224 251.924 156.224 251.924 156.224 251.924 156.224 251.924 156.45 252.15 156.75 252.524 157.05 252.824 157.126 252.9 157.35 253.5 157.424 253.65 157.126 254.85 157.05 255.074 156.974 255.226 156.526 255.376 154.876 255.3 155.4 255.074 155.7 255.0 155.85 255.0 156.0 254.924 156.15 254.924 157.05 255.15 157.574 254.774 157.8 254.774 157.95 254.7 159.45 254.85 161.626 254.924 163.05 255.0 164.4 255.45" />
<path id="stroke_6" style="fill:none;stroke:#000000;stroke-width:1.0;" d="M90.0 260.7 90.224 261.224 90.376 261.376 90.6 261.45 90.826 261.524 91.876 261.524 93.3 261.6 96.674 260.626 99.6 261.376 102.974 261.6 104.7 262.2 108.524 262.876 112.35 262.876 120.524 263.024 120.974 263.176 121.5 263.324 127.05 263.85 134.85 262.95 137.324 263.1 139.05 263.55 140.55 263.774" />
</g></svg>