<?xml version="1.0" ?>
<svg width="248.324" height="552.75" xmlns:gita="http://ns.gita.org/gita-ns-1.0" xmlns:f="http://ns.gita.org/feature-ns-1.0">
<title>anoto dump, pen 00000064000029fa, paper 44.0.3.8</title>
<g>
<g gita:vastd="david karla">
<path id="stroke_0" style="fill:none;stroke:#000000;stroke-width:1.0;" d="M97.2 414.524 95.55 421.274 93.75 426.15 88.126 438.524 87.974 439.35 88.05 439.2" />
<path id="stroke_1" style="fill:none;stroke:#000000;stroke-width:1.0;" d="M83.774 421.426 87.45 417.676 94.876 412.426 98.024 410.85 100.8 410.024 103.274 409.724 105.974 410.324 108.6 411.676 111.076 413.55 114.3 419.1 115.05 421.95 115.126 424.95 114.15 428.1 111.974 431.926 108.674 436.2 99.75 443.7 95.474 446.176 91.8 447.0 89.85 446.324 88.876 440.774 89.924 438.676 93.674 435.224 99.15 433.2 101.4 433.8 103.2 435.224 104.774 437.324 107.174 442.2 108.376 444.0 109.5 445.2 110.7 445.65 111.974 445.5 113.7 444.6 118.724 441.074 121.424 439.8 126.15 437.926 128.1 437.7 129.526 437.626 130.35 438.074 131.174 440.474 131.924 443.85 131.85 444.45 131.924 443.774 130.724 438.9 129.074 435.676 126.0 431.324 125.7 429.6 125.25 427.574 125.774 422.85 127.2 418.65 127.876 417.224 130.2 415.35 129.074 415.95 125.4 416.324 118.5 417.75 118.574 417.75 121.724 417.224 123.3 417.074" />
<path id="stroke_2" style="fill:none;stroke:#000000;stroke-width:1.0;" d="M161.1 417.074 153.6 432.9 150.526 438.824 144.3 449.1 143.924 450.15 144.824 449.55" />
<path id="stroke_3" style="fill:none;stroke:#000000;stroke-width:1.0;" d="M173.55 416.774 168.224 425.324 155.4 438.15 153.0 439.35 151.876 439.5 151.724 439.274 151.95 438.824 152.85 438.45 156.45 438.15 158.55 438.524 161.85 440.324 163.2 441.676 165.3 443.024 168.3 442.876 170.174 441.974 172.05 440.626 177.45 435.3 176.924 435.676 176.324 436.126 170.924 442.2 171.376 442.724 173.026 443.024 174.15 442.724 175.65 441.524 179.324 437.55 178.8 438.376 178.876 440.024 179.324 441.0 180.074 441.6 180.824 441.75 182.174 441.6 184.424 440.4 186.974 439.05 195.074 436.2 196.5 434.926 198.074 432.9 202.2 425.176 206.7 418.35 207.526 416.4 207.6 414.824 207.074 413.474 206.026 412.35 204.526 410.926 203.026 409.95 201.376 409.5 199.8 409.8 198.15 411.524 196.95 414.074 196.8 417.3 197.924 420.45 200.7 425.024 201.226 427.574 201.074 433.274 201.45 436.5 202.276 439.574 202.65 439.95 202.424 439.574 203.7 439.126 208.5 437.626 211.126 437.1 214.5 436.95 215.626 437.1 216.3 437.626 216.226 437.626 216.15 437.626" />
</g>
<g gita:vastd="david karla">
<path id="stroke_4" style="fill:none;stroke:#000000;stroke-width:1.0;" d="M93.3 468.45 92.85 469.724 90.3 476.55 87.826 482.25 83.626 492.224 82.876 494.7 82.876 495.674 83.1 495.9" />
<path id="stroke_5" style="fill:none;stroke:#000000;stroke-width:1.0;" d="M77.774 477.75 80.474 473.85 82.5 472.35 87.9 470.25 90.376 470.324 92.55 471.074 94.876 472.424 97.126 474.224 100.35 479.4 101.474 482.024 102.076 484.274 102.3 486.45 101.774 489.0 100.274 492.224 97.724 495.674 90.376 501.824 86.924 503.174 83.85 503.174 80.774 502.424 78.75 501.224 77.626 500.174 77.174 499.35 77.4 498.524 78.826 497.474 81.6 496.274 85.65 495.0 90.15 494.4 94.576 494.474 98.25 495.074 101.024 496.126 106.5 499.8 108.224 500.1 109.876 499.724 111.9 498.824 114.524 496.876 119.1 492.9 120.15 491.25 119.024 492.75 117.824 495.224 117.15 497.55 117.376 499.2 118.126 500.1 119.174 500.4 120.524 500.174 123.6 498.75 125.4 497.324 132.6 493.35 137.026 491.924 137.626 492.974 137.626 493.65 136.126 492.224 130.574 488.474 124.65 485.324 120.75 482.4 118.35 478.574 116.626 471.674 115.95 470.626 115.8 470.55 115.5 470.85 115.65 471.824" />
<path id="stroke_6" style="fill:none;stroke:#000000;stroke-width:1.0;" d="M162.376 474.824 155.25 487.95 148.95 498.376 148.574 499.274 148.8 499.274" />
<path id="stroke_7" style="fill:none;stroke:#000000;stroke-width:1.0;" d="M166.95 483.376 160.276 490.8 157.574 492.974 155.7 494.024 155.25 493.876 158.55 491.55 161.474 490.724 163.8 490.65 165.6 491.4 167.026 492.6 170.1 496.8 171.15 497.55 172.35 498.0 173.924 497.85 175.65 497.4 177.974 496.2 186.3 491.324 188.474 490.65 188.474 492.524 187.95 494.7 186.9 497.25 187.276 497.626 187.95 497.474 207.376 483.6 211.05 480.376 214.2 476.924 218.7 468.376 219.15 466.2 218.25 465.3 216.9 465.3 215.25 465.824 213.376 467.1 203.476 481.95 201.45 487.65 202.05 488.85 203.476 489.6 205.8 489.6 208.2 489.074 210.226 488.25 215.776 489.45 218.324 489.524 218.924 489.75 219.674 491.024 220.2 491.25 220.876 491.1 222.976 489.3 223.5 489.15 223.726 489.15 223.95 489.674" />
</g>
<g gita:vastd="david karla">
<path id="stroke_8" style="fill:none;stroke:#000000;stroke-width:1.0;" d="M87.826 523.726 86.1 527.924 84.076 533.4 80.626 545.1 80.55 545.774" />
<path id="stroke_9" style="fill:none;stroke:#000000;stroke-width:1.0;" d="M77.1 519.15 81.376 517.35 85.95 516.3 90.15 516.15 93.524 517.2 96.75 524.626 97.2 530.324 97.05 535.5 96.15 540.15 94.576 543.976 91.8 547.5 88.126 550.574 83.85 552.75 77.024 551.774 74.924 547.95 75.076 547.5 79.2 545.85 94.65 541.574 104.626 539.55 108.45 539.4 111.3 540.376 115.95 544.65 119.1 546.3 122.7 546.75 126.6 546.226 130.574 544.65 134.4 542.476 141.376 537.824 145.95 534.0 146.626 533.1 145.724 532.574 141.674 534.45 137.174 537.15 136.2 537.15 135.3 536.626 132.15 533.476 127.424 529.726 122.4 526.8 120.75 525.226 119.474 523.424 117.75 520.2 117.6 518.174 117.75 517.876 117.75 518.4 117.974 519.074" />
<path id="stroke_10" style="fill:none;stroke:#000000;stroke-width:1.0;" d="M174.824 513.6 169.574 524.4 162.824 536.324 157.65 543.524 156.674 545.476 156.674 545.774 158.324 543.976" />
<path id="stroke_11" style="fill:none;stroke:#000000;stroke-width:1.0;" d="M174.824 527.626 172.05 530.55 169.724 532.35 167.1 533.85 168.0 533.85 170.7 535.2 174.526 539.25 176.25 540.674 179.7 541.95 183.074 541.8 185.85 541.2 188.85 539.174 193.35 535.126 193.424 539.174 193.8 540.376 194.55 541.126 195.9 541.274 197.626 540.9 207.226 537.9 213.526 534.674 215.4 532.8 217.35 530.1 219.376 525.824 221.25 520.726 223.876 512.626 224.476 510.3 224.55 508.876 224.4 508.274 224.1 508.2 219.3 517.274 216.3 524.924 214.876 531.6 214.35 536.1 214.35 538.726 214.876 540.3 215.476 540.75 215.776 540.6 217.276 536.7 219.0 534.074 220.276 532.95 222.3 533.626 223.424 534.524 226.126 537.6 228.15 539.25 229.424 539.85 229.8 539.626 230.1 539.25 230.4 539.174" />
</g>
<g gita:vastd="david karla">
<path id="stroke_12" style="fill:none;stroke:#000000;stroke-width:1.0;" d="M111.15 372.974 111.076 373.05 106.724 383.176 105.3 386.774 102.6 393.75 102.6 393.824 102.6 393.824" />
<path id="stroke_13" style="fill:none;stroke:#000000;stroke-width:1.0;" d="M109.95 365.324 115.05 364.5 118.424 365.626 120.974 367.95 122.85 371.024 123.974 375.524 124.126 380.474 123.6 384.9 122.7 388.35 121.126 390.824 118.876 393.15 115.724 395.024 111.826 396.676 107.7 397.724 103.876 397.574 101.4 396.45 100.274 394.876 100.274 393.0 101.4 391.2 103.65 389.626 107.174 388.5 111.376 388.274 115.574 388.8 125.55 391.2 130.724 392.024 133.05 392.4 135.45 392.324 138.15 391.876 140.924 390.524 145.876 386.926 149.026 383.774 150.45 382.574 151.424 381.9 151.95 381.676 153.6 384.0 153.974 383.926 157.574 380.176 159.974 376.65 159.974 376.126 158.626 375.524 155.474 374.926 146.1 375.3 137.924 376.35 135.376 375.824 134.1 374.7 133.8 373.426 134.4 371.774 136.35 368.926 137.1 368.55 138.0 368.626 138.3 369.074" />
<path id="stroke_14" style="fill:none;stroke:#000000;stroke-width:1.0;" d="M175.65 375.75 172.724 381.524 165.674 392.626 166.276 392.4" />
<path id="stroke_15" style="fill:none;stroke:#000000;stroke-width:1.0;" d="M195.224 359.55 190.876 366.15 184.35 374.55 177.0 382.274 173.4 385.426 178.05 382.724 181.65 381.376 184.65 380.85 186.526 381.376 189.45 386.7 191.174 390.824 191.626 391.2 192.674 391.35 196.126 389.926 205.8 383.55 204.226 387.974 204.45 388.876 204.9 389.024 205.95 388.95 210.074 387.45 217.65 383.324 220.05 380.926 222.674 377.1 225.674 371.626 230.85 359.926 231.226 355.426 230.4 351.974 229.35 349.426 227.4 345.074 223.8 357.0 222.074 373.574 222.226 377.1 222.75 380.4 224.25 385.5 224.924 386.626 225.226 386.926 225.6 386.926 232.35 380.85 234.824 379.65 236.024 383.55 237.45 384.3 239.774 384.0 241.2 383.324 244.65 382.426 248.324 382.126" />
</g>
</g></svg>
