<?xml version="1.0" ?>
<svg width="700.0" height="1000.0">
<title>and so on and so forth</title>
<g>
<path id="resampld_plein" style="fill:none;stroke:#aa2222;stroke-width:1;" d="M0.0 150.0 20.93853 150.0 36.263092 178.4958 53.969337 174.48503 127.65999 152.32335 148.63765 142.25696 158.07365 111.01001 172.46767 102.205536 185.96135 114.57809 195.39746 127.74637 204.50542 133.12358 214.99364 129.52226 226.28108 135.29242 257.01572 143.45038 306.75772 147.8321 334.55072 153.87419 345.32434 164.16385 363.1912 165.37306 378.79324 188.04091 391.3712 173.29147 440.22745 154.17963 470.9543 136.37163 481.74066 164.30913 491.5847 171.97577 503.0026 160.1548 531.6838 159.17595 548.8141 156.16196 590.5405 154.21033 614.33905 162.45738 626.3389 128.09753 642.17126 265.10513 699.99994 148.3488" />
<path id="resampld_plein" style="fill:none;stroke:#22aa22;stroke-width:1;" d="M0.0 150.0 8.145493 150.0 15.77174 211.96956 44.099365 165.95103 57.41129 177.03046 69.67636 186.54977 77.813385 188.2539 117.992676 154.53033 142.6623 140.57521 160.42049 117.17177 173.79387 115.38455 188.61665 136.2337 198.74187 109.22571 211.29883 104.646126 246.23325 140.49283 291.18048 147.2628 331.60364 151.32993 350.67667 161.11981 361.15793 176.61066 405.10043 172.9865 416.46896 144.40622 445.74084 137.87097 459.80295 187.44275 491.6747 159.93163 510.23273 156.57776 551.48456 153.05746 564.66064 170.71138 576.0859 164.02258 618.0903 183.25206 700.0 149.19032" />
<path id="resampld_plein" style="fill:none;stroke:#2222aa;stroke-width:1;" d="M0.0 150.0 18.374325 150.0 28.437994 166.75653 45.750328 164.09338 54.18148 195.43828 62.6128 182.77737 101.204666 161.21367 110.351974 143.77321 120.401924 132.13586 137.79025 138.86502 145.31975 106.448685 157.51534 124.66757 168.68384 104.40167 187.53667 111.22179 205.87444 134.87021 215.41724 142.01822 235.25922 144.50081 284.3091 146.75061 304.8063 157.23213 322.06842 163.69293 337.02475 179.7597 344.98358 196.7613 354.4096 184.01543 378.91956 153.96198 405.21283 152.90572 437.48987 133.22643 453.17633 171.00903 461.82233 185.31891 471.46378 169.77597 482.34995 165.93903 494.78143 162.6953 508.73053 158.18028 528.09143 157.17516 546.1543 166.0289 555.75824 207.8967 592.5388 162.35129 639.7689 152.96411 666.50433 151.9554 699.9998 151.32352" />
<path id="resampld_plein" style="fill:none;stroke:#aaaa22;stroke-width:1;" d="M0.0 150.0 10.34002 150.0 18.83354 209.78218 47.061867 164.93706 56.275146 196.95114 64.34279 192.00461 78.56947 166.84094 113.53341 159.04852 127.36739 133.70372 154.09094 139.63835 171.50497 120.59985 183.94803 112.70743 193.82257 112.84213 211.57426 110.580986 228.82083 138.70445 247.36116 143.00208 301.2735 147.94855 317.99033 159.28918 338.727 163.49619 359.44727 168.25716 374.4152 183.1246 405.36917 159.44458 440.83255 143.12051 459.2867 163.26974 480.3136 165.55983 514.0756 157.15659 536.0642 155.92639 547.57135 166.29402 557.70123 172.42781 572.1309 204.28581 604.3273 169.51357 629.52704 148.6899 661.57605 149.21706 700.0 149.07988" />
<path id="resampld_plein" style="fill:none;stroke:#aa2222;stroke-width:1;" d="M0.0 300.0 54.78481 300.0 85.750046 286.16776 135.1323 287.19406 161.8949 280.3813 187.39172 278.91882 218.96489 281.87262 240.75711 285.8585 298.9258 296.77353 330.49097 347.12045 367.30554 292.6862 399.76584 286.09457 457.96564 292.727 486.1291 321.20114 495.44006 258.45355 552.26776 298.9854 588.6567 309.6519 620.06085 312.54947 662.9808 276.7272 700.0 301.66602" />
<path id="resampld_plein" style="fill:none;stroke:#22aa22;stroke-width:1;" d="M0.0 300.0 40.30196 300.0 83.29415 287.94617 112.23857 276.4145 141.48222 287.8855 163.20294 272.97284 255.35608 289.146 315.16696 319.9546 339.0886 291.9206 410.53625 287.95102 457.01526 308.6764 491.79727 313.17307 522.2859 262.25754 561.64655 308.88083 592.9726 312.41708 630.4684 314.23813 658.6735 263.4405 700.0 296.27713" />
<path id="resampld_plein" style="fill:none;stroke:#2222aa;stroke-width:1;" d="M0.0 300.0 30.22091 300.0 63.985695 290.38275 93.40924 286.18268 128.08249 287.4065 161.21931 288.85135 182.64645 278.29123 214.88611 277.7117 247.47592 286.52756 288.03253 292.43445 323.6094 339.50415 341.62103 281.4663 383.23248 278.4701 401.26474 313.74753 453.0073 313.40408 485.1137 265.18387 515.3697 311.51758 553.9022 315.78036 575.816 321.41785 611.51544 267.03693 632.2672 302.77014 681.567 305.07468 700.0 324.04913" />
<path id="resampld_plein" style="fill:none;stroke:#aaaa22;stroke-width:1;" d="M0.0 300.0 28.708324 300.0 52.49588 287.96204 78.483345 283.3126 112.6722 286.4473 141.72122 289.31097 162.69447 288.62115 202.20076 275.79745 288.3066 292.92465 319.42548 341.9748 345.67624 287.7871 438.71823 292.567 466.52274 310.59882 507.2413 313.8672 532.31323 250.61517 588.2638 307.29626 616.0683 309.54138 639.348 312.3707 699.99994 285.24405" />
<path id="resampld_plein" style="fill:none;stroke:#aa2222;stroke-width:1;" d="M0.0 450.0 17.59348 450.0 28.943493 494.14154 50.530823 458.94052 66.77511 475.61063 76.72717 487.92725 89.09943 465.87164 103.26173 457.04678 120.891556 456.7143 139.63649 457.1731 173.87424 455.19678 189.63982 460.558 203.14307 463.029 217.30542 468.80716 228.06335 467.81696 242.11736 463.56955 256.47012 462.2564 269.7293 472.9984 283.50934 460.20343 297.67233 461.05606 311.28763 464.25763 324.97302 465.54413 336.29993 464.6506 338.51245 -133.11963 348.4378 399.61642 364.48914 458.77078 382.84656 456.1247 401.29608 457.99585 417.92596 459.81116 433.88724 467.9133 450.01486 465.8798 466.42355 464.60217 484.70084 463.09985 504.40143 461.60925 525.9164 458.5536 547.5305 460.5884 562.50464 461.65082 574.46094 475.68872 586.93604 472.07733 598.87976 471.50092 613.0839 464.5665 628.8234 469.78143 647.59094 462.03314 670.42975 457.3532 699.9998 456.29318" />
<path id="resampld_plein" style="fill:none;stroke:#22aa22;stroke-width:1;" d="M0.0 450.0 8.7277 450.0 20.922718 516.81134 39.91866 472.06845 50.716183 467.98642 67.86434 473.24146 78.43732 474.9743 100.73303 461.02133 125.18142 461.04797 138.99309 459.72656 155.22766 461.48224 169.37231 458.35513 186.5777 461.27563 206.26875 458.7035 242.49516 455.48547 257.20605 466.43704 270.31906 469.45557 281.91898 471.46597 306.57593 466.57584 331.5889 464.69394 342.1781 474.3701 356.9526 308.6073 370.05167 461.91156 401.35712 456.15262 417.3466 464.69086 432.81107 464.7281 450.8119 461.72815 468.5168 461.6873 487.5893 461.59036 506.13037 460.5976 523.81396 463.11633 540.38306 465.15396 556.8179 467.10236 574.83527 459.82953 592.03265 465.14566 610.2304 462.9955 627.40857 458.9315 641.1713 465.71085 654.6424 476.38324 672.9956 467.324 700.0 459.4322" />
<path id="resampld_plein" style="fill:none;stroke:#2222aa;stroke-width:1;" d="M0.0 450.0 9.724059 450.0 25.107695 496.45782 34.08122 474.25748 45.425198 460.78778 65.16242 469.9301 78.90894 464.69324 95.143 455.60535 110.42167 461.7609 125.67637 460.80362 156.2888 456.71445 169.61308 464.74988 185.97112 465.22812 203.00307 463.6546 219.61433 457.49124 234.88206 461.5519 247.0949 462.62332 258.48816 471.63522 270.03473 470.96524 281.91165 474.00818 296.64633 462.3695 326.64536 456.83017 337.04007 452.8476 345.5178 210.11563 355.78433 462.16647 370.5633 463.78717 385.83096 455.5026 402.64975 458.82382 417.65146 464.99005 431.51663 470.33795 446.5509 462.85275 463.74924 459.02142 481.4049 458.07104 498.67322 459.89078 515.2967 460.46146 531.97656 463.6589 550.2088 466.34494 569.02435 458.5497 584.5703 459.9189 597.1359 475.86105 611.0536 471.81873 629.07434 455.8791 646.1058 462.2434 661.15454 468.2487 677.4858 473.7563 699.99994 462.26233" />
<path id="resampld_plein" style="fill:none;stroke:#aaaa22;stroke-width:1;" d="M0.0 450.0 21.421858 450.0 32.150948 465.6699 53.17836 459.50815 73.70265 466.8368 96.24338 462.00665 121.207275 458.02103 133.91379 466.61188 148.36087 461.32184 164.7363 463.03232 184.37709 456.78613 203.45721 456.61676 237.73473 454.88177 250.03271 464.03445 268.31467 475.97656 280.3627 484.73566 292.96332 469.24612 327.88535 457.58594 335.6243 231.75 346.18085 450.0 359.741 458.1139 376.4705 454.06113 391.94803 462.2465 407.90454 464.16324 425.23462 460.45343 441.29736 458.62326 459.62555 458.6812 476.1215 466.49826 490.7759 462.5822 506.61322 467.43896 522.19977 460.80026 540.53284 462.31433 558.48413 457.7213 583.128 459.72598 604.727 472.6271 614.82886 487.55707 627.3613 475.56418 645.62665 466.18002 671.6036 457.07236 699.99994 452.31686" />
<path id="resampld_plein" style="fill:none;stroke:#aa2222;stroke-width:1;" d="M0.0 600.0 62.8702 600.0 158.88264 596.28534 198.98264 594.97296 278.4062 596.0273 337.85312 581.88635 388.18372 590.00244 440.41013 596.37756 559.2221 598.859 648.385 599.2317 699.99994 617.21655" />
<path id="resampld_plein" style="fill:none;stroke:#22aa22;stroke-width:1;" d="M0.0 600.0 36.460617 600.0 79.923195 586.4917 195.1555 597.18176 237.58719 589.3762 287.5923 581.45105 335.6718 593.83405 373.66577 596.0808 413.22128 593.80273 453.878 593.71576 550.934 596.64374 655.32684 610.6933 700.0 596.24506" />
<path id="resampld_plein" style="fill:none;stroke:#2222aa;stroke-width:1;" d="M0.0 600.0 51.870895 600.0 122.28247 594.38776 160.87088 593.54016 200.64906 598.9304 256.19247 592.8149 302.0461 584.80585 372.64005 590.39923 413.72592 591.15314 505.3303 597.09656 586.27954 597.7252 655.3674 619.6962 700.0 592.81146" />
<path id="resampld_plein" style="fill:none;stroke:#aaaa22;stroke-width:1;" d="M0.0 600.0 57.979572 600.0 113.314674 596.5942 212.052 595.28955 251.63063 585.5395 301.85052 585.2309 398.9633 595.0466 503.25012 597.52277 548.3643 596.6969 604.0977 625.2807 699.99994 593.7411" />
<path id="resampld_plein" style="fill:none;stroke:#aa2222;stroke-width:1;" d="M0.0 750.0 13.336271 750.0 55.53092 742.7032 75.53269 747.7378 94.539986 752.9746 109.41026 752.0195 122.856514 759.6071 141.93233 847.1865 163.74323 725.99585 183.59724 742.30945 202.42209 656.0319 245.0805 737.6089 265.33545 737.5072 310.46323 746.7647 340.0272 744.9767 374.69638 694.85077 389.5803 732.50696 400.8208 728.11584 411.27063 686.18054 425.70895 700.6385 447.20447 743.74915 541.4797 748.6645 553.0757 762.86774 565.50525 838.09 592.60406 771.943 661.16125 724.61786 700.00006 750.0" />
<path id="resampld_plein" style="fill:none;stroke:#22aa22;stroke-width:1;" d="M0.0 750.0 36.2654 750.0 54.38764 743.297 73.32371 750.13855 89.05109 751.50214 103.517586 741.7209 115.93354 905.3394 131.64174 735.7143 152.0078 711.3457 164.69849 669.00854 191.37312 724.9349 210.239 739.6823 228.625 738.2858 264.99487 745.743 285.93124 736.5399 303.3104 649.6439 329.48773 735.9267 343.1942 724.9383 356.92105 669.8792 371.0704 721.7787 408.00745 746.74414 429.6136 755.78467 450.09464 758.75006 471.8079 759.528 487.98062 762.4794 502.0305 779.8965 516.2526 778.1943 533.69775 770.7361 553.3802 765.84357 566.33356 763.7456 588.79913 826.39 615.49335 761.6868 647.6976 755.81744 679.2031 753.25366 700.0 758.94226" />
<path id="resampld_plein" style="fill:none;stroke:#2222aa;stroke-width:1;" d="M0.0 750.0 25.53838 750.0 98.77339 747.8805 117.54965 757.9855 130.3666 910.77234 141.58366 717.1888 160.35744 730.68256 170.10352 714.965 203.63133 700.12634 239.6674 738.49384 257.1406 739.84247 290.548 741.12274 311.9774 734.7959 334.61923 681.5766 347.9467 721.9061 368.47757 738.86865 384.0546 696.4319 398.03476 715.70807 416.74414 741.3133 436.5752 741.89026 490.8459 745.7612 501.0188 765.0181 511.5135 770.0544 522.22534 778.39294 532.2979 777.99023 543.6679 770.2908 554.1626 776.94476 564.55176 785.5249 566.92413 964.54114 582.5012 877.79144 610.45605 758.59766 680.5121 751.53217 700.0 752.82654" />
<path id="resampld_plein" style="fill:none;stroke:#aaaa22;stroke-width:1;" d="M0.0 750.0 13.517324 750.0 114.15224 741.7362 136.93594 757.4294 158.50467 833.5359 178.65521 742.44977 196.16003 729.16254 212.01546 690.5171 226.58478 689.8983 268.99313 738.69965 311.57254 743.4356 354.52032 743.33716 370.39484 732.5153 386.10217 722.5105 410.16443 691.1916 426.04297 727.69824 447.97153 736.35114 539.8189 734.29504 575.6346 753.33435 606.9921 752.9852 644.5223 758.55676 684.00696 776.2274 699.9999 780.5347" />
<path id="resampld_plein" style="fill:none;stroke:#aa2222;stroke-width:1;" d="M0.0 900.0 173.0454 900.0 482.85126 899.90533 573.27106 899.9672 639.8108 932.6234 700.0 901.7619" />
<path id="resampld_plein" style="fill:none;stroke:#22aa22;stroke-width:1;" d="M0.0 900.0 206.52588 900.0 557.35236 899.8989 605.96704 896.68243 700.0 880.38306" />
<path id="resampld_plein" style="fill:none;stroke:#2222aa;stroke-width:1;" d="M0.0 900.0 189.96053 900.0 382.63397 899.84076 553.0711 899.82135 662.48193 899.4617 700.0 898.4368" />
<path id="resampld_plein" style="fill:none;stroke:#aaaa22;stroke-width:1;" d="M0.0 900.0 224.22244 900.0 446.38657 899.93115 673.4885 899.93384 700.0 981.4505" />
</g></svg>