<?xml version="1.0" ?>
<svg width="300.474" height="300.474" xmlns:gita="http://ns.gita.org/gita-ns-1.0" xmlns:f="http://ns.gita.org/feature-ns-1.0">
<title>anoto dump, pen 00000064000029fa, paper 44.0.3.8</title>
<g>
<path id="stroke_0" style="fill:none;stroke:#000000;stroke-width:1.0;" d="M71.174 42.074 71.25 42.674 70.65 43.274 70.274 43.5 69.674 43.726 68.7 43.8 66.15 43.126 65.626 42.75 65.326 42.3 65.024 41.324 64.95 40.65 65.1 39.524 67.2 35.626 67.5 33.9 67.5 33.074 66.75 30.6 64.95 29.326 63.376 29.4 62.924 29.55 62.55 29.774 62.324 30.076 62.174 30.6 62.324 32.324 62.924 34.424 63.974 36.524 67.95 42.074 68.774 44.024 68.774 46.65 67.424 48.9 65.626 49.5 61.724 49.126 57.376 50.25 55.05 50.024 52.8 48.6 50.174 45.226 48.9 42.75 48.6 41.324 48.75 40.05 48.9 39.6 49.126 39.226 50.476 39.45 53.924 41.626 56.7 43.2 60.3 45.074 64.724 47.1" />
<path id="stroke_1" style="fill:none;stroke:#000000;stroke-width:1.0;" d="M81.75 47.85 80.924 46.8 80.4 46.5 79.95 46.274 78.75 46.424 77.626 47.55 77.174 48.824 77.024 49.35 77.174 49.8 77.474 50.1 78.974 50.174 79.876 49.876 82.126 47.7 82.65 49.05 83.174 49.65 83.55 49.876 84.15 50.024 84.524 49.95 87.75 48.824 88.424 48.824 89.024 49.05 90.076 50.626 90.376 50.25 90.9 49.8 91.576 49.5 93.45 49.274 94.724 49.5 95.626 50.1 95.7 50.174 95.7 50.174 97.8 48.3" />
<path id="stroke_2" style="fill:none;stroke:#000000;stroke-width:1.0;" d="M112.05 50.024 109.8 49.65 108.75 49.2 107.024 47.774 106.2 45.75 106.2 43.35 106.95 40.8 107.7 39.674 108.826 38.626 110.4 37.876 112.424 37.35 114.45 37.2 118.05 37.8 119.25 38.324 119.85 39.0 120.15 40.05 120.0 41.324 119.4 42.524 116.626 45.0 116.4 45.226 117.45 45.0 118.574 45.0 120.0 45.226 121.724 45.674 123.15 46.5 124.274 47.774 125.1 49.424 125.55 51.074 125.626 53.024 125.024 54.674 124.126 55.95 122.7 56.85 121.126 57.376 119.174 57.376 117.3 57.0 115.05 55.65 114.3 53.476 114.524 52.424 115.35 51.376 117.074 50.476 119.774 49.876 122.774 49.5" />
<path id="stroke_3" style="fill:none;stroke:#000000;stroke-width:1.0;" d="M134.776 46.95 133.35 46.8 132.6 46.876 132.0 47.024 131.4 47.324 130.35 48.824 130.276 49.424 130.424 49.8 130.724 50.1 131.55 50.324 133.876 49.726 135.974 48.226 136.5 47.7 136.724 47.4 136.724 47.324 136.724 47.4 136.65 48.0 137.25 48.674 139.5 49.424" />
<path id="stroke_4" style="fill:none;stroke:#000000;stroke-width:1.0;" d="M149.626 41.85 149.55 41.476 149.1 41.85 148.8 42.226 148.65 43.05 149.1 48.976 148.8 50.476 148.276 49.126 147.974 48.524 147.526 48.0 147.15 47.7 146.7 47.476 146.474 47.476 146.174 47.626 145.876 47.924 145.8 48.3 145.95 48.75 146.324 49.126 149.026 50.024 151.876 49.8 154.424 48.45 155.1 47.626 155.324 47.024 155.174 46.574 155.026 46.5 153.674 47.174 153.0 48.0 152.626 48.824 152.626 49.424 152.776 49.574 158.626 48.0 161.026 47.85 163.126 48.0 165.3 49.274 165.376 50.024 164.174 51.674 163.424 52.126 163.2 52.126 163.2 51.9" />
<path id="stroke_5" style="fill:none;stroke:#000000;stroke-width:1.0;" d="M143.4 57.9 126.224 57.45 109.2 57.376 91.8 57.674 91.95 57.524 92.55 57.376 93.826 57.524 94.274 57.824" />
<path id="stroke_6" style="fill:none;stroke:#000000;stroke-width:1.0;" d="M70.95 108.9 70.95 109.274 70.724 109.576 70.5 109.876 69.6 110.326 68.85 110.326 65.924 109.65 65.1 109.2 64.576 108.524 64.2 107.774 64.2 106.95 64.424 105.9 66.826 101.174 67.274 97.95 66.9 97.05 65.774 96.15 65.024 95.924 64.05 95.774 62.1 95.924 61.05 96.75 60.824 97.424 60.9 98.4 62.626 102.674 65.774 107.7 68.25 112.424 68.7 114.9 68.4 116.25 68.024 116.55 62.626 115.724 61.126 115.724 60.3 115.876 57.75 117.6 56.924 117.6 55.95 117.15 52.726 114.45 51.15 112.576 48.45 107.85 48.226 106.126 48.15 105.15 48.376 104.626 53.174 107.4 63.0 111.9" />
<path id="stroke_7" style="fill:none;stroke:#000000;stroke-width:1.0;" d="M77.924 113.024 76.424 111.75 75.524 111.45 74.326 111.826 73.576 113.024 73.424 113.85 73.5 114.45 73.8 114.974 74.25 115.2 74.774 115.274 75.15 115.126 77.85 112.5 79.274 115.05 79.65 115.5 80.1 115.876 80.4 115.876 83.25 114.376 84.15 114.224 85.5 114.674 86.7 115.876 87.674 114.75 89.474 114.076 90.3 114.15 90.974 114.376 92.024 115.876 92.1 116.024 92.1 116.024 93.224 115.2 94.724 113.85" />
<path id="stroke_8" style="fill:none;stroke:#000000;stroke-width:1.0;" d="M111.076 112.8 111.3 113.25 111.3 113.774 110.924 114.15 110.174 114.6 108.0 114.674 106.8 114.376 105.45 112.95 105.0 111.826 104.924 109.274 105.9 106.65 106.724 105.3 108.076 104.024 109.424 103.126 111.3 102.524 113.55 102.376 117.6 103.274 119.024 104.174 119.924 105.376 120.3 106.65 119.474 109.35 117.376 111.3 116.474 111.674 116.25 111.75 117.9 111.376 119.4 111.376 122.85 112.35 124.35 113.4 125.4 114.826 126.074 116.774 126.15 118.8 125.55 120.9 124.424 122.7 122.85 123.974 121.05 124.574 119.174 124.424 117.224 123.75 115.724 122.474 114.674 120.674 114.076 118.8 114.076 117.224 114.826 115.876 116.55 114.674 119.55 113.924" />
<path id="stroke_9" style="fill:none;stroke:#000000;stroke-width:1.0;" d="M134.7 111.974 134.324 111.376 134.026 111.224 132.824 111.224 131.924 111.6 129.974 112.65 129.526 113.174 129.45 113.7 129.75 114.15 130.5 114.6 131.776 114.974 132.824 115.05 133.876 114.75 134.776 114.076 135.974 111.674 136.05 111.6 136.35 111.826 138.526 113.024 139.724 113.326" />
<path id="stroke_10" style="fill:none;stroke:#000000;stroke-width:1.0;" d="M147.0 104.1 146.7 107.55 146.85 109.274 147.0 111.076 147.074 112.576 147.376 113.924 147.526 114.6 147.526 114.75 147.526 114.75 147.526 114.6 146.7 112.95 145.95 112.35 145.5 112.05 144.824 112.05 143.776 112.95 143.776 113.326 143.85 113.7 144.224 114.076 146.7 114.674 148.5 114.6 150.15 114.0 153.074 112.126 154.2 110.474 154.2 110.174 154.05 110.174 152.626 111.0 150.974 112.876 150.674 113.7 150.674 114.15 151.126 114.376 151.95 114.45 153.224 114.0 156.3 112.274 158.25 111.6 160.2 111.45 162.224 111.9 163.574 112.65 164.174 113.85 164.026 115.2 163.05 116.55 161.4 117.45 160.2 117.75 159.974 117.6 160.276 117.0 161.474 116.024 163.724 114.826 166.724 114.15 169.724 113.924 171.674 114.3" />
<path id="stroke_11" style="fill:none;stroke:#000000;stroke-width:1.0;" d="M114.75 120.6 106.65 119.924 92.85 119.474 90.974 119.85 91.05 120.0 94.5 120.974" />
<path id="stroke_12" style="fill:none;stroke:#000000;stroke-width:1.0;" d="M65.326 170.85 62.7 171.074 61.274 170.85 59.1 169.65 58.5 168.6 58.35 167.4 60.974 162.526 61.5 161.324 61.724 159.9 61.424 157.424 60.824 156.526 59.324 155.626 58.424 155.626 57.75 155.924 57.3 156.45 56.85 158.474 57.0 161.1 57.226 162.45 58.126 165.15 61.8 171.15 62.774 173.924 62.774 176.4 61.5 178.126 60.45 178.574 59.1 178.5 55.65 177.824 52.05 176.7 51.45 176.776 47.924 178.8 45.674 178.8 44.55 178.276 43.5 177.376 42.6 176.1 41.924 174.45 41.476 172.5 41.4 169.724 42.376 167.324 42.976 166.95 43.65 166.8 48.75 168.15 54.824 171.15 58.126 173.1 62.1 175.8" />
<path id="stroke_13" style="fill:none;stroke:#000000;stroke-width:1.0;" d="M77.474 175.95 76.424 174.6 75.674 174.15 74.7 173.776 73.05 174.0 72.3 174.526 71.626 175.35 71.1 177.15 71.25 177.75 71.55 178.276 72.3 178.574 73.35 178.574 74.174 178.276 75.0 177.75 76.424 175.95 77.326 177.75 77.85 178.2 78.15 178.35 80.024 176.924 80.626 176.626 81.0 176.626 81.45 176.776 83.25 178.5 84.376 177.074 85.126 176.626 85.95 176.4 86.774 176.474 87.9 177.376 88.424 178.5 88.5 178.724 90.15 177.45 91.2 176.924 92.024 176.626 93.974 176.626 94.424 176.85 94.724 177.074 94.8 177.15 94.876 177.15 95.1 177.0" />
<path id="stroke_14" style="fill:none;stroke:#000000;stroke-width:1.0;" d="M111.15 176.25 111.15 176.626 111.0 177.0 110.626 177.376 109.8 177.6 108.674 177.6 107.55 177.376 106.2 176.85 104.7 174.824 104.1 173.174 103.65 171.15 103.724 169.2 104.25 167.324 106.35 164.026 107.626 162.9 109.576 162.15 111.75 162.074 113.85 162.376 115.65 163.126 116.924 164.026 117.75 165.224 118.126 166.65 117.9 168.15 117.15 169.876 114.674 172.8 113.774 173.776 114.674 173.174 115.876 172.65 117.75 172.424 119.7 172.424 121.8 172.876 123.45 173.85 124.5 175.276 125.174 177.074 125.474 179.25 125.324 181.5 124.65 183.6 123.524 185.4 121.876 186.75 119.626 187.35 117.224 187.424 115.274 187.05 114.0 186.074 113.174 184.5 112.424 182.324 112.35 180.15 113.024 178.35 114.674 177.074 117.45 176.324" />
<path id="stroke_15" style="fill:none;stroke:#000000;stroke-width:1.0;" d="M135.3 175.276 134.026 174.6 133.05 174.526 132.074 174.75 131.1 175.2 130.126 175.724 129.376 177.074 129.45 177.674 129.974 178.2 130.65 178.35 131.924 178.424 132.974 177.974 134.776 176.174 135.9 174.224 135.974 174.376 136.2 174.9 137.1 175.724 138.224 176.25" />
<path id="stroke_16" style="fill:none;stroke:#000000;stroke-width:1.0;" d="M147.376 167.174 147.15 169.724 148.126 177.0 147.974 178.876 147.824 177.6 147.15 176.7 145.424 175.95 144.974 175.876 144.6 175.95 144.45 176.026 144.674 176.924 147.074 178.126 150.674 178.424 152.4 178.126 155.174 176.25 156.224 174.376 156.0 174.0 153.974 174.674 152.924 175.5 151.8 177.224 152.026 178.05 152.7 178.5 154.05 178.876 155.924 178.95 157.876 178.574 162.6 175.876 163.574 175.574 164.626 175.574 165.6 176.026 166.276 176.776 166.724 177.824 166.724 178.876 166.2 179.776 165.674 180.224 165.974 179.85 167.25 178.95 169.95 178.2 176.924 177.376 178.876 177.3 179.474 177.526" />
<path id="stroke_17" style="fill:none;stroke:#000000;stroke-width:1.0;" d="M128.1 184.574 117.974 184.276 107.7 184.424 98.626 184.95 92.85 185.776 90.9 186.224 91.05 186.376" />
<path id="stroke_18" style="fill:none;stroke:#000000;stroke-width:1.0;" d="M63.074 248.85 60.75 248.25 59.626 246.9 59.4 246.074 59.474 244.876 60.9 236.55 60.75 234.15 60.45 233.626 60.15 233.25 59.55 233.024 58.5 233.25 57.3 234.226 56.7 235.126 56.324 236.1 56.25 237.3 56.476 238.574 58.05 241.726 61.35 246.376 62.774 249.226 63.074 250.424 62.774 252.45 61.274 253.424 59.85 253.65 54.3 252.9 53.7 253.05 51.15 254.476 49.95 254.774 48.824 254.7 47.55 254.4 44.85 252.524 43.424 251.174 40.876 247.126 40.5 244.424 39.824 243.226 39.75 243.15 41.4 244.126 47.55 246.6" />
<path id="stroke_19" style="fill:none;stroke:#000000;stroke-width:1.0;" d="M75.3 252.3 72.9 251.1 71.4 251.324 70.8 251.85 70.2 253.424 70.5 254.7 71.55 255.376 73.05 255.0 73.876 254.324 75.524 252.0 76.126 253.424 77.4 254.7 78.0 255.074 78.974 254.924 81.524 253.65 82.424 253.8 82.8 254.174 82.95 254.476 83.024 254.626 83.024 254.626 83.25 254.1 83.774 253.726 85.95 253.424 87.674 253.876 88.724 255.0 88.724 255.0 89.474 254.476 90.45 253.8 92.024 252.9" />
<path id="stroke_20" style="fill:none;stroke:#000000;stroke-width:1.0;" d="M105.524 252.376 105.6 252.75 105.45 253.2 104.25 254.1 102.9 254.4 100.274 254.25 98.7 253.05 98.25 251.924 98.1 250.424 98.174 248.7 98.626 246.6 99.524 244.5 102.076 241.2 103.576 240.0 105.076 239.324 106.8 239.25 108.076 239.55 109.576 240.376 110.85 241.574 111.45 243.074 111.75 244.726 111.674 246.45 111.15 248.024 110.174 249.376 109.126 250.274 108.6 250.726 109.35 250.424 110.55 250.274 112.5 250.424 114.674 250.95 116.7 251.924 118.274 253.2 119.174 254.924 119.4 256.876 118.95 258.824 117.75 260.7 115.876 262.2 113.474 263.25 110.85 263.474 109.05 263.176 107.85 262.35 107.024 261.074 106.724 259.65 106.876 257.926 107.85 256.274 109.576 254.774 112.05 253.5 115.574 252.75" />
<path id="stroke_21" style="fill:none;stroke:#000000;stroke-width:1.0;" d="M128.25 250.65 128.1 250.35 127.65 250.126 126.674 250.05 124.126 250.424 123.15 250.876 122.4 251.4 121.8 252.524 121.876 253.05 122.1 253.35 123.0 253.574 124.35 253.574 125.7 253.2 128.55 251.774 130.574 250.5 131.626 251.4" />
<path id="stroke_22" style="fill:none;stroke:#000000;stroke-width:1.0;" d="M141.0 243.226 140.55 244.35 140.474 245.324 140.776 248.174 141.0 249.976 141.074 251.7 141.074 253.05 141.0 253.876 140.85 254.25 140.85 254.25 140.7 253.35 140.324 252.6 139.574 252.0 138.6 251.626 136.876 251.1 137.924 252.45 138.824 252.824 141.75 253.05 143.55 252.674 147.3 251.024 149.474 249.45 149.55 249.074 146.4 250.126 145.276 250.876 144.674 251.7 144.674 252.3 144.974 252.6 146.25 252.9 148.2 252.976 156.674 251.774 157.724 251.85 158.1 252.074 158.026 252.45 157.65 252.976 155.7 254.476 161.924 254.476 165.45 254.476 165.526 254.476" />
<path id="stroke_23" style="fill:none;stroke:#000000;stroke-width:1.0;" d="M124.724 261.15 114.974 260.7 97.5 260.626 92.4 260.626 96.15 260.474 99.524 260.85" />
<path gita:vastd="ian bates" style="fill:none;stroke:#000000;" d="M300.5,270.202H0.5v-70h300V270.202z"/>
<path gita:vastd="ian bates" style="fill:none;stroke:#000000;" d="M300.5,130.401H0.5v-58h300V130.401z"/>
<path gita:vastd="ian bates" style="fill:none;stroke:#000000;" d="M300.5,192.302H0.5v-58h300V192.302z"/>
<path gita:vastd="ian bates" style="fill:none;stroke:#000000;" d="M300.5,65.5H0.5v-58h300V65.5z"/>

</g></svg>
