<?xml version="1.0" ?>
<svg width="290.626" height="480.274" xmlns:gita="http://ns.gita.org/gita-ns-1.0" xmlns:f="http://ns.gita.org/feature-ns-1.0">
<title>anoto dump, pen 00000064000029fa, paper 44.0.3.8</title>
<g>
<path id="stroke_0" style="fill:none;stroke:#000000;stroke-width:1.0;" d="M64.5 310.8 64.35 312.45 64.35 312.3 64.8 310.426 64.95 309.824 65.474 308.926 65.7 308.55 65.7 308.474 64.35 313.95 63.376 319.574 63.224 322.126 63.224 321.824 63.974 313.574 64.876 309.074 66.0 304.95 69.524 312.824 70.8 315.6 71.25 315.45 72.0 314.024 74.924 306.524 75.3 306.224 75.6 306.524 78.524 314.85 79.05 316.876 79.424 318.676" />
<path id="stroke_1" style="fill:none;stroke:#000000;stroke-width:1.0;" d="M83.85 314.25 83.85 313.876 83.85 313.8 83.85 313.876 83.85 314.024" />
<path id="stroke_2" style="fill:none;stroke:#000000;stroke-width:1.0;" d="M90.9 306.0 90.974 305.926 93.076 314.626 93.974 316.65 95.1 317.626 95.7 317.474 96.6 316.126 97.424 313.35 99.0 306.0" />
<path id="stroke_3" style="fill:none;stroke:#000000;stroke-width:1.0;" d="M101.024 314.774 105.974 312.3 106.274 312.75 106.576 313.126 108.15 313.426 108.75 313.274 109.126 313.274 109.424 313.5 110.7 316.05 111.15 316.5 111.376 316.574 111.376 315.824 112.5 313.126 113.924 310.95 114.376 310.724 113.474 324.15 113.326 327.6 112.876 329.774" />
<path id="stroke_4" style="fill:none;stroke:#000000;stroke-width:1.0;" d="M110.1 311.324" />
<path id="stroke_5" style="fill:none;stroke:#000000;stroke-width:1.0;" d="M109.424 310.574 109.35 310.574" />
<path id="stroke_6" style="fill:none;stroke:#000000;stroke-width:1.0;" d="M120.6 308.774 119.626 310.95 119.474 311.774 119.626 312.224 120.15 312.45 121.05 312.376 123.6 311.324 126.674 310.426 127.126 310.05 127.05 310.05 126.75 310.724 126.75 312.45 127.35 313.05 128.55 313.126 130.05 312.524 132.0 310.724 132.074 310.876 132.824 315.0 133.95 317.25" />
<path id="stroke_7" style="fill:none;stroke:#000000;stroke-width:1.0;" d="M138.974 309.9 138.75 309.9 138.45 310.126 138.3 310.574 138.15 311.474 138.3 312.376 138.674 313.274 139.95 314.1 142.574 314.55 145.574 314.7" />
<path id="stroke_8" style="fill:none;stroke:#000000;stroke-width:1.0;" d="M153.6 304.574 153.75 304.126 153.75 304.274 153.674 308.25 153.9 310.876 154.05 313.5" />
<path id="stroke_9" style="fill:none;stroke:#000000;stroke-width:1.0;" d="M157.5 306.074 157.276 306.0 157.05 306.224 156.45 306.9 155.626 308.324 155.25 309.824 155.324 311.474 156.0 312.974 157.276 313.724 159.15 313.876 161.324 313.274 163.2 312.15 164.776 310.65 165.6 309.376 165.75 308.626 165.526 308.25 165.376 309.676 165.974 311.626 166.8 312.376 168.0 312.75 169.5 312.376 170.7 311.626 172.35 309.676 173.026 311.024 173.7 311.7 174.674 312.074 175.8 312.0 179.776 309.9 181.2 310.5 184.424 311.024 186.75 311.024 189.376 310.876 194.7 309.9 196.05 309.45 196.35 309.074 196.2 308.774 195.974 308.7 195.526 309.074 195.45 309.45 196.876 310.65 200.1 311.4 205.276 312.074" />
<path id="stroke_10" style="fill:none;stroke:#000000;stroke-width:1.0;" d="M204.0 316.724 214.726 316.65 236.7 315.824 243.074 315.376 243.3 314.774 243.15 314.774 242.924 315.0" />
<path id="stroke_11" style="fill:none;stroke:#000000;stroke-width:1.0;" d="M57.3 363.524 57.226 369.45 57.0 370.876 56.7 371.474 57.0 366.524 58.126 359.4 59.7 355.5 59.85 355.426 60.224 355.876 61.126 357.3 61.95 359.1 63.45 364.95 63.9 365.55 64.35 365.474 65.4 364.05 69.0 358.2 70.274 356.7 71.85 359.626 73.35 364.2 74.326 366.9" />
<path id="stroke_12" style="fill:none;stroke:#000000;stroke-width:1.0;" d="M81.0 368.626 80.85 368.176 81.0 368.176" />
<path id="stroke_13" style="fill:none;stroke:#000000;stroke-width:1.0;" d="M88.274 354.676 88.35 354.824 90.3 365.25 90.974 368.4 91.95 371.176 93.076 372.75 94.05 373.2 94.8 372.676 99.75 365.25 101.326 369.9 102.076 370.5 103.05 370.65 103.8 370.426 106.576 367.95 107.474 367.274 107.924 367.126 108.224 367.574 108.974 373.724 110.326 381.224 110.174 381.676 109.95 381.524" />
<path id="stroke_14" style="fill:none;stroke:#000000;stroke-width:1.0;" d="M105.6 362.626 105.826 362.55 106.8 362.474" />
<path id="stroke_15" style="fill:none;stroke:#000000;stroke-width:1.0;" d="M116.626 363.676 116.174 364.35 115.274 366.0 115.574 366.45 116.25 366.6 118.724 366.0 119.7 365.7 124.5 363.524 124.876 363.524 124.724 363.9 124.724 364.274 125.174 364.8 126.674 364.5 128.85 364.126 129.376 363.824 129.526 363.75 129.526 363.75 129.75 368.176 130.05 368.55 130.5 368.626 130.95 367.8 131.1 367.35" />
<path id="stroke_16" style="fill:none;stroke:#000000;stroke-width:1.0;" d="M135.074 363.524 134.85 363.6 134.7 363.9 134.55 364.426 134.626 364.876 134.924 365.7 136.2 366.524 139.574 366.9 143.55 366.524" />
<path id="stroke_17" style="fill:none;stroke:#000000;stroke-width:1.0;" d="M152.25 352.95 152.174 352.876 152.1 353.176 151.95 354.074 152.174 358.274 152.626 360.75 153.224 363.0" />
<path id="stroke_18" style="fill:none;stroke:#000000;stroke-width:1.0;" d="M156.974 355.95 156.45 355.95 156.0 356.324 155.7 357.376 155.25 360.824 156.9 364.35 158.776 365.474 161.1 365.7 163.35 365.176 165.3 364.05 168.6 360.9 170.7 358.2 170.474 361.274 170.85 362.85 171.9 364.05 173.626 364.574 176.626 364.274 177.824 363.15 177.9 363.15 180.15 364.95 183.45 365.774 185.55 365.85 200.776 364.574 202.574 364.126 202.65 364.126" />
<path id="stroke_19" style="fill:none;stroke:#000000;stroke-width:1.0;" d="M203.324 362.626 203.25 362.626 203.174 362.85 203.4 363.074 204.15 363.224 206.324 363.376 210.674 363.45" />
<path id="stroke_20" style="fill:none;stroke:#000000;stroke-width:1.0;" d="M197.924 371.7 199.5 371.4 203.1 370.724 208.276 369.824 222.6 368.55 239.174 367.65 241.574 367.126 241.35 367.05 240.75 366.824" />
<path id="stroke_21" style="fill:none;stroke:#000000;stroke-width:1.0;" d="M232.274 375.45 232.05 375.224 231.976 375.15 232.05 375.224" />
<path id="stroke_22" style="fill:none;stroke:#000000;stroke-width:1.0;" d="M55.876 405.376 55.8 405.974 55.8 407.324 55.574 412.274 55.5 412.876 56.476 405.3 58.724 397.95 59.774 395.774 61.424 398.7 63.15 402.974 64.126 404.7 65.174 405.376 66.376 405.074 67.724 403.876 71.024 398.7 71.774 400.876 72.076 402.974 72.0 408.824 71.924 412.426 72.45 415.426" />
<path id="stroke_23" style="fill:none;stroke:#000000;stroke-width:1.0;" d="M82.35 409.8 82.274 409.35 82.2 409.2 82.126 409.126 82.126 409.274" />
<path id="stroke_24" style="fill:none;stroke:#000000;stroke-width:1.0;" d="M89.626 397.126 90.076 400.95 90.826 407.176 91.274 410.7 92.1 413.324 93.15 414.45 94.35 414.224 96.0 412.574 97.576 409.876 100.5 402.9" />
<path id="stroke_25" style="fill:none;stroke:#000000;stroke-width:1.0;" d="M97.35 412.426 98.474 411.676 101.1 410.25 102.224 410.024 103.576 411.524 104.85 411.524 106.724 410.85 110.25 408.9 110.924 408.9 112.05 411.3 112.65 414.15 114.3 427.2" />
<path id="stroke_26" style="fill:none;stroke:#000000;stroke-width:1.0;" d="M123.524 405.45 123.9 405.0 123.9 405.0 122.924 405.45 120.9 407.7 120.674 408.75 121.05 409.426 121.876 409.426 122.85 409.05 125.1 407.926 132.224 406.274 133.126 406.05 132.9 406.65 132.9 406.724 133.05 406.724 133.126 406.65 133.276 409.274 133.8 410.25 135.224 410.55 137.474 410.1 139.574 409.05 141.674 406.8 141.376 409.65 141.376 413.7 141.674 415.724 142.2 418.274 142.276 418.35" />
<path id="stroke_27" style="fill:none;stroke:#000000;stroke-width:1.0;" d="M148.95 404.474 148.05 404.774 147.0 405.676 146.474 408.15 146.924 409.5 148.276 410.474 150.824 411.074 154.65 410.926 158.85 410.1" />
<path id="stroke_28" style="fill:none;stroke:#000000;stroke-width:1.0;" d="M171.526 389.324 170.7 391.35 170.174 394.126 169.876 400.876 170.4 404.176 171.15 406.876 172.2 409.126" />
<path id="stroke_29" style="fill:none;stroke:#000000;stroke-width:1.0;" d="M177.074 392.626 176.324 392.324 175.2 392.926 173.7 394.65 172.5 397.05 171.974 399.9 172.424 402.9 174.074 405.3 176.776 406.95 180.224 407.55 183.75 407.024 186.526 405.75 188.626 403.724 189.9 401.774 190.5 400.05 190.424 398.85 189.974 398.176 189.75 398.25 189.376 398.774 189.15 400.126 189.15 401.85 189.526 403.426 190.424 404.85 191.924 406.05 193.5 406.35 195.45 405.9 197.026 404.85 199.05 402.224 199.724 400.876 200.25 403.426 201.074 404.4 202.2 405.15 203.55 405.3 206.1 404.25 207.6 403.05 207.75 402.974 207.824 403.274 208.05 403.724 208.65 404.176 211.876 404.85 214.126 405.0 219.3 405.0 228.45 404.25 230.924 402.974 232.05 401.474 232.274 400.95 232.2 400.724 232.05 400.65 230.1 402.3 229.65 403.274 229.726 403.876 230.1 404.176 230.924 404.176 232.726 403.2 233.174 403.65 234.524 403.95 240.976 403.426 246.824 404.324 252.9 405.974 255.6 406.426 257.7 406.126 259.2 405.524 260.25 404.7 261.824 403.126" />
<path id="stroke_30" style="fill:none;stroke:#000000;stroke-width:1.0;" d="M237.376 409.65 285.376 409.5 290.626 408.824 290.176 408.224 289.5 407.926 287.474 408.15" />
<path id="stroke_31" style="fill:none;stroke:#000000;stroke-width:1.0;" d="M273.524 413.626 273.75 413.176 274.2 412.876" />
<path id="stroke_32" style="fill:none;stroke:#000000;stroke-width:1.0;" d="M277.126 414.524 277.126 414.524" />
<path id="stroke_33" style="fill:none;stroke:#000000;stroke-width:1.0;" d="M56.25 439.65 55.95 440.626 55.876 442.35 55.95 448.274 55.65 449.626 55.574 447.376 56.1 440.626 56.924 437.7 58.574 435.0 58.876 435.074 59.7 437.4 61.2 443.024 61.95 443.474 62.85 443.1 64.35 441.224 68.25 434.774 68.7 434.55 70.05 438.676 70.5 444.15 71.55 446.7" />
<path id="stroke_34" style="fill:none;stroke:#000000;stroke-width:1.0;" d="M79.126 447.9 78.75 447.524 78.674 447.6" />
<path id="stroke_35" style="fill:none;stroke:#000000;stroke-width:1.0;" d="M88.424 436.05 88.424 436.126 89.1 441.3 90.826 447.0 92.024 448.95 93.15 449.626 94.35 449.176 95.924 447.45 99.0 441.15 100.424 437.474" />
<path id="stroke_36" style="fill:none;stroke:#000000;stroke-width:1.0;" d="M98.7 448.8 99.076 448.426 100.424 447.376 101.024 447.224 101.774 447.15 101.774 447.15" />
<path id="stroke_37" style="fill:none;stroke:#000000;stroke-width:1.0;" d="M100.35 448.2 100.724 447.676 102.0 446.774 104.25 445.05 104.4 446.1 104.7 446.7 105.224 447.074 106.274 447.074 107.25 446.85 110.174 444.45 110.7 451.05 111.524 458.55 111.826 459.974 111.9 460.274" />
<path id="stroke_38" style="fill:none;stroke:#000000;stroke-width:1.0;" d="M110.1 437.774" />
<path id="stroke_39" style="fill:none;stroke:#000000;stroke-width:1.0;" d="M109.576 437.7 109.576 437.926" />
<path id="stroke_40" style="fill:none;stroke:#000000;stroke-width:1.0;" d="M120.524 440.626 118.8 441.9 117.524 444.074 117.6 444.75" />
<path id="stroke_41" style="fill:none;stroke:#000000;stroke-width:1.0;" d="M119.626 444.3 121.65 443.85 126.376 443.324 127.05 442.724 127.274 442.35 127.5 443.85 127.876 444.376 128.7 444.6 132.15 443.55 133.5 442.5 132.974 445.8 133.276 449.774 133.724 451.65 134.474 452.774 135.376 453.376" />
<path id="stroke_42" style="fill:none;stroke:#000000;stroke-width:1.0;" d="M140.25 442.5 140.174 442.426 139.8 442.8 139.2 443.55 138.824 444.45 138.9 445.35 139.5 446.324 140.626 447.074 142.95 447.15 146.174 446.774" />
<path id="stroke_43" style="fill:none;stroke:#000000;stroke-width:1.0;" d="M162.9 432.45 162.9 434.1 163.424 438.376 163.8 440.926 164.25 443.324 164.776 445.2" />
<path id="stroke_44" style="fill:none;stroke:#000000;stroke-width:1.0;" d="M168.526 435.074 165.824 437.324 164.7 438.676 164.25 440.176 164.626 441.45 165.75 442.426 167.474 443.024" />
<path id="stroke_45" style="fill:none;stroke:#000000;stroke-width:1.0;" d="M173.174 441.0 174.824 439.65 175.8 438.224 176.026 437.324 175.876 436.95 175.65 437.024 175.424 437.474 175.5 439.8 176.324 441.15 177.674 441.974 179.1 442.274 180.376 441.824 182.55 439.05 183.75 441.0 184.574 441.676" />
<path id="stroke_46" style="fill:none;stroke:#000000;stroke-width:1.0;" d="M187.35 437.25 187.424 437.4 189.9 441.974 191.7 444.0 192.45 444.15 192.9 443.85 194.4 441.0 194.7 441.524 194.85 441.75 195.074 441.824 197.25 440.85 197.474 440.85 197.776 440.926 198.974 442.05 199.876 442.35 201.45 441.9 203.476 440.85" />
<path id="stroke_47" style="fill:none;stroke:#000000;stroke-width:1.0;" d="M211.35 438.224 211.35 437.774 211.126 437.774 209.1 438.524 207.9 439.5 207.45 440.25 207.226 440.85 207.376 440.926 207.9 440.774 209.7 439.274 212.174 440.774 213.226 441.224 214.05 441.3 214.8 441.0 216.226 439.426 216.674 439.05 217.05 438.974 220.876 440.55 222.674 440.774 224.476 440.774 226.424 440.324 228.376 439.5" />
<path id="stroke_48" style="fill:none;stroke:#000000;stroke-width:1.0;" d="M186.674 450.0 189.224 449.1 202.126 447.524 212.776 446.926 224.924 446.626 255.976 446.25 260.176 445.876 261.0 445.274 260.1 444.9 257.176 445.126" />
<path id="stroke_49" style="fill:none;stroke:#000000;stroke-width:1.0;" d="M225.376 454.35 224.924 453.75 225.45 453.6" />
<path id="stroke_50" style="fill:none;stroke:#000000;stroke-width:1.0;" d="M249.376 452.024 249.45 451.724 249.45 451.65 249.524 451.574 249.524 451.574 249.524 451.574" />
<path gita:vastd="vijay" style="fill:none;stroke:#000000;" d="M300.5,465.202H0.5v-35h300V465.202z"/>
<path gita:vastd="vijay" style="fill:none;stroke:#000000;" d="M300.5,385.401H0.5v-38h300V385.401z"/>
<path gita:vastd="vijay" style="fill:none;stroke:#000000;" d="M300.5,427.302H0.5v-40h300V427.302z"/>
<path gita:vastd="vijay" style="fill:none;stroke:#000000;" d="M300.5,335.5H0.5v-33h300V335.5z"/>
</g></svg>
