<?xml version="1.0" ?>
<svg width="700.0" height="1000.0">
<title>and so on and so forth</title>
<g>
<path id="resampld_plein" style="fill:none;stroke:#aa2222;stroke-width:1;" d="M0.0 150.0 20.93853 150.0 36.263092 181.19183 53.969337 180.96701 127.65999 162.2292 148.63765 138.39778 158.07365 123.72073 172.46767 100.86041 185.96135 115.85915 195.39746 135.00087 204.50542 139.02074 214.99364 134.65892 226.28108 138.14207 257.01572 135.62143 306.75772 142.29749 334.55072 157.69112 345.32434 160.89969 363.1912 169.61913 378.79324 192.3941 391.3712 170.92561 440.22745 164.58575 470.9543 120.08878 481.74066 161.02452 491.5847 165.4521 503.0026 158.2819 531.6838 168.79839 548.8141 157.53975 590.5405 162.54872 614.33905 171.17621 626.3389 131.2266 642.17126 280.17047 699.99994 143.1795" />
<path id="resampld_plein" style="fill:none;stroke:#22aa22;stroke-width:1;" d="M0.0 150.0 8.145493 150.0 15.77174 183.7568 44.099365 182.27533 57.41129 175.70197 69.67636 182.02042 77.813385 172.2338 117.992676 163.00185 142.6623 133.39243 160.42049 108.35927 173.79387 116.9339 188.61665 135.42464 198.74187 120.51082 211.29883 109.32091 246.23325 126.27661 291.18048 141.21219 331.60364 153.84 350.67667 165.1492 361.15793 169.92236 405.10043 222.1489 416.46896 145.45763 445.74084 124.640045 459.80295 187.60881 491.6747 172.6099 510.23273 158.7193 551.48456 159.00899 564.66064 169.49246 576.0859 161.44366 618.0903 249.76666 700.0 145.26283" />
<path id="resampld_plein" style="fill:none;stroke:#2222aa;stroke-width:1;" d="M0.0 150.0 18.374325 150.0 28.437994 162.04517 45.750328 167.42781 54.18148 177.36407 62.6128 169.73975 101.204666 180.91118 110.351974 145.93155 120.401924 137.17616 137.79025 136.17009 145.31975 126.5772 157.51534 127.93257 168.68384 113.62393 187.53667 97.78007 205.87444 130.18239 215.41724 144.55939 235.25922 142.20607 284.3091 138.61557 304.8063 160.58847 322.06842 166.88347 337.02475 181.7926 344.98358 176.5832 354.4096 172.90219 378.91956 156.93628 405.21283 155.45721 437.48987 111.32846 453.17633 173.53986 461.82233 171.81194 471.46378 163.61922 482.34995 162.39395 494.78143 161.27295 508.73053 158.15054 528.09143 159.92267 546.1543 170.68056 555.75824 189.71715 592.5388 182.44911 639.7689 159.99966 666.50433 153.73418 699.9998 153.16655" />
<path id="resampld_plein" style="fill:none;stroke:#aaaa22;stroke-width:1;" d="M0.0 150.0 10.34002 150.0 18.83354 186.26865 47.061867 180.11774 56.275146 180.89815 64.34279 174.20558 78.56947 167.11363 113.53341 172.598 127.36739 133.89697 154.09094 130.22142 171.50497 113.43032 183.94803 116.85474 193.82257 123.79163 211.57426 100.01751 228.82083 136.08504 247.36116 140.73257 301.2735 142.10013 317.99033 161.09184 338.727 169.99042 359.44727 177.02095 374.4152 185.41473 405.36917 170.88196 440.83255 132.5736 459.2867 167.49155 480.3136 173.36964 514.0756 167.25862 536.0642 159.30806 547.57135 163.39268 557.70123 166.22789 572.1309 205.95198 604.3273 194.87614 629.52704 147.64183 661.57605 148.20766 700.0 147.47469" />
<path id="resampld_plein" style="fill:none;stroke:#aa2222;stroke-width:1;" d="M0.0 300.0 54.78481 300.0 85.750046 269.40582 135.1323 254.82953 161.8949 262.4966 187.39172 261.6069 218.96489 259.11865 240.75711 277.98755 298.9258 286.59427 330.49097 406.2403 367.30554 280.76755 399.76584 267.75903 457.96564 269.76517 486.1291 342.64978 495.44006 272.36865 552.26776 295.88168 588.6567 325.0873 620.06085 328.1504 662.9808 228.65237 700.0 304.40533" />
<path id="resampld_plein" style="fill:none;stroke:#22aa22;stroke-width:1;" d="M0.0 300.0 40.30196 300.0 83.29415 262.98425 112.23857 251.2379 141.48222 274.6948 163.20294 258.06793 255.35608 228.55505 315.16696 385.25015 339.0886 286.1948 410.53625 238.50914 457.01526 328.80493 491.79727 332.72754 522.2859 217.80602 561.64655 324.96817 592.9726 327.78418 630.4684 338.13358 658.6735 226.3453 700.0 289.01053" />
<path id="resampld_plein" style="fill:none;stroke:#2222aa;stroke-width:1;" d="M0.0 300.0 30.22091 300.0 63.985695 276.80542 93.40924 270.96036 128.08249 268.81018 161.21931 273.61206 182.64645 266.7745 214.88611 248.67377 247.47592 268.63824 288.03253 278.0833 323.6094 400.38812 341.62103 276.15555 383.23248 236.00781 401.26474 317.70706 453.0073 349.5401 485.1137 220.15558 515.3697 324.89114 553.9022 343.43268 575.816 333.52463 611.51544 215.94559 632.2672 304.10608 681.567 317.87 700.0 331.66403" />
<path id="resampld_plein" style="fill:none;stroke:#aaaa22;stroke-width:1;" d="M0.0 300.0 28.708324 300.0 52.49588 279.54614 78.483345 269.02402 112.6722 266.9035 141.72122 277.82104 162.69447 282.95346 202.20076 231.70337 288.3066 256.48358 319.42548 393.30057 345.67624 277.10016 438.71823 250.60117 466.52274 321.04962 507.2413 340.33224 532.31323 211.5591 588.2638 329.15927 616.0683 318.94952 639.348 320.57043 699.99994 236.07306" />
<path id="resampld_plein" style="fill:none;stroke:#aa2222;stroke-width:1;" d="M0.0 450.0 17.59348 450.0 28.943493 485.78622 50.530823 463.78586 66.77511 479.71616 76.72717 476.96103 89.09943 464.0263 103.26173 457.12848 120.891556 458.45514 139.63649 459.60422 173.87424 462.70898 189.63982 461.8895 203.14307 462.5667 217.30542 469.02527 228.06335 463.69098 242.11736 463.6219 256.47012 462.56525 269.7293 471.78143 283.50934 460.04312 297.67233 461.18478 311.28763 463.8658 324.97302 465.19482 336.29993 461.85327 338.51245 357.84576 348.4378 414.28036 364.48914 460.0559 382.84656 458.03098 401.29608 460.5371 417.92596 461.65417 433.88724 470.42282 450.01486 468.29312 466.42355 467.1145 484.70084 467.1021 504.40143 466.33636 525.9164 463.14505 547.5305 466.34708 562.50464 462.46146 574.46094 471.93875 586.93604 469.6727 598.87976 468.34296 613.0839 464.7789 628.8234 472.23932 647.59094 466.1309 670.42975 461.9956 699.9998 463.29208" />
<path id="resampld_plein" style="fill:none;stroke:#22aa22;stroke-width:1;" d="M0.0 450.0 8.7277 450.0 20.922718 508.19754 39.91866 479.94366 50.716183 463.87204 67.86434 478.4677 78.43732 468.8609 100.73303 467.552 125.18142 469.29324 138.99309 459.59573 155.22766 463.31494 169.37231 458.44147 186.5777 463.85727 206.26875 462.2415 242.49516 464.19418 257.20605 467.2717 270.31906 468.22296 281.91898 467.78595 306.57593 479.19357 331.5889 476.25278 342.1781 468.43283 356.9526 300.78525 370.05167 461.14502 401.35712 463.75787 417.3466 466.77847 432.81107 466.2687 450.8119 465.0797 468.5168 464.78018 487.5893 465.7898 506.13037 464.03503 523.81396 466.56747 540.38306 467.93484 556.8179 470.07675 574.83527 462.65015 592.03265 468.6047 610.2304 466.89206 627.40857 460.95905 641.1713 465.44464 654.6424 475.3864 672.9956 472.71082 700.0 468.19363" />
<path id="resampld_plein" style="fill:none;stroke:#2222aa;stroke-width:1;" d="M0.0 450.0 9.724059 450.0 25.107695 501.04932 34.08122 465.54822 45.425198 458.74118 65.16242 478.0975 78.90894 464.42722 95.143 456.49982 110.42167 462.83505 125.67637 461.77185 156.2888 464.68182 169.61308 464.03796 185.97112 467.79297 203.00307 466.61176 219.61433 458.88852 234.88206 462.59796 247.0949 461.0119 258.48816 467.60684 270.03473 467.29117 281.91165 470.3674 296.64633 463.01862 326.64536 464.63562 337.04007 452.1143 345.5178 304.73755 355.78433 458.92197 370.5633 464.55432 385.83096 456.00085 402.64975 460.6004 417.65146 466.0626 431.51663 470.14206 446.5509 463.80225 463.74924 461.08237 481.4049 460.17856 498.67322 462.19977 515.2967 462.42188 531.97656 466.27347 550.2088 471.28604 569.02435 461.49057 584.5703 461.01422 597.1359 473.2114 611.0536 471.69043 629.07434 457.56754 646.1058 464.89453 661.15454 469.61575 677.4858 477.71204 699.99994 469.71973" />
<path id="resampld_plein" style="fill:none;stroke:#aaaa22;stroke-width:1;" d="M0.0 450.0 21.421858 450.0 32.150948 462.00882 53.17836 464.28082 73.70265 474.68307 96.24338 469.33136 121.207275 464.30258 133.91379 465.07706 148.36087 461.6834 164.7363 465.24353 184.37709 459.52036 203.45721 459.01776 237.73473 461.95248 250.03271 462.32825 268.31467 483.92163 280.3627 479.89258 292.96332 467.32233 327.88535 468.92258 335.6243 329.35522 346.18085 450.0 359.741 457.85895 376.4705 454.8529 391.94803 463.53897 407.90454 466.14258 425.23462 462.9399 441.29736 459.8938 459.62555 461.36508 476.1215 469.4396 490.7759 463.17038 506.61322 469.72757 522.19977 462.0242 540.53284 466.1257 558.48413 459.90054 583.128 467.1204 604.727 484.9088 614.82886 477.09973 627.3613 472.88446 645.62665 471.1095 671.6036 463.12274 699.99994 454.6993" />
<path id="resampld_plein" style="fill:none;stroke:#aa2222;stroke-width:1;" d="M0.0 600.0 62.8702 600.0 158.88264 574.5249 198.98264 585.6011 278.4062 577.4623 337.85312 523.0856 388.18372 564.05835 440.41013 586.48676 559.2221 590.31696 648.385 595.10675 699.99994 663.47363" />
<path id="resampld_plein" style="fill:none;stroke:#22aa22;stroke-width:1;" d="M0.0 600.0 36.460617 600.0 79.923195 558.06396 195.1555 576.8036 237.58719 567.801 287.5923 533.747 335.6718 578.8246 373.66577 589.3639 413.22128 582.49023 453.878 581.7502 550.934 576.73236 655.32684 679.7361 700.0 588.0182" />
<path id="resampld_plein" style="fill:none;stroke:#2222aa;stroke-width:1;" d="M0.0 600.0 51.870895 600.0 122.28247 571.77386 160.87088 582.1947 200.64906 596.961 256.19247 571.49384 302.0461 550.2351 372.64005 551.58875 413.72592 574.0371 505.3303 581.00226 586.27954 586.8469 655.3674 697.19775 700.0 577.0825" />
<path id="resampld_plein" style="fill:none;stroke:#aaaa22;stroke-width:1;" d="M0.0 600.0 57.979572 600.0 113.314674 586.5384 212.052 566.77875 251.63063 559.1195 301.85052 547.02124 398.9633 565.64 503.25012 581.54706 548.3643 589.3559 604.0977 700.6413 699.99994 557.1255" />
<path id="resampld_plein" style="fill:none;stroke:#aa2222;stroke-width:1;" d="M0.0 750.0 13.336271 750.0 55.53092 728.008 75.53269 746.768 94.539986 754.0386 109.41026 752.145 122.856514 759.2271 141.93233 882.4223 163.74323 712.6034 183.59724 739.0937 202.42209 623.64764 245.0805 712.2439 265.33545 731.92566 310.46323 739.5713 340.0272 739.39215 374.69638 613.4302 389.5803 731.4025 400.8208 732.4294 411.27063 702.3641 425.70895 699.093 447.20447 740.4025 541.4797 741.0069 553.0757 760.6582 565.50525 828.2084 592.60406 792.4735 661.16125 625.7052 700.00006 750.0" />
<path id="resampld_plein" style="fill:none;stroke:#22aa22;stroke-width:1;" d="M0.0 750.0 36.2654 750.0 54.38764 741.32336 73.32371 750.1874 89.05109 751.6875 103.517586 741.445 115.93354 887.76337 131.64174 733.97125 152.0078 693.7689 164.69849 676.583 191.37312 702.2427 210.239 736.0963 228.625 734.61597 264.99487 738.941 285.93124 729.87103 303.3104 625.42114 329.48773 723.6856 343.1942 725.4637 356.92105 671.44244 371.0704 721.47754 408.00745 741.4099 429.6136 758.9275 450.09464 762.8008 471.8079 764.7774 487.98062 764.4161 502.0305 780.00287 516.2526 778.6416 533.69775 775.8389 553.3802 772.2743 566.33356 762.718 588.79913 872.5818 615.49335 772.28357 647.6976 763.38184 679.2031 757.32196 700.0 763.2837" />
<path id="resampld_plein" style="fill:none;stroke:#2222aa;stroke-width:1;" d="M0.0 750.0 25.53838 750.0 98.77339 738.91266 117.54965 760.70984 130.3666 897.18646 141.58366 723.711 160.35744 724.09564 170.10352 725.6105 203.63133 630.5604 239.6674 720.383 257.1406 737.3226 290.548 728.8166 311.9774 726.7276 334.61923 639.3406 347.9467 723.25574 368.47757 733.676 384.0546 690.3976 398.03476 715.7566 416.74414 738.3912 436.5752 738.5125 490.8459 733.5685 501.0188 760.9127 511.5135 765.0332 522.22534 771.7243 532.2979 770.1381 543.6679 766.479 554.1626 770.19836 564.55176 776.3625 566.92413 786.3546 582.5012 892.1875 610.45605 767.16754 680.5121 757.66705 700.0 753.9345" />
<path id="resampld_plein" style="fill:none;stroke:#aaaa22;stroke-width:1;" d="M0.0 750.0 13.517324 750.0 114.15224 690.5982 136.93594 762.09064 158.50467 878.6973 178.65521 739.13275 196.16003 723.946 212.01546 682.6338 226.58478 687.4542 268.99313 715.7693 311.57254 730.03516 354.52032 729.5605 370.39484 730.17426 386.10217 719.158 410.16443 648.9241 426.04297 724.7058 447.97153 728.62146 539.8189 646.96735 575.6346 758.5301 606.9921 756.6864 644.5223 772.9383 684.00696 823.9701 699.9999 784.88135" />
<path id="resampld_plein" style="fill:none;stroke:#aa2222;stroke-width:1;" d="M0.0 900.0 173.0454 900.0 482.85126 897.9058 573.27106 899.78827 639.8108 1055.054 700.0 907.5749" />
<path id="resampld_plein" style="fill:none;stroke:#22aa22;stroke-width:1;" d="M0.0 900.0 206.52588 900.0 557.35236 897.46674 605.96704 888.47986 700.0 768.24023" />
<path id="resampld_plein" style="fill:none;stroke:#2222aa;stroke-width:1;" d="M0.0 900.0 189.96053 900.0 382.63397 897.8088 553.0711 897.825 662.48193 895.793 700.0 895.811" />
<path id="resampld_plein" style="fill:none;stroke:#aaaa22;stroke-width:1;" d="M0.0 900.0 224.22244 900.0 446.38657 898.90765 673.4885 898.9264 700.0 1054.2407" />
</g></svg>