<?xml version="1.0" ?>
<svg width="444" height="300.0" xmlns:gita="http://ns.gita.org/gita-ns-1.0" xmlns:f="http://ns.gita.org/feature-ns-1.0">
<title>anoto dump, pen 00000064000029fa, paper 44.0.3.8</title>
<g>
<path id="stroke_0" style="fill:none;stroke:#000000;stroke-width:1.0;" d="M44.174 37.726 43.274 37.95 42.9 38.4 42.9 39.6 43.126 39.824 43.726 39.75 43.95 39.674 45.226 38.4 45.3 38.324 45.45 37.726 45.376 37.574 45.3 37.35 45.226 37.2 44.626 36.976 44.4 36.976 44.25 36.9 43.5 37.574 43.05 38.324 42.976 38.774 43.574 39.976 44.25 39.824 44.25 39.75 44.324 39.674 44.324 39.674 44.324 39.6 44.324 39.6" />
<path id="stroke_1" style="fill:none;stroke:#000000;stroke-width:1.0;" d="M55.876 36.75 55.274 37.05 55.2 37.274 55.126 37.5 55.05 37.65 54.824 39.6 55.274 40.05 56.324 40.35 56.7 40.424 58.2 39.824 58.5 39.45 58.724 39.226 58.876 39.074 58.95 38.924 59.024 38.85 59.1 38.7 59.174 37.8 59.024 37.274 58.95 37.126 58.876 36.976 58.8 36.9 58.35 36.6 58.2 36.6 58.126 36.6 56.924 36.9 56.7 36.976" />
<path id="stroke_2" style="fill:none;stroke:#000000;stroke-width:1.0;" d="M71.7 36.6 70.724 38.1 70.5 39.45 70.65 40.35 71.7 42.226 74.25 42.824 74.55 42.75 76.424 41.774 77.4 40.726 77.474 37.8 75.524 36.3 74.626 36.15 74.25 36.0 74.1 35.924 73.35 36.226 72.9 36.524" />
<path id="stroke_3" style="fill:none;stroke:#000000;stroke-width:1.0;" d="M95.326 35.25 93.974 35.476 93.75 35.55 93.45 35.7 92.4 36.45 91.5 37.5 90.45 40.2 90.674 43.05 90.9 43.95 90.974 44.174 91.126 44.324 94.424 47.024 95.626 47.476 95.85 47.55 97.35 47.4 100.126 46.574 101.85 45.15 101.85 41.024 100.95 38.324 100.424 38.024 100.2 37.876 98.924 36.074 98.924 36.0 97.65 35.626 95.774 35.174 95.4 35.324 95.024 35.626" />
<path id="stroke_4" style="fill:none;stroke:#000000;stroke-width:1.0;" d="M112.274 35.85 111.6 36.0 111.3 36.15 110.1 37.05 107.774 40.05 107.024 42.226 106.65 45.074 107.024 46.876 110.024 50.174 111.826 51.0 113.174 51.226 115.05 51.15 116.774 50.55 119.474 48.75 121.05 47.1 122.1 45.376 122.4 44.324 122.55 43.8 122.4 42.0 122.024 40.876 121.65 39.6 120.224 37.95 118.724 36.976 116.7 36.524 116.1 36.226 115.95 36.074 115.65 36.0 115.424 35.774 115.274 35.774" />
<path id="stroke_5" style="fill:none;stroke:#000000;stroke-width:1.0;" d="M150.376 36.0 149.25 36.0 148.65 36.226 147.674 36.824 144.824 39.524 142.574 42.824 140.626 47.626 140.55 48.75 141.0 50.476 142.126 52.274 143.7 53.924 145.2 54.976 146.026 55.35 147.224 55.726 150.0 55.65 153.9 54.524 157.95 52.574 161.174 49.5 161.626 48.0 161.776 45.75 161.55 43.8 161.25 42.226 160.5 39.824 159.526 38.024 157.574 36.074 156.974 35.85 156.6 35.7 156.074 35.55 155.85 35.476 155.626 35.4 155.324 35.324 153.824 35.324 152.776 35.7 152.474 35.7" />
<path id="stroke_6" style="fill:none;stroke:#000000;stroke-width:1.0;" d="M198.674 37.05 196.65 37.274 192.0 38.7 190.876 39.074 187.876 40.876 185.1 44.324 181.424 51.3 180.824 54.824 181.424 57.3 181.65 57.974 183.526 60.974 185.55 62.924 187.276 63.9 189.376 64.576 192.0 64.724 196.65 63.974 199.65 62.774 203.174 60.6 205.8 58.274 207.6 56.174 208.65 54.0 209.626 48.226 208.876 44.1 207.976 40.35 206.174 38.174 205.65 37.726 205.35 37.574 200.476 36.75 199.5 36.824 199.2 36.976" />
<path id="stroke_7" style="fill:none;stroke:#000000;stroke-width:1.0;" d="M241.95 38.1 238.726 38.85 236.7 39.976 234.674 41.626 229.424 48.15 228.15 49.876 226.95 51.674 224.25 56.476 221.25 65.924 220.574 70.126 220.65 71.4 221.174 74.55 222.15 76.424 223.424 77.924 226.276 80.174 231.226 83.474 233.324 84.15 234.524 84.45 240.6 84.376 247.126 83.626 250.424 82.274 253.65 80.4 256.5 77.7 260.1 72.75 261.75 69.224 262.426 67.126 263.324 61.95 262.65 57.15 260.85 51.0 258.0 44.85 255.976 42.6 253.95 41.476 250.5 40.05 245.924 39.45 245.774 39.074 245.774 39.0 245.626 38.85 245.55 39.0" />
<path id="stroke_8" style="fill:none;stroke:#000000;stroke-width:1.0;" d="M312.3 38.024 308.926 38.25 307.35 38.55 303.15 40.5 301.724 41.626 298.5 44.7 294.45 49.65 290.926 54.976 288.376 60.0 286.426 66.75 285.376 72.3 285.224 74.1 285.15 75.826 285.376 77.174 286.8 81.376 288.9 84.674 291.676 87.6 293.926 89.1 296.7 90.45 302.1 92.174 310.2 93.826 316.876 93.674 322.126 92.326 326.626 90.076 330.9 87.3 335.4 82.95 338.1 78.3 341.25 70.35 341.626 67.8 341.626 63.974 340.876 57.524 338.85 52.95 336.75 50.324 333.974 45.6 331.65 43.8 326.85 41.024 324.224 38.774 317.474 39.226 317.25 39.074 316.8 39.074 316.2 39.3 315.75 39.674 315.524 39.824" />
<path id="stroke_9" style="fill:none;stroke:#000000;stroke-width:1.0;" d="M51.9 117.674 50.924 117.376 50.4 117.3 50.024 117.224 48.976 117.224 48.226 117.45 43.2 120.224 39.6 123.0 37.95 124.65 34.65 128.4 32.476 131.776 30.15 137.324 29.174 140.55 27.224 149.85 26.4 156.526 26.4 161.7 27.15 167.026 27.974 169.65 30.3 175.724 33.226 181.126 34.95 183.3 38.85 186.9 42.45 189.0 49.95 192.45 58.5 194.7 63.974 195.45 65.1 195.674 69.15 195.974 77.924 194.776 87.974 191.026 91.274 189.074 94.424 186.75 97.05 183.074 97.2 182.85 98.924 179.626 101.626 172.424 103.274 161.324 103.424 156.674 102.75 147.3 101.7 142.8 99.826 138.224 94.2 129.45 91.126 126.15 87.376 122.924 80.4 118.2 76.8 116.474 71.024 114.674 64.2 113.774 56.7 114.974 53.774 114.9 52.876 115.2 52.65 115.2 48.376 118.05 48.376 117.974 48.3 117.974" />
<path id="stroke_10" style="fill:none;stroke:#000000;stroke-width:1.0;" d="M170.25 113.1 167.626 113.474 166.2 113.774 162.974 115.126 162.15 115.424 153.224 122.774 148.424 127.574 143.626 133.876 135.824 146.7 131.924 158.85 129.45 168.6 127.2 182.25 126.9 186.224 126.9 195.45 127.724 202.876 130.05 211.95 132.376 217.276 134.25 220.35 139.05 225.976 151.2 234.15 159.526 239.024 161.25 239.924 175.2 244.574 187.876 247.574 194.55 248.7 203.776 249.074 210.9 249.15 218.324 248.476 227.55 246.674 234.674 244.35 238.95 242.476 244.274 239.174 245.174 238.574 252.226 234.6 253.876 233.324 262.574 224.1 266.474 218.55 267.75 216.15 272.024 203.924 275.25 192.526 277.05 180.674 276.3 169.35 275.7 166.276 275.474 162.9 273.524 153.6 272.25 150.45 269.176 144.224 267.3 141.3 261.45 133.574 258.75 130.65 255.9 127.8 249.674 122.55 242.774 119.1 226.126 112.5 222.0 112.05 215.25 110.55 211.126 109.95 202.05 109.5 199.8 109.65 191.174 110.474 186.674 111.9 185.174 112.424 183.674 112.724 181.2 112.724 179.474 112.35 175.8 112.35 171.9 113.1 170.55 113.55 170.55 113.55" />
</g></svg>
