<?xml version="1.0" ?>
<svg width="300.0" height="400.0">
<title>anoto dump, pen 00000064000029fa, paper 44.0.3.8</title>
<g>
<path id="stroke_0" style="fill:none;stroke:#000000;stroke-width:1.0;" d="M390.074 563.174 389.85 563.024 389.85 563.024 389.926 563.4 389.926 563.476 390.074 563.55 390.074 563.55 390.15 563.55 390.15 563.55 390.15 563.55 390.15 563.55 390.15 563.55 390.15 563.55 390.15 563.55 390.15 563.55 390.15 563.55 390.15 563.55 390.15 563.55 390.15 563.55 390.15 563.55 390.15 563.55 390.15 563.55 390.15 563.55 390.15 563.55 390.15 563.476 390.074 563.476 390.074 563.476" />
<path id="stroke_1" style="fill:none;stroke:#000000;stroke-width:1.0;" d="M390.15 563.476 390.15 563.476 390.15 563.476 392.024 566.174 393.074 567.226 392.7 566.85 392.55 566.55" />
<path id="stroke_2" style="fill:none;stroke:#000000;stroke-width:1.0;" d="M44.924 292.274 45.15 291.75 45.15 291.9 45.226 291.824 45.3 291.824 45.3 291.824 45.3 292.05 45.3 292.05 45.3 291.974" />
<path id="stroke_3" style="fill:none;stroke:#000000;stroke-width:1.0;" d="M61.35 283.274 61.424 282.75 61.65 282.6 61.724 282.6 61.724 282.6 61.724 282.676 61.724 283.05 61.65 283.2" />
<path id="stroke_4" style="fill:none;stroke:#000000;stroke-width:1.0;" d="M78.376 280.126 78.45 280.05 78.524 279.974 78.524 279.974 78.524 279.974 78.524 280.05 78.45 280.126 78.376 280.2" />
<path id="stroke_5" style="fill:none;stroke:#000000;stroke-width:1.0;" d="M104.1 317.85 104.024 318.3 103.95 318.45 103.95 318.376 103.8 318.45" />
<path id="stroke_6" style="fill:none;stroke:#000000;stroke-width:1.0;" d="M150.3 289.574 149.776 289.95 149.474 289.95 149.4 290.024 149.4 290.1 149.4 290.1 149.55 290.024 150.074 290.25 150.224 290.474" />
<path id="stroke_7" style="fill:none;stroke:#000000;stroke-width:1.0;" d="M134.25 296.626 134.324 297.376 134.324 297.75 134.324 297.75 134.324 297.75 134.25 297.6 134.174 297.6 134.1 297.6" />
<path id="stroke_8" style="fill:none;stroke:#000000;stroke-width:1.0;" d="M169.574 288.974 169.35 289.274 169.424 289.274 169.8 289.35 170.174 289.35 170.324 289.5 170.324 289.574 170.174 289.724 170.25 289.35 170.324 289.574 170.25 289.574 170.25 289.574" />
<path id="stroke_9" style="fill:none;stroke:#000000;stroke-width:1.0;" d="M180.376 278.25 180.45 278.25 180.224 278.55 180.376 278.4 180.15 278.474" />
<path id="stroke_10" style="fill:none;stroke:#000000;stroke-width:1.0;" d="M211.05 270.45 210.9 270.75 210.9 270.75 210.9 270.75 211.35 270.6 211.276 270.676 211.2 270.676" />
<path id="stroke_11" style="fill:none;stroke:#000000;stroke-width:1.0;" d="M227.85 266.324 228.0 266.25 230.4 265.8 230.324 266.1 229.876 266.626 229.424 266.85 228.9 266.474 228.976 265.876 229.2 265.574 229.65 265.95 229.726 265.95" />
<path id="stroke_12" style="fill:none;stroke:#000000;stroke-width:1.0;" d="M242.324 289.2 241.65 289.876 241.574 289.876 241.574 289.95 241.574 289.95 241.574 289.876 241.8 289.8 242.4 289.574 242.85 289.65 243.15 290.1 243.074 290.55 243.0 290.626 243.0 290.626 243.0 290.626 243.074 290.474 242.924 290.024" />
<path id="stroke_13" style="fill:none;stroke:#000000;stroke-width:1.0;" d="M270.974 289.95 269.626 290.4 268.574 290.4 267.224 291.3 267.224 291.224 267.45 291.074 267.6 291.0 268.05 291.0 269.626 291.376 270.15 291.6 270.074 291.224 270.0 291.224 270.0 291.3" />
<path id="stroke_14" style="fill:none;stroke:#000000;stroke-width:1.0;" d="M283.65 283.574 281.324 282.376 283.274 282.824" />
<path id="stroke_15" style="fill:none;stroke:#000000;stroke-width:1.0;" d="M284.25 284.176 283.426 285.376 282.676 285.524 282.75 285.376 282.9 285.376" />
<path id="stroke_16" style="fill:none;stroke:#000000;stroke-width:1.0;" d="M345.75 309.0 345.524 310.2 345.6 310.65 345.676 310.8 345.676 310.876 345.676 310.876 345.75 310.724 345.676 311.024 345.75 311.55 345.824 312.45 345.824 313.05 345.75 313.126 345.676 313.126 345.524 312.824 345.45 312.676 345.376 312.45 345.524 311.4 345.524 311.774 345.524 311.774 345.45 311.626" />
<path id="stroke_17" style="fill:none;stroke:#000000;stroke-width:1.0;" d="M361.126 301.05 361.65 301.05 361.574 301.05 361.574 301.05 361.5 301.2 361.426 301.274" />
<path id="stroke_18" style="fill:none;stroke:#000000;stroke-width:1.0;" d="M373.876 320.324 374.024 320.474 373.95 320.4 373.95 320.324 373.95 320.324" />
<path id="stroke_19" style="fill:none;stroke:#000000;stroke-width:1.0;" d="M375.3 320.926 375.15 321.224 374.85 321.6 374.176 321.824 373.876 321.75 373.426 320.4 373.426 320.1 373.65 319.8 374.024 320.474 374.024 320.324" />
<path id="stroke_20" style="fill:none;stroke:#000000;stroke-width:1.0;" d="M386.85 323.774 386.474 324.224 386.1 324.45 385.8 324.45 385.724 323.474 386.024 322.574 386.626 321.9 386.926 323.4 386.474 325.126 386.474 324.376 386.926 323.324 386.926 323.324 386.926 323.474 387.0 323.7" />
<path id="stroke_21" style="fill:none;stroke:#000000;stroke-width:1.0;" d="M391.35 305.774 390.974 307.2 390.676 307.724 390.376 308.024 390.15 308.024 390.15 307.574 390.6 306.3 391.126 305.926 391.274 305.926 390.974 307.274 390.824 307.35 390.9 307.2" />
<path id="stroke_22" style="fill:none;stroke:#000000;stroke-width:1.0;" d="M393.9 335.55 393.6 335.55 393.45 335.25 393.224 334.574 393.6 333.9" />
<path id="stroke_23" style="fill:none;stroke:#000000;stroke-width:1.0;" d="M395.85 333.824 395.626 334.274 394.95 334.876 394.876 334.8 395.176 334.65" />
<path id="stroke_24" style="fill:none;stroke:#000000;stroke-width:1.0;" d="M383.626 400.05 383.7 399.974 383.926 399.6 384.3 398.774 384.45 398.55" />
<path id="stroke_25" style="fill:none;stroke:#000000;stroke-width:1.0;" d="M384.9 399.524 384.6 401.324 384.6 400.426 384.6 400.65" />
<path id="stroke_26" style="fill:none;stroke:#000000;stroke-width:1.0;" d="M355.426 386.176 355.274 386.1 354.676 386.1 354.524 386.25 354.524 386.176 354.6 386.176" />
<path id="stroke_27" style="fill:none;stroke:#000000;stroke-width:1.0;" d="M347.4 373.95 347.4 374.176 347.324 374.176 347.324 374.176 347.176 374.1 347.024 374.024 346.95 374.024" />
<path id="stroke_28" style="fill:none;stroke:#000000;stroke-width:1.0;" d="M355.724 316.05 355.724 316.05 355.65 316.126 355.574 316.126 355.5 316.126 355.426 316.126 355.426 316.126 355.426 315.974 355.5 315.6 355.65 315.074 355.8 314.626 355.876 314.324 355.95 314.324 355.8 314.774 355.65 315.074 355.5 315.224 354.974 315.074 354.824 315.074 354.75 315.074 354.75 315.074 355.05 315.224" />
<path id="stroke_29" style="fill:none;stroke:#000000;stroke-width:1.0;" d="M325.05 308.55 325.05 308.176 325.05 307.95 325.426 307.5 326.7 306.376 327.0 306.224 327.0 306.6 327.074 307.5 326.7 308.55 326.4 308.926 326.324 308.1 326.024 307.426 325.95 307.274 325.95 307.8 325.95 307.876 325.95 307.876" />
<path id="stroke_30" style="fill:none;stroke:#000000;stroke-width:1.0;" d="M318.676 293.1 318.676 291.9 318.75 289.95 318.9 289.5 318.9 289.5 318.6 291.15 318.524 289.574 318.9 289.274 319.126 289.574 318.524 291.0 318.6 290.926 318.9 290.1 319.426 289.426" />
<path id="stroke_31" style="fill:none;stroke:#000000;stroke-width:1.0;" d="M292.8 309.9 292.724 309.824 292.8 309.75 295.274 308.1 294.0 309.45 292.95 309.676 292.8 309.074 293.176 309.676 293.25 309.974 293.324 310.126" />
<path id="stroke_32" style="fill:none;stroke:#000000;stroke-width:1.0;" d="M246.074 298.8 245.324 299.324 244.95 298.876 244.574 298.724 243.9 298.35 241.8 297.75 241.726 297.676 243.524 298.574 244.05 298.95 244.274 299.55 243.9 298.35 243.75 298.2 243.15 298.426 243.0 298.65 242.924 298.724 242.924 298.8 242.924 298.2 242.85 297.974 242.924 297.824 243.15 297.676" />
<path id="stroke_33" style="fill:none;stroke:#000000;stroke-width:1.0;" d="M230.174 295.876 229.8 296.024 229.8 295.95 229.95 296.024 229.95 296.024" />
<path id="stroke_34" style="fill:none;stroke:#000000;stroke-width:1.0;" d="M229.574 297.824 229.35 297.224 229.2 296.7 229.2 296.25 229.35 296.024 229.5 295.876 229.726 296.25 229.8 296.176" />
</g></svg>
