<?xml version="1.0" ?>
<svg width="400.0" height="600.0" xmlns:gita="http://ns.gita.org/gita-ns-1.0" xmlns:f="http://ns.gita.org/feature-ns-1.0">
<title>anoto dump, pen 00000064000029fa, paper 44.0.3.8</title>
<g>
<path id="stroke_0" style="fill:none;stroke:#000000;stroke-width:1.0;" d="M18.676 431.85 18.75 431.85 18.75 431.926 18.75 431.926 18.676 432.0 18.676 432.0 18.75 432.0 18.75 432.0 18.824 432.074 18.824 432.074 18.824 432.15 18.9 432.15 18.9 432.224 18.9 432.3 18.974 432.3 18.974 432.376 18.974 432.376 18.974 432.376 18.974 432.376 19.05 432.376 19.05 432.376 19.05 432.376 19.05 432.376 19.05 432.376 19.05 432.45 18.974 432.45 18.974 432.45 19.05 432.45 19.126 432.45 19.126 432.45 18.974 432.676 19.05 433.2 18.974 433.65 19.05 433.724 19.05 433.876 19.05 433.95 19.05 433.95 19.05 433.95 19.126 433.95 19.126 433.95 19.126 433.95 19.126 434.024 19.126 434.024 19.126 433.724 21.3 433.574 21.376 432.676 20.774 432.074 20.85 432.074 19.274 432.3 18.9 432.524 18.9 432.45 19.05 432.45 19.5 432.6" />
<path id="stroke_1" style="fill:none;stroke:#000000;stroke-width:1.0;" d="M29.326 431.176 29.25 431.1 29.25 431.25 29.25 432.224 29.25 432.9 29.1 433.8 29.024 434.25 29.024 434.474 29.024 434.774 29.024 435.074 28.95 435.3 28.95 435.3 28.95 435.3 28.95 435.3 29.1 435.0 29.474 434.85 29.924 434.7 31.424 435.074 31.724 434.926 32.024 434.4 32.1 434.1 32.25 433.274 32.1 431.85 32.25 430.8 32.324 430.724 29.25 431.324 28.876 431.024 28.8 431.024 29.024 431.25" />
<path id="stroke_2" style="fill:none;stroke:#000000;stroke-width:1.0;" d="M38.55 430.35 38.476 430.35 38.4 430.35 38.4 430.35 38.324 430.35 38.324 430.274 38.25 430.574 37.65 435.6 37.574 438.074 37.8 438.074 38.024 437.774 47.25 437.7 47.924 431.4 47.774 430.35 47.774 430.274 46.574 430.65 44.626 430.574 44.4 430.426 43.8 430.274 41.85 430.274 39.074 429.6 38.7 429.676 38.774 429.75 39.376 429.9" />
<path id="stroke_3" style="fill:none;stroke:#000000;stroke-width:1.0;" d="M59.626 435.3 59.024 440.25 57.824 444.824 57.6 446.774 57.9 446.474 60.674 446.4 67.05 446.626 69.3 447.376 73.5 447.376 76.576 447.9 77.174 448.274 77.474 448.426 77.55 448.5 77.626 448.426 77.4 447.9 76.95 445.65 78.224 428.85 72.6 430.426 64.5 429.9 61.424 430.126 60.9 429.824 60.074 430.05 60.074 430.05 60.074 430.126 60.074 430.05 60.224 430.126" />
<path id="stroke_4" style="fill:none;stroke:#000000;stroke-width:1.0;" d="M98.474 430.274 96.376 447.376 95.326 459.6 95.55 460.95 95.85 460.35 100.274 459.0 103.8 459.3 110.85 458.4 114.9 458.176 119.174 458.474 123.6 458.25 123.376 458.1 123.074 456.074 121.274 439.426 121.424 429.15 121.126 427.65 118.876 428.024 116.7 429.0 113.1 429.9 108.076 429.676 104.474 429.824 102.376 430.2 100.35 431.25 99.826 430.95 99.826 430.95 97.5 430.724 97.8 430.876 97.876 430.95" />
<path id="stroke_5" style="fill:none;stroke:#000000;stroke-width:1.0;" d="M150.526 428.774 150.3 428.7 150.3 428.926 148.876 450.224 148.276 475.05 148.276 477.9 151.276 477.376 154.2 476.4 158.55 475.8 180.974 477.674 186.974 478.424 195.0 478.05 206.924 476.474 207.0 476.1 207.074 475.65 206.776 473.4 207.15 461.55 206.85 456.0 207.074 449.774 206.85 439.274 205.65 425.176 204.15 422.7 204.074 422.7 197.174 424.5 188.25 425.774 184.424 425.926 175.2 425.176 158.026 426.15 155.7 426.6 145.126 427.65" />
<path id="stroke_6" style="fill:none;stroke:#000000;stroke-width:1.0;" d="M250.876 432.75 247.95 444.0 243.45 468.6 240.976 484.574 239.7 494.626 238.2 501.824 238.35 503.024 238.424 502.95 243.0 503.7 248.024 503.774 254.4 504.3 260.474 503.7 265.574 502.424 268.2 502.05 279.224 500.924 287.55 500.324 296.176 500.25 300.75 499.8 305.25 499.724 322.95 499.95 332.85 500.4 340.724 501.15 350.1 502.65 356.474 503.25 359.626 503.174 359.324 502.8 363.3 486.9 364.574 478.876 364.5 473.7 364.876 468.3 364.35 458.024 364.8 449.474 367.2 439.05 369.6 432.0 371.7 423.074 371.926 421.8 373.8 414.824 372.45 414.6 365.474 414.9 354.3 414.676 345.376 413.85 336.6 413.7 318.224 412.65 306.074 413.25 295.05 414.3 291.6 415.2 286.5 415.8 267.676 416.774 262.426 417.75 258.6 418.95 258.3 419.55 252.9 420.45 250.8 421.2 250.876 421.274 250.876 421.274 251.1 421.274" />
<path id="stroke_7" style="fill:none;stroke:#000000;stroke-width:1.0;" d="M21.6 505.2 21.524 513.15 22.2 524.626 24.376 537.75 26.176 544.126 27.974 554.774 28.724 562.35 28.65 565.35 28.95 567.074 29.024 567.226 29.024 567.226 40.35 568.126 51.0 567.976 63.376 568.274 69.9 567.824 91.65 567.376 109.424 565.8 114.974 565.65 132.974 563.55 138.6 563.476 149.626 563.85 157.65 564.524 167.924 564.3 175.35 564.9 180.224 564.976 190.876 566.024 195.9 566.024 200.026 565.65 202.2 564.9 202.574 551.7 202.2 542.4 202.126 540.674 202.05 536.1 201.45 530.174 201.3 514.424 200.324 496.876 199.8 493.8 199.65 488.4 198.526 482.924 189.224 483.224 184.724 483.074 177.75 483.974 167.626 484.2 158.174 483.524 152.924 482.85 136.424 482.174 135.074 481.8 126.9 480.974 116.924 480.974 112.65 480.524 107.774 480.674 93.9 480.224 79.35 481.2 68.25 481.274 39.15 483.9 28.95 483.15 22.126 483.974 22.126 483.9 22.05 483.9 22.126 483.9 22.05 483.974 22.05 484.05" />
</g></svg>
