<?xml version="1.0" ?>
<svg width="263.85" height="272.474" xmlns:gita="http://ns.gita.org/gita-ns-1.0" xmlns:f="http://ns.gita.org/feature-ns-1.0">
<title>anoto dump, pen 00000064000029fa, paper 44.0.3.8</title>
<g>
<path id="stroke_0" style="fill:none;stroke:#000000;stroke-width:1.0;" d="M24.45 269.1 24.524 269.1 31.274 254.626 42.376 235.424 42.6 234.376 42.45 234.524 42.376 234.524" />
<path id="stroke_1" style="fill:none;stroke:#000000;stroke-width:1.0;" d="M39.524 269.024 39.6 269.024 39.674 269.1 39.674 269.176 39.75 269.176 39.75 269.176 39.976 269.1 41.1 267.376 47.174 256.2 51.9 249.15 56.55 242.774 67.8 229.35 67.724 229.424 67.65 229.5" />
<path id="stroke_2" style="fill:none;stroke:#000000;stroke-width:1.0;" d="M64.274 270.0 64.05 270.224 64.576 269.85 68.174 257.926 71.024 250.2 79.05 233.1 79.724 231.15 79.8 230.1 79.724 230.25 79.65 230.4" />
<path id="stroke_3" style="fill:none;stroke:#000000;stroke-width:1.0;" d="M78.15 272.474 78.674 272.176 79.274 271.35 83.85 259.05 86.4 252.9 96.224 231.524 96.974 229.35 96.9 229.424 96.674 229.876" />
<path id="stroke_4" style="fill:none;stroke:#000000;stroke-width:1.0;" d="M96.9 263.024 97.274 263.324 98.1 262.126 99.674 259.5 105.3 249.226 109.424 242.476 118.126 231.524 121.724 227.4 125.85 223.276 126.074 222.75 126.0 222.824 125.85 222.9" />
<path id="stroke_5" style="fill:none;stroke:#000000;stroke-width:1.0;" d="M128.474 248.7 128.55 248.7 129.376 247.876 133.05 240.9 139.8 229.726 143.1 225.15 146.1 221.626 148.574 219.0 150.824 217.126 150.674 217.35 150.45 217.65 150.224 217.8" />
<path id="stroke_6" style="fill:none;stroke:#000000;stroke-width:1.0;" d="M141.824 250.274 141.6 250.65 141.75 251.174 141.9 251.4 142.65 250.35 150.3 236.174 153.974 230.85 157.424 226.126 160.65 222.15 166.65 216.074 165.9 216.824" />
<path id="stroke_7" style="fill:none;stroke:#000000;stroke-width:1.0;" d="M156.074 252.15 155.85 252.6 155.4 253.2 155.4 253.2 155.324 253.2 155.4 252.976 159.6 244.574 165.376 234.45 168.674 229.574 179.026 216.6 178.8 216.75 178.5 216.976" />
<path id="stroke_8" style="fill:none;stroke:#000000;stroke-width:1.0;" d="M167.776 257.474 167.776 257.55 167.776 257.55 169.574 254.024 171.674 248.924 177.9 236.774 185.1 225.75 193.8 215.1 193.424 215.55" />
<path id="stroke_9" style="fill:none;stroke:#000000;stroke-width:1.0;" d="M182.626 260.85 183.15 260.4 186.376 252.6 189.45 246.45 197.25 232.8 208.726 216.9 208.424 217.276" />
<path id="stroke_10" style="fill:none;stroke:#000000;stroke-width:1.0;" d="M196.424 256.95 196.65 257.25 196.876 256.876 197.324 256.2 200.174 249.674 207.6 236.024 212.324 228.15 220.424 217.5 224.174 213.226 223.876 213.226 223.65 213.526 223.35 213.976" />
<path id="stroke_11" style="fill:none;stroke:#000000;stroke-width:1.0;" d="M206.626 254.324 206.55 254.55 207.15 254.324 208.5 252.074 214.876 239.85 219.15 233.4 223.276 227.924 227.174 223.2 232.876 217.35 232.424 217.8 231.976 218.476 231.3 220.126" />
<path id="stroke_12" style="fill:none;stroke:#000000;stroke-width:1.0;" d="M222.226 249.9 222.15 250.05 227.174 239.774 230.324 234.0 234.15 227.924 238.424 222.074 242.55 217.2 249.226 209.85 248.174 211.95" />
<path id="stroke_13" style="fill:none;stroke:#000000;stroke-width:1.0;" d="M239.25 240.75 239.324 240.674 245.25 230.626 252.074 220.2 255.75 214.8 259.05 210.3 263.85 203.924 263.7 204.226 263.474 204.674" />
</g></svg>