<?xml version="1.0" ?>
<svg width="200.0" height="400.0" xmlns:gita="http://ns.gita.org/gita-ns-1.0" xmlns:f="http://ns.gita.org/feature-ns-1.0">
<title>anoto dump, pen 00000064000029fa, paper 44.0.3.8</title>
<g>
<path id="stroke_0" style="fill:none;stroke:#000000;stroke-width:1.0;" d="M27.15 278.1 26.85 278.474 26.774 278.774 26.7 278.926 26.7 278.926 26.7 278.926 26.626 278.926 26.55 278.926 26.626 279.0 26.626 279.074 26.7 279.15 26.7 279.15 26.7 279.15 26.774 279.074" />
<path id="stroke_1" style="fill:none;stroke:#000000;stroke-width:1.0;" d="M27.75 277.65 27.45 277.95 27.15 278.324 26.7 279.676 26.774 279.824 26.7 279.824 28.2 279.524 27.6 278.85 27.6 278.626 27.45 278.25 27.45 278.176 27.45 278.25 27.376 278.25 27.376 278.4" />
<path id="stroke_2" style="fill:none;stroke:#000000;stroke-width:1.0;" d="M35.476 276.9 35.324 277.2 34.574 278.85 34.5 278.85 34.424 280.05 36.074 279.376 37.35 279.224 36.45 278.626 36.376 278.55 35.626 277.35 35.55 277.274 35.55 277.2 35.55 277.05 35.55 276.974 35.55 276.974 35.476 277.2" />
<path id="stroke_3" style="fill:none;stroke:#000000;stroke-width:1.0;" d="M47.85 276.824 47.4 277.05 46.35 278.176 46.2 278.474 45.15 280.5 44.85 281.85 44.7 282.0 45.15 281.7 45.3 281.626 45.45 281.55 45.674 281.474 48.75 281.55 49.95 281.1 50.024 281.1 50.174 281.024 50.25 281.024 50.25 281.024 50.25 281.024 50.25 281.024 50.25 281.024 50.25 281.024 50.25 281.024 50.25 281.024 49.65 280.426 48.226 277.05 48.15 276.974 48.074 276.9 48.074 276.9 48.074 276.9 48.074 276.9 48.0 276.9 48.0 276.9 48.0 276.9 48.0 276.9 47.924 276.9 47.924 276.9 47.924 276.9 47.924 276.9 47.924 276.824 47.924 276.824 47.85 276.75 47.7 276.676 47.626 276.6 47.55 276.524 47.476 276.45 47.476 276.45 47.476 276.45 47.476 276.45 47.476 276.45 47.476 276.45 47.4 276.376 47.4 276.3 47.4 276.3 47.4 276.3 47.4 276.3 47.4 276.3 47.4 276.3 47.4 276.3 47.4 276.45 47.55 276.524" />
<path id="stroke_4" style="fill:none;stroke:#000000;stroke-width:1.0;" d="M68.924 275.024 68.85 275.1 68.774 275.4 66.376 280.2 65.474 282.45 65.55 282.676 76.5 281.474 77.174 281.55 77.25 281.626 72.826 276.15 71.1 274.426 71.024 274.35 70.5 274.05 70.424 273.974 70.424 273.974 70.35 273.974 70.35 273.9 70.274 273.9 70.274 273.9 70.274 273.9 70.274 273.9 70.274 273.9 70.274 273.9 70.274 273.9 70.274 273.9 70.274 273.9 70.274 273.9 70.274 273.9 70.274 273.9 70.274 273.9 70.274 273.9 70.274 273.9 70.274 273.9 70.274 273.9 70.274 273.9 70.2 273.9 70.2 273.9 70.2 273.9 70.2 273.824 70.2 273.824 70.2 273.974 70.126 273.974 70.126 273.974" />
<path id="stroke_5" style="fill:none;stroke:#000000;stroke-width:1.0;" d="M104.7 272.324 104.55 272.474 102.974 276.15 100.95 280.95 106.95 279.376 109.576 278.4 110.924 278.4 111.3 278.55 111.674 278.7 111.826 278.85 111.9 278.85 111.974 278.926 112.05 278.926 112.126 278.926 107.024 274.65 106.5 274.05 106.2 273.524 105.974 273.0 105.9 272.774 105.826 272.626 105.75 272.4 105.674 272.024 105.3 271.65 105.224 271.65 105.45 272.1" />
<path id="stroke_6" style="fill:none;stroke:#000000;stroke-width:1.0;" d="M143.55 271.274 143.55 271.426 142.574 272.85 138.6 280.426 137.324 283.724 137.85 283.35 142.2 282.824 147.224 281.474 148.276 281.55 148.35 281.474 148.35 281.55 148.35 281.55 147.75 281.1 147.526 280.724 147.224 280.126 146.626 277.65 144.824 273.824 143.924 272.024 143.924 272.176 143.924 272.25" />
<path id="stroke_7" style="fill:none;stroke:#000000;stroke-width:1.0;" d="M167.474 271.724 167.474 271.724 167.4 271.724 167.25 271.8 166.276 275.324 164.4 280.2 159.824 290.176 164.626 288.6 168.074 288.0 176.85 287.55 176.55 287.474 176.25 287.1 174.974 283.5 172.876 280.5 170.776 276.6 169.724 275.626 168.824 273.824 167.7 272.774 167.7 272.7 167.7 272.774 167.7 272.774 167.7 273.0" />
<path id="stroke_8" style="fill:none;stroke:#000000;stroke-width:1.0;" d="M194.55 272.926 194.4 272.774 194.4 272.926 193.95 276.9 190.276 287.4 186.974 295.426 186.3 299.4 199.126 297.224 202.2 297.074 210.526 298.35 209.776 297.0 208.5 292.95 204.976 286.574 203.324 284.4 199.2 280.35 197.25 277.5 195.376 273.824 194.4 272.7 194.4 272.7 194.4 272.7 194.55 273.15 195.0 273.6" />
<path id="stroke_9" style="fill:none;stroke:#000000;stroke-width:1.0;" d="M236.4 271.126 236.4 271.126 236.324 271.126 236.324 271.274 236.25 271.426 236.174 271.8 235.876 273.074 229.276 290.024 223.726 305.55 220.574 312.75 233.324 309.75 248.924 309.676 254.774 310.126 266.4 310.2 271.274 310.724 270.676 310.426 270.6 310.35 265.8 305.024 264.524 303.224 256.876 296.024 253.35 292.2 249.226 285.45 245.774 282.224 242.476 280.126 239.55 276.376 239.476 276.074 238.5 274.574 235.726 271.574 235.726 271.724 236.024 272.024 236.626 272.7" />
<path id="stroke_10" style="fill:none;stroke:#000000;stroke-width:1.0;" d="M306.75 265.126 304.876 270.524 303.75 273.3 302.4 276.376 295.574 290.324 292.126 298.35 290.474 302.55 285.75 315.3 282.75 324.974 287.4 324.15 299.176 320.926 306.45 320.25 309.974 320.25 314.774 319.5 317.926 319.426 322.724 319.95 328.274 319.95 331.126 320.25 337.724 320.024 341.85 320.55 343.274 320.474 336.75 310.35 333.15 306.524 330.676 303.074 329.7 302.25 326.774 298.574 325.426 296.474 324.824 295.574 322.724 293.25 320.7 289.724 318.9 285.224 316.65 282.0 315.75 279.224 313.574 275.85 313.05 274.5 310.35 270.6 307.876 264.974 307.274 264.824 307.274 264.9 307.35 264.9 307.724 265.2 307.876 265.426" />
<path id="stroke_11" style="fill:none;stroke:#000000;stroke-width:1.0;" d="M50.774 290.774 50.55 291.0 50.174 291.3 50.1 291.6 50.024 291.6 50.024 291.6 50.024 291.6 50.024 291.6 50.024 291.6 50.024 291.6 50.024 291.6 50.024 291.6 50.024 291.6 50.024 291.6 50.024 291.6 50.024 291.6 50.024 291.6 50.024 291.6 50.024 291.6 50.024 291.6 50.024 291.6 50.024 291.6 49.95 291.6 49.95 292.126 49.8 292.574 48.75 294.824 36.45 315.15 30.45 326.55 24.826 338.626 20.55 346.65 19.5 348.0 21.224 347.85 22.126 347.926 41.626 346.5 49.5 345.6 63.376 342.524 70.5 341.25 76.95 340.574 85.576 340.35 92.924 340.8 103.424 340.876 110.626 342.0 109.8 340.126 108.0 337.724 102.524 332.626 99.75 330.6 96.826 329.626 90.45 328.724 84.9 324.9 76.95 315.824 72.3 309.6 68.25 305.474 65.626 302.1 64.126 300.974 63.524 300.0 61.8 298.8 59.324 295.95 56.476 293.474 55.424 292.05 52.8 289.8 50.4 288.6" />
<path id="stroke_12" style="fill:none;stroke:#000000;stroke-width:1.0;" d="M170.1 305.7 170.026 305.774 168.674 309.3 155.324 337.05 153.376 340.426 150.15 347.024 142.724 362.7 130.424 391.65 126.674 399.676 125.4 401.474 125.4 401.55 125.4 401.55 125.4 401.55 125.4 401.55 125.4 401.55 126.824 400.65 133.35 399.376 148.2 398.474 153.824 398.7 171.074 398.1 183.974 399.376 189.824 400.35 205.35 403.724 210.074 404.4 220.726 404.926 228.6 406.126 237.6 406.5 245.4 407.25 250.95 407.176 260.024 405.15 262.05 405.3 262.426 405.224 262.876 405.15 263.024 405.074 263.024 405.074 263.024 405.074 263.024 405.074 261.224 403.05 259.126 401.4 253.65 396.224 250.05 393.974 246.824 390.224 244.574 388.876 243.45 387.75 240.674 385.876 235.5 380.926 228.9 373.274 223.65 364.95 217.726 354.376 214.726 350.626 210.75 346.35 205.2 341.024 201.376 338.324 195.9 336.45 193.5 334.05 183.974 322.8 181.65 319.2 176.174 312.974 172.276 307.574 170.324 305.85 170.324 305.85 170.4 305.926 170.4 305.926 170.4 305.926 170.4 305.926 170.324 305.926 170.324 306.0" />
</g></svg>
